%TF.GenerationSoftware,KiCad,Pcbnew,8.0.6*%
%TF.CreationDate,2024-12-05T21:22:41+00:00*%
%TF.ProjectId,bcm-mixer,62636d2d-6d69-4786-9572-2e6b69636164,rev01*%
%TF.SameCoordinates,Original*%
%TF.FileFunction,Profile,NP*%
%FSLAX46Y46*%
G04 Gerber Fmt 4.6, Leading zero omitted, Abs format (unit mm)*
G04 Created by KiCad (PCBNEW 8.0.6) date 2024-12-05 21:22:41*
%MOMM*%
%LPD*%
G01*
G04 APERTURE LIST*
%TA.AperFunction,Profile*%
%ADD10C,0.050000*%
%TD*%
G04 APERTURE END LIST*
D10*
X174000000Y-53500000D02*
X174000000Y-160000000D01*
X174000000Y-160000000D02*
G75*
G02*
X173000000Y-161000000I-1000000J0D01*
G01*
X173000000Y-161000000D02*
X105000000Y-161000000D01*
X105000000Y-52500000D02*
X173000000Y-52500000D01*
X102000000Y-53500000D02*
X102000000Y-65500000D01*
X101000000Y-161000000D02*
X33000000Y-161000000D01*
X104000000Y-114500000D02*
X104000000Y-125500000D01*
X104000000Y-129500000D02*
X104000000Y-140500000D01*
X32000000Y-53500000D02*
G75*
G02*
X33000000Y-52500000I1000000J0D01*
G01*
X104000000Y-53500000D02*
G75*
G02*
X105000000Y-52500000I1000000J0D01*
G01*
X33000000Y-161000000D02*
G75*
G02*
X32000000Y-160000000I0J1000000D01*
G01*
X102000000Y-99500000D02*
X102000000Y-110500000D01*
X104000000Y-99500000D02*
X104000000Y-110500000D01*
X104000000Y-84500000D02*
X104000000Y-95500000D01*
X102000000Y-84500000D02*
X102000000Y-95500000D01*
X104000000Y-69500000D02*
X104000000Y-80500000D01*
X173000000Y-52500000D02*
G75*
G02*
X174000000Y-53500000I0J-1000000D01*
G01*
X32000000Y-160000000D02*
X32000000Y-53500000D01*
X102000000Y-69500000D02*
X102000000Y-80500000D01*
X102000000Y-160000000D02*
G75*
G02*
X101000000Y-161000000I-1000000J0D01*
G01*
X104000000Y-53500000D02*
X104000000Y-65500000D01*
X101000000Y-52500000D02*
G75*
G02*
X102000000Y-53500000I0J-1000000D01*
G01*
X104000000Y-144500000D02*
X104000000Y-160000000D01*
X102000000Y-129500000D02*
X102000000Y-140500000D01*
X102000000Y-114500000D02*
X102000000Y-125500000D01*
X33000000Y-52500000D02*
X101000000Y-52500000D01*
X102000000Y-144500000D02*
X102000000Y-160000000D01*
X105000000Y-161000000D02*
G75*
G02*
X104000000Y-160000000I0J1000000D01*
G01*
%TO.C,mouse-bite-2mm-slot*%
X102000000Y-114500000D02*
G75*
G02*
X104000000Y-114500000I1000000J0D01*
G01*
X104000000Y-110500000D02*
G75*
G02*
X102000000Y-110500000I-1000000J0D01*
G01*
X102000000Y-99500000D02*
G75*
G02*
X104000000Y-99500000I1000000J0D01*
G01*
X104000000Y-95500000D02*
G75*
G02*
X102000000Y-95500000I-1000000J0D01*
G01*
X102000000Y-129500000D02*
G75*
G02*
X104000000Y-129500000I1000000J0D01*
G01*
X104000000Y-125500000D02*
G75*
G02*
X102000000Y-125500000I-1000000J0D01*
G01*
X102000000Y-144500000D02*
G75*
G02*
X104000000Y-144500000I1000000J0D01*
G01*
X104000000Y-140500000D02*
G75*
G02*
X102000000Y-140500000I-1000000J0D01*
G01*
X102000000Y-69500000D02*
G75*
G02*
X104000000Y-69500000I1000000J0D01*
G01*
X104000000Y-65500000D02*
G75*
G02*
X102000000Y-65500000I-1000000J0D01*
G01*
X102000000Y-84500000D02*
G75*
G02*
X104000000Y-84500000I1000000J0D01*
G01*
X104000000Y-80500000D02*
G75*
G02*
X102000000Y-80500000I-1000000J0D01*
G01*
%TD*%
M02*
