M48
; DRILL file {KiCad 8.0.6} date 2024-12-10T23:28:13+0000
; FORMAT={-:-/ absolute / inch / decimal}
; #@! TF.CreationDate,2024-12-10T23:28:13+00:00
; #@! TF.GenerationSoftware,Kicad,Pcbnew,8.0.6
; #@! TF.FileFunction,Plated,1,2,PTH
FMAT,2
INCH
; #@! TA.AperFunction,Plated,PTH,ComponentDrill
T1C0.0236
; #@! TA.AperFunction,Plated,PTH,ComponentDrill
T2C0.0315
; #@! TA.AperFunction,Plated,PTH,ComponentDrill
T3C0.0394
; #@! TA.AperFunction,Plated,PTH,ComponentDrill
T4C0.0433
; #@! TA.AperFunction,Plated,PTH,ComponentDrill
T5C0.0787
; #@! TA.AperFunction,Plated,PTH,ComponentDrill
T6C0.1260
%
G90
G05
T2
X4.21Y-4.9
X4.21Y-5.3
X4.21Y-5.51
X4.21Y-5.91
X4.33Y-4.9
X4.33Y-5.3
X4.33Y-5.51
X4.33Y-5.91
X4.38Y-2.965
X4.38Y-3.365
X4.48Y-4.615
X4.48Y-4.8119
X4.4802Y-4.9404
X4.4802Y-5.2404
X4.485Y-5.3681
X4.485Y-5.565
X4.5Y-2.965
X4.5Y-3.365
X4.5802Y-4.9404
X4.5802Y-5.2404
X4.6Y-4.42
X4.6Y-4.82
X4.605Y-5.36
X4.605Y-5.76
X4.62Y-2.965
X4.62Y-3.365
X4.6802Y-4.9404
X4.6802Y-5.2404
X4.78Y-4.615
X4.78Y-4.8119
X4.78Y-5.3681
X4.78Y-5.565
X4.7802Y-4.9404
X4.7802Y-5.2404
X4.8163Y-4.07
X4.8802Y-4.9404
X4.8802Y-5.2404
X4.895Y-4.07
X4.9Y-5.3681
X4.9Y-5.565
X4.9Y-5.66
X4.9Y-6.06
X4.915Y-4.42
X4.915Y-4.82
X4.94Y-2.37
X4.94Y-3.68
X4.94Y-3.8769
X4.96Y-2.9231
X4.96Y-3.12
X4.9796Y-3.2504
X4.9796Y-3.5504
X4.9802Y-4.9404
X4.9802Y-5.2404
X5.02Y-5.36
X5.02Y-5.76
X5.035Y-4.615
X5.035Y-4.8119
X5.06Y-3.67
X5.06Y-4.07
X5.0796Y-3.2504
X5.0796Y-3.5504
X5.08Y-2.5213
X5.08Y-2.6
X5.08Y-2.73
X5.08Y-3.13
X5.0802Y-4.9404
X5.0802Y-5.2404
X5.1796Y-3.2504
X5.1796Y-3.5504
X5.18Y-3.67
X5.18Y-4.07
X5.2Y-2.9231
X5.2Y-3.12
X5.2796Y-3.2504
X5.2796Y-3.5504
X5.3Y-3.68
X5.3Y-3.8769
X5.32Y-2.73
X5.32Y-3.13
X5.34Y-2.37
X5.34Y-4.89
X5.34Y-5.29
X5.59Y-4.455
X5.59Y-4.855
X5.64Y-3.67
X5.64Y-4.07
X5.66Y-2.9231
X5.66Y-3.12
X5.6796Y-3.2504
X5.6796Y-3.5504
X5.71Y-4.455
X5.71Y-4.855
X5.76Y-3.68
X5.76Y-3.8769
X5.76Y-4.18
X5.76Y-4.2587
X5.7796Y-3.2504
X5.7796Y-3.5504
X5.78Y-2.5013
X5.78Y-2.58
X5.78Y-2.73
X5.78Y-3.13
X5.83Y-4.455
X5.83Y-4.855
X5.8543Y-5.6575
X5.8543Y-5.7362
X5.8583Y-5.9134
X5.8583Y-5.9921
X5.8796Y-3.2504
X5.8796Y-3.5504
X5.88Y-3.67
X5.88Y-4.07
X5.9Y-2.9231
X5.9Y-3.12
X5.95Y-4.455
X5.95Y-4.855
X5.9796Y-3.2504
X5.9796Y-3.5504
X6.0Y-3.68
X6.0Y-3.8769
X6.02Y-2.24
X6.02Y-2.64
X6.02Y-2.73
X6.02Y-3.13
X6.24Y-4.45
X6.24Y-4.85
X6.34Y-3.67
X6.34Y-4.07
X6.36Y-2.9231
X6.36Y-3.12
X6.36Y-4.45
X6.36Y-4.85
X6.3796Y-3.2504
X6.3796Y-3.5504
X6.46Y-3.68
X6.46Y-3.8769
X6.46Y-4.18
X6.46Y-4.2587
X6.4796Y-3.2504
X6.4796Y-3.5504
X6.48Y-2.5013
X6.48Y-2.58
X6.48Y-2.73
X6.48Y-3.13
X6.48Y-4.45
X6.48Y-4.85
X6.5796Y-3.2504
X6.5796Y-3.5504
X6.58Y-3.67
X6.58Y-4.07
X6.6Y-2.9231
X6.6Y-3.12
X6.6Y-4.45
X6.6Y-4.85
X6.6796Y-3.2504
X6.6796Y-3.5504
X6.7Y-3.68
X6.7Y-3.8769
X6.72Y-2.24
X6.72Y-2.64
X6.72Y-2.73
X6.72Y-3.13
T3
X1.4075Y-6.063
X1.5075Y-6.063
X1.6075Y-6.063
X1.7075Y-6.063
X1.8075Y-6.063
X1.9075Y-6.063
X1.9882Y-2.5394
X1.9882Y-2.6394
X1.9882Y-2.7394
X1.9882Y-2.8394
X1.9882Y-2.9394
X1.9882Y-3.0394
X2.6772Y-2.5394
X2.6772Y-2.6394
X2.6772Y-2.7394
X2.6772Y-2.8394
X2.6772Y-2.9394
X2.6772Y-3.0394
X2.6772Y-3.1394
X2.6772Y-3.2394
X2.9331Y-3.2087
X2.9331Y-6.2795
X3.0315Y-3.2087
X3.0315Y-6.2795
X3.1299Y-3.2087
X3.1299Y-6.2795
X3.3661Y-2.5394
X3.3661Y-2.6394
X3.3661Y-2.7394
X3.3661Y-2.8394
X3.3661Y-2.9394
X3.3661Y-3.0394
X3.3661Y-3.1394
X3.3661Y-3.2394
X3.6024Y-3.2087
X3.6024Y-6.2795
X3.7008Y-3.2087
X3.7008Y-6.2795
X3.7992Y-3.2087
X3.7992Y-6.2795
X4.2421Y-6.063
X4.3421Y-6.063
X4.4421Y-6.063
X4.5421Y-6.063
X4.6421Y-6.063
X4.7421Y-6.063
X4.8228Y-2.5394
X4.8228Y-2.6394
X4.8228Y-2.7394
X4.8228Y-2.8394
X4.8228Y-2.9394
X4.8228Y-3.0394
X5.37Y-5.595
X5.37Y-5.695
X5.37Y-5.795
X5.37Y-5.895
X5.37Y-5.995
X5.47Y-5.595
X5.47Y-5.695
X5.47Y-5.795
X5.47Y-5.895
X5.47Y-5.995
X5.5118Y-2.5394
X5.5118Y-2.6394
X5.5118Y-2.7394
X5.5118Y-2.8394
X5.5118Y-2.9394
X5.5118Y-3.0394
X5.5118Y-3.1394
X5.5118Y-3.2394
X6.2008Y-2.5394
X6.2008Y-2.6394
X6.2008Y-2.7394
X6.2008Y-2.8394
X6.2008Y-2.9394
X6.2008Y-3.0394
X6.2008Y-3.1394
X6.2008Y-3.2394
X6.54Y-5.5859
X6.54Y-5.6859
X6.54Y-5.7859
X6.54Y-5.8859
X6.54Y-5.9859
X6.64Y-5.5859
X6.64Y-5.6859
X6.64Y-5.7859
X6.64Y-5.8859
X6.64Y-5.9859
T4
X1.4665Y-3.4449
X1.565Y-3.4449
X1.565Y-5.6102
X1.6634Y-3.4449
X1.7618Y-3.4449
X1.7618Y-5.6102
X2.2146Y-3.4449
X2.313Y-3.4449
X2.313Y-5.6102
X2.4114Y-3.4449
X2.5098Y-3.4449
X2.5098Y-5.6102
X2.8839Y-3.4449
X2.9823Y-3.4449
X2.9823Y-5.6102
X3.0807Y-3.4449
X3.1791Y-3.4449
X3.1791Y-5.6102
X3.5531Y-3.4449
X3.6516Y-3.4449
X3.6516Y-5.6102
X3.75Y-3.4449
X3.8484Y-3.4449
X3.8484Y-5.6102
X5.8543Y-5.4134
X5.87Y-6.185
X6.2543Y-5.4134
X6.27Y-6.185
T5
X1.6142Y-3.8878
X1.6142Y-5.1673
X2.3622Y-3.8878
X2.3622Y-5.1673
X3.0315Y-3.8878
X3.0315Y-5.1673
X3.7008Y-3.8878
X3.7008Y-5.1673
T6
X2.6969Y-2.252
X3.3661Y-5.6299
X5.5315Y-2.252
X6.2008Y-5.6299
T1
G00X1.6339Y-2.1685
M15
G01X1.5945Y-2.1685
M16
G05
G00X1.6339Y-2.4953
M15
G01X1.5945Y-2.4953
M16
G05
G00X1.6339Y-2.6173
M15
G01X1.5945Y-2.6173
M16
G05
G00X1.6339Y-2.7984
M15
G01X1.5945Y-2.7984
M16
G05
G00X1.6339Y-3.1252
M15
G01X1.5945Y-3.1252
M16
G05
G00X1.6339Y-3.2472
M15
G01X1.5945Y-3.2472
M16
G05
G00X2.3819Y-2.1685
M15
G01X2.3425Y-2.1685
M16
G05
G00X2.3819Y-2.4953
M15
G01X2.3425Y-2.4953
M16
G05
G00X2.3819Y-2.6173
M15
G01X2.3425Y-2.6173
M16
G05
G00X2.3819Y-2.7984
M15
G01X2.3425Y-2.7984
M16
G05
G00X2.3819Y-3.1252
M15
G01X2.3425Y-3.1252
M16
G05
G00X2.3819Y-3.2472
M15
G01X2.3425Y-3.2472
M16
G05
G00X3.0512Y-2.1685
M15
G01X3.0118Y-2.1685
M16
G05
G00X3.0512Y-2.4953
M15
G01X3.0118Y-2.4953
M16
G05
G00X3.0512Y-2.6173
M15
G01X3.0118Y-2.6173
M16
G05
G00X3.7205Y-2.1685
M15
G01X3.6811Y-2.1685
M16
G05
G00X3.7205Y-2.4953
M15
G01X3.6811Y-2.4953
M16
G05
G00X3.7205Y-2.6173
M15
G01X3.6811Y-2.6173
M16
G05
T4
G00X2.8425Y-2.8996
M15
G01X2.8425Y-2.9272
M16
G05
G00X2.8425Y-5.9705
M15
G01X2.8425Y-5.998
M16
G05
G00X3.2205Y-2.8996
M15
G01X3.2205Y-2.9272
M16
G05
G00X3.2205Y-5.9705
M15
G01X3.2205Y-5.998
M16
G05
G00X3.5118Y-2.8996
M15
G01X3.5118Y-2.9272
M16
G05
G00X3.5118Y-5.9705
M15
G01X3.5118Y-5.998
M16
G05
G00X3.8898Y-2.8996
M15
G01X3.8898Y-2.9272
M16
G05
G00X3.8898Y-5.9705
M15
G01X3.8898Y-5.998
M16
G05
M30
