%TF.GenerationSoftware,KiCad,Pcbnew,8.0.6*%
%TF.CreationDate,2024-12-10T23:28:09+00:00*%
%TF.ProjectId,bcm-mixer,62636d2d-6d69-4786-9572-2e6b69636164,rev01*%
%TF.SameCoordinates,Original*%
%TF.FileFunction,Legend,Bot*%
%TF.FilePolarity,Positive*%
%FSLAX46Y46*%
G04 Gerber Fmt 4.6, Leading zero omitted, Abs format (unit mm)*
G04 Created by KiCad (PCBNEW 8.0.6) date 2024-12-10 23:28:09*
%MOMM*%
%LPD*%
G01*
G04 APERTURE LIST*
%ADD10C,0.150000*%
%ADD11C,0.100000*%
%ADD12C,0.200000*%
%ADD13C,0.120000*%
G04 APERTURE END LIST*
D10*
X49869819Y-103693922D02*
X49869819Y-104265350D01*
X50869819Y-103979636D02*
X49869819Y-103979636D01*
X50869819Y-104598684D02*
X49869819Y-104598684D01*
X50346009Y-104598684D02*
X50346009Y-105170112D01*
X50869819Y-105170112D02*
X49869819Y-105170112D01*
X50869819Y-105646303D02*
X49869819Y-105646303D01*
X50822200Y-106074874D02*
X50869819Y-106217731D01*
X50869819Y-106217731D02*
X50869819Y-106455826D01*
X50869819Y-106455826D02*
X50822200Y-106551064D01*
X50822200Y-106551064D02*
X50774580Y-106598683D01*
X50774580Y-106598683D02*
X50679342Y-106646302D01*
X50679342Y-106646302D02*
X50584104Y-106646302D01*
X50584104Y-106646302D02*
X50488866Y-106598683D01*
X50488866Y-106598683D02*
X50441247Y-106551064D01*
X50441247Y-106551064D02*
X50393628Y-106455826D01*
X50393628Y-106455826D02*
X50346009Y-106265350D01*
X50346009Y-106265350D02*
X50298390Y-106170112D01*
X50298390Y-106170112D02*
X50250771Y-106122493D01*
X50250771Y-106122493D02*
X50155533Y-106074874D01*
X50155533Y-106074874D02*
X50060295Y-106074874D01*
X50060295Y-106074874D02*
X49965057Y-106122493D01*
X49965057Y-106122493D02*
X49917438Y-106170112D01*
X49917438Y-106170112D02*
X49869819Y-106265350D01*
X49869819Y-106265350D02*
X49869819Y-106503445D01*
X49869819Y-106503445D02*
X49917438Y-106646302D01*
X50822200Y-107789160D02*
X50869819Y-107932017D01*
X50869819Y-107932017D02*
X50869819Y-108170112D01*
X50869819Y-108170112D02*
X50822200Y-108265350D01*
X50822200Y-108265350D02*
X50774580Y-108312969D01*
X50774580Y-108312969D02*
X50679342Y-108360588D01*
X50679342Y-108360588D02*
X50584104Y-108360588D01*
X50584104Y-108360588D02*
X50488866Y-108312969D01*
X50488866Y-108312969D02*
X50441247Y-108265350D01*
X50441247Y-108265350D02*
X50393628Y-108170112D01*
X50393628Y-108170112D02*
X50346009Y-107979636D01*
X50346009Y-107979636D02*
X50298390Y-107884398D01*
X50298390Y-107884398D02*
X50250771Y-107836779D01*
X50250771Y-107836779D02*
X50155533Y-107789160D01*
X50155533Y-107789160D02*
X50060295Y-107789160D01*
X50060295Y-107789160D02*
X49965057Y-107836779D01*
X49965057Y-107836779D02*
X49917438Y-107884398D01*
X49917438Y-107884398D02*
X49869819Y-107979636D01*
X49869819Y-107979636D02*
X49869819Y-108217731D01*
X49869819Y-108217731D02*
X49917438Y-108360588D01*
X50869819Y-108789160D02*
X49869819Y-108789160D01*
X50869819Y-109265350D02*
X49869819Y-109265350D01*
X49869819Y-109265350D02*
X49869819Y-109503445D01*
X49869819Y-109503445D02*
X49917438Y-109646302D01*
X49917438Y-109646302D02*
X50012676Y-109741540D01*
X50012676Y-109741540D02*
X50107914Y-109789159D01*
X50107914Y-109789159D02*
X50298390Y-109836778D01*
X50298390Y-109836778D02*
X50441247Y-109836778D01*
X50441247Y-109836778D02*
X50631723Y-109789159D01*
X50631723Y-109789159D02*
X50726961Y-109741540D01*
X50726961Y-109741540D02*
X50822200Y-109646302D01*
X50822200Y-109646302D02*
X50869819Y-109503445D01*
X50869819Y-109503445D02*
X50869819Y-109265350D01*
X50346009Y-110265350D02*
X50346009Y-110598683D01*
X50869819Y-110741540D02*
X50869819Y-110265350D01*
X50869819Y-110265350D02*
X49869819Y-110265350D01*
X49869819Y-110265350D02*
X49869819Y-110741540D01*
X49869819Y-111789160D02*
X49869819Y-112360588D01*
X50869819Y-112074874D02*
X49869819Y-112074874D01*
X49869819Y-112884398D02*
X49869819Y-113074874D01*
X49869819Y-113074874D02*
X49917438Y-113170112D01*
X49917438Y-113170112D02*
X50012676Y-113265350D01*
X50012676Y-113265350D02*
X50203152Y-113312969D01*
X50203152Y-113312969D02*
X50536485Y-113312969D01*
X50536485Y-113312969D02*
X50726961Y-113265350D01*
X50726961Y-113265350D02*
X50822200Y-113170112D01*
X50822200Y-113170112D02*
X50869819Y-113074874D01*
X50869819Y-113074874D02*
X50869819Y-112884398D01*
X50869819Y-112884398D02*
X50822200Y-112789160D01*
X50822200Y-112789160D02*
X50726961Y-112693922D01*
X50726961Y-112693922D02*
X50536485Y-112646303D01*
X50536485Y-112646303D02*
X50203152Y-112646303D01*
X50203152Y-112646303D02*
X50012676Y-112693922D01*
X50012676Y-112693922D02*
X49917438Y-112789160D01*
X49917438Y-112789160D02*
X49869819Y-112884398D01*
X50869819Y-114503446D02*
X49869819Y-114503446D01*
X49869819Y-114503446D02*
X49869819Y-114884398D01*
X49869819Y-114884398D02*
X49917438Y-114979636D01*
X49917438Y-114979636D02*
X49965057Y-115027255D01*
X49965057Y-115027255D02*
X50060295Y-115074874D01*
X50060295Y-115074874D02*
X50203152Y-115074874D01*
X50203152Y-115074874D02*
X50298390Y-115027255D01*
X50298390Y-115027255D02*
X50346009Y-114979636D01*
X50346009Y-114979636D02*
X50393628Y-114884398D01*
X50393628Y-114884398D02*
X50393628Y-114503446D01*
X50584104Y-115455827D02*
X50584104Y-115932017D01*
X50869819Y-115360589D02*
X49869819Y-115693922D01*
X49869819Y-115693922D02*
X50869819Y-116027255D01*
X50869819Y-116360589D02*
X49869819Y-116360589D01*
X49869819Y-116360589D02*
X50869819Y-116932017D01*
X50869819Y-116932017D02*
X49869819Y-116932017D01*
X50346009Y-117408208D02*
X50346009Y-117741541D01*
X50869819Y-117884398D02*
X50869819Y-117408208D01*
X50869819Y-117408208D02*
X49869819Y-117408208D01*
X49869819Y-117408208D02*
X49869819Y-117884398D01*
X50869819Y-118789160D02*
X50869819Y-118312970D01*
X50869819Y-118312970D02*
X49869819Y-118312970D01*
D11*
X94595238Y-114957419D02*
X94928571Y-114481228D01*
X95166666Y-114957419D02*
X95166666Y-113957419D01*
X95166666Y-113957419D02*
X94785714Y-113957419D01*
X94785714Y-113957419D02*
X94690476Y-114005038D01*
X94690476Y-114005038D02*
X94642857Y-114052657D01*
X94642857Y-114052657D02*
X94595238Y-114147895D01*
X94595238Y-114147895D02*
X94595238Y-114290752D01*
X94595238Y-114290752D02*
X94642857Y-114385990D01*
X94642857Y-114385990D02*
X94690476Y-114433609D01*
X94690476Y-114433609D02*
X94785714Y-114481228D01*
X94785714Y-114481228D02*
X95166666Y-114481228D01*
X94309523Y-113957419D02*
X93976190Y-114957419D01*
X93976190Y-114957419D02*
X93642857Y-113957419D01*
X93404761Y-113957419D02*
X92785714Y-113957419D01*
X92785714Y-113957419D02*
X93119047Y-114338371D01*
X93119047Y-114338371D02*
X92976190Y-114338371D01*
X92976190Y-114338371D02*
X92880952Y-114385990D01*
X92880952Y-114385990D02*
X92833333Y-114433609D01*
X92833333Y-114433609D02*
X92785714Y-114528847D01*
X92785714Y-114528847D02*
X92785714Y-114766942D01*
X92785714Y-114766942D02*
X92833333Y-114862180D01*
X92833333Y-114862180D02*
X92880952Y-114909800D01*
X92880952Y-114909800D02*
X92976190Y-114957419D01*
X92976190Y-114957419D02*
X93261904Y-114957419D01*
X93261904Y-114957419D02*
X93357142Y-114909800D01*
X93357142Y-114909800D02*
X93404761Y-114862180D01*
X77595238Y-114957419D02*
X77928571Y-114481228D01*
X78166666Y-114957419D02*
X78166666Y-113957419D01*
X78166666Y-113957419D02*
X77785714Y-113957419D01*
X77785714Y-113957419D02*
X77690476Y-114005038D01*
X77690476Y-114005038D02*
X77642857Y-114052657D01*
X77642857Y-114052657D02*
X77595238Y-114147895D01*
X77595238Y-114147895D02*
X77595238Y-114290752D01*
X77595238Y-114290752D02*
X77642857Y-114385990D01*
X77642857Y-114385990D02*
X77690476Y-114433609D01*
X77690476Y-114433609D02*
X77785714Y-114481228D01*
X77785714Y-114481228D02*
X78166666Y-114481228D01*
X77309523Y-113957419D02*
X76976190Y-114957419D01*
X76976190Y-114957419D02*
X76642857Y-113957419D01*
X75880952Y-113957419D02*
X76071428Y-113957419D01*
X76071428Y-113957419D02*
X76166666Y-114005038D01*
X76166666Y-114005038D02*
X76214285Y-114052657D01*
X76214285Y-114052657D02*
X76309523Y-114195514D01*
X76309523Y-114195514D02*
X76357142Y-114385990D01*
X76357142Y-114385990D02*
X76357142Y-114766942D01*
X76357142Y-114766942D02*
X76309523Y-114862180D01*
X76309523Y-114862180D02*
X76261904Y-114909800D01*
X76261904Y-114909800D02*
X76166666Y-114957419D01*
X76166666Y-114957419D02*
X75976190Y-114957419D01*
X75976190Y-114957419D02*
X75880952Y-114909800D01*
X75880952Y-114909800D02*
X75833333Y-114862180D01*
X75833333Y-114862180D02*
X75785714Y-114766942D01*
X75785714Y-114766942D02*
X75785714Y-114528847D01*
X75785714Y-114528847D02*
X75833333Y-114433609D01*
X75833333Y-114433609D02*
X75880952Y-114385990D01*
X75880952Y-114385990D02*
X75976190Y-114338371D01*
X75976190Y-114338371D02*
X76166666Y-114338371D01*
X76166666Y-114338371D02*
X76261904Y-114385990D01*
X76261904Y-114385990D02*
X76309523Y-114433609D01*
X76309523Y-114433609D02*
X76357142Y-114528847D01*
D10*
X43833333Y-68654819D02*
X43833333Y-69369104D01*
X43833333Y-69369104D02*
X43880952Y-69511961D01*
X43880952Y-69511961D02*
X43976190Y-69607200D01*
X43976190Y-69607200D02*
X44119047Y-69654819D01*
X44119047Y-69654819D02*
X44214285Y-69654819D01*
X43404761Y-68750057D02*
X43357142Y-68702438D01*
X43357142Y-68702438D02*
X43261904Y-68654819D01*
X43261904Y-68654819D02*
X43023809Y-68654819D01*
X43023809Y-68654819D02*
X42928571Y-68702438D01*
X42928571Y-68702438D02*
X42880952Y-68750057D01*
X42880952Y-68750057D02*
X42833333Y-68845295D01*
X42833333Y-68845295D02*
X42833333Y-68940533D01*
X42833333Y-68940533D02*
X42880952Y-69083390D01*
X42880952Y-69083390D02*
X43452380Y-69654819D01*
X43452380Y-69654819D02*
X42833333Y-69654819D01*
X62833333Y-68654819D02*
X62833333Y-69369104D01*
X62833333Y-69369104D02*
X62880952Y-69511961D01*
X62880952Y-69511961D02*
X62976190Y-69607200D01*
X62976190Y-69607200D02*
X63119047Y-69654819D01*
X63119047Y-69654819D02*
X63214285Y-69654819D01*
X61880952Y-68654819D02*
X62357142Y-68654819D01*
X62357142Y-68654819D02*
X62404761Y-69131009D01*
X62404761Y-69131009D02*
X62357142Y-69083390D01*
X62357142Y-69083390D02*
X62261904Y-69035771D01*
X62261904Y-69035771D02*
X62023809Y-69035771D01*
X62023809Y-69035771D02*
X61928571Y-69083390D01*
X61928571Y-69083390D02*
X61880952Y-69131009D01*
X61880952Y-69131009D02*
X61833333Y-69226247D01*
X61833333Y-69226247D02*
X61833333Y-69464342D01*
X61833333Y-69464342D02*
X61880952Y-69559580D01*
X61880952Y-69559580D02*
X61928571Y-69607200D01*
X61928571Y-69607200D02*
X62023809Y-69654819D01*
X62023809Y-69654819D02*
X62261904Y-69654819D01*
X62261904Y-69654819D02*
X62357142Y-69607200D01*
X62357142Y-69607200D02*
X62404761Y-69559580D01*
X90150238Y-146739819D02*
X90483571Y-146263628D01*
X90721666Y-146739819D02*
X90721666Y-145739819D01*
X90721666Y-145739819D02*
X90340714Y-145739819D01*
X90340714Y-145739819D02*
X90245476Y-145787438D01*
X90245476Y-145787438D02*
X90197857Y-145835057D01*
X90197857Y-145835057D02*
X90150238Y-145930295D01*
X90150238Y-145930295D02*
X90150238Y-146073152D01*
X90150238Y-146073152D02*
X90197857Y-146168390D01*
X90197857Y-146168390D02*
X90245476Y-146216009D01*
X90245476Y-146216009D02*
X90340714Y-146263628D01*
X90340714Y-146263628D02*
X90721666Y-146263628D01*
X89864523Y-145739819D02*
X89531190Y-146739819D01*
X89531190Y-146739819D02*
X89197857Y-145739819D01*
X88816904Y-146739819D02*
X88626428Y-146739819D01*
X88626428Y-146739819D02*
X88531190Y-146692200D01*
X88531190Y-146692200D02*
X88483571Y-146644580D01*
X88483571Y-146644580D02*
X88388333Y-146501723D01*
X88388333Y-146501723D02*
X88340714Y-146311247D01*
X88340714Y-146311247D02*
X88340714Y-145930295D01*
X88340714Y-145930295D02*
X88388333Y-145835057D01*
X88388333Y-145835057D02*
X88435952Y-145787438D01*
X88435952Y-145787438D02*
X88531190Y-145739819D01*
X88531190Y-145739819D02*
X88721666Y-145739819D01*
X88721666Y-145739819D02*
X88816904Y-145787438D01*
X88816904Y-145787438D02*
X88864523Y-145835057D01*
X88864523Y-145835057D02*
X88912142Y-145930295D01*
X88912142Y-145930295D02*
X88912142Y-146168390D01*
X88912142Y-146168390D02*
X88864523Y-146263628D01*
X88864523Y-146263628D02*
X88816904Y-146311247D01*
X88816904Y-146311247D02*
X88721666Y-146358866D01*
X88721666Y-146358866D02*
X88531190Y-146358866D01*
X88531190Y-146358866D02*
X88435952Y-146311247D01*
X88435952Y-146311247D02*
X88388333Y-146263628D01*
X88388333Y-146263628D02*
X88340714Y-146168390D01*
X158309523Y-61624819D02*
X158309523Y-62339104D01*
X158309523Y-62339104D02*
X158357142Y-62481961D01*
X158357142Y-62481961D02*
X158452380Y-62577200D01*
X158452380Y-62577200D02*
X158595237Y-62624819D01*
X158595237Y-62624819D02*
X158690475Y-62624819D01*
X157309523Y-62624819D02*
X157880951Y-62624819D01*
X157595237Y-62624819D02*
X157595237Y-61624819D01*
X157595237Y-61624819D02*
X157690475Y-61767676D01*
X157690475Y-61767676D02*
X157785713Y-61862914D01*
X157785713Y-61862914D02*
X157880951Y-61910533D01*
X156690475Y-61624819D02*
X156595237Y-61624819D01*
X156595237Y-61624819D02*
X156499999Y-61672438D01*
X156499999Y-61672438D02*
X156452380Y-61720057D01*
X156452380Y-61720057D02*
X156404761Y-61815295D01*
X156404761Y-61815295D02*
X156357142Y-62005771D01*
X156357142Y-62005771D02*
X156357142Y-62243866D01*
X156357142Y-62243866D02*
X156404761Y-62434342D01*
X156404761Y-62434342D02*
X156452380Y-62529580D01*
X156452380Y-62529580D02*
X156499999Y-62577200D01*
X156499999Y-62577200D02*
X156595237Y-62624819D01*
X156595237Y-62624819D02*
X156690475Y-62624819D01*
X156690475Y-62624819D02*
X156785713Y-62577200D01*
X156785713Y-62577200D02*
X156833332Y-62529580D01*
X156833332Y-62529580D02*
X156880951Y-62434342D01*
X156880951Y-62434342D02*
X156928570Y-62243866D01*
X156928570Y-62243866D02*
X156928570Y-62005771D01*
X156928570Y-62005771D02*
X156880951Y-61815295D01*
X156880951Y-61815295D02*
X156833332Y-61720057D01*
X156833332Y-61720057D02*
X156785713Y-61672438D01*
X156785713Y-61672438D02*
X156690475Y-61624819D01*
X79833333Y-52654819D02*
X79833333Y-53369104D01*
X79833333Y-53369104D02*
X79880952Y-53511961D01*
X79880952Y-53511961D02*
X79976190Y-53607200D01*
X79976190Y-53607200D02*
X80119047Y-53654819D01*
X80119047Y-53654819D02*
X80214285Y-53654819D01*
X79452380Y-52654819D02*
X78785714Y-52654819D01*
X78785714Y-52654819D02*
X79214285Y-53654819D01*
X62833333Y-52654819D02*
X62833333Y-53369104D01*
X62833333Y-53369104D02*
X62880952Y-53511961D01*
X62880952Y-53511961D02*
X62976190Y-53607200D01*
X62976190Y-53607200D02*
X63119047Y-53654819D01*
X63119047Y-53654819D02*
X63214285Y-53654819D01*
X61928571Y-52988152D02*
X61928571Y-53654819D01*
X62166666Y-52607200D02*
X62404761Y-53321485D01*
X62404761Y-53321485D02*
X61785714Y-53321485D01*
X73150238Y-68739819D02*
X73483571Y-68263628D01*
X73721666Y-68739819D02*
X73721666Y-67739819D01*
X73721666Y-67739819D02*
X73340714Y-67739819D01*
X73340714Y-67739819D02*
X73245476Y-67787438D01*
X73245476Y-67787438D02*
X73197857Y-67835057D01*
X73197857Y-67835057D02*
X73150238Y-67930295D01*
X73150238Y-67930295D02*
X73150238Y-68073152D01*
X73150238Y-68073152D02*
X73197857Y-68168390D01*
X73197857Y-68168390D02*
X73245476Y-68216009D01*
X73245476Y-68216009D02*
X73340714Y-68263628D01*
X73340714Y-68263628D02*
X73721666Y-68263628D01*
X72864523Y-67739819D02*
X72531190Y-68739819D01*
X72531190Y-68739819D02*
X72197857Y-67739819D01*
X71388333Y-67739819D02*
X71864523Y-67739819D01*
X71864523Y-67739819D02*
X71912142Y-68216009D01*
X71912142Y-68216009D02*
X71864523Y-68168390D01*
X71864523Y-68168390D02*
X71769285Y-68120771D01*
X71769285Y-68120771D02*
X71531190Y-68120771D01*
X71531190Y-68120771D02*
X71435952Y-68168390D01*
X71435952Y-68168390D02*
X71388333Y-68216009D01*
X71388333Y-68216009D02*
X71340714Y-68311247D01*
X71340714Y-68311247D02*
X71340714Y-68549342D01*
X71340714Y-68549342D02*
X71388333Y-68644580D01*
X71388333Y-68644580D02*
X71435952Y-68692200D01*
X71435952Y-68692200D02*
X71531190Y-68739819D01*
X71531190Y-68739819D02*
X71769285Y-68739819D01*
X71769285Y-68739819D02*
X71864523Y-68692200D01*
X71864523Y-68692200D02*
X71912142Y-68644580D01*
X43833333Y-52654819D02*
X43833333Y-53369104D01*
X43833333Y-53369104D02*
X43880952Y-53511961D01*
X43880952Y-53511961D02*
X43976190Y-53607200D01*
X43976190Y-53607200D02*
X44119047Y-53654819D01*
X44119047Y-53654819D02*
X44214285Y-53654819D01*
X42833333Y-53654819D02*
X43404761Y-53654819D01*
X43119047Y-53654819D02*
X43119047Y-52654819D01*
X43119047Y-52654819D02*
X43214285Y-52797676D01*
X43214285Y-52797676D02*
X43309523Y-52892914D01*
X43309523Y-52892914D02*
X43404761Y-52940533D01*
D11*
X41595238Y-114957419D02*
X41928571Y-114481228D01*
X42166666Y-114957419D02*
X42166666Y-113957419D01*
X42166666Y-113957419D02*
X41785714Y-113957419D01*
X41785714Y-113957419D02*
X41690476Y-114005038D01*
X41690476Y-114005038D02*
X41642857Y-114052657D01*
X41642857Y-114052657D02*
X41595238Y-114147895D01*
X41595238Y-114147895D02*
X41595238Y-114290752D01*
X41595238Y-114290752D02*
X41642857Y-114385990D01*
X41642857Y-114385990D02*
X41690476Y-114433609D01*
X41690476Y-114433609D02*
X41785714Y-114481228D01*
X41785714Y-114481228D02*
X42166666Y-114481228D01*
X41309523Y-113957419D02*
X40976190Y-114957419D01*
X40976190Y-114957419D02*
X40642857Y-113957419D01*
X39785714Y-114957419D02*
X40357142Y-114957419D01*
X40071428Y-114957419D02*
X40071428Y-113957419D01*
X40071428Y-113957419D02*
X40166666Y-114100276D01*
X40166666Y-114100276D02*
X40261904Y-114195514D01*
X40261904Y-114195514D02*
X40357142Y-114243133D01*
D10*
X96833333Y-52654819D02*
X96833333Y-53369104D01*
X96833333Y-53369104D02*
X96880952Y-53511961D01*
X96880952Y-53511961D02*
X96976190Y-53607200D01*
X96976190Y-53607200D02*
X97119047Y-53654819D01*
X97119047Y-53654819D02*
X97214285Y-53654819D01*
X96452380Y-52654819D02*
X95833333Y-52654819D01*
X95833333Y-52654819D02*
X96166666Y-53035771D01*
X96166666Y-53035771D02*
X96023809Y-53035771D01*
X96023809Y-53035771D02*
X95928571Y-53083390D01*
X95928571Y-53083390D02*
X95880952Y-53131009D01*
X95880952Y-53131009D02*
X95833333Y-53226247D01*
X95833333Y-53226247D02*
X95833333Y-53464342D01*
X95833333Y-53464342D02*
X95880952Y-53559580D01*
X95880952Y-53559580D02*
X95928571Y-53607200D01*
X95928571Y-53607200D02*
X96023809Y-53654819D01*
X96023809Y-53654819D02*
X96309523Y-53654819D01*
X96309523Y-53654819D02*
X96404761Y-53607200D01*
X96404761Y-53607200D02*
X96452380Y-53559580D01*
X123309523Y-61624819D02*
X123309523Y-62339104D01*
X123309523Y-62339104D02*
X123357142Y-62481961D01*
X123357142Y-62481961D02*
X123452380Y-62577200D01*
X123452380Y-62577200D02*
X123595237Y-62624819D01*
X123595237Y-62624819D02*
X123690475Y-62624819D01*
X122309523Y-62624819D02*
X122880951Y-62624819D01*
X122595237Y-62624819D02*
X122595237Y-61624819D01*
X122595237Y-61624819D02*
X122690475Y-61767676D01*
X122690475Y-61767676D02*
X122785713Y-61862914D01*
X122785713Y-61862914D02*
X122880951Y-61910533D01*
X121452380Y-61958152D02*
X121452380Y-62624819D01*
X121690475Y-61577200D02*
X121928570Y-62291485D01*
X121928570Y-62291485D02*
X121309523Y-62291485D01*
X73626428Y-146739819D02*
X73959761Y-146263628D01*
X74197856Y-146739819D02*
X74197856Y-145739819D01*
X74197856Y-145739819D02*
X73816904Y-145739819D01*
X73816904Y-145739819D02*
X73721666Y-145787438D01*
X73721666Y-145787438D02*
X73674047Y-145835057D01*
X73674047Y-145835057D02*
X73626428Y-145930295D01*
X73626428Y-145930295D02*
X73626428Y-146073152D01*
X73626428Y-146073152D02*
X73674047Y-146168390D01*
X73674047Y-146168390D02*
X73721666Y-146216009D01*
X73721666Y-146216009D02*
X73816904Y-146263628D01*
X73816904Y-146263628D02*
X74197856Y-146263628D01*
X73340713Y-145739819D02*
X73007380Y-146739819D01*
X73007380Y-146739819D02*
X72674047Y-145739819D01*
X71816904Y-146739819D02*
X72388332Y-146739819D01*
X72102618Y-146739819D02*
X72102618Y-145739819D01*
X72102618Y-145739819D02*
X72197856Y-145882676D01*
X72197856Y-145882676D02*
X72293094Y-145977914D01*
X72293094Y-145977914D02*
X72388332Y-146025533D01*
X71197856Y-145739819D02*
X71102618Y-145739819D01*
X71102618Y-145739819D02*
X71007380Y-145787438D01*
X71007380Y-145787438D02*
X70959761Y-145835057D01*
X70959761Y-145835057D02*
X70912142Y-145930295D01*
X70912142Y-145930295D02*
X70864523Y-146120771D01*
X70864523Y-146120771D02*
X70864523Y-146358866D01*
X70864523Y-146358866D02*
X70912142Y-146549342D01*
X70912142Y-146549342D02*
X70959761Y-146644580D01*
X70959761Y-146644580D02*
X71007380Y-146692200D01*
X71007380Y-146692200D02*
X71102618Y-146739819D01*
X71102618Y-146739819D02*
X71197856Y-146739819D01*
X71197856Y-146739819D02*
X71293094Y-146692200D01*
X71293094Y-146692200D02*
X71340713Y-146644580D01*
X71340713Y-146644580D02*
X71388332Y-146549342D01*
X71388332Y-146549342D02*
X71435951Y-146358866D01*
X71435951Y-146358866D02*
X71435951Y-146120771D01*
X71435951Y-146120771D02*
X71388332Y-145930295D01*
X71388332Y-145930295D02*
X71340713Y-145835057D01*
X71340713Y-145835057D02*
X71293094Y-145787438D01*
X71293094Y-145787438D02*
X71197856Y-145739819D01*
X90150238Y-68739819D02*
X90483571Y-68263628D01*
X90721666Y-68739819D02*
X90721666Y-67739819D01*
X90721666Y-67739819D02*
X90340714Y-67739819D01*
X90340714Y-67739819D02*
X90245476Y-67787438D01*
X90245476Y-67787438D02*
X90197857Y-67835057D01*
X90197857Y-67835057D02*
X90150238Y-67930295D01*
X90150238Y-67930295D02*
X90150238Y-68073152D01*
X90150238Y-68073152D02*
X90197857Y-68168390D01*
X90197857Y-68168390D02*
X90245476Y-68216009D01*
X90245476Y-68216009D02*
X90340714Y-68263628D01*
X90340714Y-68263628D02*
X90721666Y-68263628D01*
X89864523Y-67739819D02*
X89531190Y-68739819D01*
X89531190Y-68739819D02*
X89197857Y-67739819D01*
X88912142Y-67835057D02*
X88864523Y-67787438D01*
X88864523Y-67787438D02*
X88769285Y-67739819D01*
X88769285Y-67739819D02*
X88531190Y-67739819D01*
X88531190Y-67739819D02*
X88435952Y-67787438D01*
X88435952Y-67787438D02*
X88388333Y-67835057D01*
X88388333Y-67835057D02*
X88340714Y-67930295D01*
X88340714Y-67930295D02*
X88340714Y-68025533D01*
X88340714Y-68025533D02*
X88388333Y-68168390D01*
X88388333Y-68168390D02*
X88959761Y-68739819D01*
X88959761Y-68739819D02*
X88340714Y-68739819D01*
D11*
X60595238Y-114957419D02*
X60928571Y-114481228D01*
X61166666Y-114957419D02*
X61166666Y-113957419D01*
X61166666Y-113957419D02*
X60785714Y-113957419D01*
X60785714Y-113957419D02*
X60690476Y-114005038D01*
X60690476Y-114005038D02*
X60642857Y-114052657D01*
X60642857Y-114052657D02*
X60595238Y-114147895D01*
X60595238Y-114147895D02*
X60595238Y-114290752D01*
X60595238Y-114290752D02*
X60642857Y-114385990D01*
X60642857Y-114385990D02*
X60690476Y-114433609D01*
X60690476Y-114433609D02*
X60785714Y-114481228D01*
X60785714Y-114481228D02*
X61166666Y-114481228D01*
X60309523Y-113957419D02*
X59976190Y-114957419D01*
X59976190Y-114957419D02*
X59642857Y-113957419D01*
X58880952Y-114290752D02*
X58880952Y-114957419D01*
X59119047Y-113909800D02*
X59357142Y-114624085D01*
X59357142Y-114624085D02*
X58738095Y-114624085D01*
D10*
X104874819Y-153190476D02*
X105589104Y-153190476D01*
X105589104Y-153190476D02*
X105731961Y-153142857D01*
X105731961Y-153142857D02*
X105827200Y-153047619D01*
X105827200Y-153047619D02*
X105874819Y-152904762D01*
X105874819Y-152904762D02*
X105874819Y-152809524D01*
X105874819Y-154190476D02*
X105874819Y-153619048D01*
X105874819Y-153904762D02*
X104874819Y-153904762D01*
X104874819Y-153904762D02*
X105017676Y-153809524D01*
X105017676Y-153809524D02*
X105112914Y-153714286D01*
X105112914Y-153714286D02*
X105160533Y-153619048D01*
X104874819Y-154523810D02*
X104874819Y-155190476D01*
X104874819Y-155190476D02*
X105874819Y-154761905D01*
X140809523Y-61624819D02*
X140809523Y-62339104D01*
X140809523Y-62339104D02*
X140857142Y-62481961D01*
X140857142Y-62481961D02*
X140952380Y-62577200D01*
X140952380Y-62577200D02*
X141095237Y-62624819D01*
X141095237Y-62624819D02*
X141190475Y-62624819D01*
X139809523Y-62624819D02*
X140380951Y-62624819D01*
X140095237Y-62624819D02*
X140095237Y-61624819D01*
X140095237Y-61624819D02*
X140190475Y-61767676D01*
X140190475Y-61767676D02*
X140285713Y-61862914D01*
X140285713Y-61862914D02*
X140380951Y-61910533D01*
X139476189Y-61624819D02*
X138857142Y-61624819D01*
X138857142Y-61624819D02*
X139190475Y-62005771D01*
X139190475Y-62005771D02*
X139047618Y-62005771D01*
X139047618Y-62005771D02*
X138952380Y-62053390D01*
X138952380Y-62053390D02*
X138904761Y-62101009D01*
X138904761Y-62101009D02*
X138857142Y-62196247D01*
X138857142Y-62196247D02*
X138857142Y-62434342D01*
X138857142Y-62434342D02*
X138904761Y-62529580D01*
X138904761Y-62529580D02*
X138952380Y-62577200D01*
X138952380Y-62577200D02*
X139047618Y-62624819D01*
X139047618Y-62624819D02*
X139333332Y-62624819D01*
X139333332Y-62624819D02*
X139428570Y-62577200D01*
X139428570Y-62577200D02*
X139476189Y-62529580D01*
D11*
%TO.C,RV3*%
X89500000Y-85000000D02*
X98500000Y-85000000D01*
X89500000Y-86700000D02*
X89500000Y-85000000D01*
X89500000Y-145000000D02*
X89500000Y-88300000D01*
X98500000Y-86700000D02*
X98500000Y-85000000D01*
X98500000Y-88300000D02*
X98500000Y-141700000D01*
X98500000Y-145000000D02*
X89500000Y-145000000D01*
X98500000Y-145000000D02*
X98500000Y-143300000D01*
%TO.C,RV6*%
X72500000Y-85000000D02*
X81500000Y-85000000D01*
X72500000Y-86700000D02*
X72500000Y-85000000D01*
X72500000Y-145000000D02*
X72500000Y-88300000D01*
X81500000Y-86700000D02*
X81500000Y-85000000D01*
X81500000Y-88300000D02*
X81500000Y-141700000D01*
X81500000Y-145000000D02*
X72500000Y-145000000D01*
X81500000Y-145000000D02*
X81500000Y-143300000D01*
D12*
%TO.C,J2*%
X36500000Y-70000000D02*
X36500000Y-80500000D01*
X36500000Y-70000000D02*
X39400000Y-70000000D01*
X36500000Y-80500000D02*
X39500000Y-80500000D01*
X42500000Y-80500000D02*
X45500000Y-80500000D01*
X42600000Y-70000000D02*
X45500000Y-70000000D01*
X45500000Y-70000000D02*
X45500000Y-80500000D01*
D13*
X39603000Y-78539999D02*
G75*
G02*
X42397000Y-78539999I1397000J2539999D01*
G01*
X42800000Y-76000000D02*
G75*
G02*
X39200000Y-76000000I-1800000J0D01*
G01*
X39200000Y-76000000D02*
G75*
G02*
X42800000Y-76000000I1800000J0D01*
G01*
D12*
%TO.C,J5*%
X55500000Y-70000000D02*
X55500000Y-80500000D01*
X55500000Y-70000000D02*
X58400000Y-70000000D01*
X55500000Y-80500000D02*
X58500000Y-80500000D01*
X61500000Y-80500000D02*
X64500000Y-80500000D01*
X61600000Y-70000000D02*
X64500000Y-70000000D01*
X64500000Y-70000000D02*
X64500000Y-80500000D01*
D13*
X58603000Y-78539999D02*
G75*
G02*
X61397000Y-78539999I1397000J2539999D01*
G01*
X61800000Y-76000000D02*
G75*
G02*
X58200000Y-76000000I-1800000J0D01*
G01*
X58200000Y-76000000D02*
G75*
G02*
X61800000Y-76000000I1800000J0D01*
G01*
%TO.C,RV9*%
X89130000Y-147030000D02*
X89130000Y-150090000D01*
X89130000Y-153900000D02*
X89130000Y-158620000D01*
X90620000Y-158620000D02*
X89130000Y-158620000D01*
X93170000Y-158620000D02*
X92340000Y-158620000D01*
X93500000Y-152000000D02*
X94500000Y-152000000D01*
X94000000Y-152500000D02*
X94000000Y-151500000D01*
X95320000Y-158620000D02*
X94790000Y-158620000D01*
X98870000Y-147030000D02*
X89130000Y-147030000D01*
X98870000Y-147030000D02*
X98870000Y-150090000D01*
X98870000Y-158620000D02*
X97690000Y-158620000D01*
X98880000Y-153900000D02*
X98880000Y-158620000D01*
%TO.C,J10*%
X156170000Y-65770000D02*
X158830000Y-65770000D01*
X156170000Y-83610000D02*
X156170000Y-65770000D01*
X156170000Y-83610000D02*
X158830000Y-83610000D01*
X157500000Y-63170000D02*
X158830000Y-63170000D01*
X158830000Y-63170000D02*
X158830000Y-64500000D01*
X158830000Y-83610000D02*
X158830000Y-65770000D01*
D12*
%TO.C,J7*%
X72500000Y-54000000D02*
X72500000Y-64500000D01*
X72500000Y-54000000D02*
X75400000Y-54000000D01*
X72500000Y-64500000D02*
X75500000Y-64500000D01*
X78500000Y-64500000D02*
X81500000Y-64500000D01*
X78600000Y-54000000D02*
X81500000Y-54000000D01*
X81500000Y-54000000D02*
X81500000Y-64500000D01*
D13*
X75603000Y-62539999D02*
G75*
G02*
X78397000Y-62539999I1397000J2539999D01*
G01*
X78800000Y-60000000D02*
G75*
G02*
X75200000Y-60000000I-1800000J0D01*
G01*
X75200000Y-60000000D02*
G75*
G02*
X78800000Y-60000000I1800000J0D01*
G01*
D12*
%TO.C,J4*%
X55500000Y-54000000D02*
X55500000Y-64500000D01*
X55500000Y-54000000D02*
X58400000Y-54000000D01*
X55500000Y-64500000D02*
X58500000Y-64500000D01*
X61500000Y-64500000D02*
X64500000Y-64500000D01*
X61600000Y-54000000D02*
X64500000Y-54000000D01*
X64500000Y-54000000D02*
X64500000Y-64500000D01*
D13*
X58603000Y-62539999D02*
G75*
G02*
X61397000Y-62539999I1397000J2539999D01*
G01*
X61800000Y-60000000D02*
G75*
G02*
X58200000Y-60000000I-1800000J0D01*
G01*
X58200000Y-60000000D02*
G75*
G02*
X61800000Y-60000000I1800000J0D01*
G01*
%TO.C,RV5*%
X72130000Y-69030000D02*
X72130000Y-72090000D01*
X72130000Y-75900000D02*
X72130000Y-80620000D01*
X73620000Y-80620000D02*
X72130000Y-80620000D01*
X76170000Y-80620000D02*
X75340000Y-80620000D01*
X76500000Y-74000000D02*
X77500000Y-74000000D01*
X77000000Y-74500000D02*
X77000000Y-73500000D01*
X78320000Y-80620000D02*
X77790000Y-80620000D01*
X81870000Y-69030000D02*
X72130000Y-69030000D01*
X81870000Y-69030000D02*
X81870000Y-72090000D01*
X81870000Y-80620000D02*
X80690000Y-80620000D01*
X81880000Y-75900000D02*
X81880000Y-80620000D01*
D12*
%TO.C,J1*%
X36500000Y-54000000D02*
X36500000Y-64500000D01*
X36500000Y-54000000D02*
X39400000Y-54000000D01*
X36500000Y-64500000D02*
X39500000Y-64500000D01*
X42500000Y-64500000D02*
X45500000Y-64500000D01*
X42600000Y-54000000D02*
X45500000Y-54000000D01*
X45500000Y-54000000D02*
X45500000Y-64500000D01*
D13*
X39603000Y-62539999D02*
G75*
G02*
X42397000Y-62539999I1397000J2539999D01*
G01*
X42800000Y-60000000D02*
G75*
G02*
X39200000Y-60000000I-1800000J0D01*
G01*
X39200000Y-60000000D02*
G75*
G02*
X42800000Y-60000000I1800000J0D01*
G01*
D11*
%TO.C,RV1*%
X36500000Y-85000000D02*
X45500000Y-85000000D01*
X36500000Y-86700000D02*
X36500000Y-85000000D01*
X36500000Y-145000000D02*
X36500000Y-88300000D01*
X45500000Y-86700000D02*
X45500000Y-85000000D01*
X45500000Y-88300000D02*
X45500000Y-141700000D01*
X45500000Y-145000000D02*
X36500000Y-145000000D01*
X45500000Y-145000000D02*
X45500000Y-143300000D01*
D12*
%TO.C,J3*%
X89500000Y-54000000D02*
X89500000Y-64500000D01*
X89500000Y-54000000D02*
X92400000Y-54000000D01*
X89500000Y-64500000D02*
X92500000Y-64500000D01*
X95500000Y-64500000D02*
X98500000Y-64500000D01*
X95600000Y-54000000D02*
X98500000Y-54000000D01*
X98500000Y-54000000D02*
X98500000Y-64500000D01*
D13*
X92603000Y-62539999D02*
G75*
G02*
X95397000Y-62539999I1397000J2539999D01*
G01*
X95800000Y-60000000D02*
G75*
G02*
X92200000Y-60000000I-1800000J0D01*
G01*
X92200000Y-60000000D02*
G75*
G02*
X95800000Y-60000000I1800000J0D01*
G01*
%TO.C,J14*%
X121170000Y-65770000D02*
X123830000Y-65770000D01*
X121170000Y-78530000D02*
X121170000Y-65770000D01*
X121170000Y-78530000D02*
X123830000Y-78530000D01*
X122500000Y-63170000D02*
X123830000Y-63170000D01*
X123830000Y-63170000D02*
X123830000Y-64500000D01*
X123830000Y-78530000D02*
X123830000Y-65770000D01*
%TO.C,RV10*%
X72130000Y-147030000D02*
X72130000Y-150090000D01*
X72130000Y-153900000D02*
X72130000Y-158620000D01*
X73620000Y-158620000D02*
X72130000Y-158620000D01*
X76170000Y-158620000D02*
X75340000Y-158620000D01*
X76500000Y-152000000D02*
X77500000Y-152000000D01*
X77000000Y-152500000D02*
X77000000Y-151500000D01*
X78320000Y-158620000D02*
X77790000Y-158620000D01*
X81870000Y-147030000D02*
X72130000Y-147030000D01*
X81870000Y-147030000D02*
X81870000Y-150090000D01*
X81870000Y-158620000D02*
X80690000Y-158620000D01*
X81880000Y-153900000D02*
X81880000Y-158620000D01*
%TO.C,RV2*%
X89130000Y-69030000D02*
X89130000Y-72090000D01*
X89130000Y-75900000D02*
X89130000Y-80620000D01*
X90620000Y-80620000D02*
X89130000Y-80620000D01*
X93170000Y-80620000D02*
X92340000Y-80620000D01*
X93500000Y-74000000D02*
X94500000Y-74000000D01*
X94000000Y-74500000D02*
X94000000Y-73500000D01*
X95320000Y-80620000D02*
X94790000Y-80620000D01*
X98870000Y-69030000D02*
X89130000Y-69030000D01*
X98870000Y-69030000D02*
X98870000Y-72090000D01*
X98870000Y-80620000D02*
X97690000Y-80620000D01*
X98880000Y-75900000D02*
X98880000Y-80620000D01*
D11*
%TO.C,RV4*%
X55500000Y-85000000D02*
X64500000Y-85000000D01*
X55500000Y-86700000D02*
X55500000Y-85000000D01*
X55500000Y-145000000D02*
X55500000Y-88300000D01*
X64500000Y-86700000D02*
X64500000Y-85000000D01*
X64500000Y-88300000D02*
X64500000Y-141700000D01*
X64500000Y-145000000D02*
X55500000Y-145000000D01*
X64500000Y-145000000D02*
X64500000Y-143300000D01*
D13*
%TO.C,J17*%
X106420000Y-152670000D02*
X107750000Y-152670000D01*
X106420000Y-154000000D02*
X106420000Y-152670000D01*
X109020000Y-155330000D02*
X109020000Y-152670000D01*
X121780000Y-152670000D02*
X109020000Y-152670000D01*
X121780000Y-155330000D02*
X109020000Y-155330000D01*
X121780000Y-155330000D02*
X121780000Y-152670000D01*
%TO.C,J13*%
X138670000Y-65770000D02*
X141330000Y-65770000D01*
X138670000Y-83610000D02*
X138670000Y-65770000D01*
X138670000Y-83610000D02*
X141330000Y-83610000D01*
X140000000Y-63170000D02*
X141330000Y-63170000D01*
X141330000Y-63170000D02*
X141330000Y-64500000D01*
X141330000Y-83610000D02*
X141330000Y-65770000D01*
%TD*%
M02*
