M48
; DRILL file {KiCad 8.0.6} date 2024-12-05T21:22:45+0000
; FORMAT={-:-/ absolute / inch / decimal}
; #@! TF.CreationDate,2024-12-05T21:22:45+00:00
; #@! TF.GenerationSoftware,Kicad,Pcbnew,8.0.6
; #@! TF.FileFunction,NonPlated,1,2,NPTH
FMAT,2
INCH
; #@! TA.AperFunction,NonPlated,NPTH,ComponentDrill
T1C0.0197
%
G90
G05
T1
X4.0256Y-2.628
X4.0256Y-2.6575
X4.0256Y-2.687
X4.0256Y-3.2185
X4.0256Y-3.248
X4.0256Y-3.2776
X4.0256Y-3.8091
X4.0256Y-3.8386
X4.0256Y-3.8681
X4.0256Y-4.3996
X4.0256Y-4.4291
X4.0256Y-4.4587
X4.0256Y-4.9902
X4.0256Y-5.0197
X4.0256Y-5.0492
X4.0256Y-5.5807
X4.0256Y-5.6102
X4.0256Y-5.6398
X4.0846Y-2.628
X4.0846Y-2.6575
X4.0846Y-2.687
X4.0846Y-3.2185
X4.0846Y-3.248
X4.0846Y-3.2776
X4.0846Y-3.8091
X4.0846Y-3.8386
X4.0846Y-3.8681
X4.0846Y-4.3996
X4.0846Y-4.4291
X4.0846Y-4.4587
X4.0846Y-4.9902
X4.0846Y-5.0197
X4.0846Y-5.0492
X4.0846Y-5.5807
X4.0846Y-5.6102
X4.0846Y-5.6398
M30
