%TF.GenerationSoftware,KiCad,Pcbnew,8.0.8*%
%TF.CreationDate,2025-02-16T22:07:09+00:00*%
%TF.ProjectId,bcm-mixer,62636d2d-6d69-4786-9572-2e6b69636164,rev02*%
%TF.SameCoordinates,Original*%
%TF.FileFunction,Soldermask,Bot*%
%TF.FilePolarity,Negative*%
%FSLAX46Y46*%
G04 Gerber Fmt 4.6, Leading zero omitted, Abs format (unit mm)*
G04 Created by KiCad (PCBNEW 8.0.8) date 2025-02-16 22:07:09*
%MOMM*%
%LPD*%
G01*
G04 APERTURE LIST*
G04 Aperture macros list*
%AMRoundRect*
0 Rectangle with rounded corners*
0 $1 Rounding radius*
0 $2 $3 $4 $5 $6 $7 $8 $9 X,Y pos of 4 corners*
0 Add a 4 corners polygon primitive as box body*
4,1,4,$2,$3,$4,$5,$6,$7,$8,$9,$2,$3,0*
0 Add four circle primitives for the rounded corners*
1,1,$1+$1,$2,$3*
1,1,$1+$1,$4,$5*
1,1,$1+$1,$6,$7*
1,1,$1+$1,$8,$9*
0 Add four rect primitives between the rounded corners*
20,1,$1+$1,$2,$3,$4,$5,0*
20,1,$1+$1,$4,$5,$6,$7,0*
20,1,$1+$1,$6,$7,$8,$9,0*
20,1,$1+$1,$8,$9,$2,$3,0*%
G04 Aperture macros list end*
%ADD10O,3.100000X2.300000*%
%ADD11RoundRect,0.650000X0.650000X0.650000X-0.650000X0.650000X-0.650000X-0.650000X0.650000X-0.650000X0*%
%ADD12C,3.200000*%
%ADD13C,1.600000*%
%ADD14O,1.600000X1.600000*%
%ADD15RoundRect,0.250000X0.600000X0.600000X-0.600000X0.600000X-0.600000X-0.600000X0.600000X-0.600000X0*%
%ADD16C,1.700000*%
%ADD17C,0.500000*%
%ADD18R,1.700000X1.700000*%
%ADD19O,1.700000X1.700000*%
%ADD20R,1.600000X1.600000*%
%ADD21C,5.600000*%
%ADD22R,1.600000X2.400000*%
%ADD23O,1.600000X2.400000*%
%ADD24R,2.200000X2.200000*%
%ADD25O,2.200000X2.200000*%
%ADD26C,3.000000*%
%ADD27C,1.800000*%
%ADD28O,2.200000X2.900000*%
%ADD29R,1.800000X1.800000*%
G04 APERTURE END LIST*
D10*
%TO.C,J2*%
X41000000Y-82480000D03*
D11*
X41000000Y-71080000D03*
X41000000Y-79380000D03*
%TD*%
D10*
%TO.C,J5*%
X60000000Y-82480000D03*
D11*
X60000000Y-71080000D03*
X60000000Y-79380000D03*
%TD*%
D10*
%TO.C,J7*%
X77000000Y-66480000D03*
D11*
X77000000Y-55080000D03*
X77000000Y-63380000D03*
%TD*%
D10*
%TO.C,J4*%
X60000000Y-66480000D03*
D11*
X60000000Y-55080000D03*
X60000000Y-63380000D03*
%TD*%
D10*
%TO.C,J1*%
X41000000Y-66480000D03*
D11*
X41000000Y-55080000D03*
X41000000Y-63380000D03*
%TD*%
D10*
%TO.C,J3*%
X94000000Y-66480000D03*
D11*
X94000000Y-55080000D03*
X94000000Y-63380000D03*
%TD*%
D12*
%TO.C,H5*%
X50500000Y-143000000D03*
%TD*%
D13*
%TO.C,C2*%
X124460000Y-141351000D03*
X124460000Y-136351000D03*
%TD*%
%TO.C,R13*%
X164592000Y-113030000D03*
D14*
X164592000Y-123190000D03*
%TD*%
D15*
%TO.C,J8*%
X138938000Y-152273000D03*
D16*
X136398000Y-152273000D03*
X138938000Y-149733000D03*
X136398000Y-149733000D03*
X138938000Y-147193000D03*
X136398000Y-147193000D03*
X138938000Y-144653000D03*
X136398000Y-144653000D03*
X138938000Y-142113000D03*
X136398000Y-142113000D03*
%TD*%
D13*
%TO.C,R32*%
X114300000Y-75311000D03*
D14*
X114300000Y-85471000D03*
%TD*%
D17*
%TO.C,mouse-bite-2mm-slot*%
X102250000Y-113250000D03*
X103750000Y-113250000D03*
X102250000Y-112500000D03*
X103750000Y-112500000D03*
X102250000Y-111750000D03*
X103750000Y-111750000D03*
%TD*%
D13*
%TO.C,R28*%
X152908000Y-69342000D03*
D14*
X152908000Y-79502000D03*
%TD*%
D18*
%TO.C,J11*%
X85500000Y-64500000D03*
D19*
X85500000Y-67040000D03*
X85500000Y-69580000D03*
X85500000Y-72120000D03*
X85500000Y-74660000D03*
X85500000Y-77200000D03*
X85500000Y-79740000D03*
X85500000Y-82280000D03*
%TD*%
D13*
%TO.C,R5*%
X109982000Y-134620000D03*
D14*
X109982000Y-124460000D03*
%TD*%
D13*
%TO.C,R31*%
X117348000Y-75311000D03*
D14*
X117348000Y-85471000D03*
%TD*%
D13*
%TO.C,R11*%
X167640000Y-123190000D03*
D14*
X167640000Y-113030000D03*
%TD*%
D13*
%TO.C,C5*%
X167640000Y-74248000D03*
X167640000Y-79248000D03*
%TD*%
%TO.C,R35*%
X124460000Y-153924000D03*
D14*
X124460000Y-143764000D03*
%TD*%
D13*
%TO.C,C14*%
X132080000Y-74248000D03*
X132080000Y-79248000D03*
%TD*%
%TO.C,R22*%
X128524000Y-103378000D03*
D14*
X128524000Y-93218000D03*
%TD*%
D13*
%TO.C,R20*%
X135636000Y-60198000D03*
D14*
X125476000Y-60198000D03*
%TD*%
D20*
%TO.C,U4*%
X151882000Y-82560000D03*
D14*
X149342000Y-82560000D03*
X146802000Y-82560000D03*
X144262000Y-82560000D03*
X144262000Y-90180000D03*
X146802000Y-90180000D03*
X149342000Y-90180000D03*
X151882000Y-90180000D03*
%TD*%
D13*
%TO.C,R16*%
X145034000Y-123317000D03*
D14*
X145034000Y-113157000D03*
%TD*%
D13*
%TO.C,R30*%
X149352000Y-103378000D03*
D14*
X149352000Y-93218000D03*
%TD*%
D13*
%TO.C,C4*%
X113919000Y-141351000D03*
X113919000Y-136351000D03*
%TD*%
%TO.C,R21*%
X111252000Y-85471000D03*
D14*
X111252000Y-75311000D03*
%TD*%
D17*
%TO.C,mouse-bite-2mm-slot*%
X102250000Y-98250000D03*
X103750000Y-98250000D03*
X102250000Y-97500000D03*
X103750000Y-97500000D03*
X102250000Y-96750000D03*
X103750000Y-96750000D03*
%TD*%
D13*
%TO.C,R9*%
X167132000Y-103378000D03*
D14*
X167132000Y-93218000D03*
%TD*%
D13*
%TO.C,R24*%
X148082000Y-113157000D03*
D14*
X148082000Y-123317000D03*
%TD*%
D13*
%TO.C,R41*%
X106934000Y-124460000D03*
D14*
X106934000Y-134620000D03*
%TD*%
D18*
%TO.C,J15*%
X50500000Y-64500000D03*
D19*
X50500000Y-67040000D03*
X50500000Y-69580000D03*
X50500000Y-72120000D03*
X50500000Y-74660000D03*
X50500000Y-77200000D03*
%TD*%
D13*
%TO.C,C12*%
X121412000Y-136351000D03*
X121412000Y-141351000D03*
%TD*%
D17*
%TO.C,mouse-bite-2mm-slot*%
X102250000Y-128250000D03*
X103750000Y-128250000D03*
X102250000Y-127500000D03*
X103750000Y-127500000D03*
X102250000Y-126750000D03*
X103750000Y-126750000D03*
%TD*%
%TO.C,mouse-bite-2mm-slot*%
X102250000Y-143250000D03*
X103750000Y-143250000D03*
X102250000Y-142500000D03*
X103750000Y-142500000D03*
X102250000Y-141750000D03*
X103750000Y-141750000D03*
%TD*%
D13*
%TO.C,R23*%
X131572000Y-103378000D03*
D14*
X131572000Y-93218000D03*
%TD*%
D21*
%TO.C,H4*%
X157500000Y-143000000D03*
%TD*%
D15*
%TO.C,J6*%
X168656000Y-152041500D03*
D16*
X166116000Y-152041500D03*
X168656000Y-149501500D03*
X166116000Y-149501500D03*
X168656000Y-146961500D03*
X166116000Y-146961500D03*
X168656000Y-144421500D03*
X166116000Y-144421500D03*
X168656000Y-141881500D03*
X166116000Y-141881500D03*
%TD*%
D13*
%TO.C,R15*%
X116840000Y-122428000D03*
D14*
X116840000Y-112268000D03*
%TD*%
D13*
%TO.C,C11*%
X121412000Y-117221000D03*
X121412000Y-122221000D03*
%TD*%
%TO.C,C9*%
X161544000Y-79248000D03*
X161544000Y-74248000D03*
%TD*%
D18*
%TO.C,J12*%
X68000000Y-64500000D03*
D19*
X68000000Y-67040000D03*
X68000000Y-69580000D03*
X68000000Y-72120000D03*
X68000000Y-74660000D03*
X68000000Y-77200000D03*
X68000000Y-79740000D03*
X68000000Y-82280000D03*
%TD*%
D13*
%TO.C,R27*%
X146812000Y-69342000D03*
D14*
X146812000Y-79502000D03*
%TD*%
D20*
%TO.C,C7*%
X164084000Y-108172000D03*
D13*
X164084000Y-106172000D03*
%TD*%
%TO.C,R10*%
X161544000Y-123190000D03*
D14*
X161544000Y-113030000D03*
%TD*%
D20*
%TO.C,C20*%
X148800000Y-150200000D03*
D13*
X148800000Y-152200000D03*
%TD*%
D20*
%TO.C,C17*%
X122333000Y-103378000D03*
D13*
X124333000Y-103378000D03*
%TD*%
%TO.C,R8*%
X161036000Y-103378000D03*
D14*
X161036000Y-93218000D03*
%TD*%
D13*
%TO.C,R26*%
X152908000Y-56896000D03*
D14*
X152908000Y-67056000D03*
%TD*%
D13*
%TO.C,R7*%
X170688000Y-69342000D03*
D14*
X170688000Y-79502000D03*
%TD*%
D20*
%TO.C,C19*%
X148700000Y-143700000D03*
D13*
X148700000Y-145700000D03*
%TD*%
D20*
%TO.C,C26*%
X146304000Y-108172000D03*
D13*
X146304000Y-106172000D03*
%TD*%
%TO.C,C10*%
X113792000Y-117221000D03*
X113792000Y-122221000D03*
%TD*%
D22*
%TO.C,U3*%
X129037000Y-125486000D03*
D23*
X126497000Y-125486000D03*
X123957000Y-125486000D03*
X121417000Y-125486000D03*
X118877000Y-125486000D03*
X116337000Y-125486000D03*
X113797000Y-125486000D03*
X113797000Y-133106000D03*
X116337000Y-133106000D03*
X118877000Y-133106000D03*
X121417000Y-133106000D03*
X123957000Y-133106000D03*
X126497000Y-133106000D03*
X129037000Y-133106000D03*
%TD*%
D20*
%TO.C,C1*%
X164592000Y-63532000D03*
D13*
X164592000Y-65532000D03*
%TD*%
%TO.C,R14*%
X116967000Y-136144000D03*
D14*
X116967000Y-146304000D03*
%TD*%
D13*
%TO.C,R3*%
X124841000Y-122428000D03*
D14*
X124841000Y-112268000D03*
%TD*%
D21*
%TO.C,H1*%
X68500000Y-57200000D03*
%TD*%
D13*
%TO.C,R17*%
X151130000Y-123317000D03*
D14*
X151130000Y-113157000D03*
%TD*%
D13*
%TO.C,C3*%
X127889000Y-122221000D03*
X127889000Y-117221000D03*
%TD*%
D24*
%TO.C,D1*%
X148700000Y-137500000D03*
D25*
X158860000Y-137500000D03*
%TD*%
D20*
%TO.C,U2*%
X134102000Y-82560000D03*
D14*
X131562000Y-82560000D03*
X129022000Y-82560000D03*
X126482000Y-82560000D03*
X126482000Y-90180000D03*
X129022000Y-90180000D03*
X131562000Y-90180000D03*
X134102000Y-90180000D03*
%TD*%
D13*
%TO.C,R18*%
X129032000Y-69342000D03*
D14*
X129032000Y-79502000D03*
%TD*%
D20*
%TO.C,C13*%
X129032000Y-64040000D03*
D13*
X129032000Y-66040000D03*
%TD*%
%TO.C,R1*%
X170688000Y-56896000D03*
D14*
X170688000Y-67056000D03*
%TD*%
D18*
%TO.C,J16*%
X35750000Y-154000000D03*
D19*
X38290000Y-154000000D03*
X40830000Y-154000000D03*
X43370000Y-154000000D03*
X45910000Y-154000000D03*
X48450000Y-154000000D03*
%TD*%
D21*
%TO.C,H3*%
X85500000Y-143002000D03*
%TD*%
D13*
%TO.C,C16*%
X125984000Y-79248000D03*
X125984000Y-74248000D03*
%TD*%
%TO.C,C25*%
X146304000Y-93472000D03*
X146304000Y-98472000D03*
%TD*%
%TO.C,C8*%
X170180000Y-98472000D03*
X170180000Y-93472000D03*
%TD*%
D20*
%TO.C,U1*%
X169662000Y-82560000D03*
D14*
X167122000Y-82560000D03*
X164582000Y-82560000D03*
X162042000Y-82560000D03*
X162042000Y-90180000D03*
X164582000Y-90180000D03*
X167122000Y-90180000D03*
X169662000Y-90180000D03*
%TD*%
D13*
%TO.C,R40*%
X106934000Y-139954000D03*
D14*
X106934000Y-150114000D03*
%TD*%
D13*
%TO.C,R6*%
X164592000Y-69342000D03*
D14*
X164592000Y-79502000D03*
%TD*%
D17*
%TO.C,mouse-bite-2mm-slot*%
X102250000Y-68250000D03*
X103750000Y-68250000D03*
X102250000Y-67500000D03*
X103750000Y-67500000D03*
X102250000Y-66750000D03*
X103750000Y-66750000D03*
%TD*%
D13*
%TO.C,R36*%
X135636000Y-124206000D03*
D14*
X135636000Y-134366000D03*
%TD*%
D13*
%TO.C,C18*%
X125476000Y-93472000D03*
X125476000Y-98472000D03*
%TD*%
%TO.C,R25*%
X141986000Y-113157000D03*
D14*
X141986000Y-123317000D03*
%TD*%
D24*
%TO.C,D2*%
X159258000Y-157099000D03*
D25*
X149098000Y-157099000D03*
%TD*%
D13*
%TO.C,R12*%
X158496000Y-113030000D03*
D14*
X158496000Y-123190000D03*
%TD*%
D13*
%TO.C,R19*%
X135128000Y-69342000D03*
D14*
X135128000Y-79502000D03*
%TD*%
D17*
%TO.C,mouse-bite-2mm-slot*%
X102250000Y-83250000D03*
X103750000Y-83250000D03*
X102250000Y-82500000D03*
X103750000Y-82500000D03*
X102250000Y-81750000D03*
X103750000Y-81750000D03*
%TD*%
D21*
%TO.C,H2*%
X140500000Y-57200000D03*
%TD*%
D13*
%TO.C,C15*%
X134620000Y-98472000D03*
X134620000Y-93472000D03*
%TD*%
%TO.C,R2*%
X127508000Y-146304000D03*
D14*
X127508000Y-136144000D03*
%TD*%
D13*
%TO.C,R29*%
X143256000Y-103378000D03*
D14*
X143256000Y-93218000D03*
%TD*%
D13*
%TO.C,R4*%
X109982000Y-150114000D03*
D14*
X109982000Y-139954000D03*
%TD*%
D13*
%TO.C,C22*%
X149860000Y-74248000D03*
X149860000Y-79248000D03*
%TD*%
D20*
%TO.C,C21*%
X146812000Y-63532000D03*
D13*
X146812000Y-65532000D03*
%TD*%
%TO.C,C23*%
X152400000Y-98472000D03*
X152400000Y-93472000D03*
%TD*%
%TO.C,C6*%
X164084000Y-93472000D03*
X164084000Y-98472000D03*
%TD*%
%TO.C,C24*%
X143764000Y-79248000D03*
X143764000Y-74248000D03*
%TD*%
D26*
%TO.C,RV3*%
X94000000Y-131250000D03*
X94000000Y-98750000D03*
D27*
X97750000Y-87500000D03*
X95250000Y-87500000D03*
X97750000Y-142500000D03*
X92750000Y-87500000D03*
X90250000Y-87500000D03*
X92750000Y-142500000D03*
%TD*%
D26*
%TO.C,RV6*%
X77000000Y-131250000D03*
X77000000Y-98750000D03*
D27*
X80750000Y-87500000D03*
X78250000Y-87500000D03*
X80750000Y-142500000D03*
X75750000Y-87500000D03*
X73250000Y-87500000D03*
X75750000Y-142500000D03*
%TD*%
D28*
%TO.C,RV9*%
X98800000Y-152000000D03*
X89200000Y-152000000D03*
D29*
X96500000Y-159500000D03*
D27*
X94000000Y-159500000D03*
X91500000Y-159500000D03*
%TD*%
D18*
%TO.C,J10*%
X157500000Y-64500000D03*
D19*
X157500000Y-67040000D03*
X157500000Y-69580000D03*
X157500000Y-72120000D03*
X157500000Y-74660000D03*
X157500000Y-77200000D03*
X157500000Y-79740000D03*
X157500000Y-82280000D03*
%TD*%
D28*
%TO.C,RV5*%
X81800000Y-74000000D03*
X72200000Y-74000000D03*
D29*
X79500000Y-81500000D03*
D27*
X77000000Y-81500000D03*
X74500000Y-81500000D03*
%TD*%
D26*
%TO.C,RV1*%
X41000000Y-131250000D03*
X41000000Y-98750000D03*
D27*
X44750000Y-87500000D03*
X42250000Y-87500000D03*
X44750000Y-142500000D03*
X39750000Y-87500000D03*
X37250000Y-87500000D03*
X39750000Y-142500000D03*
%TD*%
D18*
%TO.C,J14*%
X122500000Y-64500000D03*
D19*
X122500000Y-67040000D03*
X122500000Y-69580000D03*
X122500000Y-72120000D03*
X122500000Y-74660000D03*
X122500000Y-77200000D03*
%TD*%
D28*
%TO.C,RV10*%
X81800000Y-152000000D03*
X72200000Y-152000000D03*
D29*
X79500000Y-159500000D03*
D27*
X77000000Y-159500000D03*
X74500000Y-159500000D03*
%TD*%
D28*
%TO.C,RV2*%
X98800000Y-74000000D03*
X89200000Y-74000000D03*
D29*
X96500000Y-81500000D03*
D27*
X94000000Y-81500000D03*
X91500000Y-81500000D03*
%TD*%
D26*
%TO.C,RV4*%
X60000000Y-131250000D03*
X60000000Y-98750000D03*
D27*
X63750000Y-87500000D03*
X61250000Y-87500000D03*
X63750000Y-142500000D03*
X58750000Y-87500000D03*
X56250000Y-87500000D03*
X58750000Y-142500000D03*
%TD*%
D18*
%TO.C,J17*%
X107750000Y-154000000D03*
D19*
X110290000Y-154000000D03*
X112830000Y-154000000D03*
X115370000Y-154000000D03*
X117910000Y-154000000D03*
X120450000Y-154000000D03*
%TD*%
D18*
%TO.C,J13*%
X140000000Y-64500000D03*
D19*
X140000000Y-67040000D03*
X140000000Y-69580000D03*
X140000000Y-72120000D03*
X140000000Y-74660000D03*
X140000000Y-77200000D03*
X140000000Y-79740000D03*
X140000000Y-82280000D03*
%TD*%
M02*
