%TF.GenerationSoftware,KiCad,Pcbnew,8.0.6*%
%TF.CreationDate,2024-12-05T21:20:35+00:00*%
%TF.ProjectId,bcm-mixer-panel,62636d2d-6d69-4786-9572-2d70616e656c,rev01*%
%TF.SameCoordinates,Original*%
%TF.FileFunction,Legend,Top*%
%TF.FilePolarity,Positive*%
%FSLAX46Y46*%
G04 Gerber Fmt 4.6, Leading zero omitted, Abs format (unit mm)*
G04 Created by KiCad (PCBNEW 8.0.6) date 2024-12-05 21:20:35*
%MOMM*%
%LPD*%
G01*
G04 APERTURE LIST*
%ADD10C,0.000000*%
G04 APERTURE END LIST*
D10*
G36*
X65674505Y-47368560D02*
G01*
X65273153Y-47368560D01*
X65273153Y-44708953D01*
X65674505Y-44708953D01*
X65674505Y-47368560D01*
G37*
G36*
X57075117Y-50648697D02*
G01*
X57119176Y-50651402D01*
X57162320Y-50655910D01*
X57204549Y-50662221D01*
X57245864Y-50670336D01*
X57286263Y-50680254D01*
X57325746Y-50691975D01*
X57364315Y-50705500D01*
X57401969Y-50720827D01*
X57438708Y-50737959D01*
X57474531Y-50756893D01*
X57509440Y-50777631D01*
X57543433Y-50800172D01*
X57576511Y-50824516D01*
X57608675Y-50850664D01*
X57639922Y-50878615D01*
X57669960Y-50907898D01*
X57698059Y-50938043D01*
X57724221Y-50969049D01*
X57748444Y-51000916D01*
X57770730Y-51033644D01*
X57791077Y-51067234D01*
X57809487Y-51101685D01*
X57825959Y-51136997D01*
X57840492Y-51173170D01*
X57853088Y-51210205D01*
X57863746Y-51248101D01*
X57872467Y-51286858D01*
X57879249Y-51326476D01*
X57884094Y-51366956D01*
X57887000Y-51408297D01*
X57887969Y-51450499D01*
X57887518Y-51477596D01*
X57886166Y-51504625D01*
X57883912Y-51531587D01*
X57880757Y-51558482D01*
X57876699Y-51585309D01*
X57871740Y-51612069D01*
X57865880Y-51638762D01*
X57859118Y-51665388D01*
X57851454Y-51691946D01*
X57842888Y-51718437D01*
X57833421Y-51744860D01*
X57823052Y-51771216D01*
X57811782Y-51797505D01*
X57799609Y-51823726D01*
X57786535Y-51849881D01*
X57772559Y-51875967D01*
X57757056Y-51903743D01*
X57739829Y-51932811D01*
X57720881Y-51963171D01*
X57700210Y-51994822D01*
X57677817Y-52027766D01*
X57653701Y-52062002D01*
X57627863Y-52097529D01*
X57600303Y-52134348D01*
X57571369Y-52172244D01*
X57540551Y-52211863D01*
X57473263Y-52296268D01*
X57398441Y-52387562D01*
X57316085Y-52485747D01*
X56902671Y-52974959D01*
X57893134Y-52974959D01*
X57893134Y-53352194D01*
X56106857Y-53352194D01*
X57030143Y-52234263D01*
X57095384Y-52153518D01*
X57155027Y-52078372D01*
X57209070Y-52008824D01*
X57257514Y-51944876D01*
X57280069Y-51914921D01*
X57301224Y-51886203D01*
X57320979Y-51858723D01*
X57339335Y-51832481D01*
X57356291Y-51807477D01*
X57371848Y-51783711D01*
X57386006Y-51761183D01*
X57398765Y-51739893D01*
X57410655Y-51719782D01*
X57421778Y-51699925D01*
X57432134Y-51680325D01*
X57441723Y-51660980D01*
X57450545Y-51641891D01*
X57458600Y-51623057D01*
X57465887Y-51604479D01*
X57472408Y-51586157D01*
X57478161Y-51568090D01*
X57483147Y-51550279D01*
X57487366Y-51532724D01*
X57490818Y-51515424D01*
X57493503Y-51498380D01*
X57495421Y-51481592D01*
X57496572Y-51465059D01*
X57496955Y-51448782D01*
X57496444Y-51425764D01*
X57494910Y-51403216D01*
X57492353Y-51381139D01*
X57488773Y-51359533D01*
X57484170Y-51338398D01*
X57478545Y-51317734D01*
X57471897Y-51297541D01*
X57464226Y-51277819D01*
X57455533Y-51258568D01*
X57445816Y-51239788D01*
X57435077Y-51221479D01*
X57423316Y-51203641D01*
X57410531Y-51186274D01*
X57396724Y-51169379D01*
X57381895Y-51152954D01*
X57366042Y-51137000D01*
X57349436Y-51121772D01*
X57332346Y-51107527D01*
X57314771Y-51094265D01*
X57296711Y-51081985D01*
X57278167Y-51070687D01*
X57259139Y-51060372D01*
X57239625Y-51051039D01*
X57219628Y-51042689D01*
X57199145Y-51035321D01*
X57178179Y-51028935D01*
X57156728Y-51023532D01*
X57134792Y-51019111D01*
X57112372Y-51015673D01*
X57089467Y-51013217D01*
X57066078Y-51011743D01*
X57042205Y-51011252D01*
X57017350Y-51011718D01*
X56993167Y-51013116D01*
X56969657Y-51015446D01*
X56946820Y-51018707D01*
X56924655Y-51022901D01*
X56903164Y-51028027D01*
X56882346Y-51034084D01*
X56862200Y-51041074D01*
X56842727Y-51048995D01*
X56823927Y-51057848D01*
X56805800Y-51067634D01*
X56788346Y-51078351D01*
X56771564Y-51090000D01*
X56755456Y-51102581D01*
X56740020Y-51116094D01*
X56725257Y-51130539D01*
X56711167Y-51145916D01*
X56697750Y-51162224D01*
X56685006Y-51179465D01*
X56672935Y-51197638D01*
X56661536Y-51216742D01*
X56650811Y-51236779D01*
X56640758Y-51257747D01*
X56631379Y-51279647D01*
X56622672Y-51302479D01*
X56614638Y-51326243D01*
X56607277Y-51350939D01*
X56600589Y-51376567D01*
X56594574Y-51403127D01*
X56589231Y-51430619D01*
X56580566Y-51488398D01*
X56180930Y-51488398D01*
X56195552Y-51386606D01*
X56215300Y-51291382D01*
X56240176Y-51202724D01*
X56254536Y-51160858D01*
X56270179Y-51120634D01*
X56287103Y-51082052D01*
X56305309Y-51045111D01*
X56324797Y-51009813D01*
X56345566Y-50976156D01*
X56367618Y-50944141D01*
X56390951Y-50913767D01*
X56415566Y-50885036D01*
X56441463Y-50857946D01*
X56468641Y-50832498D01*
X56497102Y-50808692D01*
X56526844Y-50786528D01*
X56557869Y-50766005D01*
X56590175Y-50747124D01*
X56623762Y-50729885D01*
X56658632Y-50714288D01*
X56694784Y-50700333D01*
X56732217Y-50688019D01*
X56770932Y-50677348D01*
X56810930Y-50668318D01*
X56852208Y-50660930D01*
X56894769Y-50655183D01*
X56938612Y-50651079D01*
X56983737Y-50648616D01*
X57030143Y-50647795D01*
X57075117Y-50648697D01*
G37*
G36*
X40430626Y-53329802D02*
G01*
X40029274Y-53329802D01*
X40029274Y-51045710D01*
X39569355Y-51045710D01*
X39789841Y-50670195D01*
X40430626Y-50670195D01*
X40430626Y-53329802D01*
G37*
G36*
X41508934Y-160339275D02*
G01*
X41107582Y-160339275D01*
X41107582Y-157679668D01*
X41508934Y-157679668D01*
X41508934Y-160339275D01*
G37*
G36*
X44087582Y-159527950D02*
G01*
X44087582Y-157679653D01*
X44488934Y-157679653D01*
X44488934Y-160501186D01*
X42549347Y-158477199D01*
X42549347Y-160339275D01*
X42147999Y-160339275D01*
X42147999Y-157498790D01*
X44087582Y-159527950D01*
G37*
G36*
X38710667Y-67339277D02*
G01*
X38309315Y-67339277D01*
X38309315Y-64679670D01*
X38710667Y-64679670D01*
X38710667Y-67339277D01*
G37*
G36*
X58289314Y-66527959D02*
G01*
X58289314Y-64679670D01*
X58690666Y-64679670D01*
X58690666Y-67501195D01*
X56751083Y-65477209D01*
X56751083Y-67339277D01*
X56349731Y-67339277D01*
X56349731Y-64498800D01*
X58289314Y-66527959D01*
G37*
G36*
X93068898Y-52273055D02*
G01*
X93069336Y-52315183D01*
X93070648Y-52355871D01*
X93072835Y-52395119D01*
X93075896Y-52432928D01*
X93079833Y-52469296D01*
X93084644Y-52504225D01*
X93090329Y-52537714D01*
X93096890Y-52569762D01*
X93104325Y-52600371D01*
X93112634Y-52629540D01*
X93121819Y-52657269D01*
X93131878Y-52683558D01*
X93142811Y-52708406D01*
X93154620Y-52731815D01*
X93167302Y-52753784D01*
X93180860Y-52774313D01*
X93202278Y-52802056D01*
X93224760Y-52828009D01*
X93248304Y-52852171D01*
X93272912Y-52874544D01*
X93298582Y-52895128D01*
X93325316Y-52913921D01*
X93353113Y-52930924D01*
X93381973Y-52946138D01*
X93411895Y-52959562D01*
X93442881Y-52971196D01*
X93474930Y-52981040D01*
X93508042Y-52989094D01*
X93542217Y-52995358D01*
X93577455Y-52999833D01*
X93613756Y-53002518D01*
X93651120Y-53003413D01*
X93688694Y-53002518D01*
X93725191Y-52999833D01*
X93760611Y-52995358D01*
X93794954Y-52989094D01*
X93828221Y-52981040D01*
X93860411Y-52971196D01*
X93891524Y-52959562D01*
X93921561Y-52946138D01*
X93950520Y-52930924D01*
X93978404Y-52913921D01*
X94005210Y-52895128D01*
X94030939Y-52874544D01*
X94055592Y-52852171D01*
X94079168Y-52828009D01*
X94101668Y-52802056D01*
X94123090Y-52774313D01*
X94136649Y-52754389D01*
X94149333Y-52732945D01*
X94161142Y-52709979D01*
X94172076Y-52685494D01*
X94182136Y-52659487D01*
X94191321Y-52631960D01*
X94199631Y-52602913D01*
X94207067Y-52572344D01*
X94213627Y-52540255D01*
X94219313Y-52506646D01*
X94224125Y-52471516D01*
X94228061Y-52434865D01*
X94231123Y-52396693D01*
X94233310Y-52357001D01*
X94234622Y-52315788D01*
X94235059Y-52273055D01*
X94235059Y-50671088D01*
X94636411Y-50671088D01*
X94636411Y-52383296D01*
X94635388Y-52435255D01*
X94632320Y-52486056D01*
X94627206Y-52535700D01*
X94620047Y-52584187D01*
X94610843Y-52631517D01*
X94599593Y-52677689D01*
X94586297Y-52722704D01*
X94570957Y-52766562D01*
X94553570Y-52809262D01*
X94534138Y-52850805D01*
X94512661Y-52891190D01*
X94489138Y-52930418D01*
X94463570Y-52968489D01*
X94435957Y-53005403D01*
X94406298Y-53041159D01*
X94374593Y-53075758D01*
X94337248Y-53112471D01*
X94298854Y-53146814D01*
X94259410Y-53178789D01*
X94218916Y-53208396D01*
X94177373Y-53235633D01*
X94134780Y-53260503D01*
X94091137Y-53283004D01*
X94046445Y-53303136D01*
X94000703Y-53320900D01*
X93953912Y-53336295D01*
X93906071Y-53349322D01*
X93857180Y-53359980D01*
X93807240Y-53368270D01*
X93756249Y-53374191D01*
X93704210Y-53377743D01*
X93651120Y-53378928D01*
X93598038Y-53377743D01*
X93546018Y-53374191D01*
X93495062Y-53368270D01*
X93445168Y-53359980D01*
X93396338Y-53349322D01*
X93348571Y-53336295D01*
X93301867Y-53320900D01*
X93256226Y-53303136D01*
X93211648Y-53283004D01*
X93168133Y-53260503D01*
X93125682Y-53235633D01*
X93084294Y-53208396D01*
X93043968Y-53178789D01*
X93004706Y-53146814D01*
X92966508Y-53112471D01*
X92929372Y-53075758D01*
X92897666Y-53041159D01*
X92868006Y-53005403D01*
X92840391Y-52968489D01*
X92814821Y-52930418D01*
X92791297Y-52891190D01*
X92769819Y-52850805D01*
X92750386Y-52809262D01*
X92732998Y-52766562D01*
X92717656Y-52722704D01*
X92704360Y-52677689D01*
X92693109Y-52631517D01*
X92683904Y-52584187D01*
X92676744Y-52535700D01*
X92671630Y-52486056D01*
X92668562Y-52435255D01*
X92667539Y-52383296D01*
X92667539Y-50671088D01*
X93068898Y-50671088D01*
X93068898Y-52273055D01*
G37*
G36*
X74316953Y-83339275D02*
G01*
X73915601Y-83339275D01*
X73915601Y-80679668D01*
X74316953Y-80679668D01*
X74316953Y-83339275D01*
G37*
G36*
X98157281Y-81048320D02*
G01*
X97547502Y-81048320D01*
X97547502Y-83330692D01*
X97146150Y-83330692D01*
X97146150Y-81048320D01*
X96534639Y-81048320D01*
X96534639Y-80671085D01*
X98157281Y-80671085D01*
X98157281Y-81048320D01*
G37*
G36*
X64709882Y-47368560D02*
G01*
X64298192Y-47368560D01*
X64041532Y-45763149D01*
X63254333Y-47490859D01*
X62489524Y-45761425D01*
X62203582Y-47368560D01*
X61788444Y-47368560D01*
X62348274Y-44509136D01*
X63261222Y-46576190D01*
X64206899Y-44509136D01*
X64709882Y-47368560D01*
G37*
G36*
X57658874Y-82339275D02*
G01*
X57219627Y-82339275D01*
X56940574Y-81693325D01*
X55801971Y-81693325D01*
X55505691Y-82339275D01*
X55073333Y-82339275D01*
X55549699Y-81316089D01*
X55969062Y-81316089D01*
X56776931Y-81316089D01*
X56382468Y-80411754D01*
X55969062Y-81316089D01*
X55549699Y-81316089D01*
X56389358Y-79512584D01*
X57658874Y-82339275D01*
G37*
G36*
X76895597Y-82527957D02*
G01*
X76895597Y-80679668D01*
X77296949Y-80679668D01*
X77296949Y-83501194D01*
X75357366Y-81477207D01*
X75357366Y-83339275D01*
X74956014Y-83339275D01*
X74956014Y-80498798D01*
X76895597Y-82527957D01*
G37*
G36*
X92110100Y-64622695D02*
G01*
X92179258Y-64627458D01*
X92247150Y-64635398D01*
X92313778Y-64646514D01*
X92379141Y-64660806D01*
X92443238Y-64678273D01*
X92506071Y-64698917D01*
X92567639Y-64722736D01*
X92627941Y-64749731D01*
X92686979Y-64779902D01*
X92744751Y-64813249D01*
X92801259Y-64849772D01*
X92856501Y-64889471D01*
X92910479Y-64932346D01*
X92963191Y-64978397D01*
X93014638Y-65027624D01*
X93064074Y-65079079D01*
X93110321Y-65131812D01*
X93153378Y-65185824D01*
X93193246Y-65241115D01*
X93229925Y-65297683D01*
X93263414Y-65355530D01*
X93293714Y-65414655D01*
X93320824Y-65475059D01*
X93344745Y-65536741D01*
X93365476Y-65599701D01*
X93383019Y-65663940D01*
X93397371Y-65729457D01*
X93408534Y-65796252D01*
X93416508Y-65864326D01*
X93421292Y-65933678D01*
X93422887Y-66004308D01*
X93421286Y-66075330D01*
X93416481Y-66144993D01*
X93408474Y-66213296D01*
X93397264Y-66280240D01*
X93382851Y-66345824D01*
X93365235Y-66410050D01*
X93344416Y-66472916D01*
X93320394Y-66534422D01*
X93293169Y-66594570D01*
X93262741Y-66653358D01*
X93229111Y-66710787D01*
X93192277Y-66766857D01*
X93152241Y-66821568D01*
X93109001Y-66874919D01*
X93062559Y-66926911D01*
X93012914Y-66977544D01*
X92960787Y-67026146D01*
X92907327Y-67071612D01*
X92852535Y-67113942D01*
X92796410Y-67153137D01*
X92738954Y-67189196D01*
X92680165Y-67222119D01*
X92620044Y-67251907D01*
X92558590Y-67278559D01*
X92495804Y-67302076D01*
X92431687Y-67322457D01*
X92366236Y-67339702D01*
X92299454Y-67353812D01*
X92231339Y-67364786D01*
X92161892Y-67372625D01*
X92091113Y-67377328D01*
X92019002Y-67378896D01*
X91955033Y-67377503D01*
X91891884Y-67373325D01*
X91829556Y-67366360D01*
X91768049Y-67356610D01*
X91707363Y-67344075D01*
X91647498Y-67328753D01*
X91588454Y-67310646D01*
X91530231Y-67289753D01*
X91472829Y-67266075D01*
X91416247Y-67239611D01*
X91360487Y-67210361D01*
X91305548Y-67178326D01*
X91251429Y-67143505D01*
X91198131Y-67105899D01*
X91145655Y-67065507D01*
X91093999Y-67022329D01*
X91039348Y-66972065D01*
X90988224Y-66919891D01*
X90940625Y-66865805D01*
X90896551Y-66809809D01*
X90856004Y-66751902D01*
X90818983Y-66692084D01*
X90785487Y-66630355D01*
X90755517Y-66566716D01*
X90729073Y-66501165D01*
X90706155Y-66433704D01*
X90686763Y-66364331D01*
X90670897Y-66293048D01*
X90658556Y-66219854D01*
X90649742Y-66144749D01*
X90644453Y-66067732D01*
X90642806Y-65994001D01*
X91047490Y-65994001D01*
X91047498Y-65994009D01*
X91048655Y-66048518D01*
X91052128Y-66101803D01*
X91057914Y-66153863D01*
X91066016Y-66204699D01*
X91076432Y-66254309D01*
X91089163Y-66302695D01*
X91104209Y-66349857D01*
X91121569Y-66395793D01*
X91141244Y-66440505D01*
X91163233Y-66483993D01*
X91187538Y-66526255D01*
X91214157Y-66567293D01*
X91243090Y-66607106D01*
X91274338Y-66645695D01*
X91307901Y-66683059D01*
X91343778Y-66719198D01*
X91380953Y-66753614D01*
X91418842Y-66785811D01*
X91457443Y-66815786D01*
X91496758Y-66843542D01*
X91536787Y-66869077D01*
X91577528Y-66892392D01*
X91618983Y-66913486D01*
X91661151Y-66932360D01*
X91704033Y-66949014D01*
X91747627Y-66963447D01*
X91791935Y-66975659D01*
X91836957Y-66985652D01*
X91882691Y-66993423D01*
X91929139Y-66998975D01*
X91976300Y-67002305D01*
X92024175Y-67003416D01*
X92075986Y-67002285D01*
X92126774Y-66998894D01*
X92176539Y-66993241D01*
X92225282Y-66985328D01*
X92273002Y-66975154D01*
X92319699Y-66962719D01*
X92365373Y-66948024D01*
X92410024Y-66931067D01*
X92453652Y-66911850D01*
X92496258Y-66890371D01*
X92537841Y-66866632D01*
X92578401Y-66840632D01*
X92617938Y-66812372D01*
X92656452Y-66781850D01*
X92693944Y-66749068D01*
X92730413Y-66714025D01*
X92765248Y-66676923D01*
X92797835Y-66638826D01*
X92828175Y-66599732D01*
X92856268Y-66559643D01*
X92882113Y-66518557D01*
X92905711Y-66476476D01*
X92927061Y-66433399D01*
X92946163Y-66389327D01*
X92963019Y-66344258D01*
X92977627Y-66298193D01*
X92989987Y-66251133D01*
X93000100Y-66203076D01*
X93007966Y-66154024D01*
X93013584Y-66103975D01*
X93016955Y-66052931D01*
X93018079Y-66000890D01*
X93016969Y-65948245D01*
X93013638Y-65896676D01*
X93008087Y-65846184D01*
X93000315Y-65796769D01*
X92990323Y-65748430D01*
X92978110Y-65701168D01*
X92963677Y-65654982D01*
X92947024Y-65609873D01*
X92928150Y-65565841D01*
X92907055Y-65522885D01*
X92883741Y-65481005D01*
X92858205Y-65440202D01*
X92830450Y-65400476D01*
X92800474Y-65361826D01*
X92768278Y-65324252D01*
X92733861Y-65287755D01*
X92698024Y-65252713D01*
X92661138Y-65219930D01*
X92623201Y-65189409D01*
X92584215Y-65161148D01*
X92544180Y-65135148D01*
X92503095Y-65111409D01*
X92460960Y-65089931D01*
X92417775Y-65070714D01*
X92373541Y-65053757D01*
X92328258Y-65039061D01*
X92281924Y-65026626D01*
X92234541Y-65016452D01*
X92186109Y-65008539D01*
X92136626Y-65002887D01*
X92086094Y-64999495D01*
X92034513Y-64998365D01*
X91983126Y-64999495D01*
X91932748Y-65002887D01*
X91883379Y-65008539D01*
X91835020Y-65016452D01*
X91787669Y-65026626D01*
X91741328Y-65039061D01*
X91695997Y-65053757D01*
X91651675Y-65070714D01*
X91608362Y-65089931D01*
X91566058Y-65111409D01*
X91524764Y-65135148D01*
X91484479Y-65161148D01*
X91445203Y-65189409D01*
X91406937Y-65219930D01*
X91369680Y-65252713D01*
X91333432Y-65287755D01*
X91298807Y-65324023D01*
X91266415Y-65361340D01*
X91236257Y-65399707D01*
X91208333Y-65439124D01*
X91182643Y-65479590D01*
X91159187Y-65521106D01*
X91137964Y-65563672D01*
X91118976Y-65607287D01*
X91102221Y-65651952D01*
X91087701Y-65697667D01*
X91075414Y-65744431D01*
X91065362Y-65792246D01*
X91057543Y-65841110D01*
X91051958Y-65891024D01*
X91048607Y-65941987D01*
X91047490Y-65994001D01*
X90642806Y-65994001D01*
X90642690Y-65988805D01*
X90642698Y-65988805D01*
X90644306Y-65919231D01*
X90649130Y-65850894D01*
X90657171Y-65783795D01*
X90668428Y-65717935D01*
X90682902Y-65653313D01*
X90700591Y-65589929D01*
X90721498Y-65527783D01*
X90745620Y-65466875D01*
X90772959Y-65407205D01*
X90803514Y-65348773D01*
X90837285Y-65291579D01*
X90874273Y-65235624D01*
X90914477Y-65180906D01*
X90957898Y-65127427D01*
X91004534Y-65075186D01*
X91054387Y-65024183D01*
X91106279Y-64975373D01*
X91159462Y-64929713D01*
X91213937Y-64887201D01*
X91269704Y-64847838D01*
X91326763Y-64811624D01*
X91385113Y-64778559D01*
X91444756Y-64748643D01*
X91505691Y-64721877D01*
X91567917Y-64698259D01*
X91631436Y-64677790D01*
X91696247Y-64660470D01*
X91762349Y-64646299D01*
X91829743Y-64635277D01*
X91898430Y-64627405D01*
X91968408Y-64622681D01*
X92039678Y-64621107D01*
X92110100Y-64622695D01*
G37*
G36*
X69960187Y-45086193D02*
G01*
X68893934Y-45086193D01*
X68893934Y-45725257D01*
X69929181Y-45725257D01*
X69929181Y-46102492D01*
X68893934Y-46102492D01*
X68893934Y-46991324D01*
X69960187Y-46991324D01*
X69960187Y-47368560D01*
X68492582Y-47368560D01*
X68492582Y-44708953D01*
X69960187Y-44708953D01*
X69960187Y-45086193D01*
G37*
G36*
X76615682Y-66527959D02*
G01*
X76615682Y-64679670D01*
X77017034Y-64679670D01*
X77017034Y-67501195D01*
X75077451Y-65477209D01*
X75077451Y-67339277D01*
X74676099Y-67339277D01*
X74676099Y-64498800D01*
X76615682Y-66527959D01*
G37*
G36*
X97877382Y-65048330D02*
G01*
X97267602Y-65048330D01*
X97267602Y-67330701D01*
X96866243Y-67330701D01*
X96866243Y-65048330D01*
X96254739Y-65048330D01*
X96254739Y-64671094D01*
X97877382Y-64671094D01*
X97877382Y-65048330D01*
G37*
G36*
X90850060Y-50622688D02*
G01*
X90919218Y-50627452D01*
X90987110Y-50635392D01*
X91053738Y-50646507D01*
X91119100Y-50660799D01*
X91183198Y-50678267D01*
X91246031Y-50698910D01*
X91307598Y-50722730D01*
X91367901Y-50749725D01*
X91426939Y-50779897D01*
X91484711Y-50813244D01*
X91541219Y-50849767D01*
X91596461Y-50889467D01*
X91650438Y-50932342D01*
X91703151Y-50978393D01*
X91754598Y-51027621D01*
X91804034Y-51079075D01*
X91850280Y-51131808D01*
X91893337Y-51185820D01*
X91933205Y-51241110D01*
X91969883Y-51297678D01*
X92003371Y-51355525D01*
X92033670Y-51414650D01*
X92060780Y-51475053D01*
X92084700Y-51536735D01*
X92105431Y-51599696D01*
X92122972Y-51663935D01*
X92137324Y-51729452D01*
X92148487Y-51796248D01*
X92156461Y-51864322D01*
X92161245Y-51933674D01*
X92162839Y-52004305D01*
X92161238Y-52075327D01*
X92156433Y-52144989D01*
X92148426Y-52213292D01*
X92137216Y-52280235D01*
X92122803Y-52345820D01*
X92105187Y-52410045D01*
X92084368Y-52472911D01*
X92060346Y-52534418D01*
X92033121Y-52594566D01*
X92002693Y-52653354D01*
X91969063Y-52710784D01*
X91932229Y-52766854D01*
X91892193Y-52821564D01*
X91848954Y-52874916D01*
X91802511Y-52926908D01*
X91752866Y-52977541D01*
X91700740Y-53026142D01*
X91647282Y-53071608D01*
X91592491Y-53113938D01*
X91536368Y-53153132D01*
X91478913Y-53189191D01*
X91420125Y-53222115D01*
X91360005Y-53251903D01*
X91298553Y-53278555D01*
X91235768Y-53302072D01*
X91171651Y-53322453D01*
X91106202Y-53339699D01*
X91039420Y-53353809D01*
X90971306Y-53364783D01*
X90901859Y-53372622D01*
X90831081Y-53377326D01*
X90758970Y-53378893D01*
X90695000Y-53377501D01*
X90631851Y-53373322D01*
X90569523Y-53366358D01*
X90508016Y-53356608D01*
X90447330Y-53344073D01*
X90387465Y-53328751D01*
X90328421Y-53310645D01*
X90270197Y-53289752D01*
X90212795Y-53266074D01*
X90156213Y-53239610D01*
X90100452Y-53210360D01*
X90045512Y-53178325D01*
X89991392Y-53143504D01*
X89938094Y-53105897D01*
X89885616Y-53065504D01*
X89833959Y-53022326D01*
X89779308Y-52972063D01*
X89728183Y-52919889D01*
X89680584Y-52865804D01*
X89636511Y-52809808D01*
X89595964Y-52751901D01*
X89558942Y-52692083D01*
X89525447Y-52630354D01*
X89495477Y-52566714D01*
X89469033Y-52501163D01*
X89446115Y-52433701D01*
X89426723Y-52364328D01*
X89410857Y-52293044D01*
X89398516Y-52219849D01*
X89389701Y-52144743D01*
X89384413Y-52067726D01*
X89382766Y-51994002D01*
X89787450Y-51994002D01*
X89788607Y-52048511D01*
X89792080Y-52101795D01*
X89797866Y-52153855D01*
X89805968Y-52204690D01*
X89816384Y-52254300D01*
X89829115Y-52302686D01*
X89844161Y-52349847D01*
X89861521Y-52395784D01*
X89881196Y-52440496D01*
X89903186Y-52483983D01*
X89927490Y-52526246D01*
X89954109Y-52567284D01*
X89983042Y-52607098D01*
X90014290Y-52645687D01*
X90047853Y-52683051D01*
X90083730Y-52719191D01*
X90120905Y-52753608D01*
X90158794Y-52785805D01*
X90197395Y-52815782D01*
X90236710Y-52843537D01*
X90276739Y-52869073D01*
X90317480Y-52892388D01*
X90358935Y-52913483D01*
X90401103Y-52932357D01*
X90443985Y-52949011D01*
X90487579Y-52963444D01*
X90531888Y-52975656D01*
X90576909Y-52985649D01*
X90622643Y-52993420D01*
X90669091Y-52998972D01*
X90716253Y-53002302D01*
X90764127Y-53003413D01*
X90815938Y-53002282D01*
X90866727Y-52998891D01*
X90916492Y-52993239D01*
X90965235Y-52985326D01*
X91012956Y-52975152D01*
X91059654Y-52962718D01*
X91105329Y-52948022D01*
X91149981Y-52931066D01*
X91193610Y-52911849D01*
X91236217Y-52890371D01*
X91277801Y-52866632D01*
X91318363Y-52840633D01*
X91357901Y-52812372D01*
X91396417Y-52781851D01*
X91433910Y-52749069D01*
X91470380Y-52714026D01*
X91505214Y-52676924D01*
X91537800Y-52638826D01*
X91568139Y-52599733D01*
X91596231Y-52559643D01*
X91622075Y-52518558D01*
X91645672Y-52476476D01*
X91667022Y-52433399D01*
X91686124Y-52389326D01*
X91702979Y-52344257D01*
X91717587Y-52298192D01*
X91729947Y-52251132D01*
X91740060Y-52203075D01*
X91747926Y-52154023D01*
X91753544Y-52103975D01*
X91756915Y-52052931D01*
X91758039Y-52000891D01*
X91756929Y-51948246D01*
X91753598Y-51896677D01*
X91748047Y-51846185D01*
X91740275Y-51796769D01*
X91730283Y-51748430D01*
X91718070Y-51701168D01*
X91703637Y-51654982D01*
X91686983Y-51609873D01*
X91668109Y-51565840D01*
X91647015Y-51522884D01*
X91623700Y-51481005D01*
X91598165Y-51440202D01*
X91570410Y-51400475D01*
X91540434Y-51361826D01*
X91508238Y-51324253D01*
X91473821Y-51287756D01*
X91437984Y-51252714D01*
X91401097Y-51219931D01*
X91363161Y-51189410D01*
X91324175Y-51161150D01*
X91284140Y-51135150D01*
X91243054Y-51111411D01*
X91200920Y-51089933D01*
X91157735Y-51070716D01*
X91113501Y-51053760D01*
X91068217Y-51039065D01*
X91021884Y-51026630D01*
X90974501Y-51016456D01*
X90926068Y-51008543D01*
X90876586Y-51002891D01*
X90826054Y-50999500D01*
X90774473Y-50998370D01*
X90723085Y-50999500D01*
X90672708Y-51002891D01*
X90623339Y-51008543D01*
X90574980Y-51016456D01*
X90527631Y-51026630D01*
X90481290Y-51039065D01*
X90435959Y-51053760D01*
X90391637Y-51070716D01*
X90348324Y-51089933D01*
X90306021Y-51111411D01*
X90264727Y-51135150D01*
X90224442Y-51161150D01*
X90185166Y-51189410D01*
X90146899Y-51219931D01*
X90109641Y-51252714D01*
X90073392Y-51287756D01*
X90038766Y-51324024D01*
X90006375Y-51361341D01*
X89976217Y-51399708D01*
X89948293Y-51439125D01*
X89922602Y-51479591D01*
X89899146Y-51521107D01*
X89877924Y-51563672D01*
X89858936Y-51607287D01*
X89842181Y-51651952D01*
X89827661Y-51697667D01*
X89815374Y-51744431D01*
X89805321Y-51792245D01*
X89797503Y-51841109D01*
X89791918Y-51891022D01*
X89788567Y-51941985D01*
X89787450Y-51993998D01*
X89787450Y-51994002D01*
X89382766Y-51994002D01*
X89382766Y-51993998D01*
X89382650Y-51988801D01*
X89384258Y-51919228D01*
X89389082Y-51850891D01*
X89397123Y-51783793D01*
X89408380Y-51717932D01*
X89422854Y-51653310D01*
X89440544Y-51589926D01*
X89461450Y-51527779D01*
X89485572Y-51466871D01*
X89512911Y-51407201D01*
X89543466Y-51348769D01*
X89577237Y-51291575D01*
X89614225Y-51235619D01*
X89654429Y-51180901D01*
X89697850Y-51127422D01*
X89744486Y-51075180D01*
X89794339Y-51024176D01*
X89846232Y-50975366D01*
X89899416Y-50929705D01*
X89953892Y-50887193D01*
X90009660Y-50847830D01*
X90066720Y-50811616D01*
X90125071Y-50778551D01*
X90184715Y-50748635D01*
X90245650Y-50721869D01*
X90307877Y-50698251D01*
X90371395Y-50677782D01*
X90436206Y-50660463D01*
X90502309Y-50646292D01*
X90569703Y-50635270D01*
X90638389Y-50627398D01*
X90708367Y-50622674D01*
X90779638Y-50621100D01*
X90850060Y-50622688D01*
G37*
G36*
X74058720Y-50626218D02*
G01*
X74100916Y-50628640D01*
X74142102Y-50632677D01*
X74182279Y-50638329D01*
X74221446Y-50645596D01*
X74259605Y-50654478D01*
X74296754Y-50664975D01*
X74332894Y-50677086D01*
X74368024Y-50690813D01*
X74402145Y-50706154D01*
X74435257Y-50723110D01*
X74467359Y-50741681D01*
X74498453Y-50761867D01*
X74528536Y-50783668D01*
X74557611Y-50807083D01*
X74585676Y-50832114D01*
X74612376Y-50858201D01*
X74637353Y-50885216D01*
X74660608Y-50913160D01*
X74682141Y-50942033D01*
X74701950Y-50971834D01*
X74720037Y-51002564D01*
X74736402Y-51034222D01*
X74751044Y-51066809D01*
X74763963Y-51100325D01*
X74775159Y-51134769D01*
X74784633Y-51170142D01*
X74792385Y-51206443D01*
X74798414Y-51243673D01*
X74802720Y-51281831D01*
X74805304Y-51320918D01*
X74806165Y-51360934D01*
X74805035Y-51405949D01*
X74801643Y-51449699D01*
X74795991Y-51492184D01*
X74788078Y-51533404D01*
X74777904Y-51573359D01*
X74765469Y-51612049D01*
X74750773Y-51649474D01*
X74733816Y-51685634D01*
X74714599Y-51720529D01*
X74693121Y-51754159D01*
X74669382Y-51786524D01*
X74643382Y-51817624D01*
X74615121Y-51847459D01*
X74584600Y-51876029D01*
X74551817Y-51903333D01*
X74516774Y-51929373D01*
X74537122Y-51941776D01*
X74556823Y-51954653D01*
X74575878Y-51968004D01*
X74594288Y-51981830D01*
X74612051Y-51996130D01*
X74629169Y-52010905D01*
X74645641Y-52026154D01*
X74661466Y-52041877D01*
X74676646Y-52058075D01*
X74691180Y-52074747D01*
X74705068Y-52091893D01*
X74718310Y-52109514D01*
X74730906Y-52127610D01*
X74742856Y-52146179D01*
X74754160Y-52165223D01*
X74764818Y-52184741D01*
X74774831Y-52204734D01*
X74784197Y-52225201D01*
X74792918Y-52246143D01*
X74800992Y-52267559D01*
X74808420Y-52289449D01*
X74815203Y-52311813D01*
X74821340Y-52334652D01*
X74826830Y-52357966D01*
X74831675Y-52381753D01*
X74835874Y-52406015D01*
X74839427Y-52430752D01*
X74842333Y-52455962D01*
X74846209Y-52507807D01*
X74847501Y-52561549D01*
X74846559Y-52605823D01*
X74843733Y-52649075D01*
X74839023Y-52691304D01*
X74832429Y-52732510D01*
X74823951Y-52772694D01*
X74813589Y-52811855D01*
X74801343Y-52849994D01*
X74787213Y-52887109D01*
X74771198Y-52923202D01*
X74753300Y-52958272D01*
X74733518Y-52992320D01*
X74711851Y-53025344D01*
X74688300Y-53057346D01*
X74662866Y-53088326D01*
X74635547Y-53118282D01*
X74606344Y-53147215D01*
X74575667Y-53174749D01*
X74543927Y-53200507D01*
X74511124Y-53224488D01*
X74477258Y-53246692D01*
X74442330Y-53267121D01*
X74406338Y-53285773D01*
X74369283Y-53302648D01*
X74331165Y-53317747D01*
X74291984Y-53331070D01*
X74251739Y-53342616D01*
X74210432Y-53352386D01*
X74168062Y-53360380D01*
X74124629Y-53366597D01*
X74080132Y-53371038D01*
X74034573Y-53373702D01*
X73987951Y-53374590D01*
X73928845Y-53373211D01*
X73871678Y-53369073D01*
X73816448Y-53362176D01*
X73763157Y-53352520D01*
X73711804Y-53340106D01*
X73662388Y-53324933D01*
X73614910Y-53307001D01*
X73569371Y-53286310D01*
X73525769Y-53262861D01*
X73484105Y-53236652D01*
X73444379Y-53207685D01*
X73406590Y-53175959D01*
X73370740Y-53141475D01*
X73336827Y-53104231D01*
X73304853Y-53064229D01*
X73274816Y-53021468D01*
X73263034Y-53002506D01*
X73251804Y-52982657D01*
X73241126Y-52961919D01*
X73230999Y-52940293D01*
X73221424Y-52917778D01*
X73212402Y-52894376D01*
X73203930Y-52870085D01*
X73196011Y-52844906D01*
X73188643Y-52818839D01*
X73181827Y-52791884D01*
X73175563Y-52764041D01*
X73169850Y-52735309D01*
X73164689Y-52705690D01*
X73160080Y-52675182D01*
X73156023Y-52643786D01*
X73152517Y-52611502D01*
X73540090Y-52611502D01*
X73544310Y-52635268D01*
X73549216Y-52658334D01*
X73554808Y-52680700D01*
X73561087Y-52702366D01*
X73568052Y-52723333D01*
X73575703Y-52743600D01*
X73584040Y-52763167D01*
X73593064Y-52782034D01*
X73602773Y-52800201D01*
X73613169Y-52817669D01*
X73624251Y-52834437D01*
X73636020Y-52850506D01*
X73648474Y-52865874D01*
X73661615Y-52880543D01*
X73675441Y-52894513D01*
X73689954Y-52907782D01*
X73705309Y-52920089D01*
X73721228Y-52931602D01*
X73737713Y-52942320D01*
X73754763Y-52952245D01*
X73772379Y-52961376D01*
X73790559Y-52969713D01*
X73809305Y-52977256D01*
X73828616Y-52984005D01*
X73848493Y-52989960D01*
X73868934Y-52995121D01*
X73889941Y-52999488D01*
X73911513Y-53003061D01*
X73933650Y-53005840D01*
X73956353Y-53007825D01*
X73979621Y-53009016D01*
X74003454Y-53009413D01*
X74027523Y-53008909D01*
X74051067Y-53007395D01*
X74074086Y-53004871D01*
X74096580Y-53001339D01*
X74118549Y-52996797D01*
X74139993Y-52991246D01*
X74160913Y-52984685D01*
X74181307Y-52977115D01*
X74201177Y-52968536D01*
X74220521Y-52958947D01*
X74239341Y-52948350D01*
X74257636Y-52936743D01*
X74275406Y-52924126D01*
X74292651Y-52910500D01*
X74309371Y-52895865D01*
X74325567Y-52880221D01*
X74341003Y-52863365D01*
X74355444Y-52845958D01*
X74368888Y-52827999D01*
X74381337Y-52809489D01*
X74392789Y-52790426D01*
X74403246Y-52770812D01*
X74412707Y-52750646D01*
X74421171Y-52729928D01*
X74428640Y-52708659D01*
X74435113Y-52686838D01*
X74440591Y-52664465D01*
X74445072Y-52641541D01*
X74448557Y-52618064D01*
X74451047Y-52594037D01*
X74452541Y-52569457D01*
X74453038Y-52544325D01*
X74452292Y-52511341D01*
X74450051Y-52479568D01*
X74446316Y-52449006D01*
X74441088Y-52419656D01*
X74434366Y-52391516D01*
X74426150Y-52364588D01*
X74416441Y-52338871D01*
X74405237Y-52314365D01*
X74392540Y-52291070D01*
X74378350Y-52268987D01*
X74362665Y-52248114D01*
X74345487Y-52228453D01*
X74326816Y-52210004D01*
X74306650Y-52192765D01*
X74284991Y-52176737D01*
X74261838Y-52161921D01*
X74247366Y-52153994D01*
X74231938Y-52146579D01*
X74215554Y-52139675D01*
X74198215Y-52133282D01*
X74179920Y-52127401D01*
X74160670Y-52122031D01*
X74140464Y-52117173D01*
X74119302Y-52112826D01*
X74097185Y-52108990D01*
X74074112Y-52105666D01*
X74050084Y-52102853D01*
X74025100Y-52100552D01*
X73999161Y-52098762D01*
X73972266Y-52097484D01*
X73944415Y-52096717D01*
X73915609Y-52096461D01*
X73915601Y-52096461D01*
X73915601Y-51753672D01*
X73976725Y-51752784D01*
X74032627Y-51750120D01*
X74083308Y-51745679D01*
X74106690Y-51742792D01*
X74128766Y-51739462D01*
X74149538Y-51735687D01*
X74169004Y-51731469D01*
X74187165Y-51726806D01*
X74204020Y-51721700D01*
X74219570Y-51716149D01*
X74233815Y-51710154D01*
X74246755Y-51703716D01*
X74258390Y-51696833D01*
X74268034Y-51690471D01*
X74277371Y-51683873D01*
X74286403Y-51677040D01*
X74295128Y-51669971D01*
X74303547Y-51662667D01*
X74311661Y-51655127D01*
X74319467Y-51647352D01*
X74326968Y-51639342D01*
X74334163Y-51631095D01*
X74341052Y-51622614D01*
X74347634Y-51613897D01*
X74353910Y-51604944D01*
X74359880Y-51595756D01*
X74365544Y-51586333D01*
X74370902Y-51576674D01*
X74375954Y-51566779D01*
X74380699Y-51556649D01*
X74385139Y-51546284D01*
X74389272Y-51535683D01*
X74393099Y-51524846D01*
X74396620Y-51513774D01*
X74399835Y-51502467D01*
X74402743Y-51490924D01*
X74405346Y-51479146D01*
X74409632Y-51454882D01*
X74412694Y-51429677D01*
X74414531Y-51403530D01*
X74415143Y-51376441D01*
X74414699Y-51355373D01*
X74413367Y-51334803D01*
X74411147Y-51314731D01*
X74408038Y-51295157D01*
X74404041Y-51276082D01*
X74399156Y-51257504D01*
X74393383Y-51239424D01*
X74386722Y-51221842D01*
X74379172Y-51204758D01*
X74370735Y-51188172D01*
X74361409Y-51172084D01*
X74351195Y-51156493D01*
X74340093Y-51141401D01*
X74328103Y-51126807D01*
X74315224Y-51112711D01*
X74301458Y-51099112D01*
X74287199Y-51085971D01*
X74272416Y-51073678D01*
X74257108Y-51062232D01*
X74241275Y-51051635D01*
X74224917Y-51041885D01*
X74208035Y-51032983D01*
X74190627Y-51024929D01*
X74172695Y-51017722D01*
X74154239Y-51011363D01*
X74135257Y-51005853D01*
X74115751Y-51001189D01*
X74095720Y-50997374D01*
X74075165Y-50994407D01*
X74054085Y-50992287D01*
X74032480Y-50991015D01*
X74010351Y-50990592D01*
X73989761Y-50990908D01*
X73969764Y-50991856D01*
X73950358Y-50993438D01*
X73931545Y-50995651D01*
X73913324Y-50998497D01*
X73895695Y-51001976D01*
X73878658Y-51006087D01*
X73862212Y-51010831D01*
X73846359Y-51016207D01*
X73831098Y-51022216D01*
X73816430Y-51028857D01*
X73802353Y-51036131D01*
X73788868Y-51044037D01*
X73775975Y-51052576D01*
X73763674Y-51061747D01*
X73751966Y-51071551D01*
X73741159Y-51082330D01*
X73730702Y-51093997D01*
X73720595Y-51106552D01*
X73710838Y-51119996D01*
X73701432Y-51134328D01*
X73692375Y-51149548D01*
X73683668Y-51165656D01*
X73675311Y-51182653D01*
X73667305Y-51200538D01*
X73659648Y-51219311D01*
X73652341Y-51238972D01*
X73645383Y-51259522D01*
X73638776Y-51280960D01*
X73632519Y-51303286D01*
X73626611Y-51326501D01*
X73621053Y-51350604D01*
X73221425Y-51350604D01*
X73229689Y-51304451D01*
X73238975Y-51259874D01*
X73249283Y-51216871D01*
X73260614Y-51175442D01*
X73272968Y-51135588D01*
X73286345Y-51097309D01*
X73300744Y-51060604D01*
X73316166Y-51025474D01*
X73332611Y-50991918D01*
X73350078Y-50959936D01*
X73368569Y-50929529D01*
X73388082Y-50900697D01*
X73408617Y-50873439D01*
X73430176Y-50847755D01*
X73452757Y-50823646D01*
X73476362Y-50801112D01*
X73501076Y-50779835D01*
X73526988Y-50759932D01*
X73554098Y-50741401D01*
X73582405Y-50724242D01*
X73611911Y-50708457D01*
X73642613Y-50694044D01*
X73674514Y-50681003D01*
X73707612Y-50669336D01*
X73741908Y-50659041D01*
X73777402Y-50650119D01*
X73814093Y-50642569D01*
X73851982Y-50636392D01*
X73891069Y-50631588D01*
X73931354Y-50628156D01*
X73972836Y-50626097D01*
X74015516Y-50625411D01*
X74058720Y-50626218D01*
G37*
G36*
X57775138Y-160339275D02*
G01*
X57335891Y-160339275D01*
X57056838Y-159693325D01*
X55918235Y-159693325D01*
X55621955Y-160339275D01*
X55189597Y-160339275D01*
X55665964Y-159316082D01*
X56085319Y-159316082D01*
X56893195Y-159316082D01*
X56498733Y-158411739D01*
X56085319Y-159316082D01*
X55665964Y-159316082D01*
X56505622Y-157512569D01*
X57775138Y-160339275D01*
G37*
G36*
X88377638Y-80671828D02*
G01*
X88440094Y-80674150D01*
X88500262Y-80678019D01*
X88558143Y-80683435D01*
X88613735Y-80690400D01*
X88667040Y-80698911D01*
X88718057Y-80708971D01*
X88766786Y-80720578D01*
X88813227Y-80733732D01*
X88857381Y-80748434D01*
X88899247Y-80764684D01*
X88938825Y-80782481D01*
X88976116Y-80801825D01*
X89011119Y-80822717D01*
X89043834Y-80845157D01*
X89074262Y-80869144D01*
X89105549Y-80897257D01*
X89134818Y-80926474D01*
X89162069Y-80956794D01*
X89187301Y-80988217D01*
X89210514Y-81020744D01*
X89231709Y-81054374D01*
X89250886Y-81089107D01*
X89268044Y-81124944D01*
X89283183Y-81161885D01*
X89296304Y-81199928D01*
X89307406Y-81239076D01*
X89316490Y-81279327D01*
X89323555Y-81320681D01*
X89328602Y-81363139D01*
X89331630Y-81406701D01*
X89332639Y-81451366D01*
X89332007Y-81486369D01*
X89330109Y-81520752D01*
X89326947Y-81554517D01*
X89322519Y-81587662D01*
X89316827Y-81620189D01*
X89309870Y-81652096D01*
X89301648Y-81683384D01*
X89292160Y-81714054D01*
X89281408Y-81744104D01*
X89269391Y-81773535D01*
X89256108Y-81802347D01*
X89241561Y-81830540D01*
X89225748Y-81858114D01*
X89208671Y-81885069D01*
X89190328Y-81911405D01*
X89170720Y-81937122D01*
X89150076Y-81961957D01*
X89128625Y-81985649D01*
X89106366Y-82008196D01*
X89083300Y-82029600D01*
X89059427Y-82049860D01*
X89034746Y-82068976D01*
X89009258Y-82086948D01*
X88982962Y-82103776D01*
X88955859Y-82119461D01*
X88927948Y-82134001D01*
X88899230Y-82147398D01*
X88869705Y-82159651D01*
X88839372Y-82170760D01*
X88808231Y-82180725D01*
X88776283Y-82189546D01*
X88743528Y-82197223D01*
X88743589Y-82197231D01*
X89566961Y-83330661D01*
X89076040Y-83330661D01*
X88316396Y-82242015D01*
X88243993Y-82242015D01*
X88243993Y-83330661D01*
X87842641Y-83330661D01*
X87842641Y-81892337D01*
X88244046Y-81892337D01*
X88371518Y-81892337D01*
X88440561Y-81890635D01*
X88505149Y-81885528D01*
X88565283Y-81877016D01*
X88620962Y-81865099D01*
X88672188Y-81849778D01*
X88696130Y-81840840D01*
X88718958Y-81831051D01*
X88740674Y-81820412D01*
X88761275Y-81808920D01*
X88780763Y-81796578D01*
X88799137Y-81783385D01*
X88816398Y-81769340D01*
X88832545Y-81754444D01*
X88847579Y-81738697D01*
X88861499Y-81722099D01*
X88874305Y-81704650D01*
X88885998Y-81686350D01*
X88896577Y-81667198D01*
X88906043Y-81647195D01*
X88914395Y-81626341D01*
X88921633Y-81604636D01*
X88927758Y-81582080D01*
X88932769Y-81558672D01*
X88936667Y-81534414D01*
X88939451Y-81509304D01*
X88941122Y-81483343D01*
X88941678Y-81456531D01*
X88941137Y-81431414D01*
X88939512Y-81407095D01*
X88936803Y-81383573D01*
X88933012Y-81360849D01*
X88928137Y-81338922D01*
X88922179Y-81317792D01*
X88915137Y-81297459D01*
X88907013Y-81277924D01*
X88897805Y-81259187D01*
X88887513Y-81241246D01*
X88876138Y-81224103D01*
X88863680Y-81207758D01*
X88850139Y-81192210D01*
X88835514Y-81177459D01*
X88819806Y-81163505D01*
X88803015Y-81150349D01*
X88785140Y-81137990D01*
X88766182Y-81126429D01*
X88746141Y-81115665D01*
X88725017Y-81105698D01*
X88702809Y-81096529D01*
X88679517Y-81088157D01*
X88655143Y-81080582D01*
X88629685Y-81073804D01*
X88603144Y-81067824D01*
X88575519Y-81062642D01*
X88546811Y-81058256D01*
X88517020Y-81054668D01*
X88486145Y-81051878D01*
X88454187Y-81049884D01*
X88421146Y-81048688D01*
X88387021Y-81048290D01*
X88244054Y-81048290D01*
X88244046Y-81892337D01*
X87842641Y-81892337D01*
X87842641Y-80671054D01*
X88312894Y-80671054D01*
X88377638Y-80671828D01*
G37*
G36*
X42930893Y-81527965D02*
G01*
X42930893Y-79679676D01*
X43332245Y-79679676D01*
X43332245Y-82501201D01*
X41392662Y-80477214D01*
X41392662Y-82339283D01*
X40991310Y-82339283D01*
X40991310Y-79498806D01*
X42930893Y-81527965D01*
G37*
G36*
X92390008Y-80622685D02*
G01*
X92459165Y-80627449D01*
X92527058Y-80635389D01*
X92593685Y-80646504D01*
X92659048Y-80660796D01*
X92723146Y-80678264D01*
X92785978Y-80698907D01*
X92847546Y-80722726D01*
X92907849Y-80749722D01*
X92966886Y-80779893D01*
X93024659Y-80813240D01*
X93081166Y-80849763D01*
X93136409Y-80889462D01*
X93190386Y-80932337D01*
X93243098Y-80978387D01*
X93294545Y-81027614D01*
X93343981Y-81079069D01*
X93390228Y-81131803D01*
X93433285Y-81185815D01*
X93473152Y-81241105D01*
X93509830Y-81297674D01*
X93543319Y-81355521D01*
X93573618Y-81414646D01*
X93600727Y-81475049D01*
X93624648Y-81536731D01*
X93645378Y-81599692D01*
X93662920Y-81663930D01*
X93677272Y-81729447D01*
X93688435Y-81796243D01*
X93696408Y-81864316D01*
X93701192Y-81933668D01*
X93702787Y-82004299D01*
X93701185Y-82075321D01*
X93696381Y-82144983D01*
X93688374Y-82213286D01*
X93677165Y-82280230D01*
X93662752Y-82345815D01*
X93645137Y-82410040D01*
X93624319Y-82472906D01*
X93600298Y-82534413D01*
X93573075Y-82594560D01*
X93542648Y-82653349D01*
X93509019Y-82710778D01*
X93472186Y-82766847D01*
X93432151Y-82821558D01*
X93388913Y-82874909D01*
X93342473Y-82926902D01*
X93292829Y-82977535D01*
X93240701Y-83026136D01*
X93187242Y-83071602D01*
X93132450Y-83113933D01*
X93076325Y-83153127D01*
X93018869Y-83189186D01*
X92960080Y-83222110D01*
X92899959Y-83251897D01*
X92838505Y-83278550D01*
X92775719Y-83302066D01*
X92711601Y-83322447D01*
X92646151Y-83339693D01*
X92579369Y-83353803D01*
X92511254Y-83364777D01*
X92441807Y-83372616D01*
X92371028Y-83377319D01*
X92298917Y-83378887D01*
X92234947Y-83377494D01*
X92171799Y-83373315D01*
X92109471Y-83366351D01*
X92047964Y-83356601D01*
X91987278Y-83344065D01*
X91927413Y-83328744D01*
X91868368Y-83310637D01*
X91810145Y-83289744D01*
X91752742Y-83266065D01*
X91696160Y-83239601D01*
X91640399Y-83210352D01*
X91585459Y-83178316D01*
X91531340Y-83143496D01*
X91478041Y-83105889D01*
X91425563Y-83065497D01*
X91373906Y-83022319D01*
X91319257Y-82972056D01*
X91268133Y-82919881D01*
X91220535Y-82865796D01*
X91176463Y-82809800D01*
X91135916Y-82751893D01*
X91098896Y-82692075D01*
X91065401Y-82630346D01*
X91035431Y-82566706D01*
X91008988Y-82501156D01*
X90986070Y-82433694D01*
X90966678Y-82364322D01*
X90950812Y-82293038D01*
X90938471Y-82219844D01*
X90929657Y-82144739D01*
X90924368Y-82067723D01*
X90922721Y-81993999D01*
X91327398Y-81993999D01*
X91328555Y-82048509D01*
X91332027Y-82101793D01*
X91337814Y-82153854D01*
X91345915Y-82204689D01*
X91356332Y-82254300D01*
X91369063Y-82302686D01*
X91384108Y-82349847D01*
X91401469Y-82395784D01*
X91421143Y-82440496D01*
X91443133Y-82483983D01*
X91467437Y-82526246D01*
X91494056Y-82567284D01*
X91522990Y-82607097D01*
X91554238Y-82645685D01*
X91587800Y-82683049D01*
X91623678Y-82719188D01*
X91660854Y-82753605D01*
X91698744Y-82785801D01*
X91737347Y-82815777D01*
X91776663Y-82843532D01*
X91816693Y-82869068D01*
X91857436Y-82892382D01*
X91898892Y-82913477D01*
X91941061Y-82932351D01*
X91983944Y-82949004D01*
X92027539Y-82963437D01*
X92071848Y-82975650D01*
X92116870Y-82985642D01*
X92162605Y-82993414D01*
X92209054Y-82998965D01*
X92256215Y-83002296D01*
X92304090Y-83003406D01*
X92355899Y-83002276D01*
X92406686Y-82998884D01*
X92456451Y-82993232D01*
X92505193Y-82985319D01*
X92552912Y-82975145D01*
X92599608Y-82962710D01*
X92645282Y-82948014D01*
X92689933Y-82931057D01*
X92733562Y-82911840D01*
X92776168Y-82890362D01*
X92817751Y-82866623D01*
X92858311Y-82840623D01*
X92897849Y-82812362D01*
X92936365Y-82781841D01*
X92973858Y-82749058D01*
X93010328Y-82714015D01*
X93045161Y-82676914D01*
X93077748Y-82638816D01*
X93108087Y-82599722D01*
X93136178Y-82559633D01*
X93162023Y-82518548D01*
X93185620Y-82476467D01*
X93206969Y-82433390D01*
X93226072Y-82389317D01*
X93242927Y-82344248D01*
X93257534Y-82298184D01*
X93269895Y-82251123D01*
X93280008Y-82203066D01*
X93287873Y-82154014D01*
X93293492Y-82103966D01*
X93296863Y-82052921D01*
X93297986Y-82000881D01*
X93296876Y-81948235D01*
X93293545Y-81896667D01*
X93287994Y-81846175D01*
X93280222Y-81796759D01*
X93270230Y-81748421D01*
X93258017Y-81701158D01*
X93243584Y-81654973D01*
X93226931Y-81609864D01*
X93208057Y-81565831D01*
X93186963Y-81522875D01*
X93163648Y-81480996D01*
X93138113Y-81440193D01*
X93110357Y-81400466D01*
X93080381Y-81361816D01*
X93048185Y-81324243D01*
X93013768Y-81287746D01*
X92977931Y-81252703D01*
X92941045Y-81219921D01*
X92903109Y-81189399D01*
X92864123Y-81161139D01*
X92824087Y-81135139D01*
X92783002Y-81111400D01*
X92740867Y-81089921D01*
X92697683Y-81070704D01*
X92653449Y-81053747D01*
X92608165Y-81039052D01*
X92561831Y-81026617D01*
X92514448Y-81016443D01*
X92466016Y-81008529D01*
X92416534Y-81002877D01*
X92366002Y-80999486D01*
X92314420Y-80998355D01*
X92263033Y-80999486D01*
X92212655Y-81002877D01*
X92163287Y-81008529D01*
X92114928Y-81016443D01*
X92067578Y-81026617D01*
X92021238Y-81039052D01*
X91975907Y-81053747D01*
X91931586Y-81070704D01*
X91888273Y-81089921D01*
X91845970Y-81111400D01*
X91804677Y-81135139D01*
X91764392Y-81161139D01*
X91725117Y-81189399D01*
X91686851Y-81219921D01*
X91649595Y-81252703D01*
X91613347Y-81287746D01*
X91578720Y-81324014D01*
X91546327Y-81361331D01*
X91516168Y-81399698D01*
X91488243Y-81439114D01*
X91462552Y-81479580D01*
X91439096Y-81521096D01*
X91417873Y-81563662D01*
X91398884Y-81607277D01*
X91382129Y-81651942D01*
X91367609Y-81697657D01*
X91355322Y-81744422D01*
X91345269Y-81792236D01*
X91337450Y-81841100D01*
X91331865Y-81891014D01*
X91328515Y-81941978D01*
X91327398Y-81993991D01*
X91327398Y-81993999D01*
X90922721Y-81993999D01*
X90922721Y-81993991D01*
X90922605Y-81988796D01*
X90924213Y-81919221D01*
X90929037Y-81850884D01*
X90937078Y-81783786D01*
X90948335Y-81717926D01*
X90962809Y-81653303D01*
X90980498Y-81589919D01*
X91001404Y-81527773D01*
X91025526Y-81466865D01*
X91052865Y-81407195D01*
X91083419Y-81348763D01*
X91117190Y-81291570D01*
X91154177Y-81235614D01*
X91194380Y-81180897D01*
X91237800Y-81127418D01*
X91284435Y-81075176D01*
X91334287Y-81024173D01*
X91386179Y-80975364D01*
X91439364Y-80929703D01*
X91493840Y-80887191D01*
X91549608Y-80847828D01*
X91606667Y-80811615D01*
X91665019Y-80778550D01*
X91724662Y-80748634D01*
X91785597Y-80721867D01*
X91847824Y-80698249D01*
X91911343Y-80677780D01*
X91976153Y-80660461D01*
X92042256Y-80646290D01*
X92109650Y-80635268D01*
X92178337Y-80627395D01*
X92248315Y-80622672D01*
X92319585Y-80621097D01*
X92390008Y-80622685D01*
G37*
G36*
X40775139Y-160339275D02*
G01*
X40335892Y-160339275D01*
X40056832Y-159693325D01*
X38918233Y-159693325D01*
X38621957Y-160339275D01*
X38189599Y-160339275D01*
X38665965Y-159316082D01*
X39085316Y-159316082D01*
X39893189Y-159316082D01*
X39498726Y-158411739D01*
X39085316Y-159316082D01*
X38665965Y-159316082D01*
X39505623Y-157512569D01*
X40775139Y-160339275D01*
G37*
G36*
X74037038Y-67339277D02*
G01*
X73635686Y-67339277D01*
X73635686Y-64679670D01*
X74037038Y-64679670D01*
X74037038Y-67339277D01*
G37*
G36*
X58508941Y-160339275D02*
G01*
X58107589Y-160339275D01*
X58107589Y-157679668D01*
X58508941Y-157679668D01*
X58508941Y-160339275D01*
G37*
G36*
X41289318Y-66527959D02*
G01*
X41289318Y-64679670D01*
X41690670Y-64679670D01*
X41690670Y-67501195D01*
X39751084Y-65477209D01*
X39751084Y-67339277D01*
X39349732Y-67339277D01*
X39349732Y-64498800D01*
X41289318Y-66527959D01*
G37*
G36*
X61087585Y-159527950D02*
G01*
X61087585Y-157679653D01*
X61488937Y-157679653D01*
X61488937Y-160501186D01*
X59549354Y-158477199D01*
X59549354Y-160339275D01*
X59148002Y-160339275D01*
X59148002Y-157498790D01*
X61087585Y-159527950D01*
G37*
G36*
X71022276Y-44709731D02*
G01*
X71084732Y-44712052D01*
X71144900Y-44715922D01*
X71202781Y-44721338D01*
X71258373Y-44728303D01*
X71311678Y-44736814D01*
X71362694Y-44746874D01*
X71411423Y-44758481D01*
X71457864Y-44771636D01*
X71502017Y-44786338D01*
X71543882Y-44802588D01*
X71583460Y-44820385D01*
X71620750Y-44839730D01*
X71655752Y-44860623D01*
X71688466Y-44883063D01*
X71718892Y-44907051D01*
X71750181Y-44935163D01*
X71779451Y-44964379D01*
X71806703Y-44994699D01*
X71831936Y-45026122D01*
X71855150Y-45058649D01*
X71876346Y-45092279D01*
X71895523Y-45127012D01*
X71912681Y-45162849D01*
X71927821Y-45199789D01*
X71940942Y-45237833D01*
X71952044Y-45276980D01*
X71961128Y-45317231D01*
X71968193Y-45358585D01*
X71973240Y-45401043D01*
X71976268Y-45444604D01*
X71977277Y-45489269D01*
X71976645Y-45524271D01*
X71974747Y-45558655D01*
X71971585Y-45592420D01*
X71967158Y-45625565D01*
X71961465Y-45658092D01*
X71954508Y-45689999D01*
X71946286Y-45721287D01*
X71936798Y-45751957D01*
X71926046Y-45782007D01*
X71914029Y-45811439D01*
X71900746Y-45840251D01*
X71886199Y-45868444D01*
X71870386Y-45896019D01*
X71853309Y-45922974D01*
X71834966Y-45949311D01*
X71815358Y-45975028D01*
X71794714Y-45999863D01*
X71773263Y-46023555D01*
X71751004Y-46046103D01*
X71727938Y-46067506D01*
X71704065Y-46087766D01*
X71679384Y-46106882D01*
X71653896Y-46124855D01*
X71627600Y-46141683D01*
X71600497Y-46157368D01*
X71572586Y-46171908D01*
X71543868Y-46185305D01*
X71514343Y-46197559D01*
X71484010Y-46208668D01*
X71452869Y-46218633D01*
X71420921Y-46227455D01*
X71388175Y-46235131D01*
X72211553Y-47368564D01*
X71720624Y-47368564D01*
X70960981Y-46279914D01*
X70888631Y-46279914D01*
X70888631Y-47368564D01*
X70487279Y-47368564D01*
X70487279Y-45930240D01*
X70487279Y-45086196D01*
X70888639Y-45086196D01*
X70888639Y-45930240D01*
X71016103Y-45930240D01*
X71085145Y-45928537D01*
X71149734Y-45923430D01*
X71209867Y-45914919D01*
X71265547Y-45903002D01*
X71316772Y-45887681D01*
X71340714Y-45878744D01*
X71363543Y-45868955D01*
X71385258Y-45858315D01*
X71405860Y-45846825D01*
X71425348Y-45834483D01*
X71443722Y-45821289D01*
X71460983Y-45807245D01*
X71477130Y-45792349D01*
X71492164Y-45776603D01*
X71506084Y-45760005D01*
X71518890Y-45742556D01*
X71530583Y-45724255D01*
X71541162Y-45705104D01*
X71550628Y-45685101D01*
X71558980Y-45664247D01*
X71566218Y-45642542D01*
X71572343Y-45619986D01*
X71577354Y-45596579D01*
X71581252Y-45572320D01*
X71584036Y-45547211D01*
X71585706Y-45521250D01*
X71586263Y-45494438D01*
X71585721Y-45469321D01*
X71584096Y-45445002D01*
X71581388Y-45421481D01*
X71577597Y-45398757D01*
X71572722Y-45376830D01*
X71566764Y-45355700D01*
X71559722Y-45335368D01*
X71551597Y-45315833D01*
X71542389Y-45297095D01*
X71532098Y-45279155D01*
X71520723Y-45262012D01*
X71508265Y-45245666D01*
X71494724Y-45230118D01*
X71480099Y-45215367D01*
X71464391Y-45201413D01*
X71447600Y-45188257D01*
X71429725Y-45175898D01*
X71410767Y-45164337D01*
X71390726Y-45153573D01*
X71369601Y-45143606D01*
X71347393Y-45134436D01*
X71324102Y-45126064D01*
X71299727Y-45118489D01*
X71274269Y-45111712D01*
X71247728Y-45105732D01*
X71220104Y-45100549D01*
X71191396Y-45096163D01*
X71161604Y-45092575D01*
X71130730Y-45089785D01*
X71098772Y-45087791D01*
X71065731Y-45086595D01*
X71031606Y-45086196D01*
X70888639Y-45086196D01*
X70487279Y-45086196D01*
X70487279Y-44708957D01*
X70957532Y-44708957D01*
X71022276Y-44709731D01*
G37*
G36*
X88523969Y-66953428D02*
G01*
X89306012Y-66953428D01*
X89306012Y-67330663D01*
X88122625Y-67330663D01*
X88122625Y-64671056D01*
X88523969Y-64671056D01*
X88523969Y-66953428D01*
G37*
G36*
X36939946Y-157628515D02*
G01*
X36978434Y-157630009D01*
X37016598Y-157632499D01*
X37054440Y-157635985D01*
X37091959Y-157640466D01*
X37129155Y-157645944D01*
X37166028Y-157652418D01*
X37202578Y-157659887D01*
X37238806Y-157668352D01*
X37274710Y-157677813D01*
X37310291Y-157688270D01*
X37345549Y-157699722D01*
X37380485Y-157712170D01*
X37415097Y-157725614D01*
X37449387Y-157740054D01*
X37483353Y-157755489D01*
X37515617Y-157772041D01*
X37547814Y-157789831D01*
X37579943Y-157808859D01*
X37612005Y-157829126D01*
X37644000Y-157850630D01*
X37675927Y-157873373D01*
X37707787Y-157897354D01*
X37739580Y-157922573D01*
X37771306Y-157949030D01*
X37802965Y-157976725D01*
X37834556Y-158005658D01*
X37866079Y-158035829D01*
X37897536Y-158067238D01*
X37928925Y-158099886D01*
X37960247Y-158133772D01*
X37991502Y-158168895D01*
X37705560Y-158442790D01*
X37664091Y-158390016D01*
X37621505Y-158340647D01*
X37577802Y-158294683D01*
X37532982Y-158252123D01*
X37487045Y-158212969D01*
X37439991Y-158177219D01*
X37391821Y-158144874D01*
X37342533Y-158115934D01*
X37292128Y-158090399D01*
X37240607Y-158068268D01*
X37187968Y-158049542D01*
X37134213Y-158034221D01*
X37079340Y-158022305D01*
X37023351Y-158013793D01*
X36966244Y-158008687D01*
X36908021Y-158006984D01*
X36855799Y-158008121D01*
X36804641Y-158011533D01*
X36754546Y-158017218D01*
X36705514Y-158025178D01*
X36657545Y-158035412D01*
X36610639Y-158047920D01*
X36564797Y-158062702D01*
X36520017Y-158079759D01*
X36476301Y-158099090D01*
X36433648Y-158120696D01*
X36392058Y-158144576D01*
X36351531Y-158170730D01*
X36312067Y-158199159D01*
X36273667Y-158229862D01*
X36236329Y-158262839D01*
X36200055Y-158298091D01*
X36165429Y-158334399D01*
X36133037Y-158371838D01*
X36102879Y-158410407D01*
X36074955Y-158450106D01*
X36049265Y-158490936D01*
X36025809Y-158532896D01*
X36004587Y-158575987D01*
X35985598Y-158620208D01*
X35968844Y-158665560D01*
X35954323Y-158712042D01*
X35942037Y-158759655D01*
X35931984Y-158808398D01*
X35924165Y-158858271D01*
X35918581Y-158909275D01*
X35915230Y-158961410D01*
X35914113Y-159014675D01*
X35915358Y-159069615D01*
X35919092Y-159123331D01*
X35925316Y-159175822D01*
X35934030Y-159227088D01*
X35945233Y-159277130D01*
X35958926Y-159325947D01*
X35975109Y-159373540D01*
X35993781Y-159419908D01*
X36014943Y-159465051D01*
X36038594Y-159508970D01*
X36064735Y-159551664D01*
X36093366Y-159593133D01*
X36124486Y-159633377D01*
X36158096Y-159672396D01*
X36194196Y-159710191D01*
X36232785Y-159746761D01*
X36270230Y-159779092D01*
X36308065Y-159809337D01*
X36346291Y-159837497D01*
X36384907Y-159863570D01*
X36423913Y-159887558D01*
X36463310Y-159909461D01*
X36503097Y-159929277D01*
X36543274Y-159947008D01*
X36583841Y-159962652D01*
X36624799Y-159976211D01*
X36666147Y-159987684D01*
X36707885Y-159997071D01*
X36750013Y-160004372D01*
X36792532Y-160009587D01*
X36835440Y-160012716D01*
X36878739Y-160013759D01*
X36915538Y-160012979D01*
X36951866Y-160010637D01*
X36987723Y-160006734D01*
X37023109Y-160001271D01*
X37058024Y-159994246D01*
X37092468Y-159985660D01*
X37126441Y-159975514D01*
X37159943Y-159963806D01*
X37192974Y-159950537D01*
X37225534Y-159935707D01*
X37257624Y-159919316D01*
X37289242Y-159901364D01*
X37320389Y-159881851D01*
X37351065Y-159860777D01*
X37381270Y-159838141D01*
X37411004Y-159813945D01*
X37439688Y-159788444D01*
X37466744Y-159762325D01*
X37492172Y-159735586D01*
X37515971Y-159708227D01*
X37538142Y-159680250D01*
X37558685Y-159651654D01*
X37577599Y-159622438D01*
X37594885Y-159592603D01*
X37610543Y-159562149D01*
X37624572Y-159531076D01*
X37636973Y-159499383D01*
X37647746Y-159467071D01*
X37656890Y-159434140D01*
X37664406Y-159400589D01*
X37670294Y-159366420D01*
X37674554Y-159331630D01*
X37011376Y-159331630D01*
X37011376Y-158954341D01*
X38110360Y-158954341D01*
X38110360Y-159042247D01*
X38109256Y-159116101D01*
X38105946Y-159187802D01*
X38100429Y-159257350D01*
X38092705Y-159324745D01*
X38082773Y-159389987D01*
X38070635Y-159453076D01*
X38056290Y-159514012D01*
X38039738Y-159572795D01*
X38030756Y-159599387D01*
X38021033Y-159625763D01*
X38010570Y-159651924D01*
X37999367Y-159677869D01*
X37987424Y-159703600D01*
X37974740Y-159729115D01*
X37961317Y-159754414D01*
X37947153Y-159779499D01*
X37932249Y-159804368D01*
X37916604Y-159829021D01*
X37900220Y-159853460D01*
X37883095Y-159877683D01*
X37865230Y-159901691D01*
X37846625Y-159925484D01*
X37827280Y-159949061D01*
X37807195Y-159972423D01*
X37760114Y-160022902D01*
X37711459Y-160070125D01*
X37661229Y-160114090D01*
X37609425Y-160154799D01*
X37556046Y-160192251D01*
X37501093Y-160226446D01*
X37444566Y-160257385D01*
X37386463Y-160285066D01*
X37326787Y-160309491D01*
X37265536Y-160330659D01*
X37202710Y-160348570D01*
X37138310Y-160363225D01*
X37072335Y-160374623D01*
X37004786Y-160382765D01*
X36935663Y-160387650D01*
X36864964Y-160389278D01*
X36795827Y-160387703D01*
X36727941Y-160382980D01*
X36661307Y-160375108D01*
X36595924Y-160364086D01*
X36531792Y-160349916D01*
X36468913Y-160332597D01*
X36407285Y-160312128D01*
X36346908Y-160288511D01*
X36287783Y-160261744D01*
X36229909Y-160231829D01*
X36173287Y-160198764D01*
X36117917Y-160162550D01*
X36063798Y-160123187D01*
X36010931Y-160080674D01*
X35959316Y-160035013D01*
X35908952Y-159986202D01*
X35860768Y-159934969D01*
X35815692Y-159882472D01*
X35773726Y-159828709D01*
X35734868Y-159773682D01*
X35699118Y-159717389D01*
X35666477Y-159659832D01*
X35636945Y-159601009D01*
X35610522Y-159540922D01*
X35587207Y-159479569D01*
X35567000Y-159416951D01*
X35549903Y-159353068D01*
X35535914Y-159287920D01*
X35525033Y-159221506D01*
X35517262Y-159153828D01*
X35512599Y-159084884D01*
X35511044Y-159014675D01*
X35512626Y-158943014D01*
X35517369Y-158872726D01*
X35525276Y-158803811D01*
X35536344Y-158736269D01*
X35550575Y-158670098D01*
X35567969Y-158605301D01*
X35588525Y-158541876D01*
X35612244Y-158479824D01*
X35639125Y-158419144D01*
X35669169Y-158359837D01*
X35702375Y-158301902D01*
X35738743Y-158245340D01*
X35778274Y-158190150D01*
X35820967Y-158136333D01*
X35866823Y-158083889D01*
X35915841Y-158032817D01*
X35967127Y-157983799D01*
X36019785Y-157937942D01*
X36073816Y-157895248D01*
X36129220Y-157855717D01*
X36185997Y-157819348D01*
X36244146Y-157786142D01*
X36303668Y-157756098D01*
X36364563Y-157729217D01*
X36426830Y-157705498D01*
X36490470Y-157684942D01*
X36555483Y-157667548D01*
X36621868Y-157653317D01*
X36689626Y-157642248D01*
X36758756Y-157634342D01*
X36829260Y-157629598D01*
X36901135Y-157628017D01*
X36939946Y-157628515D01*
G37*
G36*
X94328946Y-66273061D02*
G01*
X94329384Y-66315189D01*
X94330696Y-66355878D01*
X94332883Y-66395126D01*
X94335944Y-66432935D01*
X94339881Y-66469304D01*
X94344692Y-66504233D01*
X94350377Y-66537721D01*
X94356938Y-66569770D01*
X94364373Y-66600379D01*
X94372682Y-66629548D01*
X94381867Y-66657277D01*
X94391926Y-66683566D01*
X94402859Y-66708415D01*
X94414668Y-66731823D01*
X94427350Y-66753792D01*
X94440908Y-66774320D01*
X94462326Y-66802063D01*
X94484808Y-66828015D01*
X94508352Y-66852178D01*
X94532960Y-66874550D01*
X94558630Y-66895133D01*
X94585364Y-66913926D01*
X94613161Y-66930929D01*
X94642020Y-66946143D01*
X94671943Y-66959566D01*
X94702929Y-66971200D01*
X94734978Y-66981043D01*
X94768090Y-66989097D01*
X94802265Y-66995362D01*
X94837503Y-66999836D01*
X94873804Y-67002521D01*
X94911168Y-67003416D01*
X94948742Y-67002521D01*
X94985238Y-66999836D01*
X95020659Y-66995362D01*
X95055002Y-66989097D01*
X95088269Y-66981043D01*
X95120459Y-66971200D01*
X95151572Y-66959566D01*
X95181608Y-66946143D01*
X95210568Y-66930929D01*
X95238451Y-66913926D01*
X95265258Y-66895133D01*
X95290987Y-66874550D01*
X95315640Y-66852178D01*
X95339216Y-66828015D01*
X95361716Y-66802063D01*
X95383138Y-66774320D01*
X95396697Y-66754397D01*
X95409381Y-66732953D01*
X95421190Y-66709988D01*
X95432124Y-66685502D01*
X95442183Y-66659496D01*
X95451368Y-66631970D01*
X95459678Y-66602922D01*
X95467113Y-66572354D01*
X95473673Y-66540265D01*
X95479359Y-66506655D01*
X95484170Y-66471525D01*
X95488106Y-66434874D01*
X95491167Y-66396702D01*
X95493354Y-66357009D01*
X95494666Y-66315796D01*
X95495103Y-66273061D01*
X95495103Y-64671094D01*
X95896455Y-64671094D01*
X95896455Y-66383306D01*
X95895432Y-66435266D01*
X95892364Y-66486068D01*
X95887250Y-66535713D01*
X95880090Y-66584200D01*
X95870885Y-66631530D01*
X95859634Y-66677702D01*
X95846338Y-66722718D01*
X95830996Y-66766575D01*
X95813608Y-66809276D01*
X95794175Y-66850819D01*
X95772697Y-66891204D01*
X95749173Y-66930433D01*
X95723603Y-66968504D01*
X95695988Y-67005417D01*
X95666328Y-67041174D01*
X95634622Y-67075773D01*
X95597279Y-67112484D01*
X95558887Y-67146827D01*
X95519445Y-67178802D01*
X95478953Y-67208408D01*
X95437411Y-67235646D01*
X95394820Y-67260515D01*
X95351179Y-67283016D01*
X95306488Y-67303149D01*
X95260747Y-67320913D01*
X95213957Y-67336308D01*
X95166116Y-67349335D01*
X95117226Y-67359994D01*
X95067287Y-67368283D01*
X95016297Y-67374205D01*
X94964258Y-67377758D01*
X94911168Y-67378942D01*
X94858086Y-67377758D01*
X94806066Y-67374205D01*
X94755110Y-67368283D01*
X94705216Y-67359994D01*
X94656386Y-67349335D01*
X94608619Y-67336308D01*
X94561915Y-67320913D01*
X94516274Y-67303149D01*
X94471696Y-67283016D01*
X94428181Y-67260515D01*
X94385730Y-67235646D01*
X94344341Y-67208408D01*
X94304016Y-67178802D01*
X94264754Y-67146827D01*
X94226556Y-67112484D01*
X94189420Y-67075773D01*
X94157714Y-67041174D01*
X94128054Y-67005417D01*
X94100439Y-66968504D01*
X94074869Y-66930433D01*
X94051345Y-66891204D01*
X94029867Y-66850819D01*
X94010434Y-66809276D01*
X93993046Y-66766575D01*
X93977704Y-66722718D01*
X93964408Y-66677702D01*
X93953157Y-66631530D01*
X93943952Y-66584200D01*
X93936792Y-66535713D01*
X93931678Y-66486068D01*
X93928610Y-66435266D01*
X93927587Y-66383306D01*
X93927587Y-64671094D01*
X94328946Y-64671094D01*
X94328946Y-66273061D01*
G37*
G36*
X55710670Y-67339277D02*
G01*
X55309318Y-67339277D01*
X55309318Y-64679670D01*
X55710670Y-64679670D01*
X55710670Y-67339277D01*
G37*
G36*
X96617334Y-51048323D02*
G01*
X96007554Y-51048323D01*
X96007554Y-53330695D01*
X95606202Y-53330695D01*
X95606202Y-51048323D01*
X94994695Y-51048323D01*
X94994695Y-50671088D01*
X96617334Y-50671088D01*
X96617334Y-51048323D01*
G37*
G36*
X71238043Y-80680442D02*
G01*
X71300499Y-80682763D01*
X71360667Y-80686632D01*
X71418548Y-80692049D01*
X71474140Y-80699013D01*
X71527445Y-80707525D01*
X71578462Y-80717584D01*
X71627191Y-80729191D01*
X71673632Y-80742346D01*
X71717786Y-80757048D01*
X71759652Y-80773297D01*
X71799230Y-80791094D01*
X71836521Y-80810439D01*
X71871524Y-80831331D01*
X71904239Y-80853771D01*
X71934667Y-80877758D01*
X71965956Y-80905870D01*
X71995226Y-80935085D01*
X72022477Y-80965405D01*
X72047710Y-80996827D01*
X72070924Y-81029354D01*
X72092120Y-81062984D01*
X72111297Y-81097718D01*
X72128455Y-81133555D01*
X72143595Y-81170496D01*
X72156716Y-81208540D01*
X72167819Y-81247688D01*
X72176903Y-81287939D01*
X72183968Y-81329294D01*
X72189014Y-81371752D01*
X72192042Y-81415314D01*
X72193052Y-81459980D01*
X72192419Y-81494982D01*
X72190522Y-81529366D01*
X72187359Y-81563130D01*
X72182932Y-81596276D01*
X72177240Y-81628802D01*
X72170282Y-81660710D01*
X72162060Y-81691998D01*
X72152573Y-81722667D01*
X72141821Y-81752717D01*
X72129803Y-81782149D01*
X72116521Y-81810961D01*
X72101973Y-81839154D01*
X72086161Y-81866728D01*
X72069083Y-81893683D01*
X72050741Y-81920019D01*
X72031133Y-81945735D01*
X72010489Y-81970571D01*
X71989038Y-81994262D01*
X71966779Y-82016810D01*
X71943713Y-82038214D01*
X71919839Y-82058474D01*
X71895159Y-82077590D01*
X71869670Y-82095562D01*
X71843375Y-82112390D01*
X71816271Y-82128074D01*
X71788361Y-82142615D01*
X71759643Y-82156012D01*
X71730117Y-82168264D01*
X71699784Y-82179373D01*
X71668644Y-82189338D01*
X71636696Y-82198159D01*
X71603940Y-82205837D01*
X71603940Y-82205844D01*
X72427320Y-83339275D01*
X71936391Y-83339275D01*
X71176748Y-82250629D01*
X71104398Y-82250629D01*
X71104398Y-83339275D01*
X70703046Y-83339275D01*
X70703046Y-81900951D01*
X70703046Y-81056903D01*
X71104406Y-81056903D01*
X71104406Y-81900951D01*
X71231870Y-81900951D01*
X71300912Y-81899249D01*
X71365500Y-81894141D01*
X71425634Y-81885629D01*
X71481314Y-81873713D01*
X71532539Y-81858391D01*
X71556481Y-81849454D01*
X71579310Y-81839665D01*
X71601025Y-81829025D01*
X71621627Y-81817534D01*
X71641115Y-81805192D01*
X71659489Y-81791998D01*
X71676750Y-81777954D01*
X71692897Y-81763058D01*
X71707930Y-81747311D01*
X71721850Y-81730713D01*
X71734657Y-81713264D01*
X71746350Y-81694963D01*
X71756929Y-81675812D01*
X71766395Y-81655809D01*
X71774747Y-81634955D01*
X71781985Y-81613250D01*
X71788110Y-81590693D01*
X71793121Y-81567286D01*
X71797019Y-81543027D01*
X71799803Y-81517918D01*
X71801473Y-81491957D01*
X71802030Y-81465145D01*
X71801488Y-81440028D01*
X71799863Y-81415709D01*
X71797155Y-81392187D01*
X71793363Y-81369462D01*
X71788489Y-81347535D01*
X71782530Y-81326405D01*
X71775489Y-81306073D01*
X71767364Y-81286538D01*
X71758156Y-81267800D01*
X71747865Y-81249860D01*
X71736490Y-81232717D01*
X71724032Y-81216371D01*
X71710491Y-81200823D01*
X71695866Y-81186072D01*
X71680158Y-81172119D01*
X71663367Y-81158963D01*
X71645492Y-81146604D01*
X71626534Y-81135042D01*
X71606493Y-81124278D01*
X71585368Y-81114312D01*
X71563160Y-81105142D01*
X71539869Y-81096770D01*
X71515494Y-81089195D01*
X71490036Y-81082418D01*
X71463495Y-81076438D01*
X71435871Y-81071255D01*
X71407163Y-81066870D01*
X71377371Y-81063282D01*
X71346497Y-81060491D01*
X71314539Y-81058498D01*
X71281498Y-81057302D01*
X71247373Y-81056903D01*
X71104406Y-81056903D01*
X70703046Y-81056903D01*
X70703046Y-80679668D01*
X71173299Y-80679668D01*
X71238043Y-80680442D01*
G37*
G36*
X37203469Y-79680395D02*
G01*
X37279342Y-79682575D01*
X37350101Y-79686208D01*
X37415746Y-79691295D01*
X37476277Y-79697835D01*
X37531694Y-79705829D01*
X37581997Y-79715276D01*
X37627187Y-79726177D01*
X37648557Y-79732313D01*
X37669605Y-79739096D01*
X37690329Y-79746524D01*
X37710731Y-79754598D01*
X37730809Y-79763318D01*
X37750565Y-79772684D01*
X37769997Y-79782697D01*
X37789107Y-79793355D01*
X37807893Y-79804658D01*
X37826357Y-79816608D01*
X37844497Y-79829204D01*
X37862315Y-79842446D01*
X37879810Y-79856334D01*
X37896981Y-79870868D01*
X37913830Y-79886048D01*
X37930356Y-79901874D01*
X37958098Y-79930322D01*
X37984051Y-79959686D01*
X38008214Y-79989965D01*
X38030587Y-80021159D01*
X38051170Y-80053268D01*
X38069963Y-80086292D01*
X38086967Y-80120231D01*
X38102180Y-80155086D01*
X38115604Y-80190856D01*
X38127238Y-80227541D01*
X38137082Y-80265141D01*
X38145136Y-80303656D01*
X38151401Y-80343087D01*
X38155875Y-80383432D01*
X38158560Y-80424693D01*
X38159455Y-80466869D01*
X38158500Y-80511924D01*
X38155633Y-80555796D01*
X38150856Y-80598482D01*
X38144167Y-80639985D01*
X38135568Y-80680303D01*
X38125058Y-80719437D01*
X38112636Y-80757387D01*
X38098304Y-80794153D01*
X38082061Y-80829734D01*
X38063907Y-80864131D01*
X38043842Y-80897343D01*
X38021866Y-80929372D01*
X37997979Y-80960216D01*
X37972181Y-80989876D01*
X37944472Y-81018351D01*
X37914853Y-81045642D01*
X37883612Y-81071507D01*
X37851038Y-81095703D01*
X37817132Y-81118230D01*
X37781894Y-81139089D01*
X37745324Y-81158279D01*
X37707421Y-81175800D01*
X37668186Y-81191653D01*
X37627619Y-81205837D01*
X37585719Y-81218352D01*
X37542487Y-81229198D01*
X37497923Y-81238376D01*
X37452027Y-81245885D01*
X37404799Y-81251726D01*
X37356238Y-81255898D01*
X37306345Y-81258401D01*
X37255120Y-81259235D01*
X37069081Y-81259243D01*
X37069081Y-82339275D01*
X36667729Y-82339275D01*
X36667729Y-80050014D01*
X37069077Y-80050014D01*
X37069081Y-80887172D01*
X37218941Y-80887172D01*
X37285899Y-80885510D01*
X37348536Y-80880524D01*
X37406854Y-80872214D01*
X37460852Y-80860580D01*
X37486231Y-80853517D01*
X37510530Y-80845623D01*
X37533749Y-80836897D01*
X37555888Y-80827341D01*
X37576947Y-80816953D01*
X37596926Y-80805735D01*
X37615825Y-80793685D01*
X37633644Y-80780805D01*
X37650384Y-80767094D01*
X37666043Y-80752551D01*
X37680622Y-80737178D01*
X37694122Y-80720974D01*
X37706541Y-80703938D01*
X37717881Y-80686072D01*
X37728140Y-80667375D01*
X37737320Y-80647846D01*
X37745419Y-80627487D01*
X37752439Y-80606297D01*
X37758379Y-80584275D01*
X37763238Y-80561423D01*
X37767018Y-80537740D01*
X37769718Y-80513225D01*
X37771338Y-80487880D01*
X37771878Y-80461704D01*
X37771321Y-80436375D01*
X37769651Y-80411851D01*
X37766867Y-80388130D01*
X37762969Y-80365214D01*
X37757958Y-80343102D01*
X37751833Y-80321794D01*
X37744595Y-80301290D01*
X37736243Y-80281589D01*
X37726777Y-80262694D01*
X37716198Y-80244602D01*
X37704505Y-80227314D01*
X37691698Y-80210830D01*
X37677778Y-80195151D01*
X37662745Y-80180275D01*
X37646597Y-80166204D01*
X37629337Y-80152936D01*
X37610962Y-80140473D01*
X37591474Y-80128814D01*
X37570873Y-80117959D01*
X37549157Y-80107908D01*
X37526328Y-80098661D01*
X37502386Y-80090218D01*
X37477330Y-80082579D01*
X37451160Y-80075745D01*
X37423877Y-80069714D01*
X37395480Y-80064487D01*
X37365970Y-80060065D01*
X37335346Y-80056447D01*
X37303609Y-80053632D01*
X37270757Y-80051622D01*
X37236793Y-80050416D01*
X37201714Y-80050014D01*
X37069077Y-80050014D01*
X36667729Y-80050014D01*
X36667729Y-79679668D01*
X37122483Y-79679668D01*
X37203469Y-79680395D01*
G37*
G36*
X53939964Y-157628515D02*
G01*
X53978453Y-157630009D01*
X54016618Y-157632499D01*
X54054461Y-157635985D01*
X54091980Y-157640466D01*
X54129177Y-157645944D01*
X54166050Y-157652418D01*
X54202601Y-157659887D01*
X54238828Y-157668352D01*
X54274733Y-157677813D01*
X54310314Y-157688270D01*
X54345572Y-157699722D01*
X54380508Y-157712170D01*
X54415120Y-157725614D01*
X54449409Y-157740054D01*
X54483375Y-157755489D01*
X54515639Y-157772041D01*
X54547836Y-157789831D01*
X54579966Y-157808859D01*
X54612028Y-157829126D01*
X54644023Y-157850630D01*
X54675950Y-157873373D01*
X54707811Y-157897354D01*
X54739603Y-157922573D01*
X54771329Y-157949030D01*
X54802987Y-157976725D01*
X54834578Y-158005658D01*
X54866101Y-158035829D01*
X54897558Y-158067238D01*
X54928947Y-158099886D01*
X54960269Y-158133772D01*
X54991523Y-158168895D01*
X54705581Y-158442791D01*
X54664111Y-158390019D01*
X54621525Y-158340652D01*
X54577821Y-158294690D01*
X54533000Y-158252132D01*
X54487062Y-158212979D01*
X54440008Y-158177230D01*
X54391836Y-158144886D01*
X54342548Y-158115947D01*
X54292142Y-158090413D01*
X54240620Y-158068283D01*
X54187981Y-158049557D01*
X54134225Y-158034236D01*
X54079353Y-158022320D01*
X54023363Y-158013809D01*
X53966257Y-158008702D01*
X53908035Y-158006999D01*
X53855813Y-158008137D01*
X53804655Y-158011548D01*
X53754559Y-158017233D01*
X53705527Y-158025193D01*
X53657558Y-158035427D01*
X53610652Y-158047935D01*
X53564809Y-158062718D01*
X53520029Y-158079774D01*
X53476313Y-158099106D01*
X53433659Y-158120711D01*
X53392069Y-158144591D01*
X53351542Y-158170745D01*
X53312078Y-158199174D01*
X53273677Y-158229877D01*
X53236339Y-158262855D01*
X53200065Y-158298107D01*
X53165439Y-158334415D01*
X53133047Y-158371853D01*
X53102889Y-158410422D01*
X53074965Y-158450121D01*
X53049275Y-158490951D01*
X53025819Y-158532912D01*
X53004597Y-158576002D01*
X52985608Y-158620224D01*
X52968854Y-158665575D01*
X52954333Y-158712057D01*
X52942047Y-158759670D01*
X52931994Y-158808413D01*
X52924176Y-158858287D01*
X52918591Y-158909291D01*
X52915240Y-158961425D01*
X52914123Y-159014690D01*
X52915368Y-159069630D01*
X52919102Y-159123346D01*
X52925326Y-159175837D01*
X52934040Y-159227103D01*
X52945243Y-159277145D01*
X52958936Y-159325963D01*
X52975119Y-159373555D01*
X52993791Y-159419923D01*
X53014953Y-159465067D01*
X53038604Y-159508985D01*
X53064745Y-159551679D01*
X53093376Y-159593148D01*
X53124496Y-159633392D01*
X53158106Y-159672412D01*
X53194206Y-159710206D01*
X53232795Y-159746776D01*
X53270241Y-159779107D01*
X53308076Y-159809352D01*
X53346302Y-159837512D01*
X53384918Y-159863586D01*
X53423925Y-159887574D01*
X53463321Y-159909476D01*
X53503108Y-159929292D01*
X53543285Y-159947023D01*
X53583852Y-159962668D01*
X53624809Y-159976226D01*
X53666156Y-159987699D01*
X53707894Y-159997086D01*
X53750021Y-160004387D01*
X53792539Y-160009602D01*
X53835447Y-160012731D01*
X53878745Y-160013774D01*
X53915544Y-160012994D01*
X53951872Y-160010652D01*
X53987729Y-160006750D01*
X54023115Y-160001286D01*
X54058030Y-159994261D01*
X54092474Y-159985676D01*
X54126448Y-159975529D01*
X54159950Y-159963821D01*
X54192981Y-159950552D01*
X54225541Y-159935722D01*
X54257630Y-159919331D01*
X54289248Y-159901379D01*
X54320395Y-159881866D01*
X54351071Y-159860792D01*
X54381276Y-159838157D01*
X54411010Y-159813961D01*
X54439694Y-159788460D01*
X54466751Y-159762340D01*
X54492178Y-159735601D01*
X54515978Y-159708243D01*
X54538149Y-159680265D01*
X54558692Y-159651669D01*
X54577607Y-159622453D01*
X54594893Y-159592618D01*
X54610551Y-159562164D01*
X54624580Y-159531091D01*
X54636981Y-159499398D01*
X54647754Y-159467087D01*
X54656898Y-159434155D01*
X54664414Y-159400605D01*
X54670301Y-159366435D01*
X54674560Y-159331645D01*
X54011382Y-159331645D01*
X54011382Y-158954341D01*
X55110366Y-158954341D01*
X55110366Y-159042247D01*
X55109263Y-159116101D01*
X55105953Y-159187802D01*
X55100436Y-159257350D01*
X55092713Y-159324745D01*
X55082782Y-159389987D01*
X55070645Y-159453076D01*
X55056300Y-159514012D01*
X55039748Y-159572795D01*
X55030765Y-159599387D01*
X55021042Y-159625763D01*
X55010579Y-159651924D01*
X54999375Y-159677869D01*
X54987432Y-159703600D01*
X54974748Y-159729115D01*
X54961324Y-159754414D01*
X54947160Y-159779499D01*
X54932256Y-159804368D01*
X54916612Y-159829021D01*
X54900228Y-159853460D01*
X54883103Y-159877683D01*
X54865239Y-159901691D01*
X54846634Y-159925484D01*
X54827289Y-159949061D01*
X54807205Y-159972423D01*
X54760124Y-160022902D01*
X54711470Y-160070125D01*
X54661240Y-160114090D01*
X54609436Y-160154799D01*
X54556058Y-160192251D01*
X54501105Y-160226446D01*
X54444577Y-160257385D01*
X54386475Y-160285066D01*
X54326798Y-160309491D01*
X54265547Y-160330659D01*
X54202721Y-160348570D01*
X54138321Y-160363225D01*
X54072346Y-160374623D01*
X54004796Y-160382765D01*
X53935673Y-160387650D01*
X53864974Y-160389278D01*
X53795837Y-160387703D01*
X53727951Y-160382980D01*
X53661317Y-160375108D01*
X53595934Y-160364086D01*
X53531803Y-160349916D01*
X53468923Y-160332597D01*
X53407295Y-160312128D01*
X53346918Y-160288511D01*
X53287794Y-160261744D01*
X53229920Y-160231829D01*
X53173299Y-160198764D01*
X53117929Y-160162550D01*
X53063810Y-160123187D01*
X53010944Y-160080674D01*
X52959329Y-160035013D01*
X52908965Y-159986202D01*
X52860781Y-159934969D01*
X52815705Y-159882472D01*
X52773738Y-159828709D01*
X52734879Y-159773682D01*
X52699129Y-159717389D01*
X52666488Y-159659832D01*
X52636956Y-159601009D01*
X52610532Y-159540922D01*
X52587217Y-159479569D01*
X52567011Y-159416951D01*
X52549913Y-159353068D01*
X52535924Y-159287920D01*
X52525043Y-159221506D01*
X52517272Y-159153828D01*
X52512609Y-159084884D01*
X52511054Y-159014675D01*
X52512636Y-158943014D01*
X52517379Y-158872726D01*
X52525286Y-158803811D01*
X52536354Y-158736269D01*
X52550586Y-158670098D01*
X52567979Y-158605301D01*
X52588536Y-158541876D01*
X52612254Y-158479824D01*
X52639136Y-158419144D01*
X52669179Y-158359837D01*
X52702386Y-158301902D01*
X52738755Y-158245340D01*
X52778286Y-158190150D01*
X52820980Y-158136333D01*
X52866836Y-158083889D01*
X52915855Y-158032817D01*
X52967141Y-157983799D01*
X53019800Y-157937942D01*
X53073832Y-157895248D01*
X53129236Y-157855717D01*
X53186012Y-157819348D01*
X53244162Y-157786142D01*
X53303684Y-157756098D01*
X53364579Y-157729217D01*
X53426846Y-157705498D01*
X53490486Y-157684942D01*
X53555499Y-157667548D01*
X53621884Y-157653317D01*
X53689642Y-157642248D01*
X53758773Y-157634342D01*
X53829277Y-157629598D01*
X53901153Y-157628017D01*
X53939964Y-157628515D01*
G37*
G36*
X54203477Y-79680395D02*
G01*
X54279351Y-79682575D01*
X54350110Y-79686208D01*
X54415756Y-79691295D01*
X54476287Y-79697835D01*
X54531704Y-79705829D01*
X54582007Y-79715276D01*
X54627197Y-79726177D01*
X54648567Y-79732313D01*
X54669615Y-79739096D01*
X54690339Y-79746524D01*
X54710741Y-79754598D01*
X54730820Y-79763318D01*
X54750576Y-79772684D01*
X54770008Y-79782697D01*
X54789118Y-79793355D01*
X54807905Y-79804658D01*
X54826368Y-79816608D01*
X54844509Y-79829204D01*
X54862327Y-79842446D01*
X54879821Y-79856334D01*
X54896992Y-79870868D01*
X54913841Y-79886048D01*
X54930366Y-79901874D01*
X54958108Y-79930322D01*
X54984061Y-79959686D01*
X55008223Y-79989965D01*
X55030596Y-80021159D01*
X55051179Y-80053268D01*
X55069972Y-80086292D01*
X55086975Y-80120231D01*
X55102188Y-80155086D01*
X55115612Y-80190856D01*
X55127245Y-80227541D01*
X55137089Y-80265141D01*
X55145143Y-80303656D01*
X55151407Y-80343087D01*
X55155882Y-80383432D01*
X55158566Y-80424693D01*
X55159461Y-80466869D01*
X55158506Y-80511924D01*
X55155639Y-80555796D01*
X55150862Y-80598482D01*
X55144174Y-80639985D01*
X55135574Y-80680303D01*
X55125064Y-80719437D01*
X55112643Y-80757387D01*
X55098311Y-80794153D01*
X55082068Y-80829734D01*
X55063914Y-80864131D01*
X55043849Y-80897343D01*
X55021874Y-80929372D01*
X54997987Y-80960216D01*
X54972190Y-80989876D01*
X54944482Y-81018351D01*
X54914863Y-81045642D01*
X54883622Y-81071507D01*
X54851049Y-81095703D01*
X54817144Y-81118230D01*
X54781906Y-81139089D01*
X54745335Y-81158279D01*
X54707432Y-81175800D01*
X54668197Y-81191653D01*
X54627630Y-81205837D01*
X54585730Y-81218352D01*
X54542497Y-81229198D01*
X54497933Y-81238376D01*
X54452036Y-81245885D01*
X54404807Y-81251726D01*
X54356246Y-81255898D01*
X54306352Y-81258401D01*
X54255126Y-81259235D01*
X54069091Y-81259243D01*
X54069091Y-82339275D01*
X53667739Y-82339275D01*
X53667739Y-80887172D01*
X54069091Y-80887172D01*
X54218955Y-80887172D01*
X54285913Y-80885510D01*
X54348551Y-80880524D01*
X54406870Y-80872214D01*
X54460868Y-80860580D01*
X54486247Y-80853517D01*
X54510546Y-80845623D01*
X54533765Y-80836897D01*
X54555904Y-80827341D01*
X54576964Y-80816953D01*
X54596943Y-80805735D01*
X54615842Y-80793685D01*
X54633662Y-80780805D01*
X54650401Y-80767094D01*
X54666060Y-80752551D01*
X54680640Y-80737178D01*
X54694139Y-80720974D01*
X54706559Y-80703938D01*
X54717898Y-80686072D01*
X54728158Y-80667375D01*
X54737337Y-80647846D01*
X54745437Y-80627487D01*
X54752457Y-80606297D01*
X54758396Y-80584275D01*
X54763256Y-80561423D01*
X54767036Y-80537740D01*
X54769736Y-80513225D01*
X54771356Y-80487880D01*
X54771896Y-80461704D01*
X54771339Y-80436375D01*
X54769668Y-80411851D01*
X54766884Y-80388130D01*
X54762987Y-80365214D01*
X54757976Y-80343102D01*
X54751851Y-80321794D01*
X54744612Y-80301289D01*
X54736260Y-80281590D01*
X54726795Y-80262694D01*
X54716215Y-80244602D01*
X54704523Y-80227314D01*
X54691716Y-80210830D01*
X54677796Y-80195151D01*
X54662763Y-80180275D01*
X54646616Y-80166204D01*
X54629355Y-80152936D01*
X54610980Y-80140473D01*
X54591492Y-80128814D01*
X54570891Y-80117959D01*
X54549176Y-80107908D01*
X54526347Y-80098661D01*
X54502405Y-80090218D01*
X54477349Y-80082579D01*
X54451180Y-80075745D01*
X54423897Y-80069714D01*
X54395500Y-80064487D01*
X54365990Y-80060065D01*
X54335366Y-80056447D01*
X54303629Y-80053632D01*
X54270778Y-80051622D01*
X54236814Y-80050416D01*
X54201736Y-80050014D01*
X54069099Y-80050014D01*
X54069091Y-80887172D01*
X53667739Y-80887172D01*
X53667739Y-79679668D01*
X54122489Y-79679668D01*
X54203477Y-79680395D01*
G37*
G36*
X71384321Y-66962041D02*
G01*
X72166356Y-66962041D01*
X72166356Y-67339277D01*
X70982969Y-67339277D01*
X70982969Y-64679670D01*
X71384321Y-64679670D01*
X71384321Y-66962041D01*
G37*
G36*
X59930908Y-81527965D02*
G01*
X59930908Y-79679676D01*
X60332259Y-79679676D01*
X60332259Y-82501201D01*
X58392677Y-80477214D01*
X58392677Y-82339283D01*
X57991325Y-82339283D01*
X57991325Y-79498806D01*
X59930908Y-81527965D01*
G37*
G36*
X40658867Y-82339275D02*
G01*
X40219620Y-82339275D01*
X39940560Y-81693325D01*
X38801961Y-81693325D01*
X38505685Y-82339275D01*
X38073327Y-82339275D01*
X38549692Y-81316089D01*
X38969044Y-81316089D01*
X39776917Y-81316089D01*
X39382455Y-80411754D01*
X38969044Y-81316089D01*
X38549692Y-81316089D01*
X39389352Y-79512584D01*
X40658867Y-82339275D01*
G37*
G36*
X67102491Y-45609844D02*
G01*
X67636480Y-44708953D01*
X68096402Y-44708953D01*
X67329870Y-45978469D01*
X68134298Y-47368564D01*
X67684713Y-47368564D01*
X67095601Y-46350539D01*
X66489263Y-47368564D01*
X66034513Y-47368564D01*
X66869947Y-45978469D01*
X66137868Y-44708953D01*
X66594343Y-44708953D01*
X67102491Y-45609844D01*
G37*
G36*
X94608846Y-82273052D02*
G01*
X94609283Y-82315180D01*
X94610595Y-82355868D01*
X94612782Y-82395117D01*
X94615844Y-82432925D01*
X94619780Y-82469294D01*
X94624592Y-82504223D01*
X94630278Y-82537712D01*
X94636838Y-82569761D01*
X94644274Y-82600370D01*
X94652584Y-82629539D01*
X94661769Y-82657267D01*
X94671829Y-82683556D01*
X94682763Y-82708405D01*
X94694572Y-82731814D01*
X94707256Y-82753782D01*
X94720815Y-82774311D01*
X94742232Y-82802053D01*
X94764712Y-82828006D01*
X94788256Y-82852168D01*
X94812863Y-82874541D01*
X94838532Y-82895124D01*
X94865265Y-82913917D01*
X94893062Y-82930920D01*
X94921921Y-82946133D01*
X94951844Y-82959557D01*
X94982829Y-82971190D01*
X95014878Y-82981034D01*
X95047990Y-82989088D01*
X95082165Y-82995352D01*
X95117403Y-82999827D01*
X95153704Y-83002511D01*
X95191068Y-83003406D01*
X95228641Y-83002511D01*
X95265138Y-82999827D01*
X95300558Y-82995352D01*
X95334901Y-82989088D01*
X95368168Y-82981034D01*
X95400357Y-82971190D01*
X95431471Y-82959557D01*
X95461507Y-82946133D01*
X95490467Y-82930920D01*
X95518350Y-82913917D01*
X95545157Y-82895124D01*
X95570887Y-82874541D01*
X95595540Y-82852168D01*
X95619117Y-82828006D01*
X95641618Y-82802053D01*
X95663041Y-82774311D01*
X95676599Y-82754387D01*
X95689282Y-82732943D01*
X95701090Y-82709978D01*
X95712023Y-82685493D01*
X95722082Y-82659487D01*
X95731267Y-82631960D01*
X95739576Y-82602912D01*
X95747011Y-82572344D01*
X95753572Y-82540255D01*
X95759258Y-82506646D01*
X95764069Y-82471515D01*
X95768005Y-82434864D01*
X95771066Y-82396692D01*
X95773253Y-82357000D01*
X95774565Y-82315786D01*
X95775003Y-82273052D01*
X95775003Y-80671085D01*
X96176355Y-80671085D01*
X96176355Y-82383296D01*
X96175332Y-82435256D01*
X96172264Y-82486058D01*
X96167150Y-82535703D01*
X96159991Y-82584190D01*
X96150787Y-82631520D01*
X96139537Y-82677693D01*
X96126241Y-82722708D01*
X96110900Y-82766566D01*
X96093514Y-82809266D01*
X96074082Y-82850809D01*
X96052605Y-82891195D01*
X96029082Y-82930423D01*
X96003514Y-82968494D01*
X95975900Y-83005408D01*
X95946241Y-83041164D01*
X95914537Y-83075763D01*
X95877192Y-83112475D01*
X95838798Y-83146818D01*
X95799354Y-83178792D01*
X95758860Y-83208399D01*
X95717317Y-83235637D01*
X95674724Y-83260506D01*
X95631081Y-83283007D01*
X95586389Y-83303139D01*
X95540648Y-83320903D01*
X95493856Y-83336299D01*
X95446016Y-83349326D01*
X95397125Y-83359984D01*
X95347185Y-83368274D01*
X95296196Y-83374195D01*
X95244157Y-83377748D01*
X95191068Y-83378932D01*
X95137985Y-83377748D01*
X95085966Y-83374195D01*
X95035010Y-83368274D01*
X94985117Y-83359984D01*
X94936287Y-83349326D01*
X94888520Y-83336299D01*
X94841817Y-83320903D01*
X94796176Y-83303139D01*
X94751599Y-83283007D01*
X94708084Y-83260506D01*
X94665633Y-83235637D01*
X94624244Y-83208399D01*
X94583919Y-83178792D01*
X94544656Y-83146818D01*
X94506456Y-83112475D01*
X94469320Y-83075763D01*
X94437615Y-83041164D01*
X94407956Y-83005408D01*
X94380342Y-82968494D01*
X94354774Y-82930423D01*
X94331252Y-82891195D01*
X94309774Y-82850809D01*
X94290343Y-82809266D01*
X94272956Y-82766566D01*
X94257615Y-82722708D01*
X94244320Y-82677693D01*
X94233070Y-82631520D01*
X94223865Y-82584190D01*
X94216706Y-82535703D01*
X94211593Y-82486058D01*
X94208524Y-82435256D01*
X94207502Y-82383296D01*
X94207502Y-80671085D01*
X94608846Y-80671085D01*
X94608846Y-82273052D01*
G37*
M02*
