%TF.GenerationSoftware,KiCad,Pcbnew,8.0.6*%
%TF.CreationDate,2024-12-10T23:30:40+00:00*%
%TF.ProjectId,bcm-mixer-panel,62636d2d-6d69-4786-9572-2d70616e656c,rev01*%
%TF.SameCoordinates,Original*%
%TF.FileFunction,Profile,NP*%
%FSLAX46Y46*%
G04 Gerber Fmt 4.6, Leading zero omitted, Abs format (unit mm)*
G04 Created by KiCad (PCBNEW 8.0.6) date 2024-12-10 23:30:40*
%MOMM*%
%LPD*%
G01*
G04 APERTURE LIST*
%TA.AperFunction,Profile*%
%ADD10C,0.050000*%
%TD*%
G04 APERTURE END LIST*
D10*
X93750000Y-90000000D02*
G75*
G02*
X94750000Y-91000000I0J-1000000D01*
G01*
X72250000Y-91000000D02*
X72250000Y-139000000D01*
X91250000Y-91000000D02*
G75*
G02*
X92250000Y-90000000I1000000J0D01*
G01*
X41750000Y-139000000D02*
X41750000Y-91000000D01*
X41750000Y-139000000D02*
G75*
G02*
X40750000Y-140000000I-1000000J0D01*
G01*
X40750000Y-90000000D02*
G75*
G02*
X41750000Y-91000000I0J-1000000D01*
G01*
X93750000Y-90000000D02*
X92250000Y-90000000D01*
X102400000Y-170500000D02*
X31600000Y-170500000D01*
X41250000Y-143000000D02*
G75*
G02*
X38750000Y-143000000I-1250000J0D01*
G01*
X38750000Y-143000000D02*
G75*
G02*
X41250000Y-143000000I1250000J0D01*
G01*
X74750000Y-90000000D02*
G75*
G02*
X75750000Y-91000000I0J-1000000D01*
G01*
X74750000Y-90000000D02*
X73250000Y-90000000D01*
X58250000Y-143000000D02*
G75*
G02*
X55750000Y-143000000I-1250000J0D01*
G01*
X55750000Y-143000000D02*
G75*
G02*
X58250000Y-143000000I1250000J0D01*
G01*
X72250000Y-91000000D02*
G75*
G02*
X73250000Y-90000000I1000000J0D01*
G01*
X58750000Y-139000000D02*
X58750000Y-91000000D01*
X56250000Y-140000000D02*
X57750000Y-140000000D01*
X96750000Y-60000000D02*
G75*
G02*
X89250000Y-60000000I-3750000J0D01*
G01*
X89250000Y-60000000D02*
G75*
G02*
X96750000Y-60000000I3750000J0D01*
G01*
X43750000Y-152000000D02*
G75*
G02*
X36250000Y-152000000I-3750000J0D01*
G01*
X36250000Y-152000000D02*
G75*
G02*
X43750000Y-152000000I3750000J0D01*
G01*
X94750000Y-139000000D02*
G75*
G02*
X93750000Y-140000000I-1000000J0D01*
G01*
X41250000Y-87000000D02*
G75*
G02*
X38750000Y-87000000I-1250000J0D01*
G01*
X38750000Y-87000000D02*
G75*
G02*
X41250000Y-87000000I1250000J0D01*
G01*
X38250000Y-91000000D02*
X38250000Y-139000000D01*
X39250000Y-140000000D02*
X40750000Y-140000000D01*
X92250000Y-140000000D02*
G75*
G02*
X91250000Y-139000000I0J1000000D01*
G01*
X75250000Y-143000000D02*
G75*
G02*
X72750000Y-143000000I-1250000J0D01*
G01*
X72750000Y-143000000D02*
G75*
G02*
X75250000Y-143000000I1250000J0D01*
G01*
X73250000Y-140000000D02*
X74750000Y-140000000D01*
X58250000Y-87000000D02*
G75*
G02*
X55750000Y-87000000I-1250000J0D01*
G01*
X55750000Y-87000000D02*
G75*
G02*
X58250000Y-87000000I1250000J0D01*
G01*
X43750000Y-74000000D02*
G75*
G02*
X36250000Y-74000000I-3750000J0D01*
G01*
X36250000Y-74000000D02*
G75*
G02*
X43750000Y-74000000I3750000J0D01*
G01*
X94250000Y-143000000D02*
G75*
G02*
X91750000Y-143000000I-1250000J0D01*
G01*
X91750000Y-143000000D02*
G75*
G02*
X94250000Y-143000000I1250000J0D01*
G01*
X102400000Y-42000000D02*
X102400000Y-170500000D01*
X55250000Y-91000000D02*
X55250000Y-139000000D01*
X57750000Y-90000000D02*
G75*
G02*
X58750000Y-91000000I0J-1000000D01*
G01*
X55250000Y-91000000D02*
G75*
G02*
X56250000Y-90000000I1000000J0D01*
G01*
X75750000Y-139000000D02*
X75750000Y-91000000D01*
X60750000Y-60000000D02*
G75*
G02*
X53250000Y-60000000I-3750000J0D01*
G01*
X53250000Y-60000000D02*
G75*
G02*
X60750000Y-60000000I3750000J0D01*
G01*
X77750000Y-76000000D02*
G75*
G02*
X70250000Y-76000000I-3750000J0D01*
G01*
X70250000Y-76000000D02*
G75*
G02*
X77750000Y-76000000I3750000J0D01*
G01*
X58750000Y-139000000D02*
G75*
G02*
X57750000Y-140000000I-1000000J0D01*
G01*
X73250000Y-140000000D02*
G75*
G02*
X72250000Y-139000000I0J1000000D01*
G01*
X94750000Y-139000000D02*
X94750000Y-91000000D01*
X75750000Y-139000000D02*
G75*
G02*
X74750000Y-140000000I-1000000J0D01*
G01*
X60750000Y-152000000D02*
G75*
G02*
X53250000Y-152000000I-3750000J0D01*
G01*
X53250000Y-152000000D02*
G75*
G02*
X60750000Y-152000000I3750000J0D01*
G01*
X96750000Y-76000000D02*
G75*
G02*
X89250000Y-76000000I-3750000J0D01*
G01*
X89250000Y-76000000D02*
G75*
G02*
X96750000Y-76000000I3750000J0D01*
G01*
X94250000Y-87000000D02*
G75*
G02*
X91750000Y-87000000I-1250000J0D01*
G01*
X91750000Y-87000000D02*
G75*
G02*
X94250000Y-87000000I1250000J0D01*
G01*
X75250000Y-87000000D02*
G75*
G02*
X72750000Y-87000000I-1250000J0D01*
G01*
X72750000Y-87000000D02*
G75*
G02*
X75250000Y-87000000I1250000J0D01*
G01*
X38250000Y-91000000D02*
G75*
G02*
X39250000Y-90000000I1000000J0D01*
G01*
X57750000Y-90000000D02*
X56250000Y-90000000D01*
X56250000Y-140000000D02*
G75*
G02*
X55250000Y-139000000I0J1000000D01*
G01*
X31600000Y-42000000D02*
X102400000Y-42000000D01*
X39250000Y-140000000D02*
G75*
G02*
X38250000Y-139000000I0J1000000D01*
G01*
X31600000Y-170500000D02*
X31600000Y-42000000D01*
X92250000Y-140000000D02*
X93750000Y-140000000D01*
X60750000Y-74000000D02*
G75*
G02*
X53250000Y-74000000I-3750000J0D01*
G01*
X53250000Y-74000000D02*
G75*
G02*
X60750000Y-74000000I3750000J0D01*
G01*
X77750000Y-60000000D02*
G75*
G02*
X70250000Y-60000000I-3750000J0D01*
G01*
X70250000Y-60000000D02*
G75*
G02*
X77750000Y-60000000I3750000J0D01*
G01*
X40750000Y-90000000D02*
X39250000Y-90000000D01*
X91250000Y-91000000D02*
X91250000Y-139000000D01*
X43750000Y-60000000D02*
G75*
G02*
X36250000Y-60000000I-3750000J0D01*
G01*
X36250000Y-60000000D02*
G75*
G02*
X43750000Y-60000000I3750000J0D01*
G01*
M02*
