%TF.GenerationSoftware,KiCad,Pcbnew,8.0.8*%
%TF.CreationDate,2025-02-16T22:07:38+00:00*%
%TF.ProjectId,bcm-mixer-panel,62636d2d-6d69-4786-9572-2d70616e656c,rev01*%
%TF.SameCoordinates,Original*%
%TF.FileFunction,Legend,Top*%
%TF.FilePolarity,Positive*%
%FSLAX46Y46*%
G04 Gerber Fmt 4.6, Leading zero omitted, Abs format (unit mm)*
G04 Created by KiCad (PCBNEW 8.0.8) date 2025-02-16 22:07:38*
%MOMM*%
%LPD*%
G01*
G04 APERTURE LIST*
%ADD10C,0.000000*%
G04 APERTURE END LIST*
D10*
G36*
X98157289Y-81048325D02*
G01*
X97547510Y-81048325D01*
X97547510Y-83330696D01*
X97146158Y-83330696D01*
X97146158Y-81048325D01*
X96534647Y-81048325D01*
X96534647Y-80671089D01*
X98157289Y-80671089D01*
X98157289Y-81048325D01*
G37*
G36*
X69960191Y-45086193D02*
G01*
X68893938Y-45086193D01*
X68893938Y-45725258D01*
X69929185Y-45725258D01*
X69929185Y-46102493D01*
X68893938Y-46102493D01*
X68893938Y-46991325D01*
X69960191Y-46991325D01*
X69960191Y-47368561D01*
X68492586Y-47368561D01*
X68492586Y-44708954D01*
X69960191Y-44708954D01*
X69960191Y-45086193D01*
G37*
G36*
X90850064Y-50622689D02*
G01*
X90919222Y-50627453D01*
X90987114Y-50635393D01*
X91053742Y-50646509D01*
X91119105Y-50660800D01*
X91183202Y-50678268D01*
X91246035Y-50698912D01*
X91307603Y-50722731D01*
X91367905Y-50749727D01*
X91426943Y-50779898D01*
X91484715Y-50813245D01*
X91541223Y-50849769D01*
X91596465Y-50889468D01*
X91650443Y-50932344D01*
X91703155Y-50978395D01*
X91754602Y-51027622D01*
X91804038Y-51079077D01*
X91850284Y-51131810D01*
X91893341Y-51185821D01*
X91933209Y-51241111D01*
X91969887Y-51297679D01*
X92003375Y-51355526D01*
X92033674Y-51414651D01*
X92060784Y-51475055D01*
X92084704Y-51536737D01*
X92105435Y-51599697D01*
X92122977Y-51663936D01*
X92137329Y-51729453D01*
X92148491Y-51796249D01*
X92156465Y-51864323D01*
X92161249Y-51933676D01*
X92162843Y-52004307D01*
X92161242Y-52075328D01*
X92156437Y-52144990D01*
X92148430Y-52213293D01*
X92137220Y-52280237D01*
X92122807Y-52345821D01*
X92105191Y-52410046D01*
X92084372Y-52472913D01*
X92060350Y-52534420D01*
X92033125Y-52594567D01*
X92002698Y-52653356D01*
X91969067Y-52710785D01*
X91932233Y-52766855D01*
X91892197Y-52821566D01*
X91848958Y-52874917D01*
X91802515Y-52926910D01*
X91752870Y-52977543D01*
X91700744Y-53026144D01*
X91647286Y-53071609D01*
X91592495Y-53113939D01*
X91536372Y-53153134D01*
X91478917Y-53189193D01*
X91420129Y-53222116D01*
X91360009Y-53251904D01*
X91298557Y-53278556D01*
X91235772Y-53302073D01*
X91171655Y-53322454D01*
X91106206Y-53339700D01*
X91039424Y-53353810D01*
X90971310Y-53364785D01*
X90901864Y-53372624D01*
X90831085Y-53377327D01*
X90758974Y-53378895D01*
X90695004Y-53377502D01*
X90631855Y-53373323D01*
X90569527Y-53366359D01*
X90508020Y-53356610D01*
X90447334Y-53344074D01*
X90387469Y-53328753D01*
X90328425Y-53310646D01*
X90270201Y-53289753D01*
X90212799Y-53266075D01*
X90156217Y-53239611D01*
X90100456Y-53210362D01*
X90045516Y-53178326D01*
X89991396Y-53143505D01*
X89938098Y-53105898D01*
X89885620Y-53065506D01*
X89833963Y-53022327D01*
X89779312Y-52972064D01*
X89728187Y-52919890D01*
X89680588Y-52865805D01*
X89636515Y-52809809D01*
X89595968Y-52751902D01*
X89558946Y-52692084D01*
X89525451Y-52630355D01*
X89495481Y-52566715D01*
X89469037Y-52501164D01*
X89446119Y-52433702D01*
X89426727Y-52364329D01*
X89410861Y-52293046D01*
X89398520Y-52219851D01*
X89389706Y-52144745D01*
X89384417Y-52067728D01*
X89382770Y-51994003D01*
X89787454Y-51994003D01*
X89788612Y-52048512D01*
X89792084Y-52101796D01*
X89797871Y-52153856D01*
X89805972Y-52204691D01*
X89816388Y-52254302D01*
X89829119Y-52302687D01*
X89844165Y-52349849D01*
X89861525Y-52395785D01*
X89881200Y-52440497D01*
X89903190Y-52483985D01*
X89927494Y-52526248D01*
X89954113Y-52567286D01*
X89983046Y-52607099D01*
X90014294Y-52645688D01*
X90047857Y-52683053D01*
X90083734Y-52719193D01*
X90120909Y-52753610D01*
X90158798Y-52785807D01*
X90197399Y-52815783D01*
X90236714Y-52843539D01*
X90276743Y-52869074D01*
X90317484Y-52892390D01*
X90358939Y-52913484D01*
X90401107Y-52932358D01*
X90443989Y-52949012D01*
X90487584Y-52963445D01*
X90531892Y-52975658D01*
X90576913Y-52985650D01*
X90622648Y-52993422D01*
X90669095Y-52998973D01*
X90716257Y-53002304D01*
X90764131Y-53003414D01*
X90815942Y-53002284D01*
X90866731Y-52998892D01*
X90916496Y-52993240D01*
X90965240Y-52985327D01*
X91012960Y-52975154D01*
X91059658Y-52962719D01*
X91105333Y-52948024D01*
X91149985Y-52931067D01*
X91193615Y-52911850D01*
X91236221Y-52890372D01*
X91277805Y-52866634D01*
X91318367Y-52840634D01*
X91357905Y-52812374D01*
X91396421Y-52781852D01*
X91433914Y-52749070D01*
X91470384Y-52714027D01*
X91505218Y-52676926D01*
X91537804Y-52638828D01*
X91568143Y-52599734D01*
X91596235Y-52559645D01*
X91622079Y-52518559D01*
X91645676Y-52476478D01*
X91667026Y-52433401D01*
X91686128Y-52389328D01*
X91702983Y-52344259D01*
X91717591Y-52298194D01*
X91729951Y-52251133D01*
X91740064Y-52203077D01*
X91747930Y-52154024D01*
X91753548Y-52103976D01*
X91756919Y-52052932D01*
X91758043Y-52000893D01*
X91756933Y-51948247D01*
X91753602Y-51896679D01*
X91748051Y-51846186D01*
X91740279Y-51796771D01*
X91730287Y-51748432D01*
X91718074Y-51701169D01*
X91703641Y-51654984D01*
X91686987Y-51609874D01*
X91668114Y-51565842D01*
X91647019Y-51522885D01*
X91623704Y-51481006D01*
X91598169Y-51440203D01*
X91570414Y-51400477D01*
X91540438Y-51361827D01*
X91508242Y-51324254D01*
X91473825Y-51287758D01*
X91437988Y-51252715D01*
X91401101Y-51219933D01*
X91363165Y-51189412D01*
X91324179Y-51161151D01*
X91284144Y-51135152D01*
X91243059Y-51111413D01*
X91200924Y-51089935D01*
X91157739Y-51070718D01*
X91113505Y-51053762D01*
X91068221Y-51039066D01*
X91021888Y-51026632D01*
X90974505Y-51016458D01*
X90926072Y-51008545D01*
X90876590Y-51002893D01*
X90826058Y-50999502D01*
X90774477Y-50998371D01*
X90723090Y-50999502D01*
X90672712Y-51002893D01*
X90623343Y-51008545D01*
X90574984Y-51016458D01*
X90527635Y-51026632D01*
X90481294Y-51039066D01*
X90435963Y-51053762D01*
X90391641Y-51070718D01*
X90348329Y-51089935D01*
X90306025Y-51111413D01*
X90264731Y-51135152D01*
X90224446Y-51161151D01*
X90185170Y-51189412D01*
X90146903Y-51219933D01*
X90109645Y-51252715D01*
X90073396Y-51287758D01*
X90038771Y-51324025D01*
X90006379Y-51361343D01*
X89976221Y-51399710D01*
X89948297Y-51439126D01*
X89922607Y-51479592D01*
X89899150Y-51521108D01*
X89877928Y-51563674D01*
X89858940Y-51607289D01*
X89842185Y-51651954D01*
X89827665Y-51697668D01*
X89815378Y-51744433D01*
X89805326Y-51792247D01*
X89797507Y-51841110D01*
X89791922Y-51891024D01*
X89788571Y-51941987D01*
X89787454Y-51993999D01*
X89787454Y-51994003D01*
X89382770Y-51994003D01*
X89382770Y-51993999D01*
X89382654Y-51988802D01*
X89384262Y-51919229D01*
X89389086Y-51850893D01*
X89397127Y-51783794D01*
X89408384Y-51717934D01*
X89422858Y-51653311D01*
X89440548Y-51589927D01*
X89461454Y-51527781D01*
X89485576Y-51466873D01*
X89512915Y-51407203D01*
X89543470Y-51348771D01*
X89577242Y-51291577D01*
X89614229Y-51235621D01*
X89654433Y-51180903D01*
X89697854Y-51127423D01*
X89744491Y-51075181D01*
X89794344Y-51024178D01*
X89846236Y-50975367D01*
X89899420Y-50929706D01*
X89953896Y-50887194D01*
X90009664Y-50847831D01*
X90066724Y-50811617D01*
X90125075Y-50778552D01*
X90184719Y-50748637D01*
X90245654Y-50721870D01*
X90307881Y-50698252D01*
X90371399Y-50677784D01*
X90436210Y-50660464D01*
X90502313Y-50646293D01*
X90569707Y-50635272D01*
X90638393Y-50627399D01*
X90708372Y-50622676D01*
X90779642Y-50621101D01*
X90850064Y-50622689D01*
G37*
G36*
X65674509Y-47368561D02*
G01*
X65273157Y-47368561D01*
X65273157Y-44708954D01*
X65674509Y-44708954D01*
X65674509Y-47368561D01*
G37*
G36*
X53939966Y-80628489D02*
G01*
X53978455Y-80629982D01*
X54016620Y-80632472D01*
X54054463Y-80635957D01*
X54091982Y-80640438D01*
X54129179Y-80645915D01*
X54166052Y-80652388D01*
X54202603Y-80659857D01*
X54238830Y-80668321D01*
X54274735Y-80677781D01*
X54310316Y-80688238D01*
X54345575Y-80699689D01*
X54380510Y-80712137D01*
X54415122Y-80725581D01*
X54449411Y-80740020D01*
X54483377Y-80755455D01*
X54515641Y-80772007D01*
X54547838Y-80789797D01*
X54579968Y-80808826D01*
X54612030Y-80829092D01*
X54644025Y-80850597D01*
X54675953Y-80873340D01*
X54707813Y-80897321D01*
X54739606Y-80922540D01*
X54771331Y-80948997D01*
X54802989Y-80976693D01*
X54834580Y-81005626D01*
X54866104Y-81035798D01*
X54897560Y-81067209D01*
X54928949Y-81099857D01*
X54960271Y-81133744D01*
X54991525Y-81168869D01*
X54705583Y-81442757D01*
X54664114Y-81389984D01*
X54621527Y-81340615D01*
X54577824Y-81294652D01*
X54533003Y-81252092D01*
X54487066Y-81212938D01*
X54440012Y-81177188D01*
X54391841Y-81144843D01*
X54342554Y-81115903D01*
X54292149Y-81090367D01*
X54240628Y-81068236D01*
X54187989Y-81049510D01*
X54134234Y-81034189D01*
X54079362Y-81022272D01*
X54023373Y-81013760D01*
X53966267Y-81008653D01*
X53908044Y-81006950D01*
X53855823Y-81008088D01*
X53804665Y-81011499D01*
X53754569Y-81017185D01*
X53705537Y-81025145D01*
X53657568Y-81035379D01*
X53610662Y-81047888D01*
X53564819Y-81062671D01*
X53520039Y-81079728D01*
X53476323Y-81099060D01*
X53433669Y-81120665D01*
X53392079Y-81144545D01*
X53351552Y-81170699D01*
X53312088Y-81199128D01*
X53273687Y-81229830D01*
X53236349Y-81262807D01*
X53200075Y-81298058D01*
X53165449Y-81334366D01*
X53133057Y-81371804D01*
X53102899Y-81410373D01*
X53074975Y-81450072D01*
X53049285Y-81490902D01*
X53025829Y-81532862D01*
X53004607Y-81575953D01*
X52985618Y-81620173D01*
X52968864Y-81665525D01*
X52954343Y-81712006D01*
X52942057Y-81759618D01*
X52932004Y-81808361D01*
X52924185Y-81858233D01*
X52918601Y-81909236D01*
X52915250Y-81961370D01*
X52914133Y-82014633D01*
X52915378Y-82069572D01*
X52919112Y-82123286D01*
X52925336Y-82175776D01*
X52934050Y-82227041D01*
X52945253Y-82277082D01*
X52958946Y-82325898D01*
X52975129Y-82373490D01*
X52993801Y-82419857D01*
X53014963Y-82465000D01*
X53038614Y-82508918D01*
X53064755Y-82551611D01*
X53093386Y-82593081D01*
X53124506Y-82633325D01*
X53158116Y-82672345D01*
X53194216Y-82710141D01*
X53232805Y-82746712D01*
X53270250Y-82779043D01*
X53308086Y-82809288D01*
X53346312Y-82837447D01*
X53384928Y-82863520D01*
X53423935Y-82887508D01*
X53463331Y-82909409D01*
X53503118Y-82929225D01*
X53543295Y-82946955D01*
X53583862Y-82962599D01*
X53624819Y-82976157D01*
X53666166Y-82987629D01*
X53707903Y-82997015D01*
X53750031Y-83004316D01*
X53792549Y-83009531D01*
X53835457Y-83012659D01*
X53878755Y-83013702D01*
X53915554Y-83012922D01*
X53951882Y-83010580D01*
X53987739Y-83006678D01*
X54023125Y-83001214D01*
X54058040Y-82994189D01*
X54092484Y-82985604D01*
X54126457Y-82975457D01*
X54159959Y-82963749D01*
X54192990Y-82950480D01*
X54225551Y-82935650D01*
X54257640Y-82919259D01*
X54289258Y-82901307D01*
X54320405Y-82881794D01*
X54351081Y-82860720D01*
X54381286Y-82838085D01*
X54411020Y-82813889D01*
X54439704Y-82788386D01*
X54466760Y-82762265D01*
X54492188Y-82735525D01*
X54515988Y-82708166D01*
X54538159Y-82680188D01*
X54558702Y-82651592D01*
X54577616Y-82622376D01*
X54594903Y-82592541D01*
X54610560Y-82562087D01*
X54624590Y-82531014D01*
X54636991Y-82499322D01*
X54647763Y-82467010D01*
X54656908Y-82434080D01*
X54664423Y-82400530D01*
X54670311Y-82366361D01*
X54674570Y-82331573D01*
X54011392Y-82331573D01*
X54011385Y-81954353D01*
X55110368Y-81954353D01*
X55110368Y-82042206D01*
X55109265Y-82116060D01*
X55105955Y-82187760D01*
X55100438Y-82257308D01*
X55092715Y-82324702D01*
X55082784Y-82389943D01*
X55070647Y-82453031D01*
X55056302Y-82513966D01*
X55039751Y-82572746D01*
X55030768Y-82599338D01*
X55021044Y-82625714D01*
X55010581Y-82651875D01*
X54999377Y-82677820D01*
X54987434Y-82703550D01*
X54974750Y-82729065D01*
X54961326Y-82754365D01*
X54947162Y-82779449D01*
X54932258Y-82804319D01*
X54916614Y-82828972D01*
X54900230Y-82853411D01*
X54883105Y-82877634D01*
X54865241Y-82901642D01*
X54846636Y-82925435D01*
X54827292Y-82949012D01*
X54807207Y-82972374D01*
X54760127Y-83022852D01*
X54711472Y-83070074D01*
X54661243Y-83114039D01*
X54609439Y-83154747D01*
X54556060Y-83192199D01*
X54501107Y-83226394D01*
X54444579Y-83257332D01*
X54386477Y-83285014D01*
X54326800Y-83309439D01*
X54265549Y-83330608D01*
X54202723Y-83348520D01*
X54138323Y-83363175D01*
X54072348Y-83374574D01*
X54004799Y-83382715D01*
X53935675Y-83387600D01*
X53864977Y-83389229D01*
X53795839Y-83387654D01*
X53727953Y-83382931D01*
X53661319Y-83375058D01*
X53595936Y-83364036D01*
X53531805Y-83349865D01*
X53468925Y-83332546D01*
X53407297Y-83312077D01*
X53346921Y-83288459D01*
X53287796Y-83261692D01*
X53229922Y-83231776D01*
X53173301Y-83198711D01*
X53117931Y-83162497D01*
X53063813Y-83123135D01*
X53010946Y-83080623D01*
X52959331Y-83034962D01*
X52908968Y-82986153D01*
X52860783Y-82934920D01*
X52815707Y-82882423D01*
X52773740Y-82828660D01*
X52734882Y-82773633D01*
X52699132Y-82717341D01*
X52666491Y-82659784D01*
X52636958Y-82600962D01*
X52610534Y-82540874D01*
X52587219Y-82479523D01*
X52567013Y-82416906D01*
X52549915Y-82353024D01*
X52535926Y-82287877D01*
X52525046Y-82221465D01*
X52517274Y-82153789D01*
X52512611Y-82084847D01*
X52511057Y-82014641D01*
X52512638Y-81942980D01*
X52517382Y-81872693D01*
X52525288Y-81803777D01*
X52536357Y-81736235D01*
X52550588Y-81670065D01*
X52567982Y-81605267D01*
X52588538Y-81541843D01*
X52612257Y-81479791D01*
X52639138Y-81419111D01*
X52669182Y-81359805D01*
X52702388Y-81301871D01*
X52738757Y-81245309D01*
X52778288Y-81190121D01*
X52820982Y-81136305D01*
X52866838Y-81083862D01*
X52915857Y-81032791D01*
X52967143Y-80983772D01*
X53019802Y-80937916D01*
X53073834Y-80895222D01*
X53129238Y-80855691D01*
X53186015Y-80819322D01*
X53244164Y-80786116D01*
X53303686Y-80756072D01*
X53364581Y-80729191D01*
X53426848Y-80705472D01*
X53490488Y-80684916D01*
X53555501Y-80667522D01*
X53621886Y-80653291D01*
X53689644Y-80642222D01*
X53758775Y-80634316D01*
X53829279Y-80629572D01*
X53901155Y-80627991D01*
X53939966Y-80628489D01*
G37*
G36*
X40775140Y-83339272D02*
G01*
X40335893Y-83339272D01*
X40056833Y-82693321D01*
X38918233Y-82693321D01*
X38621957Y-83339272D01*
X38189600Y-83339272D01*
X38665965Y-82316086D01*
X39085317Y-82316086D01*
X39893190Y-82316086D01*
X39498727Y-81411751D01*
X39085317Y-82316086D01*
X38665965Y-82316086D01*
X39505624Y-80512581D01*
X40775140Y-83339272D01*
G37*
G36*
X97877390Y-65048332D02*
G01*
X97267610Y-65048332D01*
X97267610Y-67330704D01*
X96866251Y-67330704D01*
X96866251Y-65048332D01*
X96254747Y-65048332D01*
X96254747Y-64671097D01*
X97877390Y-64671097D01*
X97877390Y-65048332D01*
G37*
G36*
X74058724Y-50626219D02*
G01*
X74100920Y-50628642D01*
X74142106Y-50632679D01*
X74182283Y-50638331D01*
X74221451Y-50645598D01*
X74259609Y-50654480D01*
X74296758Y-50664976D01*
X74332898Y-50677088D01*
X74368028Y-50690814D01*
X74402149Y-50706155D01*
X74435261Y-50723112D01*
X74467364Y-50741683D01*
X74498457Y-50761868D01*
X74528540Y-50783669D01*
X74557615Y-50807085D01*
X74585680Y-50832115D01*
X74612380Y-50858202D01*
X74637358Y-50885218D01*
X74660613Y-50913162D01*
X74682145Y-50942034D01*
X74701955Y-50971835D01*
X74720042Y-51002565D01*
X74736406Y-51034224D01*
X74751048Y-51066811D01*
X74763967Y-51100326D01*
X74775163Y-51134770D01*
X74784637Y-51170143D01*
X74792389Y-51206444D01*
X74798418Y-51243674D01*
X74802724Y-51281833D01*
X74805308Y-51320920D01*
X74806169Y-51360935D01*
X74805039Y-51405950D01*
X74801647Y-51449700D01*
X74795995Y-51492185D01*
X74788082Y-51533406D01*
X74777908Y-51573361D01*
X74765473Y-51612051D01*
X74750777Y-51649476D01*
X74733821Y-51685636D01*
X74714603Y-51720531D01*
X74693125Y-51754160D01*
X74669386Y-51786525D01*
X74643386Y-51817625D01*
X74615125Y-51847460D01*
X74584604Y-51876030D01*
X74551822Y-51903335D01*
X74516779Y-51929375D01*
X74537126Y-51941777D01*
X74556827Y-51954654D01*
X74575882Y-51968006D01*
X74594292Y-51981832D01*
X74612055Y-51996132D01*
X74629173Y-52010906D01*
X74645645Y-52026155D01*
X74661470Y-52041879D01*
X74676650Y-52058076D01*
X74691184Y-52074748D01*
X74705072Y-52091895D01*
X74718314Y-52109516D01*
X74730910Y-52127611D01*
X74742860Y-52146181D01*
X74754164Y-52165225D01*
X74764823Y-52184743D01*
X74774835Y-52204736D01*
X74784201Y-52225203D01*
X74792922Y-52246144D01*
X74800996Y-52267560D01*
X74808425Y-52289450D01*
X74815207Y-52311815D01*
X74821344Y-52334654D01*
X74826834Y-52357967D01*
X74831679Y-52381755D01*
X74835878Y-52406017D01*
X74839431Y-52430753D01*
X74842337Y-52455964D01*
X74846213Y-52507808D01*
X74847505Y-52561550D01*
X74846563Y-52605825D01*
X74843737Y-52649076D01*
X74839027Y-52691305D01*
X74832433Y-52732512D01*
X74823955Y-52772696D01*
X74813593Y-52811857D01*
X74801347Y-52849995D01*
X74787217Y-52887111D01*
X74771202Y-52923204D01*
X74753304Y-52958274D01*
X74733522Y-52992321D01*
X74711855Y-53025346D01*
X74688304Y-53057348D01*
X74662870Y-53088327D01*
X74635551Y-53118283D01*
X74606348Y-53147217D01*
X74575671Y-53174751D01*
X74543931Y-53200508D01*
X74511128Y-53224489D01*
X74477263Y-53246694D01*
X74442334Y-53267122D01*
X74406342Y-53285774D01*
X74369287Y-53302649D01*
X74331169Y-53317749D01*
X74291988Y-53331071D01*
X74251744Y-53342618D01*
X74210436Y-53352387D01*
X74168066Y-53360381D01*
X74124633Y-53366598D01*
X74080137Y-53371039D01*
X74034577Y-53373704D01*
X73987955Y-53374592D01*
X73928849Y-53373212D01*
X73871682Y-53369074D01*
X73816453Y-53362177D01*
X73763161Y-53352522D01*
X73711808Y-53340107D01*
X73662392Y-53324934D01*
X73614914Y-53307002D01*
X73569375Y-53286312D01*
X73525773Y-53262862D01*
X73484109Y-53236654D01*
X73444383Y-53207687D01*
X73406594Y-53175961D01*
X73370744Y-53141476D01*
X73336832Y-53104233D01*
X73304857Y-53064230D01*
X73274820Y-53021469D01*
X73263038Y-53002508D01*
X73251808Y-52982658D01*
X73241130Y-52961920D01*
X73231003Y-52940294D01*
X73221429Y-52917780D01*
X73212406Y-52894377D01*
X73203934Y-52870087D01*
X73196015Y-52844908D01*
X73188647Y-52818841D01*
X73181831Y-52791886D01*
X73175567Y-52764042D01*
X73169854Y-52735311D01*
X73164693Y-52705691D01*
X73160084Y-52675183D01*
X73156027Y-52643788D01*
X73152521Y-52611504D01*
X73540094Y-52611504D01*
X73544314Y-52635269D01*
X73549220Y-52658335D01*
X73554812Y-52680701D01*
X73561091Y-52702368D01*
X73568056Y-52723334D01*
X73575707Y-52743601D01*
X73584044Y-52763168D01*
X73593068Y-52782035D01*
X73602777Y-52800203D01*
X73613173Y-52817671D01*
X73624255Y-52834439D01*
X73636024Y-52850507D01*
X73648478Y-52865876D01*
X73661619Y-52880545D01*
X73675445Y-52894514D01*
X73689958Y-52907784D01*
X73705313Y-52920090D01*
X73721232Y-52931603D01*
X73737717Y-52942322D01*
X73754768Y-52952247D01*
X73772383Y-52961378D01*
X73790564Y-52969714D01*
X73809309Y-52977257D01*
X73828621Y-52984006D01*
X73848497Y-52989961D01*
X73868938Y-52995122D01*
X73889945Y-52999489D01*
X73911517Y-53003063D01*
X73933654Y-53005842D01*
X73956357Y-53007827D01*
X73979625Y-53009018D01*
X74003458Y-53009415D01*
X74027527Y-53008910D01*
X74051071Y-53007396D01*
X74074090Y-53004873D01*
X74096584Y-53001340D01*
X74118553Y-52996798D01*
X74139998Y-52991247D01*
X74160917Y-52984686D01*
X74181311Y-52977117D01*
X74201181Y-52968537D01*
X74220525Y-52958949D01*
X74239345Y-52948351D01*
X74257640Y-52936744D01*
X74275410Y-52924128D01*
X74292655Y-52910502D01*
X74309375Y-52895867D01*
X74325571Y-52880222D01*
X74341007Y-52863367D01*
X74355448Y-52845960D01*
X74368892Y-52828001D01*
X74381341Y-52809490D01*
X74392793Y-52790428D01*
X74403250Y-52770813D01*
X74412711Y-52750648D01*
X74421176Y-52729930D01*
X74428645Y-52708661D01*
X74435118Y-52686840D01*
X74440595Y-52664467D01*
X74445076Y-52641542D01*
X74448561Y-52618066D01*
X74451051Y-52594038D01*
X74452545Y-52569458D01*
X74453043Y-52544327D01*
X74452296Y-52511343D01*
X74450055Y-52479569D01*
X74446320Y-52449008D01*
X74441092Y-52419657D01*
X74434370Y-52391518D01*
X74426154Y-52364589D01*
X74416445Y-52338872D01*
X74405242Y-52314366D01*
X74392545Y-52291072D01*
X74378354Y-52268988D01*
X74362669Y-52248116D01*
X74345491Y-52228455D01*
X74326820Y-52210005D01*
X74306654Y-52192766D01*
X74284995Y-52176739D01*
X74261842Y-52161922D01*
X74247370Y-52153996D01*
X74231942Y-52146580D01*
X74215558Y-52139676D01*
X74198219Y-52133284D01*
X74179924Y-52127402D01*
X74160674Y-52122033D01*
X74140468Y-52117174D01*
X74119306Y-52112827D01*
X74097189Y-52108992D01*
X74074116Y-52105668D01*
X74050088Y-52102855D01*
X74025104Y-52100554D01*
X73999165Y-52098764D01*
X73972270Y-52097485D01*
X73944419Y-52096718D01*
X73915613Y-52096462D01*
X73915605Y-52096462D01*
X73915605Y-51753674D01*
X73976729Y-51752785D01*
X74032631Y-51750121D01*
X74083312Y-51745680D01*
X74106694Y-51742794D01*
X74128770Y-51739463D01*
X74149542Y-51735689D01*
X74169008Y-51731470D01*
X74187169Y-51726808D01*
X74204024Y-51721701D01*
X74219574Y-51716150D01*
X74233819Y-51710156D01*
X74246759Y-51703717D01*
X74258394Y-51696835D01*
X74268038Y-51690472D01*
X74277375Y-51683875D01*
X74286407Y-51677041D01*
X74295132Y-51669973D01*
X74303552Y-51662668D01*
X74311665Y-51655129D01*
X74319472Y-51647354D01*
X74326972Y-51639343D01*
X74334167Y-51631097D01*
X74341056Y-51622615D01*
X74347638Y-51613898D01*
X74353914Y-51604946D01*
X74359885Y-51595758D01*
X74365549Y-51586334D01*
X74370906Y-51576675D01*
X74375958Y-51566781D01*
X74380704Y-51556651D01*
X74385143Y-51546285D01*
X74389276Y-51535684D01*
X74393103Y-51524848D01*
X74396624Y-51513776D01*
X74399839Y-51502468D01*
X74402748Y-51490925D01*
X74405350Y-51479147D01*
X74409636Y-51454884D01*
X74412698Y-51429678D01*
X74414535Y-51403531D01*
X74415147Y-51376442D01*
X74414703Y-51355374D01*
X74413371Y-51334804D01*
X74411151Y-51314733D01*
X74408042Y-51295159D01*
X74404045Y-51276083D01*
X74399160Y-51257505D01*
X74393387Y-51239425D01*
X74386726Y-51221843D01*
X74379177Y-51204759D01*
X74370739Y-51188173D01*
X74361413Y-51172085D01*
X74351199Y-51156495D01*
X74340097Y-51141403D01*
X74328107Y-51126808D01*
X74315228Y-51112712D01*
X74301462Y-51099113D01*
X74287203Y-51085973D01*
X74272420Y-51073679D01*
X74257112Y-51062234D01*
X74241279Y-51051636D01*
X74224921Y-51041886D01*
X74208039Y-51032984D01*
X74190631Y-51024930D01*
X74172700Y-51017724D01*
X74154243Y-51011365D01*
X74135261Y-51005854D01*
X74115755Y-51001191D01*
X74095725Y-50997376D01*
X74075169Y-50994408D01*
X74054089Y-50992289D01*
X74032484Y-50991017D01*
X74010355Y-50990593D01*
X73989765Y-50990909D01*
X73969768Y-50991858D01*
X73950362Y-50993439D01*
X73931549Y-50995653D01*
X73913328Y-50998499D01*
X73895699Y-51001978D01*
X73878662Y-51006089D01*
X73862217Y-51010832D01*
X73846364Y-51016208D01*
X73831103Y-51022217D01*
X73816434Y-51028858D01*
X73802357Y-51036132D01*
X73788872Y-51044038D01*
X73775979Y-51052577D01*
X73763679Y-51061748D01*
X73751970Y-51071552D01*
X73741163Y-51082331D01*
X73730706Y-51093998D01*
X73720599Y-51106554D01*
X73710842Y-51119997D01*
X73701436Y-51134329D01*
X73692379Y-51149549D01*
X73683672Y-51165658D01*
X73675315Y-51182654D01*
X73667309Y-51200539D01*
X73659652Y-51219312D01*
X73652345Y-51238974D01*
X73645388Y-51259524D01*
X73638780Y-51280962D01*
X73632523Y-51303288D01*
X73626615Y-51326502D01*
X73621057Y-51350605D01*
X73221429Y-51350605D01*
X73229693Y-51304453D01*
X73238979Y-51259875D01*
X73249287Y-51216872D01*
X73260618Y-51175444D01*
X73272972Y-51135590D01*
X73286349Y-51097310D01*
X73300748Y-51060605D01*
X73316170Y-51025475D01*
X73332615Y-50991919D01*
X73350083Y-50959938D01*
X73368573Y-50929531D01*
X73388086Y-50900698D01*
X73408622Y-50873440D01*
X73430180Y-50847757D01*
X73452762Y-50823648D01*
X73476366Y-50801113D01*
X73501080Y-50779837D01*
X73526992Y-50759933D01*
X73554102Y-50741402D01*
X73582409Y-50724244D01*
X73611915Y-50708458D01*
X73642618Y-50694045D01*
X73674518Y-50681005D01*
X73707616Y-50669337D01*
X73741912Y-50659042D01*
X73777406Y-50650120D01*
X73814097Y-50642570D01*
X73851987Y-50636393D01*
X73891073Y-50631589D01*
X73931358Y-50628157D01*
X73972840Y-50626098D01*
X74015520Y-50625412D01*
X74058724Y-50626219D01*
G37*
G36*
X64709886Y-47368561D02*
G01*
X64298196Y-47368561D01*
X64041536Y-45763149D01*
X63254335Y-47490860D01*
X62489526Y-45761425D01*
X62203584Y-47368561D01*
X61788446Y-47368561D01*
X62348276Y-44509136D01*
X63261224Y-46576191D01*
X64206903Y-44509136D01*
X64709886Y-47368561D01*
G37*
G36*
X93068903Y-52273056D02*
G01*
X93069340Y-52315184D01*
X93070652Y-52355872D01*
X93072839Y-52395121D01*
X93075901Y-52432929D01*
X93079837Y-52469298D01*
X93084648Y-52504226D01*
X93090334Y-52537715D01*
X93096894Y-52569764D01*
X93104329Y-52600372D01*
X93112639Y-52629541D01*
X93121823Y-52657270D01*
X93131882Y-52683559D01*
X93142816Y-52708408D01*
X93154624Y-52731817D01*
X93167307Y-52753786D01*
X93180864Y-52774315D01*
X93202282Y-52802057D01*
X93224764Y-52828010D01*
X93248308Y-52852173D01*
X93272916Y-52874546D01*
X93298587Y-52895129D01*
X93325320Y-52913922D01*
X93353117Y-52930926D01*
X93381977Y-52946139D01*
X93411900Y-52959563D01*
X93442885Y-52971197D01*
X93474934Y-52981041D01*
X93508046Y-52989095D01*
X93542221Y-52995360D01*
X93577459Y-52999834D01*
X93613760Y-53002519D01*
X93651125Y-53003414D01*
X93688698Y-53002519D01*
X93725195Y-52999834D01*
X93760615Y-52995360D01*
X93794958Y-52989095D01*
X93828225Y-52981041D01*
X93860415Y-52971197D01*
X93891528Y-52959563D01*
X93921565Y-52946139D01*
X93950525Y-52930926D01*
X93978408Y-52913922D01*
X94005214Y-52895129D01*
X94030944Y-52874546D01*
X94055596Y-52852173D01*
X94079172Y-52828010D01*
X94101672Y-52802057D01*
X94123094Y-52774315D01*
X94136653Y-52754391D01*
X94149337Y-52732946D01*
X94161146Y-52709981D01*
X94172081Y-52685495D01*
X94182140Y-52659489D01*
X94191325Y-52631962D01*
X94199635Y-52602914D01*
X94207071Y-52572346D01*
X94213632Y-52540257D01*
X94219318Y-52506647D01*
X94224129Y-52471517D01*
X94228065Y-52434866D01*
X94231127Y-52396695D01*
X94233314Y-52357003D01*
X94234626Y-52315790D01*
X94235063Y-52273056D01*
X94235063Y-50671089D01*
X94636415Y-50671089D01*
X94636415Y-52383297D01*
X94635392Y-52435256D01*
X94632324Y-52486058D01*
X94627211Y-52535702D01*
X94620051Y-52584189D01*
X94610847Y-52631518D01*
X94599597Y-52677691D01*
X94586302Y-52722705D01*
X94570961Y-52766563D01*
X94553574Y-52809263D01*
X94534142Y-52850806D01*
X94512665Y-52891192D01*
X94489143Y-52930420D01*
X94463574Y-52968491D01*
X94435961Y-53005404D01*
X94406302Y-53041161D01*
X94374597Y-53075760D01*
X94337252Y-53112472D01*
X94298858Y-53146816D01*
X94259414Y-53178791D01*
X94218920Y-53208397D01*
X94177377Y-53235635D01*
X94134784Y-53260504D01*
X94091142Y-53283005D01*
X94046449Y-53303137D01*
X94000707Y-53320901D01*
X93953916Y-53336296D01*
X93906075Y-53349323D01*
X93857184Y-53359981D01*
X93807244Y-53368271D01*
X93756254Y-53374192D01*
X93704214Y-53377745D01*
X93651125Y-53378929D01*
X93598042Y-53377745D01*
X93546022Y-53374192D01*
X93495066Y-53368271D01*
X93445173Y-53359981D01*
X93396342Y-53349323D01*
X93348575Y-53336296D01*
X93301871Y-53320901D01*
X93256230Y-53303137D01*
X93211652Y-53283005D01*
X93168137Y-53260504D01*
X93125686Y-53235635D01*
X93084298Y-53208397D01*
X93043972Y-53178791D01*
X93004711Y-53146816D01*
X92966512Y-53112472D01*
X92929376Y-53075760D01*
X92897670Y-53041161D01*
X92868010Y-53005404D01*
X92840395Y-52968491D01*
X92814825Y-52930420D01*
X92791301Y-52891192D01*
X92769823Y-52850806D01*
X92750390Y-52809263D01*
X92733002Y-52766563D01*
X92717660Y-52722705D01*
X92704364Y-52677691D01*
X92693113Y-52631518D01*
X92683908Y-52584189D01*
X92676748Y-52535702D01*
X92671634Y-52486058D01*
X92668566Y-52435256D01*
X92667543Y-52383297D01*
X92667543Y-50671089D01*
X93068903Y-50671089D01*
X93068903Y-52273056D01*
G37*
G36*
X74316957Y-83339279D02*
G01*
X73915605Y-83339279D01*
X73915605Y-80679672D01*
X74316957Y-80679672D01*
X74316957Y-83339279D01*
G37*
G36*
X40658868Y-161339279D02*
G01*
X40219621Y-161339279D01*
X39940561Y-160693329D01*
X38801962Y-160693329D01*
X38505685Y-161339279D01*
X38073328Y-161339279D01*
X38549694Y-160316086D01*
X38969045Y-160316086D01*
X39776918Y-160316086D01*
X39382455Y-159411743D01*
X38969045Y-160316086D01*
X38549694Y-160316086D01*
X39389352Y-158512573D01*
X40658868Y-161339279D01*
G37*
G36*
X38710668Y-67339279D02*
G01*
X38309316Y-67339279D01*
X38309316Y-64679672D01*
X38710668Y-64679672D01*
X38710668Y-67339279D01*
G37*
G36*
X41289320Y-66527962D02*
G01*
X41289320Y-64679672D01*
X41690672Y-64679672D01*
X41690672Y-67501198D01*
X39751085Y-65477211D01*
X39751085Y-67339279D01*
X39349733Y-67339279D01*
X39349733Y-64498802D01*
X41289320Y-66527962D01*
G37*
G36*
X37203470Y-158680414D02*
G01*
X37279343Y-158682594D01*
X37350102Y-158686227D01*
X37415747Y-158691313D01*
X37476278Y-158697851D01*
X37531695Y-158705842D01*
X37581998Y-158715286D01*
X37627187Y-158726181D01*
X37648558Y-158732315D01*
X37669605Y-158739096D01*
X37690330Y-158746523D01*
X37710731Y-158754596D01*
X37730810Y-158763316D01*
X37750565Y-158772682D01*
X37769998Y-158782695D01*
X37789107Y-158793354D01*
X37807894Y-158804659D01*
X37826357Y-158816611D01*
X37844498Y-158829208D01*
X37862316Y-158842452D01*
X37879810Y-158856341D01*
X37896982Y-158870877D01*
X37913831Y-158886058D01*
X37930357Y-158901886D01*
X37958099Y-158930333D01*
X37984052Y-158959696D01*
X38008215Y-158989974D01*
X38030588Y-159021167D01*
X38051171Y-159053276D01*
X38069964Y-159086300D01*
X38086967Y-159120240D01*
X38102181Y-159155094D01*
X38115605Y-159190864D01*
X38127239Y-159227549D01*
X38137083Y-159265149D01*
X38145137Y-159303664D01*
X38151402Y-159343094D01*
X38155876Y-159383439D01*
X38158561Y-159424698D01*
X38159456Y-159466873D01*
X38158500Y-159511929D01*
X38155634Y-159555800D01*
X38150856Y-159598486D01*
X38144168Y-159639988D01*
X38135569Y-159680306D01*
X38125058Y-159719440D01*
X38112637Y-159757390D01*
X38098305Y-159794155D01*
X38082062Y-159829736D01*
X38063908Y-159864134D01*
X38043843Y-159897347D01*
X38021867Y-159929376D01*
X37997980Y-159960221D01*
X37972182Y-159989883D01*
X37944473Y-160018360D01*
X37914854Y-160045654D01*
X37883612Y-160071519D01*
X37851039Y-160095715D01*
X37817133Y-160118242D01*
X37781895Y-160139101D01*
X37745324Y-160158291D01*
X37707422Y-160175812D01*
X37668187Y-160191665D01*
X37627619Y-160205849D01*
X37585720Y-160218364D01*
X37542488Y-160229210D01*
X37497924Y-160238388D01*
X37452028Y-160245897D01*
X37404799Y-160251738D01*
X37356239Y-160255909D01*
X37306346Y-160258412D01*
X37255121Y-160259247D01*
X37069082Y-160259247D01*
X37069082Y-161339294D01*
X36667730Y-161339294D01*
X36667730Y-159050018D01*
X37069078Y-159050018D01*
X37069082Y-159887177D01*
X37218942Y-159887177D01*
X37285900Y-159885515D01*
X37348537Y-159880529D01*
X37406855Y-159872219D01*
X37460853Y-159860586D01*
X37486231Y-159853523D01*
X37510530Y-159845629D01*
X37533749Y-159836904D01*
X37555889Y-159827347D01*
X37576948Y-159816960D01*
X37596927Y-159805742D01*
X37615826Y-159793693D01*
X37633645Y-159780813D01*
X37650384Y-159767102D01*
X37666044Y-159752560D01*
X37680623Y-159737187D01*
X37694122Y-159720983D01*
X37706542Y-159703948D01*
X37717881Y-159686082D01*
X37728141Y-159667385D01*
X37737320Y-159647857D01*
X37745420Y-159627498D01*
X37752440Y-159606308D01*
X37758379Y-159584287D01*
X37763239Y-159561435D01*
X37767019Y-159537751D01*
X37769719Y-159513237D01*
X37771339Y-159487892D01*
X37771879Y-159461716D01*
X37771322Y-159436387D01*
X37769652Y-159411863D01*
X37766868Y-159388142D01*
X37762970Y-159365226D01*
X37757959Y-159343113D01*
X37751834Y-159321805D01*
X37744595Y-159301300D01*
X37736243Y-159281600D01*
X37726778Y-159262704D01*
X37716199Y-159244612D01*
X37704506Y-159227324D01*
X37691699Y-159210840D01*
X37677779Y-159195160D01*
X37662746Y-159180284D01*
X37646598Y-159166212D01*
X37629337Y-159152945D01*
X37610963Y-159140481D01*
X37591475Y-159128821D01*
X37570873Y-159117966D01*
X37549158Y-159107915D01*
X37526329Y-159098667D01*
X37502387Y-159090224D01*
X37477331Y-159082585D01*
X37451161Y-159075750D01*
X37423878Y-159069719D01*
X37395481Y-159064492D01*
X37365971Y-159060070D01*
X37335347Y-159056451D01*
X37303609Y-159053637D01*
X37270758Y-159051627D01*
X37236793Y-159050420D01*
X37201715Y-159050018D01*
X37069078Y-159050018D01*
X36667730Y-159050018D01*
X36667730Y-158679687D01*
X37122484Y-158679687D01*
X37203470Y-158680414D01*
G37*
G36*
X57075119Y-50648698D02*
G01*
X57119178Y-50651403D01*
X57162323Y-50655911D01*
X57204552Y-50662223D01*
X57245866Y-50670337D01*
X57286265Y-50680255D01*
X57325749Y-50691977D01*
X57364318Y-50705501D01*
X57401971Y-50720829D01*
X57438710Y-50737960D01*
X57474534Y-50756894D01*
X57509442Y-50777632D01*
X57543435Y-50800173D01*
X57576514Y-50824518D01*
X57608677Y-50850665D01*
X57639925Y-50878616D01*
X57669962Y-50907900D01*
X57698061Y-50938044D01*
X57724223Y-50969050D01*
X57748446Y-51000917D01*
X57770732Y-51033646D01*
X57791079Y-51067235D01*
X57809489Y-51101686D01*
X57825961Y-51136998D01*
X57840495Y-51173172D01*
X57853091Y-51210206D01*
X57863749Y-51248102D01*
X57872469Y-51286859D01*
X57879251Y-51326478D01*
X57884096Y-51366957D01*
X57887003Y-51408298D01*
X57887971Y-51450500D01*
X57887521Y-51477597D01*
X57886168Y-51504627D01*
X57883914Y-51531589D01*
X57880759Y-51558483D01*
X57876702Y-51585311D01*
X57871743Y-51612071D01*
X57865882Y-51638764D01*
X57859120Y-51665389D01*
X57851456Y-51691947D01*
X57842891Y-51718438D01*
X57833423Y-51744861D01*
X57823055Y-51771218D01*
X57811784Y-51797506D01*
X57799612Y-51823728D01*
X57786537Y-51849882D01*
X57772562Y-51875969D01*
X57757058Y-51903745D01*
X57739832Y-51932812D01*
X57720883Y-51963172D01*
X57700212Y-51994824D01*
X57677819Y-52027768D01*
X57653703Y-52062003D01*
X57627865Y-52097531D01*
X57600305Y-52134350D01*
X57571371Y-52172246D01*
X57540553Y-52211864D01*
X57473265Y-52296269D01*
X57398443Y-52387564D01*
X57316087Y-52485748D01*
X56902673Y-52974960D01*
X57893137Y-52974960D01*
X57893137Y-53352196D01*
X56106859Y-53352196D01*
X57030145Y-52234264D01*
X57095387Y-52153519D01*
X57155029Y-52078373D01*
X57209072Y-52008826D01*
X57257516Y-51944878D01*
X57280071Y-51914922D01*
X57301226Y-51886205D01*
X57320981Y-51858725D01*
X57339337Y-51832483D01*
X57356293Y-51807479D01*
X57371850Y-51783713D01*
X57386008Y-51761185D01*
X57398767Y-51739895D01*
X57410657Y-51719783D01*
X57421780Y-51699927D01*
X57432136Y-51680326D01*
X57441725Y-51660981D01*
X57450547Y-51641892D01*
X57458602Y-51623059D01*
X57465889Y-51604481D01*
X57472410Y-51586158D01*
X57478163Y-51568092D01*
X57483149Y-51550281D01*
X57487369Y-51532725D01*
X57490821Y-51515426D01*
X57493505Y-51498382D01*
X57495423Y-51481593D01*
X57496574Y-51465061D01*
X57496957Y-51448784D01*
X57496446Y-51425765D01*
X57494912Y-51403217D01*
X57492355Y-51381140D01*
X57488775Y-51359534D01*
X57484172Y-51338399D01*
X57478547Y-51317735D01*
X57471899Y-51297543D01*
X57464228Y-51277821D01*
X57455535Y-51258570D01*
X57445818Y-51239790D01*
X57435080Y-51221481D01*
X57423318Y-51203643D01*
X57410534Y-51186276D01*
X57396727Y-51169380D01*
X57381897Y-51152955D01*
X57366045Y-51137001D01*
X57349439Y-51121774D01*
X57332348Y-51107529D01*
X57314773Y-51094266D01*
X57296714Y-51081986D01*
X57278169Y-51070689D01*
X57259141Y-51060374D01*
X57239628Y-51051041D01*
X57219630Y-51042690D01*
X57199148Y-51035322D01*
X57178181Y-51028937D01*
X57156730Y-51023533D01*
X57134794Y-51019113D01*
X57112374Y-51015674D01*
X57089470Y-51013218D01*
X57066081Y-51011745D01*
X57042207Y-51011253D01*
X57017352Y-51011719D01*
X56993169Y-51013117D01*
X56969659Y-51015447D01*
X56946822Y-51018709D01*
X56924658Y-51022903D01*
X56903166Y-51028028D01*
X56882348Y-51034086D01*
X56862202Y-51041075D01*
X56842729Y-51048997D01*
X56823929Y-51057850D01*
X56805802Y-51067635D01*
X56788348Y-51078352D01*
X56771566Y-51090001D01*
X56755458Y-51102583D01*
X56740022Y-51116095D01*
X56725259Y-51130540D01*
X56711169Y-51145917D01*
X56697752Y-51162226D01*
X56685008Y-51179467D01*
X56672937Y-51197639D01*
X56661539Y-51216744D01*
X56650813Y-51236780D01*
X56640761Y-51257748D01*
X56631381Y-51279649D01*
X56622674Y-51302481D01*
X56614640Y-51326245D01*
X56607279Y-51350941D01*
X56600591Y-51376569D01*
X56594576Y-51403129D01*
X56589234Y-51430620D01*
X56580568Y-51488400D01*
X56180933Y-51488400D01*
X56195554Y-51386608D01*
X56215302Y-51291383D01*
X56240178Y-51202726D01*
X56254539Y-51160860D01*
X56270181Y-51120636D01*
X56287105Y-51082053D01*
X56305311Y-51045113D01*
X56324799Y-51009814D01*
X56345568Y-50976157D01*
X56367620Y-50944142D01*
X56390953Y-50913769D01*
X56415568Y-50885037D01*
X56441465Y-50857947D01*
X56468644Y-50832499D01*
X56497104Y-50808693D01*
X56526847Y-50786529D01*
X56557871Y-50766006D01*
X56590177Y-50747126D01*
X56623765Y-50729887D01*
X56658634Y-50714290D01*
X56694786Y-50700334D01*
X56732219Y-50688021D01*
X56770935Y-50677349D01*
X56810932Y-50668319D01*
X56852211Y-50660931D01*
X56894772Y-50655185D01*
X56938614Y-50651080D01*
X56983739Y-50648618D01*
X57030145Y-50647797D01*
X57075119Y-50648698D01*
G37*
G36*
X88523973Y-66953430D02*
G01*
X89306017Y-66953430D01*
X89306017Y-67330666D01*
X88122629Y-67330666D01*
X88122629Y-64671059D01*
X88523973Y-64671059D01*
X88523973Y-66953430D01*
G37*
G36*
X61087587Y-82527962D02*
G01*
X61087587Y-80679672D01*
X61488939Y-80679672D01*
X61488939Y-83501198D01*
X59549356Y-81477211D01*
X59549356Y-83339279D01*
X59148004Y-83339279D01*
X59148004Y-80498802D01*
X61087587Y-82527962D01*
G37*
G36*
X92390012Y-80622689D02*
G01*
X92459169Y-80627453D01*
X92527062Y-80635393D01*
X92593689Y-80646509D01*
X92659052Y-80660800D01*
X92723150Y-80678268D01*
X92785982Y-80698911D01*
X92847550Y-80722731D01*
X92907853Y-80749726D01*
X92966890Y-80779897D01*
X93024663Y-80813244D01*
X93081170Y-80849767D01*
X93136413Y-80889466D01*
X93190390Y-80932341D01*
X93243102Y-80978392D01*
X93294550Y-81027618D01*
X93343985Y-81079074D01*
X93390232Y-81131807D01*
X93433289Y-81185819D01*
X93473156Y-81241109D01*
X93509834Y-81297678D01*
X93543323Y-81355525D01*
X93573622Y-81414650D01*
X93600731Y-81475054D01*
X93624652Y-81536736D01*
X93645383Y-81599696D01*
X93662924Y-81663935D01*
X93677276Y-81729452D01*
X93688439Y-81796247D01*
X93696412Y-81864321D01*
X93701196Y-81933673D01*
X93702791Y-82004303D01*
X93701189Y-82075325D01*
X93696385Y-82144987D01*
X93688378Y-82213291D01*
X93677169Y-82280234D01*
X93662756Y-82345819D01*
X93645141Y-82410044D01*
X93624323Y-82472910D01*
X93600302Y-82534417D01*
X93573079Y-82594565D01*
X93542652Y-82653353D01*
X93509023Y-82710782D01*
X93472191Y-82766852D01*
X93432156Y-82821562D01*
X93388918Y-82874914D01*
X93342477Y-82926906D01*
X93292833Y-82977539D01*
X93240706Y-83026141D01*
X93187246Y-83071607D01*
X93132454Y-83113937D01*
X93076329Y-83153132D01*
X93018873Y-83189191D01*
X92960084Y-83222114D01*
X92899963Y-83251902D01*
X92838509Y-83278554D01*
X92775723Y-83302071D01*
X92711605Y-83322452D01*
X92646155Y-83339697D01*
X92579373Y-83353807D01*
X92511258Y-83364781D01*
X92441811Y-83372620D01*
X92371032Y-83377323D01*
X92298921Y-83378891D01*
X92234952Y-83377498D01*
X92171803Y-83373320D01*
X92109475Y-83366355D01*
X92047968Y-83356605D01*
X91987282Y-83344069D01*
X91927417Y-83328748D01*
X91868372Y-83310641D01*
X91810149Y-83289748D01*
X91752746Y-83266070D01*
X91696164Y-83239606D01*
X91640403Y-83210356D01*
X91585463Y-83178321D01*
X91531344Y-83143500D01*
X91478045Y-83105893D01*
X91425568Y-83065501D01*
X91373911Y-83022324D01*
X91319261Y-82972060D01*
X91268137Y-82919885D01*
X91220539Y-82865800D01*
X91176467Y-82809804D01*
X91135921Y-82751897D01*
X91098900Y-82692079D01*
X91065405Y-82630350D01*
X91035435Y-82566710D01*
X91008992Y-82501160D01*
X90986074Y-82433698D01*
X90966682Y-82364326D01*
X90950816Y-82293043D01*
X90938475Y-82219849D01*
X90929661Y-82144743D01*
X90924372Y-82067727D01*
X90922725Y-81994003D01*
X91327402Y-81994003D01*
X91328559Y-82048513D01*
X91332031Y-82101798D01*
X91337818Y-82153858D01*
X91345920Y-82204693D01*
X91356336Y-82254304D01*
X91369067Y-82302690D01*
X91384112Y-82349852D01*
X91401473Y-82395788D01*
X91421148Y-82440500D01*
X91443137Y-82483987D01*
X91467441Y-82526250D01*
X91494060Y-82567288D01*
X91522994Y-82607101D01*
X91554242Y-82645690D01*
X91587804Y-82683053D01*
X91623682Y-82719193D01*
X91660858Y-82753609D01*
X91698748Y-82785805D01*
X91737351Y-82815781D01*
X91776668Y-82843537D01*
X91816697Y-82869072D01*
X91857440Y-82892387D01*
X91898896Y-82913481D01*
X91941065Y-82932355D01*
X91983948Y-82949008D01*
X92027544Y-82963442D01*
X92071852Y-82975654D01*
X92116874Y-82985646D01*
X92162610Y-82993418D01*
X92209058Y-82998969D01*
X92256219Y-83002300D01*
X92304094Y-83003410D01*
X92355904Y-83002280D01*
X92406691Y-82998889D01*
X92456455Y-82993236D01*
X92505197Y-82985323D01*
X92552916Y-82975149D01*
X92599612Y-82962714D01*
X92645286Y-82948018D01*
X92689937Y-82931062D01*
X92733566Y-82911844D01*
X92776172Y-82890366D01*
X92817755Y-82866627D01*
X92858316Y-82840627D01*
X92897854Y-82812366D01*
X92936369Y-82781845D01*
X92973862Y-82749063D01*
X93010332Y-82714020D01*
X93045165Y-82676918D01*
X93077752Y-82638820D01*
X93108091Y-82599727D01*
X93136182Y-82559637D01*
X93162027Y-82518552D01*
X93185624Y-82476471D01*
X93206973Y-82433394D01*
X93226076Y-82389321D01*
X93242931Y-82344253D01*
X93257538Y-82298188D01*
X93269899Y-82251127D01*
X93280012Y-82203071D01*
X93287877Y-82154018D01*
X93293496Y-82103970D01*
X93296867Y-82052925D01*
X93297990Y-82000885D01*
X93296880Y-81948240D01*
X93293549Y-81896671D01*
X93287998Y-81846179D01*
X93280226Y-81796764D01*
X93270234Y-81748425D01*
X93258022Y-81701163D01*
X93243589Y-81654977D01*
X93226935Y-81609868D01*
X93208061Y-81565836D01*
X93186967Y-81522880D01*
X93163652Y-81481000D01*
X93138117Y-81440197D01*
X93110361Y-81400471D01*
X93080385Y-81361821D01*
X93048189Y-81324247D01*
X93013773Y-81287750D01*
X92977936Y-81252707D01*
X92941049Y-81219925D01*
X92903113Y-81189404D01*
X92864127Y-81161143D01*
X92824091Y-81135143D01*
X92783006Y-81111404D01*
X92740871Y-81089926D01*
X92697687Y-81070708D01*
X92653453Y-81053752D01*
X92608169Y-81039056D01*
X92561836Y-81026621D01*
X92514453Y-81016447D01*
X92466020Y-81008534D01*
X92416538Y-81002882D01*
X92366006Y-80999490D01*
X92314424Y-80998360D01*
X92263037Y-80999490D01*
X92212659Y-81002882D01*
X92163291Y-81008534D01*
X92114932Y-81016447D01*
X92067582Y-81026621D01*
X92021242Y-81039056D01*
X91975911Y-81053752D01*
X91931590Y-81070708D01*
X91888277Y-81089926D01*
X91845974Y-81111404D01*
X91804681Y-81135143D01*
X91764396Y-81161143D01*
X91725121Y-81189404D01*
X91686855Y-81219925D01*
X91649599Y-81252707D01*
X91613351Y-81287750D01*
X91578724Y-81324018D01*
X91546331Y-81361335D01*
X91516172Y-81399702D01*
X91488247Y-81439119D01*
X91462557Y-81479585D01*
X91439100Y-81521101D01*
X91417877Y-81563666D01*
X91398888Y-81607282D01*
X91382133Y-81651947D01*
X91367613Y-81697662D01*
X91355326Y-81744426D01*
X91345273Y-81792241D01*
X91337454Y-81841105D01*
X91331870Y-81891018D01*
X91328519Y-81941982D01*
X91327402Y-81993996D01*
X91327402Y-81994003D01*
X90922725Y-81994003D01*
X90922725Y-81993996D01*
X90922609Y-81988800D01*
X90924217Y-81919225D01*
X90929042Y-81850889D01*
X90937082Y-81783790D01*
X90948339Y-81717930D01*
X90962813Y-81653308D01*
X90980502Y-81589923D01*
X91001408Y-81527777D01*
X91025530Y-81466869D01*
X91052869Y-81407200D01*
X91083423Y-81348768D01*
X91117194Y-81291574D01*
X91154181Y-81235619D01*
X91194384Y-81180901D01*
X91237804Y-81127422D01*
X91284439Y-81075181D01*
X91334291Y-81024178D01*
X91386184Y-80975368D01*
X91439368Y-80929707D01*
X91493844Y-80887196D01*
X91549612Y-80847833D01*
X91606671Y-80811619D01*
X91665023Y-80778554D01*
X91724666Y-80748638D01*
X91785601Y-80721871D01*
X91847828Y-80698254D01*
X91911347Y-80677785D01*
X91976158Y-80660465D01*
X92042260Y-80646294D01*
X92109655Y-80635272D01*
X92178341Y-80627400D01*
X92248319Y-80622676D01*
X92319589Y-80621101D01*
X92390012Y-80622689D01*
G37*
G36*
X76615686Y-66527962D02*
G01*
X76615686Y-64679672D01*
X77017038Y-64679672D01*
X77017038Y-67501198D01*
X75077455Y-65477211D01*
X75077455Y-67339279D01*
X74676103Y-67339279D01*
X74676103Y-64498802D01*
X76615686Y-66527962D01*
G37*
G36*
X36939947Y-80628489D02*
G01*
X36978434Y-80629982D01*
X37016599Y-80632472D01*
X37054441Y-80635957D01*
X37091960Y-80640438D01*
X37129156Y-80645915D01*
X37166029Y-80652388D01*
X37202579Y-80659857D01*
X37238806Y-80668321D01*
X37274711Y-80677781D01*
X37310292Y-80688238D01*
X37345550Y-80699689D01*
X37380486Y-80712137D01*
X37415098Y-80725581D01*
X37449388Y-80740020D01*
X37483354Y-80755455D01*
X37515618Y-80772007D01*
X37547814Y-80789797D01*
X37579944Y-80808826D01*
X37612006Y-80829092D01*
X37644001Y-80850597D01*
X37675928Y-80873340D01*
X37707788Y-80897321D01*
X37739581Y-80922540D01*
X37771307Y-80948997D01*
X37802965Y-80976693D01*
X37834556Y-81005626D01*
X37866080Y-81035798D01*
X37897537Y-81067209D01*
X37928926Y-81099857D01*
X37960248Y-81133744D01*
X37991502Y-81168869D01*
X37705560Y-81442757D01*
X37664091Y-81389984D01*
X37621505Y-81340615D01*
X37577803Y-81294652D01*
X37532983Y-81252092D01*
X37487046Y-81212938D01*
X37439992Y-81177188D01*
X37391821Y-81144843D01*
X37342534Y-81115903D01*
X37292129Y-81090367D01*
X37240607Y-81068236D01*
X37187969Y-81049510D01*
X37134213Y-81034189D01*
X37079341Y-81022272D01*
X37023351Y-81013760D01*
X36966245Y-81008653D01*
X36908022Y-81006950D01*
X36855800Y-81008088D01*
X36804642Y-81011499D01*
X36754547Y-81017185D01*
X36705515Y-81025145D01*
X36657546Y-81035379D01*
X36610640Y-81047888D01*
X36564798Y-81062671D01*
X36520018Y-81079728D01*
X36476302Y-81099060D01*
X36433649Y-81120665D01*
X36392059Y-81144545D01*
X36351532Y-81170699D01*
X36312068Y-81199128D01*
X36273667Y-81229830D01*
X36236330Y-81262807D01*
X36200056Y-81298058D01*
X36165430Y-81334366D01*
X36133038Y-81371804D01*
X36102880Y-81410373D01*
X36074956Y-81450072D01*
X36049266Y-81490902D01*
X36025810Y-81532862D01*
X36004587Y-81575953D01*
X35985599Y-81620173D01*
X35968845Y-81665525D01*
X35954324Y-81712006D01*
X35942038Y-81759618D01*
X35931985Y-81808361D01*
X35924166Y-81858233D01*
X35918581Y-81909236D01*
X35915231Y-81961370D01*
X35914114Y-82014633D01*
X35915358Y-82069572D01*
X35919093Y-82123286D01*
X35925317Y-82175776D01*
X35934031Y-82227041D01*
X35945234Y-82277082D01*
X35958927Y-82325898D01*
X35975109Y-82373490D01*
X35993782Y-82419857D01*
X36014943Y-82465000D01*
X36038595Y-82508918D01*
X36064736Y-82551611D01*
X36093367Y-82593081D01*
X36124487Y-82633325D01*
X36158097Y-82672345D01*
X36194197Y-82710141D01*
X36232786Y-82746712D01*
X36270231Y-82779043D01*
X36308066Y-82809288D01*
X36346292Y-82837447D01*
X36384908Y-82863520D01*
X36423914Y-82887508D01*
X36463311Y-82909409D01*
X36503097Y-82929225D01*
X36543274Y-82946955D01*
X36583842Y-82962599D01*
X36624800Y-82976157D01*
X36666147Y-82987629D01*
X36707885Y-82997015D01*
X36750014Y-83004316D01*
X36792532Y-83009531D01*
X36835441Y-83012659D01*
X36878740Y-83013702D01*
X36915539Y-83012922D01*
X36951867Y-83010580D01*
X36987724Y-83006678D01*
X37023110Y-83001214D01*
X37058025Y-82994189D01*
X37092469Y-82985604D01*
X37126442Y-82975457D01*
X37159944Y-82963749D01*
X37192975Y-82950480D01*
X37225535Y-82935650D01*
X37257624Y-82919259D01*
X37289242Y-82901307D01*
X37320389Y-82881794D01*
X37351065Y-82860720D01*
X37381271Y-82838085D01*
X37411005Y-82813889D01*
X37439689Y-82788386D01*
X37466745Y-82762265D01*
X37492173Y-82735525D01*
X37515972Y-82708166D01*
X37538143Y-82680188D01*
X37558686Y-82651592D01*
X37577600Y-82622376D01*
X37594886Y-82592541D01*
X37610544Y-82562087D01*
X37624573Y-82531014D01*
X37636974Y-82499322D01*
X37647747Y-82467010D01*
X37656891Y-82434080D01*
X37664407Y-82400530D01*
X37670295Y-82366361D01*
X37674554Y-82331573D01*
X37011377Y-82331573D01*
X37011377Y-81954353D01*
X38110361Y-81954353D01*
X38110361Y-82042206D01*
X38109257Y-82116060D01*
X38105947Y-82187760D01*
X38100430Y-82257308D01*
X38092705Y-82324702D01*
X38082774Y-82389943D01*
X38070636Y-82453031D01*
X38056291Y-82513965D01*
X38039739Y-82572746D01*
X38030757Y-82599338D01*
X38021034Y-82625714D01*
X38010571Y-82651875D01*
X37999368Y-82677820D01*
X37987425Y-82703550D01*
X37974741Y-82729065D01*
X37961318Y-82754365D01*
X37947154Y-82779449D01*
X37932250Y-82804319D01*
X37916605Y-82828972D01*
X37900221Y-82853411D01*
X37883096Y-82877634D01*
X37865231Y-82901642D01*
X37846626Y-82925435D01*
X37827281Y-82949012D01*
X37807195Y-82972374D01*
X37760115Y-83022852D01*
X37711459Y-83070074D01*
X37661230Y-83114039D01*
X37609426Y-83154747D01*
X37556047Y-83192199D01*
X37501094Y-83226394D01*
X37444566Y-83257332D01*
X37386464Y-83285014D01*
X37326788Y-83309439D01*
X37265537Y-83330608D01*
X37202711Y-83348520D01*
X37138311Y-83363175D01*
X37072336Y-83374574D01*
X37004787Y-83382715D01*
X36935663Y-83387600D01*
X36864965Y-83389229D01*
X36795828Y-83387654D01*
X36727942Y-83382931D01*
X36661307Y-83375058D01*
X36595925Y-83364036D01*
X36531793Y-83349865D01*
X36468913Y-83332546D01*
X36407285Y-83312077D01*
X36346909Y-83288459D01*
X36287784Y-83261692D01*
X36229910Y-83231776D01*
X36173288Y-83198711D01*
X36117918Y-83162497D01*
X36063799Y-83123135D01*
X36010932Y-83080623D01*
X35959316Y-83034962D01*
X35908952Y-82986153D01*
X35860768Y-82934920D01*
X35815693Y-82882423D01*
X35773727Y-82828660D01*
X35734868Y-82773633D01*
X35699119Y-82717341D01*
X35666478Y-82659784D01*
X35636946Y-82600962D01*
X35610522Y-82540874D01*
X35587207Y-82479523D01*
X35567001Y-82416906D01*
X35549903Y-82353024D01*
X35535914Y-82287877D01*
X35525034Y-82221465D01*
X35517262Y-82153789D01*
X35512599Y-82084847D01*
X35511045Y-82014641D01*
X35512626Y-81942980D01*
X35517370Y-81872693D01*
X35525276Y-81803777D01*
X35536345Y-81736235D01*
X35550576Y-81670065D01*
X35567970Y-81605267D01*
X35588526Y-81541843D01*
X35612245Y-81479791D01*
X35639126Y-81419111D01*
X35669169Y-81359805D01*
X35702375Y-81301871D01*
X35738744Y-81245309D01*
X35778275Y-81190121D01*
X35820968Y-81136305D01*
X35866824Y-81083862D01*
X35915842Y-81032791D01*
X35967127Y-80983772D01*
X36019786Y-80937916D01*
X36073817Y-80895222D01*
X36129221Y-80855691D01*
X36185998Y-80819322D01*
X36244147Y-80786116D01*
X36303669Y-80756072D01*
X36364564Y-80729191D01*
X36426831Y-80705472D01*
X36490471Y-80684916D01*
X36555484Y-80667522D01*
X36621869Y-80653291D01*
X36689627Y-80642222D01*
X36758757Y-80634316D01*
X36829260Y-80629572D01*
X36901136Y-80627991D01*
X36939947Y-80628489D01*
G37*
G36*
X57775140Y-83339272D02*
G01*
X57335893Y-83339272D01*
X57056841Y-82693321D01*
X55918237Y-82693321D01*
X55621957Y-83339272D01*
X55189600Y-83339272D01*
X55665965Y-82316086D01*
X56085329Y-82316086D01*
X56893198Y-82316086D01*
X56498735Y-81411751D01*
X56085329Y-82316086D01*
X55665965Y-82316086D01*
X56505624Y-80512581D01*
X57775140Y-83339272D01*
G37*
G36*
X55710672Y-67339279D02*
G01*
X55309320Y-67339279D01*
X55309320Y-64679672D01*
X55710672Y-64679672D01*
X55710672Y-67339279D01*
G37*
G36*
X94328950Y-66273064D02*
G01*
X94329388Y-66315192D01*
X94330700Y-66355880D01*
X94332887Y-66395129D01*
X94335948Y-66432937D01*
X94339885Y-66469306D01*
X94344696Y-66504235D01*
X94350381Y-66537724D01*
X94356942Y-66569773D01*
X94364377Y-66600382D01*
X94372687Y-66629551D01*
X94381871Y-66657279D01*
X94391930Y-66683568D01*
X94402863Y-66708417D01*
X94414672Y-66731826D01*
X94427354Y-66753794D01*
X94440912Y-66774323D01*
X94462330Y-66802065D01*
X94484812Y-66828017D01*
X94508356Y-66852180D01*
X94532964Y-66874553D01*
X94558634Y-66895136D01*
X94585368Y-66913929D01*
X94613165Y-66930932D01*
X94642025Y-66946145D01*
X94671947Y-66959568D01*
X94702933Y-66971202D01*
X94734982Y-66981046D01*
X94768094Y-66989100D01*
X94802269Y-66995364D01*
X94837507Y-66999838D01*
X94873808Y-67002523D01*
X94911172Y-67003418D01*
X94948746Y-67002523D01*
X94985243Y-66999838D01*
X95020663Y-66995364D01*
X95055006Y-66989100D01*
X95088273Y-66981046D01*
X95120463Y-66971202D01*
X95151576Y-66959568D01*
X95181613Y-66946145D01*
X95210572Y-66930932D01*
X95238456Y-66913929D01*
X95265262Y-66895136D01*
X95290992Y-66874553D01*
X95315644Y-66852180D01*
X95339220Y-66828017D01*
X95361720Y-66802065D01*
X95383142Y-66774323D01*
X95396701Y-66754399D01*
X95409385Y-66732955D01*
X95421194Y-66709990D01*
X95432129Y-66685505D01*
X95442188Y-66659499D01*
X95451373Y-66631972D01*
X95459683Y-66602924D01*
X95467119Y-66572356D01*
X95473680Y-66540267D01*
X95479365Y-66506658D01*
X95484177Y-66471527D01*
X95488113Y-66434876D01*
X95491175Y-66396704D01*
X95493362Y-66357011D01*
X95494674Y-66315798D01*
X95495111Y-66273064D01*
X95495111Y-64671097D01*
X95896463Y-64671097D01*
X95896463Y-66383308D01*
X95895440Y-66435268D01*
X95892372Y-66486070D01*
X95887258Y-66535715D01*
X95880098Y-66584202D01*
X95870893Y-66631532D01*
X95859642Y-66677705D01*
X95846346Y-66722720D01*
X95831004Y-66766578D01*
X95813616Y-66809278D01*
X95794183Y-66850821D01*
X95772705Y-66891207D01*
X95749181Y-66930435D01*
X95723611Y-66968506D01*
X95695996Y-67005420D01*
X95666336Y-67041176D01*
X95634630Y-67075775D01*
X95597286Y-67112487D01*
X95558894Y-67146830D01*
X95519451Y-67178804D01*
X95478959Y-67208411D01*
X95437417Y-67235648D01*
X95394825Y-67260518D01*
X95351184Y-67283019D01*
X95306492Y-67303151D01*
X95260752Y-67320915D01*
X95213961Y-67336311D01*
X95166121Y-67349338D01*
X95117231Y-67359996D01*
X95067291Y-67368286D01*
X95016301Y-67374207D01*
X94964262Y-67377760D01*
X94911172Y-67378944D01*
X94858090Y-67377760D01*
X94806070Y-67374207D01*
X94755114Y-67368286D01*
X94705220Y-67359996D01*
X94656390Y-67349338D01*
X94608623Y-67336311D01*
X94561919Y-67320915D01*
X94516278Y-67303151D01*
X94471700Y-67283019D01*
X94428185Y-67260518D01*
X94385734Y-67235648D01*
X94344346Y-67208411D01*
X94304020Y-67178804D01*
X94264758Y-67146830D01*
X94226560Y-67112487D01*
X94189424Y-67075775D01*
X94157718Y-67041176D01*
X94128058Y-67005420D01*
X94100443Y-66968506D01*
X94074873Y-66930435D01*
X94051349Y-66891207D01*
X94029871Y-66850821D01*
X94010438Y-66809278D01*
X93993050Y-66766578D01*
X93977708Y-66722720D01*
X93964412Y-66677705D01*
X93953161Y-66631532D01*
X93943956Y-66584202D01*
X93936796Y-66535715D01*
X93931682Y-66486070D01*
X93928614Y-66435268D01*
X93927591Y-66383308D01*
X93927591Y-64671097D01*
X94328950Y-64671097D01*
X94328950Y-66273064D01*
G37*
G36*
X54203479Y-158680414D02*
G01*
X54279353Y-158682594D01*
X54350112Y-158686227D01*
X54415758Y-158691313D01*
X54476289Y-158697851D01*
X54531706Y-158705842D01*
X54582010Y-158715286D01*
X54627199Y-158726181D01*
X54648569Y-158732315D01*
X54669617Y-158739096D01*
X54690342Y-158746523D01*
X54710743Y-158754596D01*
X54730822Y-158763316D01*
X54750578Y-158772682D01*
X54770011Y-158782695D01*
X54789120Y-158793354D01*
X54807907Y-158804659D01*
X54826371Y-158816611D01*
X54844511Y-158829208D01*
X54862329Y-158842452D01*
X54879823Y-158856341D01*
X54896995Y-158870877D01*
X54913843Y-158886058D01*
X54930368Y-158901886D01*
X54958110Y-158930333D01*
X54984063Y-158959696D01*
X55008226Y-158989974D01*
X55030598Y-159021167D01*
X55051181Y-159053276D01*
X55069974Y-159086300D01*
X55086977Y-159120240D01*
X55102191Y-159155094D01*
X55115614Y-159190864D01*
X55127248Y-159227549D01*
X55137091Y-159265149D01*
X55145145Y-159303664D01*
X55151410Y-159343094D01*
X55155884Y-159383439D01*
X55158569Y-159424698D01*
X55159464Y-159466873D01*
X55158508Y-159511929D01*
X55155642Y-159555800D01*
X55150864Y-159598486D01*
X55144176Y-159639988D01*
X55135576Y-159680306D01*
X55125066Y-159719440D01*
X55112645Y-159757390D01*
X55098313Y-159794155D01*
X55082070Y-159829736D01*
X55063916Y-159864134D01*
X55043851Y-159897347D01*
X55021876Y-159929376D01*
X54997989Y-159960221D01*
X54972192Y-159989883D01*
X54944484Y-160018360D01*
X54914865Y-160045654D01*
X54883625Y-160071519D01*
X54851051Y-160095715D01*
X54817146Y-160118242D01*
X54781908Y-160139101D01*
X54745337Y-160158291D01*
X54707435Y-160175812D01*
X54668199Y-160191665D01*
X54627632Y-160205849D01*
X54585732Y-160218364D01*
X54542500Y-160229210D01*
X54497935Y-160238388D01*
X54452038Y-160245897D01*
X54404809Y-160251738D01*
X54356248Y-160255909D01*
X54306354Y-160258412D01*
X54255128Y-160259247D01*
X54069093Y-160259247D01*
X54069093Y-161339294D01*
X53667741Y-161339294D01*
X53667741Y-159887177D01*
X54069093Y-159887177D01*
X54218958Y-159887177D01*
X54285916Y-159885515D01*
X54348554Y-159880529D01*
X54406872Y-159872219D01*
X54460870Y-159860586D01*
X54486249Y-159853523D01*
X54510548Y-159845629D01*
X54533767Y-159836904D01*
X54555907Y-159827347D01*
X54576966Y-159816960D01*
X54596945Y-159805742D01*
X54615844Y-159793693D01*
X54633664Y-159780813D01*
X54650403Y-159767102D01*
X54666062Y-159752560D01*
X54680642Y-159737187D01*
X54694141Y-159720983D01*
X54706561Y-159703948D01*
X54717900Y-159686082D01*
X54728160Y-159667385D01*
X54737339Y-159647857D01*
X54745439Y-159627498D01*
X54752459Y-159606308D01*
X54758399Y-159584287D01*
X54763258Y-159561435D01*
X54767038Y-159537751D01*
X54769738Y-159513237D01*
X54771358Y-159487892D01*
X54771898Y-159461716D01*
X54771341Y-159436387D01*
X54769671Y-159411863D01*
X54766887Y-159388142D01*
X54762989Y-159365226D01*
X54757978Y-159343113D01*
X54751853Y-159321805D01*
X54744615Y-159301300D01*
X54736263Y-159281600D01*
X54726797Y-159262704D01*
X54716218Y-159244612D01*
X54704525Y-159227324D01*
X54691718Y-159210840D01*
X54677798Y-159195160D01*
X54662765Y-159180284D01*
X54646618Y-159166212D01*
X54629357Y-159152945D01*
X54610983Y-159140481D01*
X54591495Y-159128821D01*
X54570893Y-159117966D01*
X54549178Y-159107915D01*
X54526349Y-159098667D01*
X54502407Y-159090224D01*
X54477351Y-159082585D01*
X54451182Y-159075750D01*
X54423899Y-159069719D01*
X54395502Y-159064492D01*
X54365992Y-159060070D01*
X54335368Y-159056451D01*
X54303631Y-159053637D01*
X54270780Y-159051627D01*
X54236816Y-159050420D01*
X54201738Y-159050018D01*
X54069101Y-159050018D01*
X54069093Y-159887177D01*
X53667741Y-159887177D01*
X53667741Y-158679688D01*
X54122491Y-158679688D01*
X54203479Y-158680414D01*
G37*
G36*
X41508936Y-83339279D02*
G01*
X41107584Y-83339279D01*
X41107584Y-80679672D01*
X41508936Y-80679672D01*
X41508936Y-83339279D01*
G37*
G36*
X57658876Y-161339279D02*
G01*
X57219629Y-161339279D01*
X56940576Y-160693329D01*
X55801973Y-160693329D01*
X55505693Y-161339279D01*
X55073335Y-161339279D01*
X55549702Y-160316086D01*
X55969064Y-160316086D01*
X56776933Y-160316086D01*
X56382471Y-159411743D01*
X55969064Y-160316086D01*
X55549702Y-160316086D01*
X56389360Y-158512573D01*
X57658876Y-161339279D01*
G37*
G36*
X67102495Y-45609844D02*
G01*
X67636484Y-44708954D01*
X68096407Y-44708954D01*
X67329874Y-45978470D01*
X68134302Y-47368565D01*
X67684717Y-47368565D01*
X67095605Y-46350540D01*
X66489267Y-47368565D01*
X66034517Y-47368565D01*
X66869951Y-45978470D01*
X66137872Y-44708954D01*
X66594347Y-44708954D01*
X67102495Y-45609844D01*
G37*
G36*
X71238047Y-80680446D02*
G01*
X71300503Y-80682767D01*
X71360671Y-80686637D01*
X71418552Y-80692053D01*
X71474144Y-80699017D01*
X71527449Y-80707529D01*
X71578466Y-80717589D01*
X71627195Y-80729196D01*
X71673636Y-80742350D01*
X71717790Y-80757052D01*
X71759656Y-80773302D01*
X71799234Y-80791099D01*
X71836525Y-80810443D01*
X71871528Y-80831335D01*
X71904243Y-80853775D01*
X71934671Y-80877762D01*
X71965960Y-80905874D01*
X71995230Y-80935090D01*
X72022481Y-80965409D01*
X72047714Y-80996832D01*
X72070929Y-81029358D01*
X72092124Y-81062988D01*
X72111301Y-81097722D01*
X72128460Y-81133559D01*
X72143599Y-81170500D01*
X72156720Y-81208544D01*
X72167823Y-81247692D01*
X72176907Y-81287943D01*
X72183972Y-81329298D01*
X72189018Y-81371757D01*
X72192046Y-81415319D01*
X72193056Y-81459984D01*
X72192423Y-81494986D01*
X72190526Y-81529370D01*
X72187363Y-81563135D01*
X72182936Y-81596280D01*
X72177244Y-81628807D01*
X72170287Y-81660714D01*
X72162064Y-81692002D01*
X72152577Y-81722672D01*
X72141825Y-81752722D01*
X72129807Y-81782153D01*
X72116525Y-81810965D01*
X72101978Y-81839158D01*
X72086165Y-81866732D01*
X72069087Y-81893687D01*
X72050745Y-81920023D01*
X72031137Y-81945740D01*
X72010493Y-81970575D01*
X71989042Y-81994267D01*
X71966783Y-82016814D01*
X71943717Y-82038218D01*
X71919844Y-82058478D01*
X71895163Y-82077594D01*
X71869674Y-82095566D01*
X71843379Y-82112394D01*
X71816275Y-82128079D01*
X71788365Y-82142619D01*
X71759647Y-82156016D01*
X71730121Y-82168269D01*
X71699788Y-82179378D01*
X71668648Y-82189343D01*
X71636700Y-82198164D01*
X71603944Y-82205841D01*
X71603944Y-82205849D01*
X72427324Y-83339279D01*
X71936395Y-83339279D01*
X71176752Y-82250633D01*
X71104402Y-82250633D01*
X71104402Y-83339279D01*
X70703050Y-83339279D01*
X70703050Y-81900955D01*
X70703050Y-81056908D01*
X71104410Y-81056908D01*
X71104410Y-81900955D01*
X71231874Y-81900955D01*
X71300916Y-81899253D01*
X71365505Y-81894146D01*
X71425638Y-81885634D01*
X71481318Y-81873717D01*
X71532543Y-81858395D01*
X71556485Y-81849458D01*
X71579314Y-81839669D01*
X71601029Y-81829029D01*
X71621631Y-81817538D01*
X71641119Y-81805196D01*
X71659493Y-81792003D01*
X71676754Y-81777958D01*
X71692901Y-81763062D01*
X71707935Y-81747315D01*
X71721855Y-81730717D01*
X71734661Y-81713268D01*
X71746354Y-81694968D01*
X71756933Y-81675816D01*
X71766399Y-81655813D01*
X71774751Y-81634959D01*
X71781989Y-81613254D01*
X71788114Y-81590698D01*
X71793125Y-81567290D01*
X71797023Y-81543032D01*
X71799807Y-81517922D01*
X71801477Y-81491961D01*
X71802034Y-81465149D01*
X71801492Y-81440032D01*
X71799867Y-81415713D01*
X71797159Y-81392191D01*
X71793368Y-81369467D01*
X71788493Y-81347540D01*
X71782535Y-81326410D01*
X71775493Y-81306077D01*
X71767368Y-81286542D01*
X71758160Y-81267805D01*
X71747869Y-81249864D01*
X71736494Y-81232721D01*
X71724036Y-81216376D01*
X71710495Y-81200828D01*
X71695870Y-81186077D01*
X71680162Y-81172123D01*
X71663371Y-81158967D01*
X71645496Y-81146608D01*
X71626538Y-81135047D01*
X71606497Y-81124283D01*
X71585372Y-81114316D01*
X71563164Y-81105147D01*
X71539873Y-81096774D01*
X71515498Y-81089200D01*
X71490041Y-81082422D01*
X71463499Y-81076442D01*
X71435875Y-81071260D01*
X71407167Y-81066874D01*
X71377375Y-81063286D01*
X71346501Y-81060496D01*
X71314543Y-81058502D01*
X71281502Y-81057306D01*
X71247377Y-81056908D01*
X71104410Y-81056908D01*
X70703050Y-81056908D01*
X70703050Y-80679672D01*
X71173303Y-80679672D01*
X71238047Y-80680446D01*
G37*
G36*
X74037042Y-67339279D02*
G01*
X73635690Y-67339279D01*
X73635690Y-64679672D01*
X74037042Y-64679672D01*
X74037042Y-67339279D01*
G37*
G36*
X58508943Y-83339279D02*
G01*
X58107591Y-83339279D01*
X58107591Y-80679672D01*
X58508943Y-80679672D01*
X58508943Y-83339279D01*
G37*
G36*
X59930910Y-160527954D02*
G01*
X59930910Y-158679657D01*
X60332262Y-158679657D01*
X60332262Y-161501190D01*
X58392679Y-159477203D01*
X58392679Y-161339279D01*
X57991327Y-161339279D01*
X57991327Y-158498795D01*
X59930910Y-160527954D01*
G37*
G36*
X58289316Y-66527962D02*
G01*
X58289316Y-64679672D01*
X58690668Y-64679672D01*
X58690668Y-67501198D01*
X56751085Y-65477211D01*
X56751085Y-67339279D01*
X56349733Y-67339279D01*
X56349733Y-64498802D01*
X58289316Y-66527962D01*
G37*
G36*
X42930894Y-160527954D02*
G01*
X42930894Y-158679657D01*
X43332246Y-158679657D01*
X43332246Y-161501190D01*
X41392664Y-159477203D01*
X41392664Y-161339279D01*
X40991312Y-161339279D01*
X40991312Y-158498795D01*
X42930894Y-160527954D01*
G37*
G36*
X71384325Y-66962044D02*
G01*
X72166360Y-66962044D01*
X72166360Y-67339279D01*
X70982973Y-67339279D01*
X70982973Y-64679672D01*
X71384325Y-64679672D01*
X71384325Y-66962044D01*
G37*
G36*
X40430627Y-53329803D02*
G01*
X40029276Y-53329803D01*
X40029276Y-51045712D01*
X39569357Y-51045712D01*
X39789842Y-50670197D01*
X40430627Y-50670197D01*
X40430627Y-53329803D01*
G37*
G36*
X92110104Y-64622697D02*
G01*
X92179262Y-64627461D01*
X92247155Y-64635401D01*
X92313782Y-64646516D01*
X92379145Y-64660808D01*
X92443242Y-64678275D01*
X92506075Y-64698919D01*
X92567643Y-64722738D01*
X92627945Y-64749734D01*
X92686983Y-64779905D01*
X92744756Y-64813252D01*
X92801263Y-64849775D01*
X92856506Y-64889474D01*
X92910483Y-64932349D01*
X92963195Y-64978399D01*
X93014642Y-65027626D01*
X93064078Y-65079081D01*
X93110325Y-65131815D01*
X93153382Y-65185827D01*
X93193250Y-65241117D01*
X93229929Y-65297686D01*
X93263418Y-65355533D01*
X93293718Y-65414658D01*
X93320828Y-65475061D01*
X93344749Y-65536743D01*
X93365481Y-65599704D01*
X93383023Y-65663942D01*
X93397375Y-65729459D01*
X93408539Y-65796255D01*
X93416512Y-65864328D01*
X93421296Y-65933680D01*
X93422891Y-66004311D01*
X93421290Y-66075332D01*
X93416485Y-66144995D01*
X93408478Y-66213298D01*
X93397268Y-66280242D01*
X93382855Y-66345827D01*
X93365239Y-66410052D01*
X93344420Y-66472918D01*
X93320398Y-66534425D01*
X93293173Y-66594572D01*
X93262745Y-66653361D01*
X93229115Y-66710790D01*
X93192281Y-66766859D01*
X93152245Y-66821570D01*
X93109006Y-66874921D01*
X93062563Y-66926914D01*
X93012918Y-66977547D01*
X92960791Y-67026148D01*
X92907331Y-67071614D01*
X92852539Y-67113945D01*
X92796415Y-67153139D01*
X92738958Y-67189198D01*
X92680169Y-67222122D01*
X92620048Y-67251909D01*
X92558594Y-67278562D01*
X92495809Y-67302078D01*
X92431691Y-67322459D01*
X92366240Y-67339705D01*
X92299458Y-67353814D01*
X92231343Y-67364789D01*
X92161897Y-67372628D01*
X92091118Y-67377331D01*
X92019006Y-67378899D01*
X91955037Y-67377506D01*
X91891888Y-67373327D01*
X91829560Y-67366363D01*
X91768053Y-67356613D01*
X91707367Y-67344077D01*
X91647502Y-67328756D01*
X91588458Y-67310649D01*
X91530235Y-67289756D01*
X91472833Y-67266077D01*
X91416251Y-67239613D01*
X91360491Y-67210364D01*
X91305552Y-67178328D01*
X91251433Y-67143507D01*
X91198136Y-67105901D01*
X91145659Y-67065509D01*
X91094003Y-67022331D01*
X91039353Y-66972068D01*
X90988228Y-66919893D01*
X90940629Y-66865808D01*
X90896556Y-66809811D01*
X90856008Y-66751904D01*
X90818987Y-66692087D01*
X90785491Y-66630358D01*
X90755521Y-66566718D01*
X90729077Y-66501168D01*
X90706159Y-66433706D01*
X90686767Y-66364334D01*
X90670901Y-66293050D01*
X90658560Y-66219856D01*
X90649746Y-66144751D01*
X90644457Y-66067735D01*
X90642810Y-65994003D01*
X91047495Y-65994003D01*
X91047502Y-65994011D01*
X91048660Y-66048520D01*
X91052132Y-66101805D01*
X91057918Y-66153865D01*
X91066020Y-66204701D01*
X91076436Y-66254312D01*
X91089167Y-66302698D01*
X91104213Y-66349859D01*
X91121573Y-66395796D01*
X91141248Y-66440508D01*
X91163238Y-66483995D01*
X91187542Y-66526258D01*
X91214161Y-66567296D01*
X91243094Y-66607109D01*
X91274342Y-66645697D01*
X91307905Y-66683061D01*
X91343782Y-66719200D01*
X91380957Y-66753617D01*
X91418846Y-66785813D01*
X91457447Y-66815789D01*
X91496762Y-66843544D01*
X91536791Y-66869080D01*
X91577532Y-66892394D01*
X91618987Y-66913489D01*
X91661155Y-66932363D01*
X91704037Y-66949016D01*
X91747632Y-66963449D01*
X91791940Y-66975662D01*
X91836961Y-66985654D01*
X91882696Y-66993426D01*
X91929143Y-66998977D01*
X91976305Y-67002308D01*
X92024179Y-67003418D01*
X92075990Y-67002288D01*
X92126778Y-66998896D01*
X92176544Y-66993244D01*
X92225286Y-66985331D01*
X92273006Y-66975157D01*
X92319703Y-66962722D01*
X92365377Y-66948026D01*
X92410028Y-66931069D01*
X92453657Y-66911852D01*
X92496262Y-66890374D01*
X92537845Y-66866635D01*
X92578405Y-66840635D01*
X92617942Y-66812374D01*
X92656457Y-66781853D01*
X92693948Y-66749070D01*
X92730417Y-66714027D01*
X92765252Y-66676926D01*
X92797839Y-66638828D01*
X92828179Y-66599734D01*
X92856272Y-66559645D01*
X92882117Y-66518560D01*
X92905715Y-66476479D01*
X92927065Y-66433402D01*
X92946168Y-66389329D01*
X92963023Y-66344260D01*
X92977631Y-66298196D01*
X92989991Y-66251135D01*
X93000104Y-66203078D01*
X93007970Y-66154026D01*
X93013589Y-66103977D01*
X93016960Y-66052933D01*
X93018083Y-66000893D01*
X93016973Y-65948247D01*
X93013642Y-65896679D01*
X93008091Y-65846187D01*
X93000319Y-65796771D01*
X92990327Y-65748433D01*
X92978114Y-65701170D01*
X92963681Y-65654985D01*
X92947028Y-65609876D01*
X92928154Y-65565843D01*
X92907059Y-65522887D01*
X92883745Y-65481008D01*
X92858210Y-65440205D01*
X92830454Y-65400478D01*
X92800478Y-65361828D01*
X92768282Y-65324255D01*
X92733865Y-65287758D01*
X92698028Y-65252715D01*
X92661142Y-65219933D01*
X92623205Y-65189411D01*
X92584220Y-65161151D01*
X92544184Y-65135151D01*
X92503099Y-65111412D01*
X92460964Y-65089933D01*
X92417780Y-65070716D01*
X92373545Y-65053759D01*
X92328262Y-65039064D01*
X92281928Y-65026629D01*
X92234545Y-65016455D01*
X92186113Y-65008541D01*
X92136630Y-65002889D01*
X92086098Y-64999498D01*
X92034517Y-64998367D01*
X91983130Y-64999498D01*
X91932752Y-65002889D01*
X91883383Y-65008541D01*
X91835024Y-65016455D01*
X91787673Y-65026629D01*
X91741333Y-65039064D01*
X91696001Y-65053759D01*
X91651679Y-65070716D01*
X91608366Y-65089933D01*
X91566062Y-65111412D01*
X91524768Y-65135151D01*
X91484483Y-65161151D01*
X91445207Y-65189411D01*
X91406941Y-65219933D01*
X91369684Y-65252715D01*
X91333437Y-65287758D01*
X91298811Y-65324025D01*
X91266419Y-65361343D01*
X91236261Y-65399710D01*
X91208337Y-65439126D01*
X91182647Y-65479592D01*
X91159191Y-65521108D01*
X91137968Y-65563674D01*
X91118980Y-65607289D01*
X91102226Y-65651954D01*
X91087705Y-65697669D01*
X91075419Y-65744434D01*
X91065366Y-65792248D01*
X91057547Y-65841112D01*
X91051962Y-65891026D01*
X91048611Y-65941990D01*
X91047495Y-65994003D01*
X90642810Y-65994003D01*
X90642694Y-65988808D01*
X90642702Y-65988808D01*
X90644310Y-65919233D01*
X90649134Y-65850896D01*
X90657175Y-65783798D01*
X90668432Y-65717937D01*
X90682906Y-65653315D01*
X90700596Y-65589931D01*
X90721502Y-65527785D01*
X90745624Y-65466877D01*
X90772963Y-65407207D01*
X90803518Y-65348775D01*
X90837289Y-65291582D01*
X90874277Y-65235626D01*
X90914481Y-65180909D01*
X90957902Y-65127429D01*
X91004538Y-65075188D01*
X91054391Y-65024185D01*
X91106283Y-64975376D01*
X91159466Y-64929715D01*
X91213941Y-64887203D01*
X91269708Y-64847840D01*
X91326767Y-64811627D01*
X91385118Y-64778562D01*
X91444760Y-64748646D01*
X91505695Y-64721879D01*
X91567922Y-64698261D01*
X91631440Y-64677792D01*
X91696251Y-64660472D01*
X91762353Y-64646302D01*
X91829747Y-64635280D01*
X91898434Y-64627407D01*
X91968412Y-64622684D01*
X92039682Y-64621109D01*
X92110104Y-64622697D01*
G37*
G36*
X88377642Y-80671832D02*
G01*
X88440098Y-80674154D01*
X88500266Y-80678023D01*
X88558147Y-80683440D01*
X88613739Y-80690404D01*
X88667044Y-80698916D01*
X88718061Y-80708975D01*
X88766790Y-80720582D01*
X88813231Y-80733736D01*
X88857385Y-80748439D01*
X88899251Y-80764688D01*
X88938829Y-80782485D01*
X88976120Y-80801830D01*
X89011123Y-80822722D01*
X89043838Y-80845161D01*
X89074266Y-80869148D01*
X89105553Y-80897262D01*
X89134822Y-80926478D01*
X89162073Y-80956798D01*
X89187305Y-80988221D01*
X89210518Y-81020748D01*
X89231713Y-81054378D01*
X89250890Y-81089112D01*
X89268048Y-81124949D01*
X89283187Y-81161889D01*
X89296308Y-81199933D01*
X89307410Y-81239080D01*
X89316494Y-81279331D01*
X89323559Y-81320685D01*
X89328606Y-81363143D01*
X89331634Y-81406705D01*
X89332643Y-81451370D01*
X89332011Y-81486373D01*
X89330113Y-81520756D01*
X89326951Y-81554521D01*
X89322524Y-81587667D01*
X89316831Y-81620193D01*
X89309874Y-81652100D01*
X89301652Y-81683389D01*
X89292164Y-81714058D01*
X89281412Y-81744108D01*
X89269395Y-81773539D01*
X89256112Y-81802351D01*
X89241565Y-81830544D01*
X89225752Y-81858118D01*
X89208675Y-81885073D01*
X89190332Y-81911409D01*
X89170724Y-81937126D01*
X89150081Y-81961962D01*
X89128629Y-81985653D01*
X89106370Y-82008201D01*
X89083304Y-82029604D01*
X89059431Y-82049864D01*
X89034750Y-82068980D01*
X89009262Y-82086952D01*
X88982966Y-82103781D01*
X88955863Y-82119465D01*
X88927952Y-82134006D01*
X88899234Y-82147402D01*
X88869709Y-82159655D01*
X88839376Y-82170764D01*
X88808235Y-82180729D01*
X88776287Y-82189550D01*
X88743532Y-82197227D01*
X88743593Y-82197235D01*
X89566965Y-83330666D01*
X89076044Y-83330666D01*
X88316400Y-82242020D01*
X88243997Y-82242020D01*
X88243997Y-83330666D01*
X87842645Y-83330666D01*
X87842645Y-81892342D01*
X88244051Y-81892342D01*
X88371523Y-81892342D01*
X88440565Y-81890639D01*
X88505153Y-81885532D01*
X88565287Y-81877020D01*
X88620966Y-81865103D01*
X88672192Y-81849782D01*
X88696134Y-81840844D01*
X88718963Y-81831056D01*
X88740678Y-81820416D01*
X88761279Y-81808925D01*
X88780767Y-81796583D01*
X88799141Y-81783389D01*
X88816402Y-81769345D01*
X88832549Y-81754449D01*
X88847583Y-81738702D01*
X88861503Y-81722104D01*
X88874309Y-81704654D01*
X88886002Y-81686354D01*
X88896581Y-81667202D01*
X88906047Y-81647200D01*
X88914399Y-81626346D01*
X88921638Y-81604640D01*
X88927762Y-81582084D01*
X88932774Y-81558677D01*
X88936671Y-81534418D01*
X88939455Y-81509308D01*
X88941126Y-81483347D01*
X88941682Y-81456535D01*
X88941141Y-81431419D01*
X88939516Y-81407099D01*
X88936808Y-81383578D01*
X88933016Y-81360853D01*
X88928141Y-81338926D01*
X88922183Y-81317796D01*
X88915142Y-81297464D01*
X88907017Y-81277929D01*
X88897809Y-81259191D01*
X88887517Y-81241251D01*
X88876143Y-81224108D01*
X88863684Y-81207762D01*
X88850143Y-81192214D01*
X88835518Y-81177463D01*
X88819810Y-81163510D01*
X88803019Y-81150353D01*
X88785145Y-81137995D01*
X88766187Y-81126433D01*
X88746145Y-81115669D01*
X88725021Y-81105702D01*
X88702813Y-81096533D01*
X88679521Y-81088161D01*
X88655147Y-81080586D01*
X88629689Y-81073809D01*
X88603148Y-81067829D01*
X88575523Y-81062646D01*
X88546815Y-81058261D01*
X88517024Y-81054673D01*
X88486149Y-81051882D01*
X88454191Y-81049889D01*
X88421150Y-81048693D01*
X88387025Y-81048294D01*
X88244058Y-81048294D01*
X88244051Y-81892342D01*
X87842645Y-81892342D01*
X87842645Y-80671059D01*
X88312898Y-80671059D01*
X88377642Y-80671832D01*
G37*
G36*
X94608850Y-82273056D02*
G01*
X94609287Y-82315184D01*
X94610600Y-82355873D01*
X94612787Y-82395121D01*
X94615848Y-82432930D01*
X94619785Y-82469298D01*
X94624596Y-82504227D01*
X94630282Y-82537716D01*
X94636842Y-82569765D01*
X94644278Y-82600374D01*
X94652588Y-82629543D01*
X94661773Y-82657272D01*
X94671833Y-82683561D01*
X94682767Y-82708409D01*
X94694576Y-82731818D01*
X94707260Y-82753787D01*
X94720819Y-82774315D01*
X94742236Y-82802057D01*
X94764716Y-82828010D01*
X94788260Y-82852172D01*
X94812867Y-82874545D01*
X94838537Y-82895128D01*
X94865270Y-82913921D01*
X94893066Y-82930924D01*
X94921925Y-82946137D01*
X94951848Y-82959561D01*
X94982833Y-82971194D01*
X95014882Y-82981038D01*
X95047994Y-82989092D01*
X95082169Y-82995356D01*
X95117407Y-82999831D01*
X95153708Y-83002515D01*
X95191072Y-83003410D01*
X95228645Y-83002515D01*
X95265142Y-82999831D01*
X95300562Y-82995356D01*
X95334906Y-82989092D01*
X95368173Y-82981038D01*
X95400363Y-82971194D01*
X95431476Y-82959561D01*
X95461513Y-82946137D01*
X95490473Y-82930924D01*
X95518357Y-82913921D01*
X95545164Y-82895128D01*
X95570894Y-82874545D01*
X95595548Y-82852172D01*
X95619125Y-82828010D01*
X95641626Y-82802057D01*
X95663049Y-82774315D01*
X95676607Y-82754391D01*
X95689290Y-82732947D01*
X95701098Y-82709983D01*
X95712031Y-82685497D01*
X95722090Y-82659491D01*
X95731275Y-82631964D01*
X95739584Y-82602917D01*
X95747019Y-82572349D01*
X95753580Y-82540260D01*
X95759265Y-82506650D01*
X95764076Y-82471520D01*
X95768013Y-82434868D01*
X95771074Y-82396697D01*
X95773261Y-82357004D01*
X95774573Y-82315790D01*
X95775011Y-82273056D01*
X95775011Y-80671089D01*
X96176363Y-80671089D01*
X96176363Y-82383301D01*
X96175340Y-82435260D01*
X96172272Y-82486063D01*
X96167158Y-82535707D01*
X96159999Y-82584195D01*
X96150794Y-82631525D01*
X96139544Y-82677697D01*
X96126249Y-82722712D01*
X96110908Y-82766570D01*
X96093522Y-82809270D01*
X96074090Y-82850813D01*
X96052613Y-82891199D01*
X96029090Y-82930427D01*
X96003522Y-82968498D01*
X95975908Y-83005412D01*
X95946249Y-83041168D01*
X95914545Y-83075768D01*
X95877200Y-83112479D01*
X95838806Y-83146822D01*
X95799362Y-83178797D01*
X95758868Y-83208403D01*
X95717325Y-83235641D01*
X95674732Y-83260510D01*
X95631089Y-83283011D01*
X95586397Y-83303144D01*
X95540655Y-83320907D01*
X95493863Y-83336303D01*
X95446022Y-83349330D01*
X95397132Y-83359988D01*
X95347191Y-83368278D01*
X95296201Y-83374200D01*
X95244161Y-83377752D01*
X95191072Y-83378937D01*
X95137990Y-83377752D01*
X95085970Y-83374200D01*
X95035014Y-83368278D01*
X94985121Y-83359988D01*
X94936291Y-83349330D01*
X94888525Y-83336303D01*
X94841821Y-83320907D01*
X94796180Y-83303144D01*
X94751603Y-83283011D01*
X94708088Y-83260510D01*
X94665637Y-83235641D01*
X94624248Y-83208403D01*
X94583923Y-83178797D01*
X94544660Y-83146822D01*
X94506461Y-83112479D01*
X94469324Y-83075768D01*
X94437619Y-83041168D01*
X94407960Y-83005412D01*
X94380347Y-82968498D01*
X94354778Y-82930427D01*
X94331256Y-82891199D01*
X94309778Y-82850813D01*
X94290347Y-82809270D01*
X94272960Y-82766570D01*
X94257619Y-82722712D01*
X94244324Y-82677697D01*
X94233074Y-82631525D01*
X94223869Y-82584195D01*
X94216710Y-82535707D01*
X94211597Y-82486063D01*
X94208529Y-82435260D01*
X94207506Y-82383301D01*
X94207506Y-80671089D01*
X94608850Y-80671089D01*
X94608850Y-82273056D01*
G37*
G36*
X96617342Y-51048325D02*
G01*
X96007562Y-51048325D01*
X96007562Y-53330696D01*
X95606210Y-53330696D01*
X95606210Y-51048325D01*
X94994699Y-51048325D01*
X94994699Y-50671089D01*
X96617342Y-50671089D01*
X96617342Y-51048325D01*
G37*
G36*
X44087583Y-82527962D02*
G01*
X44087583Y-80679672D01*
X44488935Y-80679672D01*
X44488935Y-83501198D01*
X42549348Y-81477211D01*
X42549348Y-83339279D01*
X42148000Y-83339279D01*
X42148000Y-80498802D01*
X44087583Y-82527962D01*
G37*
G36*
X76895601Y-82527962D02*
G01*
X76895601Y-80679672D01*
X77296953Y-80679672D01*
X77296953Y-83501198D01*
X75357370Y-81477211D01*
X75357370Y-83339279D01*
X74956018Y-83339279D01*
X74956018Y-80498802D01*
X76895601Y-82527962D01*
G37*
G36*
X71022280Y-44709731D02*
G01*
X71084736Y-44712053D01*
X71144904Y-44715922D01*
X71202785Y-44721339D01*
X71258377Y-44728303D01*
X71311682Y-44736815D01*
X71362698Y-44746874D01*
X71411427Y-44758481D01*
X71457868Y-44771636D01*
X71502021Y-44786338D01*
X71543887Y-44802588D01*
X71583464Y-44820386D01*
X71620754Y-44839731D01*
X71655756Y-44860623D01*
X71688470Y-44883063D01*
X71718896Y-44907051D01*
X71750185Y-44935164D01*
X71779455Y-44964380D01*
X71806707Y-44994700D01*
X71831940Y-45026123D01*
X71855154Y-45058649D01*
X71876350Y-45092279D01*
X71895527Y-45127013D01*
X71912685Y-45162849D01*
X71927825Y-45199790D01*
X71940946Y-45237834D01*
X71952048Y-45276981D01*
X71961132Y-45317232D01*
X71968197Y-45358586D01*
X71973244Y-45401044D01*
X71976272Y-45444605D01*
X71977281Y-45489269D01*
X71976649Y-45524272D01*
X71974751Y-45558656D01*
X71971589Y-45592420D01*
X71967162Y-45625566D01*
X71961469Y-45658092D01*
X71954512Y-45690000D01*
X71946290Y-45721288D01*
X71936802Y-45751957D01*
X71926050Y-45782008D01*
X71914033Y-45811439D01*
X71900750Y-45840252D01*
X71886203Y-45868445D01*
X71870391Y-45896020D01*
X71853313Y-45922975D01*
X71834970Y-45949311D01*
X71815363Y-45975029D01*
X71794719Y-45999864D01*
X71773267Y-46023556D01*
X71751009Y-46046104D01*
X71727942Y-46067507D01*
X71704069Y-46087767D01*
X71679388Y-46106883D01*
X71653900Y-46124856D01*
X71627604Y-46141684D01*
X71600501Y-46157369D01*
X71572590Y-46171909D01*
X71543872Y-46185306D01*
X71514347Y-46197560D01*
X71484014Y-46208669D01*
X71452873Y-46218634D01*
X71420925Y-46227456D01*
X71388179Y-46235132D01*
X72211557Y-47368565D01*
X71720628Y-47368565D01*
X70960985Y-46279915D01*
X70888635Y-46279915D01*
X70888635Y-47368565D01*
X70487283Y-47368565D01*
X70487283Y-45930241D01*
X70487283Y-45086197D01*
X70888643Y-45086197D01*
X70888643Y-45930241D01*
X71016107Y-45930241D01*
X71085150Y-45928538D01*
X71149738Y-45923431D01*
X71209872Y-45914919D01*
X71265551Y-45903003D01*
X71316776Y-45887682D01*
X71340719Y-45878744D01*
X71363547Y-45868956D01*
X71385262Y-45858316D01*
X71405864Y-45846825D01*
X71425352Y-45834483D01*
X71443726Y-45821290D01*
X71460987Y-45807246D01*
X71477134Y-45792350D01*
X71492168Y-45776603D01*
X71506088Y-45760005D01*
X71518894Y-45742556D01*
X71530587Y-45724256D01*
X71541166Y-45705104D01*
X71550632Y-45685102D01*
X71558984Y-45664248D01*
X71566222Y-45642543D01*
X71572347Y-45619987D01*
X71577358Y-45596579D01*
X71581256Y-45572321D01*
X71584040Y-45547211D01*
X71585710Y-45521250D01*
X71586267Y-45494438D01*
X71585725Y-45469322D01*
X71584100Y-45445003D01*
X71581392Y-45421481D01*
X71577601Y-45398757D01*
X71572726Y-45376830D01*
X71566768Y-45355700D01*
X71559726Y-45335368D01*
X71551601Y-45315833D01*
X71542393Y-45297096D01*
X71532102Y-45279155D01*
X71520727Y-45262012D01*
X71508269Y-45245667D01*
X71494728Y-45230118D01*
X71480103Y-45215368D01*
X71464395Y-45201414D01*
X71447604Y-45188258D01*
X71429729Y-45175899D01*
X71410771Y-45164337D01*
X71390730Y-45153573D01*
X71369605Y-45143606D01*
X71347397Y-45134437D01*
X71324106Y-45126064D01*
X71299732Y-45118490D01*
X71274274Y-45111712D01*
X71247732Y-45105732D01*
X71220108Y-45100549D01*
X71191400Y-45096164D01*
X71161609Y-45092576D01*
X71130734Y-45089785D01*
X71098776Y-45087792D01*
X71065735Y-45086596D01*
X71031610Y-45086197D01*
X70888643Y-45086197D01*
X70487283Y-45086197D01*
X70487283Y-44708958D01*
X70957536Y-44708958D01*
X71022280Y-44709731D01*
G37*
M02*
