%TF.GenerationSoftware,KiCad,Pcbnew,8.0.6*%
%TF.CreationDate,2024-12-05T21:20:34+00:00*%
%TF.ProjectId,bcm-mixer-panel,62636d2d-6d69-4786-9572-2d70616e656c,rev01*%
%TF.SameCoordinates,Original*%
%TF.FileFunction,Copper,L1,Top*%
%TF.FilePolarity,Positive*%
%FSLAX46Y46*%
G04 Gerber Fmt 4.6, Leading zero omitted, Abs format (unit mm)*
G04 Created by KiCad (PCBNEW 8.0.6) date 2024-12-05 21:20:34*
%MOMM*%
%LPD*%
G01*
G04 APERTURE LIST*
%TA.AperFunction,EtchedComponent*%
%ADD10C,0.010000*%
%TD*%
%TA.AperFunction,ComponentPad*%
%ADD11O,7.000000X4.000000*%
%TD*%
G04 APERTURE END LIST*
D10*
%TO.C,Ref\u002A\u002A*%
X82217670Y-152330741D02*
X82289149Y-152335911D01*
X82341668Y-152345193D01*
X82379897Y-152359099D01*
X82408504Y-152378139D01*
X82432159Y-152402824D01*
X82452015Y-152428838D01*
X82478035Y-152483158D01*
X82505125Y-152573165D01*
X82531958Y-152692280D01*
X82557208Y-152833924D01*
X82579549Y-152991518D01*
X82596380Y-153144808D01*
X82607171Y-153272714D01*
X82609468Y-153365509D01*
X82600039Y-153430086D01*
X82575655Y-153473338D01*
X82533083Y-153502158D01*
X82469095Y-153523439D01*
X82412610Y-153536917D01*
X82205603Y-153577076D01*
X81960827Y-153612828D01*
X81677138Y-153644302D01*
X81353393Y-153671629D01*
X81051919Y-153691342D01*
X80950330Y-153696438D01*
X80881534Y-153697025D01*
X80836140Y-153692136D01*
X80804758Y-153680805D01*
X80779509Y-153663308D01*
X80764473Y-153649801D01*
X80752457Y-153633278D01*
X80742802Y-153608684D01*
X80734846Y-153570966D01*
X80727928Y-153515072D01*
X80721387Y-153435949D01*
X80714563Y-153328543D01*
X80706795Y-153187801D01*
X80699752Y-153053506D01*
X80691301Y-152876411D01*
X80685721Y-152726649D01*
X80683067Y-152607509D01*
X80683396Y-152522278D01*
X80686762Y-152474245D01*
X80689779Y-152465011D01*
X80718837Y-152449716D01*
X80776577Y-152428140D01*
X80850755Y-152404837D01*
X80854202Y-152403844D01*
X80903735Y-152391328D01*
X80960496Y-152380873D01*
X81029859Y-152372052D01*
X81117198Y-152364441D01*
X81227886Y-152357615D01*
X81367298Y-152351149D01*
X81540806Y-152344617D01*
X81648779Y-152340971D01*
X81842786Y-152334799D01*
X81999157Y-152330695D01*
X82122562Y-152329172D01*
X82217670Y-152330741D01*
%TA.AperFunction,EtchedComponent*%
G36*
X82217670Y-152330741D02*
G01*
X82289149Y-152335911D01*
X82341668Y-152345193D01*
X82379897Y-152359099D01*
X82408504Y-152378139D01*
X82432159Y-152402824D01*
X82452015Y-152428838D01*
X82478035Y-152483158D01*
X82505125Y-152573165D01*
X82531958Y-152692280D01*
X82557208Y-152833924D01*
X82579549Y-152991518D01*
X82596380Y-153144808D01*
X82607171Y-153272714D01*
X82609468Y-153365509D01*
X82600039Y-153430086D01*
X82575655Y-153473338D01*
X82533083Y-153502158D01*
X82469095Y-153523439D01*
X82412610Y-153536917D01*
X82205603Y-153577076D01*
X81960827Y-153612828D01*
X81677138Y-153644302D01*
X81353393Y-153671629D01*
X81051919Y-153691342D01*
X80950330Y-153696438D01*
X80881534Y-153697025D01*
X80836140Y-153692136D01*
X80804758Y-153680805D01*
X80779509Y-153663308D01*
X80764473Y-153649801D01*
X80752457Y-153633278D01*
X80742802Y-153608684D01*
X80734846Y-153570966D01*
X80727928Y-153515072D01*
X80721387Y-153435949D01*
X80714563Y-153328543D01*
X80706795Y-153187801D01*
X80699752Y-153053506D01*
X80691301Y-152876411D01*
X80685721Y-152726649D01*
X80683067Y-152607509D01*
X80683396Y-152522278D01*
X80686762Y-152474245D01*
X80689779Y-152465011D01*
X80718837Y-152449716D01*
X80776577Y-152428140D01*
X80850755Y-152404837D01*
X80854202Y-152403844D01*
X80903735Y-152391328D01*
X80960496Y-152380873D01*
X81029859Y-152372052D01*
X81117198Y-152364441D01*
X81227886Y-152357615D01*
X81367298Y-152351149D01*
X81540806Y-152344617D01*
X81648779Y-152340971D01*
X81842786Y-152334799D01*
X81999157Y-152330695D01*
X82122562Y-152329172D01*
X82217670Y-152330741D01*
G37*
%TD.AperFunction*%
X82447922Y-153891605D02*
X82513545Y-153899256D01*
X82555399Y-153915598D01*
X82579668Y-153943872D01*
X82592536Y-153987318D01*
X82600186Y-154049177D01*
X82604228Y-154090421D01*
X82611583Y-154160843D01*
X82622314Y-154260431D01*
X82635016Y-154376288D01*
X82648288Y-154495520D01*
X82649147Y-154503171D01*
X82667433Y-154674726D01*
X82678675Y-154809551D01*
X82682044Y-154912790D01*
X82676712Y-154989588D01*
X82661851Y-155045088D01*
X82636633Y-155084434D01*
X82600230Y-155112772D01*
X82551814Y-155135245D01*
X82547115Y-155137051D01*
X82494901Y-155149321D01*
X82406827Y-155161511D01*
X82289366Y-155173337D01*
X82148988Y-155184513D01*
X81992168Y-155194755D01*
X81825377Y-155203777D01*
X81655088Y-155211293D01*
X81487773Y-155217019D01*
X81329906Y-155220669D01*
X81187957Y-155221959D01*
X81068401Y-155220602D01*
X80977708Y-155216315D01*
X80922353Y-155208811D01*
X80921799Y-155208665D01*
X80890746Y-155185976D01*
X80871535Y-155134373D01*
X80862694Y-155048700D01*
X80861708Y-154998185D01*
X80857011Y-154909572D01*
X80845502Y-154812348D01*
X80839265Y-154775935D01*
X80830249Y-154715141D01*
X80820948Y-154628076D01*
X80811905Y-154523510D01*
X80803666Y-154410215D01*
X80796774Y-154296962D01*
X80791773Y-154192522D01*
X80789208Y-154105666D01*
X80789623Y-154045166D01*
X80792468Y-154021630D01*
X80819988Y-154004467D01*
X80881861Y-153995810D01*
X80911308Y-153995096D01*
X80965890Y-153992505D01*
X81054031Y-153985330D01*
X81167302Y-153974391D01*
X81297276Y-153960507D01*
X81435525Y-153944500D01*
X81454086Y-153942255D01*
X81780479Y-153908738D01*
X82073686Y-153891801D01*
X82220632Y-153889413D01*
X82352346Y-153889404D01*
X82447922Y-153891605D01*
%TA.AperFunction,EtchedComponent*%
G36*
X82447922Y-153891605D02*
G01*
X82513545Y-153899256D01*
X82555399Y-153915598D01*
X82579668Y-153943872D01*
X82592536Y-153987318D01*
X82600186Y-154049177D01*
X82604228Y-154090421D01*
X82611583Y-154160843D01*
X82622314Y-154260431D01*
X82635016Y-154376288D01*
X82648288Y-154495520D01*
X82649147Y-154503171D01*
X82667433Y-154674726D01*
X82678675Y-154809551D01*
X82682044Y-154912790D01*
X82676712Y-154989588D01*
X82661851Y-155045088D01*
X82636633Y-155084434D01*
X82600230Y-155112772D01*
X82551814Y-155135245D01*
X82547115Y-155137051D01*
X82494901Y-155149321D01*
X82406827Y-155161511D01*
X82289366Y-155173337D01*
X82148988Y-155184513D01*
X81992168Y-155194755D01*
X81825377Y-155203777D01*
X81655088Y-155211293D01*
X81487773Y-155217019D01*
X81329906Y-155220669D01*
X81187957Y-155221959D01*
X81068401Y-155220602D01*
X80977708Y-155216315D01*
X80922353Y-155208811D01*
X80921799Y-155208665D01*
X80890746Y-155185976D01*
X80871535Y-155134373D01*
X80862694Y-155048700D01*
X80861708Y-154998185D01*
X80857011Y-154909572D01*
X80845502Y-154812348D01*
X80839265Y-154775935D01*
X80830249Y-154715141D01*
X80820948Y-154628076D01*
X80811905Y-154523510D01*
X80803666Y-154410215D01*
X80796774Y-154296962D01*
X80791773Y-154192522D01*
X80789208Y-154105666D01*
X80789623Y-154045166D01*
X80792468Y-154021630D01*
X80819988Y-154004467D01*
X80881861Y-153995810D01*
X80911308Y-153995096D01*
X80965890Y-153992505D01*
X81054031Y-153985330D01*
X81167302Y-153974391D01*
X81297276Y-153960507D01*
X81435525Y-153944500D01*
X81454086Y-153942255D01*
X81780479Y-153908738D01*
X82073686Y-153891801D01*
X82220632Y-153889413D01*
X82352346Y-153889404D01*
X82447922Y-153891605D01*
G37*
%TD.AperFunction*%
X83648261Y-149343448D02*
X84204114Y-149388240D01*
X84757290Y-149474398D01*
X85305790Y-149601933D01*
X85672958Y-149711605D01*
X86193302Y-149903126D01*
X86694118Y-150131249D01*
X87173885Y-150394263D01*
X87631083Y-150690457D01*
X88064191Y-151018121D01*
X88471689Y-151375544D01*
X88852057Y-151761015D01*
X89203774Y-152172824D01*
X89525319Y-152609261D01*
X89815173Y-153068615D01*
X90071816Y-153549175D01*
X90293726Y-154049230D01*
X90479383Y-154567071D01*
X90627268Y-155100986D01*
X90681165Y-155346422D01*
X90719791Y-155544022D01*
X90750621Y-155719074D01*
X90774487Y-155880643D01*
X90792224Y-156037794D01*
X90804662Y-156199593D01*
X90812636Y-156375104D01*
X90816978Y-156573392D01*
X90818521Y-156803522D01*
X90818562Y-156842088D01*
X90817669Y-157073087D01*
X90814229Y-157270843D01*
X90807486Y-157444410D01*
X90796684Y-157602839D01*
X90781065Y-157755184D01*
X90759872Y-157910497D01*
X90732349Y-158077832D01*
X90700883Y-158249671D01*
X90577490Y-158790136D01*
X90415582Y-159315557D01*
X90216725Y-159824275D01*
X89982484Y-160314635D01*
X89714428Y-160784979D01*
X89414121Y-161233649D01*
X89083129Y-161658990D01*
X88723020Y-162059344D01*
X88335358Y-162433054D01*
X87921711Y-162778462D01*
X87483644Y-163093913D01*
X87022724Y-163377749D01*
X86540517Y-163628313D01*
X86038589Y-163843947D01*
X85518505Y-164022996D01*
X85147751Y-164124868D01*
X84889544Y-164185426D01*
X84651978Y-164233620D01*
X84424423Y-164270748D01*
X84196247Y-164298109D01*
X83956819Y-164317000D01*
X83695509Y-164328719D01*
X83433169Y-164334203D01*
X83277072Y-164335781D01*
X83130799Y-164336612D01*
X83000935Y-164336710D01*
X82894061Y-164336087D01*
X82816760Y-164334756D01*
X82777002Y-164332878D01*
X82378331Y-164287477D01*
X82012198Y-164232419D01*
X81669480Y-164165550D01*
X81341050Y-164084714D01*
X81017784Y-163987757D01*
X80690558Y-163872522D01*
X80480419Y-163790441D01*
X79986302Y-163568183D01*
X79508316Y-163307919D01*
X79048872Y-163011693D01*
X78610380Y-162681546D01*
X78195253Y-162319521D01*
X77805899Y-161927660D01*
X77444731Y-161508007D01*
X77114158Y-161062604D01*
X76931073Y-160783162D01*
X76848081Y-160642837D01*
X76755160Y-160473419D01*
X76657478Y-160285369D01*
X76560202Y-160089142D01*
X76468500Y-159895199D01*
X76387539Y-159713997D01*
X76322488Y-159555993D01*
X76314848Y-159536065D01*
X76139964Y-159018288D01*
X75999152Y-158478433D01*
X75893551Y-157921022D01*
X75873416Y-157784005D01*
X75860994Y-157666642D01*
X75850848Y-157515143D01*
X75843028Y-157337630D01*
X75837584Y-157142223D01*
X75835200Y-156980091D01*
X80276067Y-156980091D01*
X80279964Y-157072165D01*
X80299977Y-157195370D01*
X80308431Y-157236823D01*
X80320429Y-157296301D01*
X80330131Y-157352527D01*
X80337763Y-157410721D01*
X80343553Y-157476100D01*
X80347726Y-157553883D01*
X80350510Y-157649289D01*
X80352132Y-157767536D01*
X80352818Y-157913843D01*
X80352796Y-158093428D01*
X80352460Y-158249671D01*
X80352814Y-158543749D01*
X80355620Y-158801413D01*
X80361033Y-159028519D01*
X80369208Y-159230926D01*
X80380301Y-159414489D01*
X80385059Y-159477338D01*
X80400057Y-159702948D01*
X80409655Y-159941002D01*
X80414113Y-160201048D01*
X80413687Y-160492636D01*
X80413374Y-160525088D01*
X80411695Y-160703637D01*
X80410939Y-160844835D01*
X80411348Y-160953656D01*
X80413165Y-161035077D01*
X80416632Y-161094074D01*
X80421993Y-161135622D01*
X80429490Y-161164697D01*
X80439365Y-161186275D01*
X80446153Y-161197130D01*
X80500313Y-161245608D01*
X80567503Y-161257872D01*
X80639259Y-161234178D01*
X80694177Y-161189599D01*
X80733435Y-161140486D01*
X80756395Y-161098222D01*
X80758510Y-161089058D01*
X80758957Y-161062370D01*
X80759270Y-160996970D01*
X80759453Y-160896475D01*
X80759506Y-160764506D01*
X80759432Y-160604682D01*
X80759234Y-160420623D01*
X80758913Y-160215949D01*
X80758471Y-159994278D01*
X80757911Y-159759231D01*
X80757669Y-159667838D01*
X80756562Y-159351909D01*
X80754981Y-159074307D01*
X80752798Y-158831026D01*
X80749883Y-158618060D01*
X80746107Y-158431403D01*
X80741340Y-158267051D01*
X80735454Y-158120998D01*
X80728319Y-157989238D01*
X80719806Y-157867766D01*
X80709786Y-157752575D01*
X80698129Y-157639662D01*
X80689934Y-157568292D01*
X80679858Y-157456929D01*
X80682166Y-157379889D01*
X80699086Y-157330401D01*
X80732847Y-157301689D01*
X80782301Y-157287531D01*
X80822519Y-157283362D01*
X80899562Y-157277715D01*
X81007960Y-157270858D01*
X81142242Y-157263057D01*
X81296936Y-157254580D01*
X81466571Y-157245694D01*
X81645676Y-157236667D01*
X81828779Y-157227765D01*
X82010410Y-157219255D01*
X82185096Y-157211406D01*
X82347366Y-157204483D01*
X82491750Y-157198754D01*
X82612776Y-157194486D01*
X82704973Y-157191947D01*
X82752220Y-157191338D01*
X82866832Y-157194093D01*
X82946805Y-157205592D01*
X82999655Y-157230686D01*
X83032897Y-157274226D01*
X83054048Y-157341064D01*
X83063736Y-157392421D01*
X83070038Y-157450300D01*
X83076413Y-157546514D01*
X83082771Y-157677062D01*
X83089021Y-157837947D01*
X83095072Y-158025168D01*
X83100833Y-158234729D01*
X83106214Y-158462628D01*
X83111122Y-158704868D01*
X83115468Y-158957450D01*
X83119161Y-159216374D01*
X83122109Y-159477642D01*
X83124221Y-159737255D01*
X83125408Y-159991213D01*
X83125625Y-160114499D01*
X83126252Y-160995077D01*
X83174558Y-161066999D01*
X83234793Y-161128480D01*
X83304625Y-161148969D01*
X83382889Y-161128417D01*
X83454945Y-161078840D01*
X83539002Y-161006179D01*
X83538521Y-160765633D01*
X83536974Y-160677045D01*
X83532879Y-160555172D01*
X83526643Y-160408961D01*
X83518671Y-160247359D01*
X83509367Y-160079311D01*
X83501707Y-159953588D01*
X83491491Y-159779663D01*
X83480873Y-159575299D01*
X83470382Y-159352381D01*
X83460551Y-159122792D01*
X83451911Y-158898416D01*
X83444994Y-158691139D01*
X83444453Y-158673005D01*
X83438925Y-158487151D01*
X83433287Y-158300200D01*
X83427784Y-158120180D01*
X83422666Y-157955122D01*
X83418179Y-157813056D01*
X83414573Y-157702012D01*
X83413415Y-157667588D01*
X83410776Y-157506151D01*
X83414628Y-157374471D01*
X83424695Y-157276038D01*
X83440696Y-157214344D01*
X83450808Y-157198393D01*
X83476766Y-157185104D01*
X83529050Y-157172568D01*
X83610606Y-157160443D01*
X83724379Y-157148389D01*
X83873317Y-157136067D01*
X84060366Y-157123136D01*
X84152836Y-157117329D01*
X84317693Y-157108017D01*
X84497020Y-157099277D01*
X84685645Y-157091240D01*
X84878395Y-157084037D01*
X85070099Y-157077798D01*
X85255585Y-157072654D01*
X85429682Y-157068735D01*
X85587216Y-157066174D01*
X85723017Y-157065099D01*
X85831913Y-157065642D01*
X85908732Y-157067934D01*
X85947785Y-157071971D01*
X85982082Y-157085194D01*
X86011825Y-157108373D01*
X86037387Y-157144405D01*
X86059140Y-157196190D01*
X86077457Y-157266624D01*
X86092713Y-157358608D01*
X86105278Y-157475037D01*
X86115527Y-157618811D01*
X86123832Y-157792828D01*
X86130567Y-157999986D01*
X86136104Y-158243182D01*
X86140816Y-158525316D01*
X86141568Y-158577755D01*
X86148098Y-158932724D01*
X86157360Y-159269343D01*
X86169168Y-159585090D01*
X86183339Y-159877443D01*
X86199689Y-160143881D01*
X86218035Y-160381881D01*
X86238193Y-160588923D01*
X86259978Y-160762484D01*
X86283208Y-160900043D01*
X86307699Y-160999078D01*
X86320519Y-161033724D01*
X86372145Y-161116246D01*
X86432361Y-161160498D01*
X86494644Y-161167751D01*
X86552471Y-161139280D01*
X86599320Y-161076356D01*
X86628667Y-160980252D01*
X86629739Y-160973390D01*
X86631299Y-160929707D01*
X86629198Y-160850162D01*
X86623799Y-160741033D01*
X86615467Y-160608599D01*
X86604565Y-160459141D01*
X86591457Y-160298936D01*
X86589036Y-160271088D01*
X86559666Y-159932779D01*
X86534278Y-159632059D01*
X86512603Y-159364399D01*
X86494372Y-159125269D01*
X86479313Y-158910139D01*
X86467157Y-158714479D01*
X86457633Y-158533761D01*
X86450472Y-158363453D01*
X86445402Y-158199026D01*
X86442155Y-158035952D01*
X86440460Y-157869698D01*
X86440088Y-157773421D01*
X86440378Y-157600737D01*
X86441810Y-157432836D01*
X86444236Y-157276845D01*
X86447510Y-157139889D01*
X86451486Y-157029095D01*
X86456016Y-156951590D01*
X86457310Y-156937338D01*
X86465625Y-156849314D01*
X86467629Y-156792932D01*
X86461969Y-156757793D01*
X86447289Y-156733496D01*
X86428379Y-156715088D01*
X86409419Y-156703026D01*
X86380369Y-156692929D01*
X86339239Y-156684872D01*
X86284041Y-156678929D01*
X86212784Y-156675178D01*
X86123478Y-156673692D01*
X86014134Y-156674547D01*
X85882762Y-156677818D01*
X85727372Y-156683580D01*
X85545974Y-156691909D01*
X85336579Y-156702881D01*
X85097197Y-156716569D01*
X84825837Y-156733050D01*
X84520511Y-156752399D01*
X84179229Y-156774690D01*
X83800000Y-156800000D01*
X83380835Y-156828403D01*
X83316752Y-156832774D01*
X83122983Y-156844691D01*
X82899594Y-156856245D01*
X82659298Y-156866916D01*
X82414807Y-156876186D01*
X82178835Y-156883536D01*
X81964093Y-156888446D01*
X81944935Y-156888772D01*
X81749511Y-156891895D01*
X81589943Y-156894000D01*
X81459763Y-156894815D01*
X81352501Y-156894067D01*
X81261687Y-156891485D01*
X81180851Y-156886796D01*
X81103525Y-156879729D01*
X81023237Y-156870012D01*
X80933519Y-156857372D01*
X80830268Y-156841895D01*
X80693914Y-156821378D01*
X80592784Y-156806947D01*
X80520248Y-156798348D01*
X80469674Y-156795324D01*
X80434430Y-156797620D01*
X80407886Y-156804982D01*
X80383411Y-156817153D01*
X80371168Y-156824210D01*
X80320659Y-156862757D01*
X80289295Y-156912503D01*
X80276067Y-156980091D01*
X75835200Y-156980091D01*
X75834567Y-156937046D01*
X75834026Y-156730220D01*
X75836013Y-156529866D01*
X75840578Y-156344107D01*
X75847770Y-156181064D01*
X75857641Y-156048859D01*
X75862404Y-156006005D01*
X75955505Y-155426504D01*
X76085872Y-154866794D01*
X76253379Y-154327130D01*
X76457900Y-153807771D01*
X76699309Y-153308971D01*
X76977480Y-152830989D01*
X77292287Y-152374081D01*
X77384309Y-152259988D01*
X80384889Y-152259988D01*
X80386173Y-152340527D01*
X80389954Y-152445753D01*
X80396175Y-152579747D01*
X80404778Y-152746588D01*
X80415709Y-152950359D01*
X80419553Y-153021505D01*
X80424711Y-153130502D01*
X80430451Y-153275101D01*
X80436589Y-153448576D01*
X80442938Y-153644203D01*
X80449315Y-153855258D01*
X80455533Y-154075014D01*
X80461407Y-154296748D01*
X80466754Y-154513735D01*
X80471387Y-154719249D01*
X80475121Y-154906565D01*
X80477771Y-155068960D01*
X80479036Y-155182666D01*
X80481579Y-155278429D01*
X80489084Y-155344357D01*
X80503981Y-155392870D01*
X80528679Y-155436358D01*
X80545834Y-155462787D01*
X80561172Y-155485492D01*
X80577838Y-155504674D01*
X80598973Y-155520534D01*
X80627723Y-155533274D01*
X80667230Y-155543094D01*
X80720637Y-155550195D01*
X80791088Y-155554779D01*
X80881726Y-155557047D01*
X80995694Y-155557200D01*
X81136136Y-155555438D01*
X81306196Y-155551964D01*
X81509016Y-155546978D01*
X81747740Y-155540682D01*
X82025511Y-155533276D01*
X82038194Y-155532940D01*
X82269334Y-155526703D01*
X82461909Y-155521140D01*
X82619677Y-155516022D01*
X82746396Y-155511117D01*
X82845824Y-155506195D01*
X82921720Y-155501026D01*
X82977842Y-155495380D01*
X83017947Y-155489025D01*
X83045795Y-155481732D01*
X83065143Y-155473269D01*
X83071206Y-155469596D01*
X83115704Y-155432891D01*
X83141589Y-155398001D01*
X83143176Y-155365602D01*
X83138564Y-155300023D01*
X83128606Y-155209824D01*
X83114157Y-155103568D01*
X83108459Y-155065859D01*
X83078091Y-154856397D01*
X83046626Y-154614871D01*
X83014896Y-154349594D01*
X82983733Y-154068877D01*
X82953970Y-153781034D01*
X82926439Y-153494378D01*
X82901972Y-153217222D01*
X82881401Y-152957878D01*
X82865560Y-152724659D01*
X82856089Y-152545255D01*
X82847723Y-152379703D01*
X82837590Y-152250681D01*
X82836109Y-152239870D01*
X83635620Y-152239870D01*
X83640053Y-152313021D01*
X83641647Y-152331743D01*
X83647409Y-152397857D01*
X83656115Y-152497434D01*
X83667003Y-152621763D01*
X83679309Y-152762136D01*
X83692271Y-152909844D01*
X83696500Y-152958005D01*
X83711666Y-153154653D01*
X83724088Y-153370044D01*
X83733981Y-153609660D01*
X83741561Y-153878985D01*
X83747041Y-154183502D01*
X83748289Y-154280921D01*
X83751120Y-154500988D01*
X83754081Y-154682805D01*
X83757360Y-154830458D01*
X83761146Y-154948031D01*
X83765627Y-155039608D01*
X83770994Y-155109274D01*
X83777435Y-155161113D01*
X83785139Y-155199209D01*
X83791784Y-155221010D01*
X83816502Y-155282858D01*
X83839609Y-155329551D01*
X83846956Y-155340505D01*
X83887902Y-155366773D01*
X83958087Y-155379552D01*
X84060849Y-155378988D01*
X84199528Y-155365230D01*
X84250134Y-155358337D01*
X84331454Y-155347824D01*
X84412954Y-155340069D01*
X84501410Y-155334912D01*
X84603596Y-155332192D01*
X84726286Y-155331748D01*
X84876254Y-155333421D01*
X85060276Y-155337050D01*
X85105336Y-155338080D01*
X85287591Y-155343224D01*
X85456629Y-155349737D01*
X85606306Y-155357277D01*
X85730474Y-155365504D01*
X85822987Y-155374075D01*
X85867336Y-155380416D01*
X86008805Y-155397969D01*
X86120304Y-155390578D01*
X86206310Y-155357901D01*
X86212376Y-155354085D01*
X86275879Y-155292864D01*
X86311432Y-155216706D01*
X86316854Y-155137010D01*
X86289960Y-155065180D01*
X86271867Y-155043362D01*
X86215206Y-155002378D01*
X86141878Y-154980004D01*
X86045275Y-154975514D01*
X85918787Y-154988181D01*
X85858379Y-154997882D01*
X85721699Y-155017577D01*
X85584879Y-155028212D01*
X85438231Y-155029816D01*
X85272065Y-155022417D01*
X85076695Y-155006046D01*
X85020669Y-155000401D01*
X84893928Y-154988632D01*
X84764046Y-154978877D01*
X84645759Y-154972109D01*
X84553803Y-154969300D01*
X84549031Y-154969278D01*
X84441200Y-154964608D01*
X84350815Y-154952304D01*
X84299561Y-154937850D01*
X84263599Y-154920893D01*
X84234582Y-154900242D01*
X84211767Y-154871481D01*
X84194412Y-154830194D01*
X84181774Y-154771967D01*
X84173110Y-154692386D01*
X84167677Y-154587035D01*
X84164732Y-154451499D01*
X84163533Y-154281363D01*
X84163333Y-154128143D01*
X84161745Y-153885451D01*
X84157217Y-153655727D01*
X84150005Y-153446798D01*
X84140361Y-153266487D01*
X84131726Y-153155174D01*
X84112697Y-152932370D01*
X84100405Y-152750132D01*
X84094825Y-152607234D01*
X84095933Y-152502451D01*
X84103704Y-152434558D01*
X84116867Y-152403476D01*
X84146159Y-152395247D01*
X84212051Y-152388723D01*
X84308846Y-152383837D01*
X84430847Y-152380527D01*
X84572357Y-152378728D01*
X84727681Y-152378376D01*
X84891121Y-152379408D01*
X85056980Y-152381759D01*
X85219561Y-152385366D01*
X85373169Y-152390164D01*
X85512106Y-152396090D01*
X85630675Y-152403079D01*
X85723180Y-152411068D01*
X85783924Y-152419993D01*
X85793252Y-152422298D01*
X85938905Y-152449836D01*
X86061184Y-152443235D01*
X86159306Y-152402708D01*
X86232490Y-152328464D01*
X86249997Y-152298624D01*
X86275435Y-152216450D01*
X86260453Y-152146784D01*
X86205155Y-152089889D01*
X86157363Y-152064034D01*
X86109239Y-152044778D01*
X86063954Y-152033607D01*
X86010162Y-152029653D01*
X85936520Y-152032050D01*
X85836724Y-152039509D01*
X85743754Y-152044818D01*
X85615919Y-152048683D01*
X85460661Y-152051155D01*
X85285420Y-152052285D01*
X85097638Y-152052124D01*
X84904758Y-152050722D01*
X84714220Y-152048132D01*
X84533466Y-152044403D01*
X84369938Y-152039586D01*
X84231078Y-152033734D01*
X84136444Y-152027863D01*
X84029352Y-152020451D01*
X83954019Y-152018136D01*
X83900099Y-152021619D01*
X83857246Y-152031601D01*
X83815114Y-152048783D01*
X83812967Y-152049785D01*
X83746661Y-152086129D01*
X83688830Y-152126371D01*
X83677860Y-152135860D01*
X83652263Y-152163518D01*
X83638936Y-152194112D01*
X83635620Y-152239870D01*
X82836109Y-152239870D01*
X82824119Y-152152383D01*
X82805738Y-152079005D01*
X82780877Y-152024743D01*
X82747964Y-151983792D01*
X82705428Y-151950349D01*
X82692875Y-151942338D01*
X82659068Y-151924915D01*
X82618676Y-151912281D01*
X82567226Y-151904549D01*
X82500245Y-151901834D01*
X82413261Y-151904246D01*
X82301802Y-151911900D01*
X82161393Y-151924908D01*
X81987564Y-151943384D01*
X81797271Y-151964962D01*
X81619030Y-151985178D01*
X81474186Y-152000456D01*
X81354151Y-152011263D01*
X81250336Y-152018064D01*
X81154153Y-152021328D01*
X81057012Y-152021520D01*
X80950323Y-152019107D01*
X80859674Y-152015899D01*
X80487513Y-152001545D01*
X80432769Y-152066605D01*
X80417889Y-152084735D01*
X80405845Y-152103063D01*
X80396579Y-152125671D01*
X80390035Y-152156641D01*
X80386157Y-152200052D01*
X80384889Y-152259988D01*
X77384309Y-152259988D01*
X77643604Y-151938504D01*
X78031304Y-151524514D01*
X78091087Y-151465755D01*
X78505681Y-151088907D01*
X78935352Y-150750868D01*
X79382849Y-150449946D01*
X79850925Y-150184450D01*
X80342329Y-149952688D01*
X80859813Y-149752969D01*
X80898817Y-149739553D01*
X81438066Y-149577696D01*
X81984634Y-149457144D01*
X82536522Y-149377912D01*
X83091731Y-149340009D01*
X83648261Y-149343448D01*
%TA.AperFunction,EtchedComponent*%
G36*
X83648261Y-149343448D02*
G01*
X84204114Y-149388240D01*
X84757290Y-149474398D01*
X85305790Y-149601933D01*
X85672958Y-149711605D01*
X86193302Y-149903126D01*
X86694118Y-150131249D01*
X87173885Y-150394263D01*
X87631083Y-150690457D01*
X88064191Y-151018121D01*
X88471689Y-151375544D01*
X88852057Y-151761015D01*
X89203774Y-152172824D01*
X89525319Y-152609261D01*
X89815173Y-153068615D01*
X90071816Y-153549175D01*
X90293726Y-154049230D01*
X90479383Y-154567071D01*
X90627268Y-155100986D01*
X90681165Y-155346422D01*
X90719791Y-155544022D01*
X90750621Y-155719074D01*
X90774487Y-155880643D01*
X90792224Y-156037794D01*
X90804662Y-156199593D01*
X90812636Y-156375104D01*
X90816978Y-156573392D01*
X90818521Y-156803522D01*
X90818562Y-156842088D01*
X90817669Y-157073087D01*
X90814229Y-157270843D01*
X90807486Y-157444410D01*
X90796684Y-157602839D01*
X90781065Y-157755184D01*
X90759872Y-157910497D01*
X90732349Y-158077832D01*
X90700883Y-158249671D01*
X90577490Y-158790136D01*
X90415582Y-159315557D01*
X90216725Y-159824275D01*
X89982484Y-160314635D01*
X89714428Y-160784979D01*
X89414121Y-161233649D01*
X89083129Y-161658990D01*
X88723020Y-162059344D01*
X88335358Y-162433054D01*
X87921711Y-162778462D01*
X87483644Y-163093913D01*
X87022724Y-163377749D01*
X86540517Y-163628313D01*
X86038589Y-163843947D01*
X85518505Y-164022996D01*
X85147751Y-164124868D01*
X84889544Y-164185426D01*
X84651978Y-164233620D01*
X84424423Y-164270748D01*
X84196247Y-164298109D01*
X83956819Y-164317000D01*
X83695509Y-164328719D01*
X83433169Y-164334203D01*
X83277072Y-164335781D01*
X83130799Y-164336612D01*
X83000935Y-164336710D01*
X82894061Y-164336087D01*
X82816760Y-164334756D01*
X82777002Y-164332878D01*
X82378331Y-164287477D01*
X82012198Y-164232419D01*
X81669480Y-164165550D01*
X81341050Y-164084714D01*
X81017784Y-163987757D01*
X80690558Y-163872522D01*
X80480419Y-163790441D01*
X79986302Y-163568183D01*
X79508316Y-163307919D01*
X79048872Y-163011693D01*
X78610380Y-162681546D01*
X78195253Y-162319521D01*
X77805899Y-161927660D01*
X77444731Y-161508007D01*
X77114158Y-161062604D01*
X76931073Y-160783162D01*
X76848081Y-160642837D01*
X76755160Y-160473419D01*
X76657478Y-160285369D01*
X76560202Y-160089142D01*
X76468500Y-159895199D01*
X76387539Y-159713997D01*
X76322488Y-159555993D01*
X76314848Y-159536065D01*
X76139964Y-159018288D01*
X75999152Y-158478433D01*
X75893551Y-157921022D01*
X75873416Y-157784005D01*
X75860994Y-157666642D01*
X75850848Y-157515143D01*
X75843028Y-157337630D01*
X75837584Y-157142223D01*
X75835200Y-156980091D01*
X80276067Y-156980091D01*
X80279964Y-157072165D01*
X80299977Y-157195370D01*
X80308431Y-157236823D01*
X80320429Y-157296301D01*
X80330131Y-157352527D01*
X80337763Y-157410721D01*
X80343553Y-157476100D01*
X80347726Y-157553883D01*
X80350510Y-157649289D01*
X80352132Y-157767536D01*
X80352818Y-157913843D01*
X80352796Y-158093428D01*
X80352460Y-158249671D01*
X80352814Y-158543749D01*
X80355620Y-158801413D01*
X80361033Y-159028519D01*
X80369208Y-159230926D01*
X80380301Y-159414489D01*
X80385059Y-159477338D01*
X80400057Y-159702948D01*
X80409655Y-159941002D01*
X80414113Y-160201048D01*
X80413687Y-160492636D01*
X80413374Y-160525088D01*
X80411695Y-160703637D01*
X80410939Y-160844835D01*
X80411348Y-160953656D01*
X80413165Y-161035077D01*
X80416632Y-161094074D01*
X80421993Y-161135622D01*
X80429490Y-161164697D01*
X80439365Y-161186275D01*
X80446153Y-161197130D01*
X80500313Y-161245608D01*
X80567503Y-161257872D01*
X80639259Y-161234178D01*
X80694177Y-161189599D01*
X80733435Y-161140486D01*
X80756395Y-161098222D01*
X80758510Y-161089058D01*
X80758957Y-161062370D01*
X80759270Y-160996970D01*
X80759453Y-160896475D01*
X80759506Y-160764506D01*
X80759432Y-160604682D01*
X80759234Y-160420623D01*
X80758913Y-160215949D01*
X80758471Y-159994278D01*
X80757911Y-159759231D01*
X80757669Y-159667838D01*
X80756562Y-159351909D01*
X80754981Y-159074307D01*
X80752798Y-158831026D01*
X80749883Y-158618060D01*
X80746107Y-158431403D01*
X80741340Y-158267051D01*
X80735454Y-158120998D01*
X80728319Y-157989238D01*
X80719806Y-157867766D01*
X80709786Y-157752575D01*
X80698129Y-157639662D01*
X80689934Y-157568292D01*
X80679858Y-157456929D01*
X80682166Y-157379889D01*
X80699086Y-157330401D01*
X80732847Y-157301689D01*
X80782301Y-157287531D01*
X80822519Y-157283362D01*
X80899562Y-157277715D01*
X81007960Y-157270858D01*
X81142242Y-157263057D01*
X81296936Y-157254580D01*
X81466571Y-157245694D01*
X81645676Y-157236667D01*
X81828779Y-157227765D01*
X82010410Y-157219255D01*
X82185096Y-157211406D01*
X82347366Y-157204483D01*
X82491750Y-157198754D01*
X82612776Y-157194486D01*
X82704973Y-157191947D01*
X82752220Y-157191338D01*
X82866832Y-157194093D01*
X82946805Y-157205592D01*
X82999655Y-157230686D01*
X83032897Y-157274226D01*
X83054048Y-157341064D01*
X83063736Y-157392421D01*
X83070038Y-157450300D01*
X83076413Y-157546514D01*
X83082771Y-157677062D01*
X83089021Y-157837947D01*
X83095072Y-158025168D01*
X83100833Y-158234729D01*
X83106214Y-158462628D01*
X83111122Y-158704868D01*
X83115468Y-158957450D01*
X83119161Y-159216374D01*
X83122109Y-159477642D01*
X83124221Y-159737255D01*
X83125408Y-159991213D01*
X83125625Y-160114499D01*
X83126252Y-160995077D01*
X83174558Y-161066999D01*
X83234793Y-161128480D01*
X83304625Y-161148969D01*
X83382889Y-161128417D01*
X83454945Y-161078840D01*
X83539002Y-161006179D01*
X83538521Y-160765633D01*
X83536974Y-160677045D01*
X83532879Y-160555172D01*
X83526643Y-160408961D01*
X83518671Y-160247359D01*
X83509367Y-160079311D01*
X83501707Y-159953588D01*
X83491491Y-159779663D01*
X83480873Y-159575299D01*
X83470382Y-159352381D01*
X83460551Y-159122792D01*
X83451911Y-158898416D01*
X83444994Y-158691139D01*
X83444453Y-158673005D01*
X83438925Y-158487151D01*
X83433287Y-158300200D01*
X83427784Y-158120180D01*
X83422666Y-157955122D01*
X83418179Y-157813056D01*
X83414573Y-157702012D01*
X83413415Y-157667588D01*
X83410776Y-157506151D01*
X83414628Y-157374471D01*
X83424695Y-157276038D01*
X83440696Y-157214344D01*
X83450808Y-157198393D01*
X83476766Y-157185104D01*
X83529050Y-157172568D01*
X83610606Y-157160443D01*
X83724379Y-157148389D01*
X83873317Y-157136067D01*
X84060366Y-157123136D01*
X84152836Y-157117329D01*
X84317693Y-157108017D01*
X84497020Y-157099277D01*
X84685645Y-157091240D01*
X84878395Y-157084037D01*
X85070099Y-157077798D01*
X85255585Y-157072654D01*
X85429682Y-157068735D01*
X85587216Y-157066174D01*
X85723017Y-157065099D01*
X85831913Y-157065642D01*
X85908732Y-157067934D01*
X85947785Y-157071971D01*
X85982082Y-157085194D01*
X86011825Y-157108373D01*
X86037387Y-157144405D01*
X86059140Y-157196190D01*
X86077457Y-157266624D01*
X86092713Y-157358608D01*
X86105278Y-157475037D01*
X86115527Y-157618811D01*
X86123832Y-157792828D01*
X86130567Y-157999986D01*
X86136104Y-158243182D01*
X86140816Y-158525316D01*
X86141568Y-158577755D01*
X86148098Y-158932724D01*
X86157360Y-159269343D01*
X86169168Y-159585090D01*
X86183339Y-159877443D01*
X86199689Y-160143881D01*
X86218035Y-160381881D01*
X86238193Y-160588923D01*
X86259978Y-160762484D01*
X86283208Y-160900043D01*
X86307699Y-160999078D01*
X86320519Y-161033724D01*
X86372145Y-161116246D01*
X86432361Y-161160498D01*
X86494644Y-161167751D01*
X86552471Y-161139280D01*
X86599320Y-161076356D01*
X86628667Y-160980252D01*
X86629739Y-160973390D01*
X86631299Y-160929707D01*
X86629198Y-160850162D01*
X86623799Y-160741033D01*
X86615467Y-160608599D01*
X86604565Y-160459141D01*
X86591457Y-160298936D01*
X86589036Y-160271088D01*
X86559666Y-159932779D01*
X86534278Y-159632059D01*
X86512603Y-159364399D01*
X86494372Y-159125269D01*
X86479313Y-158910139D01*
X86467157Y-158714479D01*
X86457633Y-158533761D01*
X86450472Y-158363453D01*
X86445402Y-158199026D01*
X86442155Y-158035952D01*
X86440460Y-157869698D01*
X86440088Y-157773421D01*
X86440378Y-157600737D01*
X86441810Y-157432836D01*
X86444236Y-157276845D01*
X86447510Y-157139889D01*
X86451486Y-157029095D01*
X86456016Y-156951590D01*
X86457310Y-156937338D01*
X86465625Y-156849314D01*
X86467629Y-156792932D01*
X86461969Y-156757793D01*
X86447289Y-156733496D01*
X86428379Y-156715088D01*
X86409419Y-156703026D01*
X86380369Y-156692929D01*
X86339239Y-156684872D01*
X86284041Y-156678929D01*
X86212784Y-156675178D01*
X86123478Y-156673692D01*
X86014134Y-156674547D01*
X85882762Y-156677818D01*
X85727372Y-156683580D01*
X85545974Y-156691909D01*
X85336579Y-156702881D01*
X85097197Y-156716569D01*
X84825837Y-156733050D01*
X84520511Y-156752399D01*
X84179229Y-156774690D01*
X83800000Y-156800000D01*
X83380835Y-156828403D01*
X83316752Y-156832774D01*
X83122983Y-156844691D01*
X82899594Y-156856245D01*
X82659298Y-156866916D01*
X82414807Y-156876186D01*
X82178835Y-156883536D01*
X81964093Y-156888446D01*
X81944935Y-156888772D01*
X81749511Y-156891895D01*
X81589943Y-156894000D01*
X81459763Y-156894815D01*
X81352501Y-156894067D01*
X81261687Y-156891485D01*
X81180851Y-156886796D01*
X81103525Y-156879729D01*
X81023237Y-156870012D01*
X80933519Y-156857372D01*
X80830268Y-156841895D01*
X80693914Y-156821378D01*
X80592784Y-156806947D01*
X80520248Y-156798348D01*
X80469674Y-156795324D01*
X80434430Y-156797620D01*
X80407886Y-156804982D01*
X80383411Y-156817153D01*
X80371168Y-156824210D01*
X80320659Y-156862757D01*
X80289295Y-156912503D01*
X80276067Y-156980091D01*
X75835200Y-156980091D01*
X75834567Y-156937046D01*
X75834026Y-156730220D01*
X75836013Y-156529866D01*
X75840578Y-156344107D01*
X75847770Y-156181064D01*
X75857641Y-156048859D01*
X75862404Y-156006005D01*
X75955505Y-155426504D01*
X76085872Y-154866794D01*
X76253379Y-154327130D01*
X76457900Y-153807771D01*
X76699309Y-153308971D01*
X76977480Y-152830989D01*
X77292287Y-152374081D01*
X77384309Y-152259988D01*
X80384889Y-152259988D01*
X80386173Y-152340527D01*
X80389954Y-152445753D01*
X80396175Y-152579747D01*
X80404778Y-152746588D01*
X80415709Y-152950359D01*
X80419553Y-153021505D01*
X80424711Y-153130502D01*
X80430451Y-153275101D01*
X80436589Y-153448576D01*
X80442938Y-153644203D01*
X80449315Y-153855258D01*
X80455533Y-154075014D01*
X80461407Y-154296748D01*
X80466754Y-154513735D01*
X80471387Y-154719249D01*
X80475121Y-154906565D01*
X80477771Y-155068960D01*
X80479036Y-155182666D01*
X80481579Y-155278429D01*
X80489084Y-155344357D01*
X80503981Y-155392870D01*
X80528679Y-155436358D01*
X80545834Y-155462787D01*
X80561172Y-155485492D01*
X80577838Y-155504674D01*
X80598973Y-155520534D01*
X80627723Y-155533274D01*
X80667230Y-155543094D01*
X80720637Y-155550195D01*
X80791088Y-155554779D01*
X80881726Y-155557047D01*
X80995694Y-155557200D01*
X81136136Y-155555438D01*
X81306196Y-155551964D01*
X81509016Y-155546978D01*
X81747740Y-155540682D01*
X82025511Y-155533276D01*
X82038194Y-155532940D01*
X82269334Y-155526703D01*
X82461909Y-155521140D01*
X82619677Y-155516022D01*
X82746396Y-155511117D01*
X82845824Y-155506195D01*
X82921720Y-155501026D01*
X82977842Y-155495380D01*
X83017947Y-155489025D01*
X83045795Y-155481732D01*
X83065143Y-155473269D01*
X83071206Y-155469596D01*
X83115704Y-155432891D01*
X83141589Y-155398001D01*
X83143176Y-155365602D01*
X83138564Y-155300023D01*
X83128606Y-155209824D01*
X83114157Y-155103568D01*
X83108459Y-155065859D01*
X83078091Y-154856397D01*
X83046626Y-154614871D01*
X83014896Y-154349594D01*
X82983733Y-154068877D01*
X82953970Y-153781034D01*
X82926439Y-153494378D01*
X82901972Y-153217222D01*
X82881401Y-152957878D01*
X82865560Y-152724659D01*
X82856089Y-152545255D01*
X82847723Y-152379703D01*
X82837590Y-152250681D01*
X82836109Y-152239870D01*
X83635620Y-152239870D01*
X83640053Y-152313021D01*
X83641647Y-152331743D01*
X83647409Y-152397857D01*
X83656115Y-152497434D01*
X83667003Y-152621763D01*
X83679309Y-152762136D01*
X83692271Y-152909844D01*
X83696500Y-152958005D01*
X83711666Y-153154653D01*
X83724088Y-153370044D01*
X83733981Y-153609660D01*
X83741561Y-153878985D01*
X83747041Y-154183502D01*
X83748289Y-154280921D01*
X83751120Y-154500988D01*
X83754081Y-154682805D01*
X83757360Y-154830458D01*
X83761146Y-154948031D01*
X83765627Y-155039608D01*
X83770994Y-155109274D01*
X83777435Y-155161113D01*
X83785139Y-155199209D01*
X83791784Y-155221010D01*
X83816502Y-155282858D01*
X83839609Y-155329551D01*
X83846956Y-155340505D01*
X83887902Y-155366773D01*
X83958087Y-155379552D01*
X84060849Y-155378988D01*
X84199528Y-155365230D01*
X84250134Y-155358337D01*
X84331454Y-155347824D01*
X84412954Y-155340069D01*
X84501410Y-155334912D01*
X84603596Y-155332192D01*
X84726286Y-155331748D01*
X84876254Y-155333421D01*
X85060276Y-155337050D01*
X85105336Y-155338080D01*
X85287591Y-155343224D01*
X85456629Y-155349737D01*
X85606306Y-155357277D01*
X85730474Y-155365504D01*
X85822987Y-155374075D01*
X85867336Y-155380416D01*
X86008805Y-155397969D01*
X86120304Y-155390578D01*
X86206310Y-155357901D01*
X86212376Y-155354085D01*
X86275879Y-155292864D01*
X86311432Y-155216706D01*
X86316854Y-155137010D01*
X86289960Y-155065180D01*
X86271867Y-155043362D01*
X86215206Y-155002378D01*
X86141878Y-154980004D01*
X86045275Y-154975514D01*
X85918787Y-154988181D01*
X85858379Y-154997882D01*
X85721699Y-155017577D01*
X85584879Y-155028212D01*
X85438231Y-155029816D01*
X85272065Y-155022417D01*
X85076695Y-155006046D01*
X85020669Y-155000401D01*
X84893928Y-154988632D01*
X84764046Y-154978877D01*
X84645759Y-154972109D01*
X84553803Y-154969300D01*
X84549031Y-154969278D01*
X84441200Y-154964608D01*
X84350815Y-154952304D01*
X84299561Y-154937850D01*
X84263599Y-154920893D01*
X84234582Y-154900242D01*
X84211767Y-154871481D01*
X84194412Y-154830194D01*
X84181774Y-154771967D01*
X84173110Y-154692386D01*
X84167677Y-154587035D01*
X84164732Y-154451499D01*
X84163533Y-154281363D01*
X84163333Y-154128143D01*
X84161745Y-153885451D01*
X84157217Y-153655727D01*
X84150005Y-153446798D01*
X84140361Y-153266487D01*
X84131726Y-153155174D01*
X84112697Y-152932370D01*
X84100405Y-152750132D01*
X84094825Y-152607234D01*
X84095933Y-152502451D01*
X84103704Y-152434558D01*
X84116867Y-152403476D01*
X84146159Y-152395247D01*
X84212051Y-152388723D01*
X84308846Y-152383837D01*
X84430847Y-152380527D01*
X84572357Y-152378728D01*
X84727681Y-152378376D01*
X84891121Y-152379408D01*
X85056980Y-152381759D01*
X85219561Y-152385366D01*
X85373169Y-152390164D01*
X85512106Y-152396090D01*
X85630675Y-152403079D01*
X85723180Y-152411068D01*
X85783924Y-152419993D01*
X85793252Y-152422298D01*
X85938905Y-152449836D01*
X86061184Y-152443235D01*
X86159306Y-152402708D01*
X86232490Y-152328464D01*
X86249997Y-152298624D01*
X86275435Y-152216450D01*
X86260453Y-152146784D01*
X86205155Y-152089889D01*
X86157363Y-152064034D01*
X86109239Y-152044778D01*
X86063954Y-152033607D01*
X86010162Y-152029653D01*
X85936520Y-152032050D01*
X85836724Y-152039509D01*
X85743754Y-152044818D01*
X85615919Y-152048683D01*
X85460661Y-152051155D01*
X85285420Y-152052285D01*
X85097638Y-152052124D01*
X84904758Y-152050722D01*
X84714220Y-152048132D01*
X84533466Y-152044403D01*
X84369938Y-152039586D01*
X84231078Y-152033734D01*
X84136444Y-152027863D01*
X84029352Y-152020451D01*
X83954019Y-152018136D01*
X83900099Y-152021619D01*
X83857246Y-152031601D01*
X83815114Y-152048783D01*
X83812967Y-152049785D01*
X83746661Y-152086129D01*
X83688830Y-152126371D01*
X83677860Y-152135860D01*
X83652263Y-152163518D01*
X83638936Y-152194112D01*
X83635620Y-152239870D01*
X82836109Y-152239870D01*
X82824119Y-152152383D01*
X82805738Y-152079005D01*
X82780877Y-152024743D01*
X82747964Y-151983792D01*
X82705428Y-151950349D01*
X82692875Y-151942338D01*
X82659068Y-151924915D01*
X82618676Y-151912281D01*
X82567226Y-151904549D01*
X82500245Y-151901834D01*
X82413261Y-151904246D01*
X82301802Y-151911900D01*
X82161393Y-151924908D01*
X81987564Y-151943384D01*
X81797271Y-151964962D01*
X81619030Y-151985178D01*
X81474186Y-152000456D01*
X81354151Y-152011263D01*
X81250336Y-152018064D01*
X81154153Y-152021328D01*
X81057012Y-152021520D01*
X80950323Y-152019107D01*
X80859674Y-152015899D01*
X80487513Y-152001545D01*
X80432769Y-152066605D01*
X80417889Y-152084735D01*
X80405845Y-152103063D01*
X80396579Y-152125671D01*
X80390035Y-152156641D01*
X80386157Y-152200052D01*
X80384889Y-152259988D01*
X77384309Y-152259988D01*
X77643604Y-151938504D01*
X78031304Y-151524514D01*
X78091087Y-151465755D01*
X78505681Y-151088907D01*
X78935352Y-150750868D01*
X79382849Y-150449946D01*
X79850925Y-150184450D01*
X80342329Y-149952688D01*
X80859813Y-149752969D01*
X80898817Y-149739553D01*
X81438066Y-149577696D01*
X81984634Y-149457144D01*
X82536522Y-149377912D01*
X83091731Y-149340009D01*
X83648261Y-149343448D01*
G37*
%TD.AperFunction*%
%TD*%
D11*
%TO.P,REF\u002A\u002A,*%
%TO.N,*%
X94900000Y-45000000D03*
%TD*%
%TO.P,REF\u002A\u002A,*%
%TO.N,*%
X94900000Y-167500000D03*
%TD*%
%TO.P,REF\u002A\u002A,*%
%TO.N,*%
X39100000Y-45000000D03*
%TD*%
%TO.P,REF\u002A\u002A,*%
%TO.N,*%
X39100000Y-167500000D03*
%TD*%
M02*
