<?xml version="1.0" encoding="UTF-8" standalone="no"?>
<!-- Created with Inkscape (http://www.inkscape.org/) -->

<svg
   width="210mm"
   height="297mm"
   viewBox="0 0 210 297"
   version="1.1"
   id="svg1"
   xml:space="preserve"
   inkscape:version="1.3.2 (091e20e, 2023-11-25)"
   sodipodi:docname="graphics.svg"
   inkscape:export-filename="kicad-import.svg"
   inkscape:export-xdpi="96"
   inkscape:export-ydpi="96"
   xmlns:inkscape="http://www.inkscape.org/namespaces/inkscape"
   xmlns:sodipodi="http://sodipodi.sourceforge.net/DTD/sodipodi-0.dtd"
   xmlns="http://www.w3.org/2000/svg"
   xmlns:svg="http://www.w3.org/2000/svg"><sodipodi:namedview
     id="namedview1"
     pagecolor="#ffffff"
     bordercolor="#666666"
     borderopacity="1.0"
     inkscape:showpageshadow="2"
     inkscape:pageopacity="0.0"
     inkscape:pagecheckerboard="0"
     inkscape:deskcolor="#d1d1d1"
     inkscape:document-units="mm"
     showguides="true"
     inkscape:zoom="1.1893044"
     inkscape:cx="213.99063"
     inkscape:cy="446.05906"
     inkscape:window-width="1936"
     inkscape:window-height="1106"
     inkscape:window-x="304"
     inkscape:window-y="170"
     inkscape:window-maximized="0"
     inkscape:current-layer="layer1"><sodipodi:guide
       position="50,197"
       orientation="-1,0"
       id="guide1"
       inkscape:locked="false"
       inkscape:label=""
       inkscape:color="rgb(0,134,229)" /><sodipodi:guide
       position="100,247"
       orientation="0,1"
       id="guide2"
       inkscape:locked="false"
       inkscape:label=""
       inkscape:color="rgb(0,134,229)" /><sodipodi:guide
       position="120.8,247.00001"
       orientation="1,0"
       id="guide18"
       inkscape:locked="false" /><sodipodi:guide
       position="85.4,287"
       orientation="-1,0"
       id="guide19"
       inkscape:locked="false"
       inkscape:label=""
       inkscape:color="rgb(0,134,229)" /><sodipodi:guide
       position="85.4,243"
       orientation="0,1"
       id="guide20"
       inkscape:locked="false"
       inkscape:label=""
       inkscape:color="rgb(0,134,229)" /><sodipodi:guide
       position="58.39999,228.99998"
       orientation="1,0"
       id="guide21"
       inkscape:locked="false" /><sodipodi:guide
       position="75.399998,228.99998"
       orientation="1,0"
       id="guide22"
       inkscape:locked="false" /><sodipodi:guide
       position="92.400006,228.99998"
       orientation="1,0"
       id="guide23"
       inkscape:locked="false" /><sodipodi:guide
       position="111.4,228.99998"
       orientation="1,0"
       id="guide24"
       inkscape:locked="false" /><sodipodi:guide
       position="58.399989,228.99999"
       orientation="0,-1"
       id="guide25"
       inkscape:locked="false" /><sodipodi:guide
       position="58.400003,215"
       orientation="0,1"
       id="guide26"
       inkscape:locked="false"
       inkscape:label=""
       inkscape:color="rgb(0,134,229)" /><sodipodi:guide
       position="50,237"
       orientation="0,1"
       id="guide27"
       inkscape:locked="false"
       inkscape:label=""
       inkscape:color="rgb(0,134,229)" /><sodipodi:guide
       position="58.399989,223"
       orientation="0,1"
       id="guide28"
       inkscape:locked="false"
       inkscape:label=""
       inkscape:color="rgb(0,134,229)" /><sodipodi:guide
       position="50,208"
       orientation="0,1"
       id="guide29"
       inkscape:locked="false"
       inkscape:label=""
       inkscape:color="rgb(0,134,229)" /><sodipodi:guide
       position="92.400006,212.99996"
       orientation="0,-1"
       id="guide30"
       inkscape:locked="false" /><sodipodi:guide
       position="94.827399,207"
       orientation="0,1"
       id="guide31"
       inkscape:locked="false"
       inkscape:label=""
       inkscape:color="rgb(0,134,229)" /><sodipodi:guide
       position="58.400003,136.99959"
       orientation="0,-1"
       id="guide32"
       inkscape:locked="false" /><sodipodi:guide
       position="65.683966,130"
       orientation="0,1"
       id="guide33"
       inkscape:locked="false"
       inkscape:label=""
       inkscape:color="rgb(0,134,229)" /></sodipodi:namedview><defs
     id="defs1"><marker
       id="DistanceX"
       orient="auto"
       refX="0.0"
       refY="0.0"
       style="overflow:visible"><path
         d="M 3,-3 L -3,3 M 0,-5 L  0,5"
         style="stroke:#000000; stroke-width:0.5"
         id="path1" /></marker><pattern
       id="Hatch"
       patternUnits="userSpaceOnUse"
       width="8"
       height="8"
       x="0"
       y="0"><path
         d="M8 4 l-4,4"
         stroke="#000000"
         stroke-width="0.25"
         linecap="square"
         id="path2" /><path
         d="M6 2 l-4,4"
         stroke="#000000"
         stroke-width="0.25"
         linecap="square"
         id="path3" /><path
         d="M4 0 l-4,4"
         stroke="#000000"
         stroke-width="0.25"
         linecap="square"
         id="path4" /></pattern><symbol
       id="*Model_Space" /><symbol
       id="*Paper_Space" /></defs><g
     inkscape:label="Text"
     inkscape:groupmode="layer"
     id="layer1"
     style="display:inline"><text
       xml:space="preserve"
       style="font-size:3.52777px;line-height:1.25;font-family:Futura;-inkscape-font-specification:'Futura, Normal';stroke-width:0.264583"
       x="79.962791"
       y="55.368561"
       id="text2"><tspan
         sodipodi:role="line"
         id="tspan2"
         style="stroke-width:0.264583"
         x="79.962791"
         y="55.368561">MIXER</tspan></text><text
       xml:space="preserve"
       style="font-size:3.52777px;line-height:1.25;font-family:Futura;-inkscape-font-specification:'Futura, Normal';stroke-width:0.264583"
       x="57.473263"
       y="61.329803"
       id="text3"><tspan
         sodipodi:role="line"
         id="tspan3"
         style="stroke-width:0.264583"
         x="57.473263"
         y="61.329803">1</tspan></text><text
       xml:space="preserve"
       style="font-size:3.52777px;line-height:1.25;font-family:Futura;-inkscape-font-specification:'Futura, Normal';stroke-width:0.264583"
       x="74.419006"
       y="61.352196"
       id="text4"><tspan
         sodipodi:role="line"
         id="tspan4"
         style="stroke-width:0.264583"
         x="74.419006"
         y="61.352196">2</tspan></text><text
       xml:space="preserve"
       style="font-size:3.52777px;line-height:1.25;font-family:Futura;-inkscape-font-specification:'Futura, Normal';stroke-width:0.264583"
       x="91.402657"
       y="61.331528"
       id="text5"><tspan
         sodipodi:role="line"
         id="tspan5"
         style="stroke-width:0.264583"
         x="91.402657"
         y="61.331528">3</tspan></text><text
       xml:space="preserve"
       style="font-size:3.52777px;line-height:1.25;font-family:Futura;-inkscape-font-specification:'Futura, Normal';stroke-width:0.264583"
       x="107.59662"
       y="61.330666"
       id="text6"><tspan
         sodipodi:role="line"
         id="tspan6"
         style="stroke-width:0.264583"
         x="107.59662"
         y="61.330666">OUT</tspan></text><text
       xml:space="preserve"
       style="font-size:3.52777px;line-height:1.25;font-family:Futura;-inkscape-font-specification:'Futura, Normal';stroke-width:0.264583"
       x="56.390644"
       y="75.339279"
       id="text8"><tspan
         sodipodi:role="line"
         id="tspan8"
         style="stroke-width:0.264583"
         x="56.390644"
         y="75.339279">IN</tspan></text><text
       xml:space="preserve"
       style="font-size:3.52777px;line-height:1.25;font-family:Futura;-inkscape-font-specification:'Futura, Normal';stroke-width:0.264583"
       x="54.749058"
       y="90.339279"
       id="text9"><tspan
         sodipodi:role="line"
         id="tspan9"
         style="stroke-width:0.264583"
         x="54.749058"
         y="90.339279">PAN</tspan></text><text
       xml:space="preserve"
       style="font-size:3.52777px;line-height:1.25;font-family:Futura;-inkscape-font-specification:'Futura, Normal';stroke-width:0.264583"
       x="73.390648"
       y="75.339279"
       id="text10"><tspan
         sodipodi:role="line"
         id="tspan10"
         style="stroke-width:0.264583"
         x="73.390648"
         y="75.339279">IN</tspan></text><text
       xml:space="preserve"
       style="font-size:3.52777px;line-height:1.25;font-family:Futura;-inkscape-font-specification:'Futura, Normal';stroke-width:0.264583"
       x="71.749069"
       y="90.339279"
       id="text11"><tspan
         sodipodi:role="line"
         id="tspan11"
         style="stroke-width:0.264583"
         x="71.749069"
         y="90.339279">PAN</tspan></text><text
       xml:space="preserve"
       style="font-size:3.52777px;line-height:1.25;font-family:Futura;-inkscape-font-specification:'Futura, Normal';stroke-width:0.264583"
       x="88.784386"
       y="91.339279"
       id="text13"><tspan
         sodipodi:role="line"
         id="tspan13"
         style="stroke-width:0.264583"
         x="88.784386"
         y="91.339279">R IN</tspan></text><text
       xml:space="preserve"
       style="font-size:3.52777px;line-height:1.25;font-family:Futura;-inkscape-font-specification:'Futura, Normal';stroke-width:0.264583"
       x="89.064301"
       y="75.339279"
       id="text14"><tspan
         sodipodi:role="line"
         id="tspan14"
         style="stroke-width:0.264583"
         x="89.064301"
         y="75.339279">L IN</tspan></text><text
       xml:space="preserve"
       style="font-size:3.52777px;line-height:1.25;font-family:Futura;-inkscape-font-specification:'Futura, Normal';stroke-width:0.264583"
       x="106.20395"
       y="75.330666"
       id="text15"><tspan
         sodipodi:role="line"
         id="tspan15"
         style="stroke-width:0.264583"
         x="106.20395"
         y="75.330666">L OUT</tspan></text><text
       xml:space="preserve"
       style="font-size:3.52777px;line-height:1.25;font-family:Futura;-inkscape-font-specification:'Futura, Normal';stroke-width:0.264583"
       x="105.92403"
       y="91.330666"
       id="text16"><tspan
         sodipodi:role="line"
         id="tspan16"
         style="stroke-width:0.264583"
         x="105.92403"
         y="91.330666">R OUT</tspan></text><text
       xml:space="preserve"
       style="font-size:3.52777px;line-height:1.25;font-family:Futura;-inkscape-font-specification:'Futura, Normal';stroke-width:0.264583"
       x="53.725006"
       y="168.33928"
       id="text17"><tspan
         sodipodi:role="line"
         id="tspan17"
         style="stroke-width:0.264583"
         x="53.725006"
         y="168.33928">GAIN</tspan></text><text
       xml:space="preserve"
       style="font-size:3.52777px;line-height:1.25;font-family:Futura;-inkscape-font-specification:'Futura, Normal';stroke-width:0.264583"
       x="70.725014"
       y="168.33928"
       id="text18"><tspan
         sodipodi:role="line"
         id="tspan18"
         style="stroke-width:0.264583"
         x="70.725014"
         y="168.33928">GAIN</tspan></text></g><g
     inkscape:groupmode="layer"
     id="layer2"
     inkscape:label="Edge Cuts"
     style="display:inline"><path
       d="M 267.59055,636.85039 V 1122.5197 H 0 V 636.85039 h 267.59055"
       style="fill:none;stroke:#000000"
       id="path5"
       transform="matrix(0.26458333,0,0,0.26458333,50.000001,-118.5)" /><path
       d="m 110.17323,757.79528 a 14.173229,14.173229 0 0 0 -28.346458,0 14.173229,14.173229 0 0 0 28.346458,0 z"
       style="fill:none;stroke:#000000"
       id="path6"
       transform="matrix(0.26458333,0,0,0.26458333,50.000001,-118.5)" /><path
       d="m 45.92126,757.79528 a 14.173229,14.173229 0 0 0 -28.346457,0 14.173229,14.173229 0 0 0 28.346457,0 z"
       style="fill:none;stroke:#000000"
       id="path7"
       transform="matrix(0.26458333,0,0,0.26458333,50.000001,-118.5)" /><path
       d="m 110.17323,704.88189 a 14.173229,14.173229 0 0 0 -28.346458,0 14.173229,14.173229 0 0 0 28.346458,0 z"
       style="fill:none;stroke:#000000"
       id="path8"
       transform="matrix(0.26458333,0,0,0.26458333,50.000001,-118.5)" /><path
       d="m 45.92126,704.88189 a 14.173229,14.173229 0 0 0 -28.346457,0 14.173229,14.173229 0 0 0 28.346457,0 z"
       style="fill:none;stroke:#000000"
       id="path9"
       transform="matrix(0.26458333,0,0,0.26458333,50.000001,-118.5)" /><path
       d="m 174.4252,765.35433 a 14.17323,14.17323 0 0 0 -28.34646,0 14.17323,14.17323 0 0 0 28.34646,0 z"
       style="fill:none;stroke:#000000"
       id="path10"
       transform="matrix(0.26458333,0,0,0.26458333,50.000001,-118.5)" /><path
       d="m 174.4252,704.88189 a 14.17323,14.17323 0 0 0 -28.34646,0 14.17323,14.17323 0 0 0 28.34646,0 z"
       style="fill:none;stroke:#000000"
       id="path11"
       transform="matrix(0.26458333,0,0,0.26458333,50.000001,-118.5)" /><path
       d="m 246.23622,704.88189 a 14.17323,14.17323 0 0 0 -28.34646,0 14.17323,14.17323 0 0 0 28.34646,0 z"
       style="fill:none;stroke:#000000"
       id="path12"
       transform="matrix(0.26458333,0,0,0.26458333,50.000001,-118.5)" /><path
       d="m 246.23622,765.35433 a 14.17323,14.17323 0 0 0 -28.34646,0 14.17323,14.17323 0 0 0 28.34646,0 z"
       style="fill:none;stroke:#000000"
       id="path13"
       transform="matrix(0.26458333,0,0,0.26458333,50.000001,-118.5)" /><path
       d="m 45.92126,1052.5984 a 14.173229,14.173229 0 0 0 -28.346457,0 14.173229,14.173229 0 0 0 28.346457,0 z"
       style="fill:none;stroke:#000000"
       id="path14"
       transform="matrix(0.26458333,0,0,0.26458333,50.000001,-118.5)" /><path
       d="m 110.17323,1052.5984 a 14.173229,14.173229 0 0 0 -28.346458,0 14.173229,14.173229 0 0 0 28.346458,0 z"
       style="fill:none;stroke:#000000"
       id="path15"
       transform="matrix(0.26458333,0,0,0.26458333,50.000001,-118.5)" /><path
       d="m 25.133858,1003.4646 a 3.779528,3.779528 0 0 0 3.779528,3.7795"
       style="fill:none;stroke:#000000"
       id="path16"
       transform="matrix(0.26458333,0,0,0.26458333,50.000001,-118.5)" /><path
       style="fill:none;stroke:#000000"
       d="M 34.5827,1007.24 H 28.9134"
       id="path17"
       transform="matrix(0.26458333,0,0,0.26458333,50.000001,-118.5)" /><path
       d="m 34.582677,1007.2441 a 3.779528,3.779528 0 0 0 3.779528,-3.7795"
       style="fill:none;stroke:#000000"
       id="path18"
       transform="matrix(0.26458333,0,0,0.26458333,50.000001,-118.5)" /><path
       style="fill:none;stroke:#000000"
       d="M 38.3622,822.047 V 1003.46"
       id="path19"
       transform="matrix(0.26458333,0,0,0.26458333,50.000001,-118.5)" /><path
       d="m 38.362205,822.04724 a 3.779528,3.779528 0 0 0 -3.779528,-3.77952"
       style="fill:none;stroke:#000000"
       id="path20"
       transform="matrix(0.26458333,0,0,0.26458333,50.000001,-118.5)" /><path
       style="fill:none;stroke:#000000"
       d="m 28.9134,818.268 h 5.6693"
       id="path21"
       transform="matrix(0.26458333,0,0,0.26458333,50.000001,-118.5)" /><path
       d="m 28.913386,818.26772 a 3.779528,3.779528 0 0 0 -3.779528,3.77952"
       style="fill:none;stroke:#000000"
       id="path22"
       transform="matrix(0.26458333,0,0,0.26458333,50.000001,-118.5)" /><path
       style="fill:none;stroke:#000000"
       d="M 25.1339,1003.46 V 822.047"
       id="path23"
       transform="matrix(0.26458333,0,0,0.26458333,50.000001,-118.5)" /><path
       d="m 89.385827,1003.4646 a 3.779528,3.779528 0 0 0 3.779527,3.7795"
       style="fill:none;stroke:#000000"
       id="path24"
       transform="matrix(0.26458333,0,0,0.26458333,50.000001,-118.5)" /><path
       style="fill:none;stroke:#000000"
       d="M 98.8346,1007.24 H 93.1654"
       id="path25"
       transform="matrix(0.26458333,0,0,0.26458333,50.000001,-118.5)" /><path
       d="m 98.834646,1007.2441 a 3.779528,3.779528 0 0 0 3.779524,-3.7795"
       style="fill:none;stroke:#000000"
       id="path26"
       transform="matrix(0.26458333,0,0,0.26458333,50.000001,-118.5)" /><path
       style="fill:none;stroke:#000000"
       d="M 102.614,822.047 V 1003.46"
       id="path27"
       transform="matrix(0.26458333,0,0,0.26458333,50.000001,-118.5)" /><path
       d="m 102.61417,822.04724 a 3.779528,3.779528 0 0 0 -3.779524,-3.77952"
       style="fill:none;stroke:#000000"
       id="path28"
       transform="matrix(0.26458333,0,0,0.26458333,50.000001,-118.5)" /><path
       style="fill:none;stroke:#000000"
       d="m 93.1654,818.268 h 5.6692"
       id="path29"
       transform="matrix(0.26458333,0,0,0.26458333,50.000001,-118.5)" /><path
       d="m 93.165354,818.26772 a 3.779528,3.779528 0 0 0 -3.779527,3.77952"
       style="fill:none;stroke:#000000"
       id="path30"
       transform="matrix(0.26458333,0,0,0.26458333,50.000001,-118.5)" /><path
       style="fill:none;stroke:#000000"
       d="M 89.3858,1003.46 V 822.047"
       id="path31"
       transform="matrix(0.26458333,0,0,0.26458333,50.000001,-118.5)" /><path
       d="m 153.63779,1003.4646 a 3.779528,3.779528 0 0 0 3.77953,3.7795"
       style="fill:none;stroke:#000000"
       id="path32"
       transform="matrix(0.26458333,0,0,0.26458333,50.000001,-118.5)" /><path
       style="fill:none;stroke:#000000"
       d="m 163.087,1007.24 h -5.67"
       id="path33"
       transform="matrix(0.26458333,0,0,0.26458333,50.000001,-118.5)" /><path
       d="m 163.08661,1007.2441 a 3.779528,3.779528 0 0 0 3.77953,-3.7795"
       style="fill:none;stroke:#000000"
       id="path34"
       transform="matrix(0.26458333,0,0,0.26458333,50.000001,-118.5)" /><path
       style="fill:none;stroke:#000000"
       d="M 166.866,822.047 V 1003.46"
       id="path35"
       transform="matrix(0.26458333,0,0,0.26458333,50.000001,-118.5)" /><path
       d="m 166.86614,822.04724 a 3.779528,3.779528 0 0 0 -3.77953,-3.77952"
       style="fill:none;stroke:#000000"
       id="path36"
       transform="matrix(0.26458333,0,0,0.26458333,50.000001,-118.5)" /><path
       style="fill:none;stroke:#000000"
       d="m 157.417,818.268 h 5.67"
       id="path37"
       transform="matrix(0.26458333,0,0,0.26458333,50.000001,-118.5)" /><path
       d="m 157.41732,818.26772 a 3.779528,3.779528 0 0 0 -3.77953,3.77952"
       style="fill:none;stroke:#000000"
       id="path38"
       transform="matrix(0.26458333,0,0,0.26458333,50.000001,-118.5)" /><path
       style="fill:none;stroke:#000000"
       d="M 153.638,1003.46 V 822.047"
       id="path39"
       transform="matrix(0.26458333,0,0,0.26458333,50.000001,-118.5)" /><path
       d="m 225.44882,1003.4646 a 3.779528,3.779528 0 0 0 3.77953,3.7795"
       style="fill:none;stroke:#000000"
       id="path40"
       transform="matrix(0.26458333,0,0,0.26458333,50.000001,-118.5)" /><path
       style="fill:none;stroke:#000000"
       d="m 234.898,1007.24 h -5.67"
       id="path41"
       transform="matrix(0.26458333,0,0,0.26458333,50.000001,-118.5)" /><path
       d="m 234.89764,1007.2441 a 3.779528,3.779528 0 0 0 3.77952,-3.7795"
       style="fill:none;stroke:#000000"
       id="path42"
       transform="matrix(0.26458333,0,0,0.26458333,50.000001,-118.5)" /><path
       style="fill:none;stroke:#000000"
       d="M 238.677,822.047 V 1003.46"
       id="path43"
       transform="matrix(0.26458333,0,0,0.26458333,50.000001,-118.5)" /><path
       d="m 238.67716,822.04724 a 3.779528,3.779528 0 0 0 -3.77952,-3.77952"
       style="fill:none;stroke:#000000"
       id="path44"
       transform="matrix(0.26458333,0,0,0.26458333,50.000001,-118.5)" /><path
       style="fill:none;stroke:#000000"
       d="m 229.228,818.268 h 5.67"
       id="path45"
       transform="matrix(0.26458333,0,0,0.26458333,50.000001,-118.5)" /><path
       d="m 229.22835,818.26772 a 3.779528,3.779528 0 0 0 -3.77953,3.77952"
       style="fill:none;stroke:#000000"
       id="path46"
       transform="matrix(0.26458333,0,0,0.26458333,50.000001,-118.5)" /><path
       style="fill:none;stroke:#000000"
       d="M 225.449,1003.46 V 822.047"
       id="path47"
       transform="matrix(0.26458333,0,0,0.26458333,50.000001,-118.5)" /><path
       d="m 36.472441,806.92913 a 4.7244095,4.7244095 0 0 0 -9.448819,0 4.7244095,4.7244095 0 0 0 9.448819,0 z"
       style="fill:none;stroke:#000000"
       id="path48"
       transform="matrix(0.26458333,0,0,0.26458333,50.000001,-118.5)" /><path
       d="m 36.472441,1018.5827 a 4.7244095,4.7244095 0 0 0 -9.448819,0 4.7244095,4.7244095 0 0 0 9.448819,0 z"
       style="fill:none;stroke:#000000"
       id="path49"
       transform="matrix(0.26458333,0,0,0.26458333,50.000001,-118.5)" /><path
       d="m 100.72441,1018.5827 a 4.7244095,4.7244095 0 0 0 -9.448819,0 4.7244095,4.7244095 0 0 0 9.448819,0 z"
       style="fill:none;stroke:#000000"
       id="path50"
       transform="matrix(0.26458333,0,0,0.26458333,50.000001,-118.5)" /><path
       d="m 164.97638,1018.5827 a 4.72441,4.72441 0 0 0 -9.44882,0 4.72441,4.72441 0 0 0 9.44882,0 z"
       style="fill:none;stroke:#000000"
       id="path51"
       transform="matrix(0.26458333,0,0,0.26458333,50.000001,-118.5)" /><path
       d="m 236.7874,1018.5827 a 4.72441,4.72441 0 0 0 -9.44882,0 4.72441,4.72441 0 0 0 9.44882,0 z"
       style="fill:none;stroke:#000000"
       id="path52"
       transform="matrix(0.26458333,0,0,0.26458333,50.000001,-118.5)" /><path
       d="m 100.72441,806.92913 a 4.7244095,4.7244095 0 0 0 -9.448819,0 4.7244095,4.7244095 0 0 0 9.448819,0 z"
       style="fill:none;stroke:#000000"
       id="path53"
       transform="matrix(0.26458333,0,0,0.26458333,50.000001,-118.5)" /><path
       d="m 164.97638,806.92913 a 4.72441,4.72441 0 0 0 -9.44882,0 4.72441,4.72441 0 0 0 9.44882,0 z"
       style="fill:none;stroke:#000000"
       id="path54"
       transform="matrix(0.26458333,0,0,0.26458333,50.000001,-118.5)" /><path
       d="m 236.7874,806.92913 a 4.72441,4.72441 0 0 0 -9.44882,0 4.72441,4.72441 0 0 0 9.44882,0 z"
       style="fill:none;stroke:#000000"
       id="path55"
       transform="matrix(0.26458333,0,0,0.26458333,50.000001,-118.5)" /><path
       d="m 34.96063,648.18898 a 6.6141735,6.6141735 0 0 0 -13.228347,0 6.6141735,6.6141735 0 0 0 13.228347,0 z"
       style="fill:none;stroke:#000000"
       id="path56"
       transform="matrix(0.26458333,0,0,0.26458333,50.000001,-118.5)" /><path
       d="m 245.85827,648.18898 a 6.614175,6.614175 0 0 0 -13.22835,0 6.614175,6.614175 0 0 0 13.22835,0 z"
       style="fill:none;stroke:#000000"
       id="path57"
       transform="matrix(0.26458333,0,0,0.26458333,50.000001,-118.5)" /><path
       d="m 245.85827,1111.1811 a 6.614175,6.614175 0 0 0 -13.22835,0 6.614175,6.614175 0 0 0 13.22835,0 z"
       style="fill:none;stroke:#000000"
       id="path58"
       transform="matrix(0.26458333,0,0,0.26458333,50.000001,-118.5)" /><path
       d="m 34.96063,1111.1811 a 6.6141735,6.6141735 0 0 0 -13.228347,0 6.6141735,6.6141735 0 0 0 13.228347,0 z"
       style="fill:none;stroke:#000000"
       id="path59"
       transform="matrix(0.26458333,0,0,0.26458333,50.000001,-118.5)" /><g
       inkscape:label="Reference Marks"
       id="g111"
       style="display:none"
       transform="matrix(0.26458333,0,0,0.26458333,50.000001,-118.5)"><path
         style="fill:none;stroke:#ff0000"
         d="M 98.8346,757.795 H 93.1654"
         id="path60" /><path
         style="fill:none;stroke:#ff0000"
         d="m 96,760.63 v -5.669"
         id="path61" /><path
         style="fill:none;stroke:#ff0000"
         d="M 34.5827,757.795 H 28.9134"
         id="path62" /><path
         style="fill:none;stroke:#ff0000"
         d="m 31.748,760.63 v -5.669"
         id="path63" /><path
         style="fill:none;stroke:#ff0000"
         d="M 98.8346,704.882 H 93.1654"
         id="path64" /><path
         style="fill:none;stroke:#ff0000"
         d="m 96,707.717 v -5.67"
         id="path65" /><path
         style="fill:none;stroke:#ff0000"
         d="M 34.5827,704.882 H 28.9134"
         id="path66" /><path
         style="fill:none;stroke:#ff0000"
         d="m 31.748,707.717 v -5.67"
         id="path67" /><path
         style="fill:none;stroke:#ff0000"
         d="m 163.087,765.354 h -5.67"
         id="path68" /><path
         style="fill:none;stroke:#ff0000"
         d="M 160.252,768.189 V 762.52"
         id="path69" /><path
         style="fill:none;stroke:#ff0000"
         d="m 163.087,704.882 h -5.67"
         id="path70" /><path
         style="fill:none;stroke:#ff0000"
         d="m 160.252,707.717 v -5.67"
         id="path71" /><path
         style="fill:none;stroke:#ff0000"
         d="m 234.898,704.882 h -5.67"
         id="path72" /><path
         style="fill:none;stroke:#ff0000"
         d="m 232.063,707.717 v -5.67"
         id="path73" /><path
         style="fill:none;stroke:#ff0000"
         d="m 234.898,765.354 h -5.67"
         id="path74" /><path
         style="fill:none;stroke:#ff0000"
         d="M 232.063,768.189 V 762.52"
         id="path75" /><path
         style="fill:none;stroke:#ff0000"
         d="M 34.5827,1052.6 H 28.9134"
         id="path76" /><path
         style="fill:none;stroke:#ff0000"
         d="m 31.748,1055.43 v -5.67"
         id="path77" /><path
         style="fill:none;stroke:#ff0000"
         d="M 98.8346,1052.6 H 93.1654"
         id="path78" /><path
         style="fill:none;stroke:#ff0000"
         d="m 96,1055.43 v -5.67"
         id="path79" /><path
         style="fill:none;stroke:#ff0000"
         d="M 34.5827,912.756 H 28.9134"
         id="path80" /><path
         style="fill:none;stroke:#ff0000"
         d="m 31.748,915.591 v -5.67"
         id="path81" /><path
         style="fill:none;stroke:#ff0000"
         d="M 98.8346,912.756 H 93.1654"
         id="path82" /><path
         style="fill:none;stroke:#ff0000"
         d="m 96,915.591 v -5.67"
         id="path83" /><path
         style="fill:none;stroke:#ff0000"
         d="m 163.087,912.756 h -5.67"
         id="path84" /><path
         style="fill:none;stroke:#ff0000"
         d="m 160.252,915.591 v -5.67"
         id="path85" /><path
         style="fill:none;stroke:#ff0000"
         d="m 234.898,912.756 h -5.67"
         id="path86" /><path
         style="fill:none;stroke:#ff0000"
         d="m 232.063,915.591 v -5.67"
         id="path87" /><path
         style="fill:none;stroke:#ff0000"
         d="M 34.5827,806.929 H 28.9134"
         id="path88" /><path
         style="fill:none;stroke:#ff0000"
         d="m 31.748,809.764 v -5.67"
         id="path89" /><path
         style="fill:none;stroke:#ff0000"
         d="M 34.5827,1018.58 H 28.9134"
         id="path90" /><path
         style="fill:none;stroke:#ff0000"
         d="m 31.748,1021.42 v -5.67"
         id="path91" /><path
         style="fill:none;stroke:#ff0000"
         d="M 98.8346,1018.58 H 93.1654"
         id="path92" /><path
         style="fill:none;stroke:#ff0000"
         d="m 96,1021.42 v -5.67"
         id="path93" /><path
         style="fill:none;stroke:#ff0000"
         d="m 163.087,1018.58 h -5.67"
         id="path94" /><path
         style="fill:none;stroke:#ff0000"
         d="m 160.252,1021.42 v -5.67"
         id="path95" /><path
         style="fill:none;stroke:#ff0000"
         d="m 234.898,1018.58 h -5.67"
         id="path96" /><path
         style="fill:none;stroke:#ff0000"
         d="m 232.063,1021.42 v -5.67"
         id="path97" /><path
         style="fill:none;stroke:#ff0000"
         d="M 98.8346,806.929 H 93.1654"
         id="path98" /><path
         style="fill:none;stroke:#ff0000"
         d="m 96,809.764 v -5.67"
         id="path99" /><path
         style="fill:none;stroke:#ff0000"
         d="m 163.087,806.929 h -5.67"
         id="path100" /><path
         style="fill:none;stroke:#ff0000"
         d="m 160.252,809.764 v -5.67"
         id="path101" /><path
         style="fill:none;stroke:#ff0000"
         d="m 234.898,806.929 h -5.67"
         id="path102" /><path
         style="fill:none;stroke:#ff0000"
         d="m 232.063,809.764 v -5.67"
         id="path103" /><path
         style="fill:none;stroke:#ff0000"
         d="M 31.1811,648.189 H 25.5118"
         id="path104" /><path
         style="fill:none;stroke:#ff0000"
         d="m 28.3465,651.024 v -5.67"
         id="path105" /><path
         style="fill:none;stroke:#ff0000"
         d="m 242.079,648.189 h -5.67"
         id="path106" /><path
         style="fill:none;stroke:#ff0000"
         d="m 239.244,651.024 v -5.67"
         id="path107" /><path
         style="fill:none;stroke:#ff0000"
         d="m 242.079,1111.18 h -5.67"
         id="path108" /><path
         style="fill:none;stroke:#ff0000"
         d="m 239.244,1114.02 v -5.67"
         id="path109" /><path
         style="fill:none;stroke:#ff0000"
         d="M 31.1811,1111.18 H 25.5118"
         id="path110" /><path
         style="fill:none;stroke:#ff0000"
         d="m 28.3465,1114.02 v -5.67"
         id="path111" /></g></g></svg>
