<?xml version="1.0" encoding="UTF-8" standalone="no"?>
<!-- Created with Inkscape (http://www.inkscape.org/) -->

<svg
   width="210mm"
   height="297mm"
   viewBox="0 0 210 297"
   version="1.1"
   id="svg1"
   xml:space="preserve"
   inkscape:version="1.3.2 (091e20e, 2023-11-25)"
   sodipodi:docname="kicad-import.svg"
   inkscape:export-filename="kicad-import.svg"
   inkscape:export-xdpi="96"
   inkscape:export-ydpi="96"
   xmlns:inkscape="http://www.inkscape.org/namespaces/inkscape"
   xmlns:sodipodi="http://sodipodi.sourceforge.net/DTD/sodipodi-0.dtd"
   xmlns="http://www.w3.org/2000/svg"
   xmlns:svg="http://www.w3.org/2000/svg"><sodipodi:namedview
     id="namedview1"
     pagecolor="#ffffff"
     bordercolor="#666666"
     borderopacity="1.0"
     inkscape:showpageshadow="2"
     inkscape:pageopacity="0.0"
     inkscape:pagecheckerboard="0"
     inkscape:deskcolor="#d1d1d1"
     inkscape:document-units="mm"
     showguides="true"
     inkscape:zoom="0.84330713"
     inkscape:cx="225.89635"
     inkscape:cy="458.90754"
     inkscape:window-width="1440"
     inkscape:window-height="847"
     inkscape:window-x="0"
     inkscape:window-y="25"
     inkscape:window-maximized="0"
     inkscape:current-layer="layer2"><sodipodi:guide
       position="50,197"
       orientation="-1,0"
       id="guide1"
       inkscape:locked="false"
       inkscape:label=""
       inkscape:color="rgb(0,134,229)" /><sodipodi:guide
       position="100,247"
       orientation="0,1"
       id="guide2"
       inkscape:locked="false"
       inkscape:label=""
       inkscape:color="rgb(0,134,229)" /><sodipodi:guide
       position="120.8,247.00001"
       orientation="1,0"
       id="guide18"
       inkscape:locked="false" /><sodipodi:guide
       position="85.4,287"
       orientation="-1,0"
       id="guide19"
       inkscape:locked="false"
       inkscape:label=""
       inkscape:color="rgb(0,134,229)" /><sodipodi:guide
       position="85.4,243"
       orientation="0,1"
       id="guide20"
       inkscape:locked="false"
       inkscape:label=""
       inkscape:color="rgb(0,134,229)" /><sodipodi:guide
       position="58.39999,228.99998"
       orientation="1,0"
       id="guide21"
       inkscape:locked="false" /><sodipodi:guide
       position="75.399998,228.99998"
       orientation="1,0"
       id="guide22"
       inkscape:locked="false" /><sodipodi:guide
       position="92.400006,228.99998"
       orientation="1,0"
       id="guide23"
       inkscape:locked="false" /><sodipodi:guide
       position="111.4,228.99998"
       orientation="1,0"
       id="guide24"
       inkscape:locked="false" /><sodipodi:guide
       position="58.399989,228.99999"
       orientation="0,-1"
       id="guide25"
       inkscape:locked="false" /><sodipodi:guide
       position="58.400003,215"
       orientation="0,1"
       id="guide26"
       inkscape:locked="false"
       inkscape:label=""
       inkscape:color="rgb(0,134,229)" /><sodipodi:guide
       position="50,237"
       orientation="0,1"
       id="guide27"
       inkscape:locked="false"
       inkscape:label=""
       inkscape:color="rgb(0,134,229)" /><sodipodi:guide
       position="58.399989,223"
       orientation="0,1"
       id="guide28"
       inkscape:locked="false"
       inkscape:label=""
       inkscape:color="rgb(0,134,229)" /><sodipodi:guide
       position="50,208"
       orientation="0,1"
       id="guide29"
       inkscape:locked="false"
       inkscape:label=""
       inkscape:color="rgb(0,134,229)" /><sodipodi:guide
       position="92.400006,212.99996"
       orientation="0,-1"
       id="guide30"
       inkscape:locked="false" /><sodipodi:guide
       position="94.827399,207"
       orientation="0,1"
       id="guide31"
       inkscape:locked="false"
       inkscape:label=""
       inkscape:color="rgb(0,134,229)" /><sodipodi:guide
       position="58.400003,136.99959"
       orientation="0,-1"
       id="guide32"
       inkscape:locked="false" /><sodipodi:guide
       position="65.683966,130"
       orientation="0,1"
       id="guide33"
       inkscape:locked="false"
       inkscape:label=""
       inkscape:color="rgb(0,134,229)" /></sodipodi:namedview><defs
     id="defs1"><marker
       id="DistanceX"
       orient="auto"
       refX="0.0"
       refY="0.0"
       style="overflow:visible"><path
         d="M 3,-3 L -3,3 M 0,-5 L  0,5"
         style="stroke:#000000; stroke-width:0.5"
         id="path1" /></marker><pattern
       id="Hatch"
       patternUnits="userSpaceOnUse"
       width="8"
       height="8"
       x="0"
       y="0"><path
         d="M8 4 l-4,4"
         stroke="#000000"
         stroke-width="0.25"
         linecap="square"
         id="path2" /><path
         d="M6 2 l-4,4"
         stroke="#000000"
         stroke-width="0.25"
         linecap="square"
         id="path3" /><path
         d="M4 0 l-4,4"
         stroke="#000000"
         stroke-width="0.25"
         linecap="square"
         id="path4" /></pattern><symbol
       id="*Model_Space" /><symbol
       id="*Paper_Space" /></defs><g
     inkscape:label="Text"
     inkscape:groupmode="layer"
     id="layer1"
     style="display:inline"><path
       d="m 80.188445,55.368561 0.559826,-2.859423 0.912949,2.067053 0.945676,-2.067053 0.502983,2.859423 h -0.411688 l -0.256659,-1.605411 -0.787202,1.727711 -0.76481,-1.729434 -0.285942,1.607134 z m 3.886059,-2.659608 v 2.659608 h -0.401353 v -2.659608 z m 1.195445,1.269515 -0.732081,-1.269515 h 0.456474 l 0.508151,0.90089 0.533988,-0.90089 h 0.45992 l -0.766532,1.269515 0.804428,1.390093 h -0.449584 l -0.58911,-1.018024 -0.606336,1.018024 h -0.454752 z m 3.090244,-0.892278 h -1.066255 v 0.639064 h 1.035249 v 0.377237 h -1.035249 v 0.888833 h 1.066255 v 0.377237 h -1.467607 v -2.659608 h 1.467607 z m 1.427989,1.148937 0.823376,1.133434 h -0.490925 l -0.759642,-1.088648 h -0.07235 v 1.088648 h -0.401353 v -2.659608 h 0.470255 q 0.527098,0 0.761364,0.198092 0.258382,0.220486 0.258382,0.58222 0,0.282498 -0.161919,0.485758 -0.161919,0.20326 -0.427191,0.260104 z m -0.499538,-0.30489 h 0.127468 q 0.570162,0 0.570162,-0.435804 0,-0.408243 -0.554659,-0.408243 h -0.142971 z"
       id="text2"
       style="font-size:3.52777px;line-height:1.25;font-family:Futura;-inkscape-font-specification:'Futura, Normal';stroke-width:0.264583"
       aria-label="MIXER" /><path
       d="m 58.429275,59.04571 h -0.45992 l 0.220486,-0.375514 h 0.640786 v 2.659607 h -0.401352 z"
       id="text3"
       style="font-size:3.52777px;line-height:1.25;font-family:Futura;-inkscape-font-specification:'Futura, Normal';stroke-width:0.264583"
       aria-label="1" /><path
       d="m 75.302671,60.974959 h 0.990463 v 0.377237 h -1.786278 l 0.923284,-1.117931 q 0.136081,-0.167087 0.227375,-0.289388 0.09302,-0.1223 0.141249,-0.204982 0.09819,-0.16192 0.09819,-0.29111 0,-0.186035 -0.130913,-0.311781 -0.130914,-0.125746 -0.323839,-0.125746 -0.403075,0 -0.461641,0.477145 h -0.399631 q 0.09646,-0.840601 0.849215,-0.840601 0.363456,0 0.60978,0.230821 0.248047,0.23082 0.248047,0.571884 0,0.217041 -0.115411,0.425469 -0.05857,0.10852 -0.172254,0.258381 -0.111966,0.148139 -0.28422,0.351399 z"
       id="text4"
       style="font-size:3.52777px;line-height:1.25;font-family:Futura;-inkscape-font-specification:'Futura, Normal';stroke-width:0.264583"
       aria-label="2" /><path
       d="m 92.315605,60.096464 v -0.342787 q 0.254936,0 0.342786,-0.05684 0.156752,-0.09991 0.156752,-0.320393 0,-0.170532 -0.113688,-0.277329 -0.111966,-0.108521 -0.29111,-0.108521 -0.167087,0 -0.258382,0.08096 -0.08785,0.08268 -0.130913,0.279052 h -0.39963 q 0.06201,-0.375514 0.254936,-0.549491 0.192925,-0.1757 0.539156,-0.1757 0.349677,0 0.570162,0.206705 0.220486,0.204983 0.220486,0.528821 0,0.36518 -0.289387,0.56844 0.330728,0.194647 0.330728,0.632174 0,0.358289 -0.241156,0.585665 -0.241156,0.227375 -0.618393,0.227375 -0.48059,0 -0.713133,-0.353121 -0.09646,-0.148139 -0.122301,-0.409966 h 0.387572 q 0.03101,0.192925 0.149862,0.296278 0.120578,0.10163 0.313503,0.10163 0.194647,0 0.322115,-0.129191 0.127469,-0.132636 0.127469,-0.335896 0,-0.268717 -0.191203,-0.382405 -0.111965,-0.06546 -0.346231,-0.06546 z"
       id="text5"
       style="font-size:3.52777px;line-height:1.25;font-family:Futura;-inkscape-font-specification:'Futura, Normal';stroke-width:0.264583"
       aria-label="3" /><path
       d="m 107.78265,59.988804 q 0,-0.561549 0.41169,-0.964625 0.40997,-0.403075 0.9853,-0.403075 0.56844,0 0.97496,0.40652 0.40824,0.406521 0.40824,0.976683 0,0.573607 -0.40997,0.973237 -0.41168,0.401353 -0.9939,0.401353 -0.51504,0 -0.92501,-0.356567 -0.45131,-0.394462 -0.45131,-1.033526 z m 0.4048,0.0052 q 0,0.440972 0.29628,0.725191 0.29455,0.28422 0.6804,0.28422 0.41858,0 0.70625,-0.289387 0.28766,-0.292833 0.28766,-0.713133 0,-0.425469 -0.28422,-0.713134 -0.2825,-0.289387 -0.69935,-0.289387 -0.41513,0 -0.70108,0.289387 -0.28594,0.285943 -0.28594,0.706243 z m 3.28145,-1.322913 v 1.601966 q 0,0.342786 0.11196,0.50126 0.16709,0.229098 0.47026,0.229098 0.30489,0 0.47197,-0.229098 0.11197,-0.153307 0.11197,-0.50126 v -1.601966 h 0.40135 v 1.712208 q 0,0.420301 -0.26182,0.692463 -0.29456,0.303168 -0.72347,0.303168 -0.42892,0 -0.72175,-0.303168 -0.26183,-0.272162 -0.26183,-0.692463 v -1.712208 z m 2.93866,0.377237 v 2.282371 h -0.40135 v -2.282371 h -0.61151 v -0.377237 h 1.62264 v 0.377237 z"
       id="text6"
       style="font-size:3.52777px;line-height:1.25;font-family:Futura;-inkscape-font-specification:'Futura, Normal';stroke-width:0.264583"
       aria-label="OUT" /><path
       d="m 57.110667,72.679671 v 2.659608 h -0.401352 v -2.659608 z m 0.639064,2.659608 v -2.840475 l 1.939585,2.029157 v -1.84829 h 0.401353 v 2.821527 l -1.939585,-2.023989 v 1.86207 z"
       id="text8"
       style="font-size:3.52777px;line-height:1.25;font-family:Futura;-inkscape-font-specification:'Futura, Normal';stroke-width:0.264583"
       aria-label="IN" /><path
       d="m 55.469081,89.259244 v 1.080035 h -0.401353 v -2.659608 h 0.454752 q 0.334174,0 0.504705,0.04651 0.172255,0.04651 0.303168,0.175699 0.229098,0.223931 0.229098,0.564995 0,0.365179 -0.244601,0.578775 -0.244601,0.213595 -0.659734,0.213595 z m 0,-0.372069 h 0.149861 q 0.552937,0 0.552937,-0.425469 0,-0.411688 -0.570162,-0.411688 h -0.132636 z m 2.871481,0.80615 H 57.20196 l -0.296277,0.645954 h -0.432359 l 1.316024,-2.826694 1.269515,2.826694 h -0.439249 z m -0.163642,-0.377237 -0.394462,-0.904336 -0.413411,0.904336 z m 1.214394,1.023191 v -2.840475 l 1.939584,2.029157 v -1.84829 h 0.401353 v 2.821527 l -1.939584,-2.023989 v 1.86207 z"
       id="text9"
       style="font-size:3.52777px;line-height:1.25;font-family:Futura;-inkscape-font-specification:'Futura, Normal';stroke-width:0.264583"
       aria-label="PAN" /><path
       d="m 74.110671,72.679671 v 2.659608 h -0.401352 v -2.659608 z m 0.639064,2.659608 v -2.840475 l 1.939585,2.029157 v -1.84829 h 0.401352 v 2.821527 l -1.939584,-2.023989 v 1.86207 z"
       id="text10"
       style="font-size:3.52777px;line-height:1.25;font-family:Futura;-inkscape-font-specification:'Futura, Normal';stroke-width:0.264583"
       aria-label="IN" /><path
       d="m 72.469093,89.259244 v 1.080035 H 72.06774 v -2.659608 h 0.454751 q 0.334174,0 0.504706,0.04651 0.172254,0.04651 0.303168,0.175699 0.229098,0.223931 0.229098,0.564995 0,0.365179 -0.244601,0.578775 -0.244602,0.213595 -0.659735,0.213595 z m 0,-0.372069 h 0.149861 q 0.552937,0 0.552937,-0.425469 0,-0.411688 -0.570163,-0.411688 h -0.132635 z m 2.87148,0.80615 h -1.138601 l -0.296278,0.645954 h -0.432358 l 1.316023,-2.826694 1.269515,2.826694 h -0.439248 z m -0.163641,-0.377237 -0.394463,-0.904336 -0.41341,0.904336 z m 1.214393,1.023191 v -2.840475 l 1.939585,2.029157 v -1.84829 h 0.401353 v 2.821527 l -1.939585,-2.023989 v 1.86207 z"
       id="text11"
       style="font-size:3.52777px;line-height:1.25;font-family:Futura;-inkscape-font-specification:'Futura, Normal';stroke-width:0.264583"
       aria-label="PAN" /><path
       d="m 90.003947,90.205845 0.823376,1.133434 h -0.490925 l -0.759642,-1.088648 h -0.07235 v 1.088648 h -0.401353 v -2.659608 h 0.470255 q 0.527098,0 0.761364,0.198093 0.258382,0.220485 0.258382,0.58222 0,0.282497 -0.161919,0.485757 -0.161919,0.20326 -0.427191,0.260104 z m -0.499538,-0.30489 h 0.127468 q 0.570162,0 0.570162,-0.435804 0,-0.408243 -0.554659,-0.408243 h -0.142971 z m 3.212545,-1.221284 v 2.659608 h -0.401353 v -2.659608 z m 0.639063,2.659608 v -2.840475 l 1.939585,2.029157 v -1.84829 h 0.401353 v 2.821527 L 93.75737,89.477209 v 1.86207 z"
       id="text13"
       style="font-size:3.52777px;line-height:1.25;font-family:Futura;-inkscape-font-specification:'Futura, Normal';stroke-width:0.264583"
       aria-label="R IN" /><path
       d="m 89.784324,72.679671 v 2.282371 h 0.782035 v 0.377237 h -1.183388 v -2.659608 z m 2.652718,0 v 2.659608 h -0.401353 v -2.659608 z m 0.639063,2.659608 v -2.840475 l 1.939585,2.029157 v -1.84829 h 0.401353 v 2.821527 l -1.939585,-2.023989 v 1.86207 z"
       id="text14"
       style="font-size:3.52777px;line-height:1.25;font-family:Futura;-inkscape-font-specification:'Futura, Normal';stroke-width:0.264583"
       aria-label="L IN" /><path
       d="m 106.92397,72.671058 v 2.28237 h 0.78204 v 0.377238 h -1.18339 v -2.659608 z m 2.11873,1.317746 q 0,-0.561549 0.41169,-0.964625 0.40996,-0.403075 0.98529,-0.403075 0.56844,0 0.97496,0.40652 0.40825,0.406521 0.40825,0.976683 0,0.573607 -0.40997,0.973237 -0.41169,0.401353 -0.99391,0.401353 -0.51504,0 -0.925,-0.356567 -0.45131,-0.394462 -0.45131,-1.033526 z m 0.4048,0.0052 q 0,0.440972 0.29628,0.725191 0.29455,0.28422 0.6804,0.28422 0.41858,0 0.70624,-0.289387 0.28767,-0.292833 0.28767,-0.713133 0,-0.425469 -0.28422,-0.713134 -0.2825,-0.289387 -0.69935,-0.289387 -0.41514,0 -0.70108,0.289387 -0.28594,0.285943 -0.28594,0.706243 z m 3.28145,-1.322913 v 1.601966 q 0,0.342786 0.11196,0.50126 0.16709,0.229098 0.47026,0.229098 0.30489,0 0.47197,-0.229098 0.11197,-0.153307 0.11197,-0.50126 v -1.601966 h 0.40135 v 1.712208 q 0,0.420301 -0.26183,0.692463 -0.29455,0.303168 -0.72346,0.303168 -0.42892,0 -0.72175,-0.303168 -0.26183,-0.272162 -0.26183,-0.692463 v -1.712208 z m 2.93866,0.377237 v 2.282371 h -0.40136 v -2.282371 h -0.6115 v -0.377237 h 1.62264 v 0.377237 z"
       id="text15"
       style="font-size:3.52777px;line-height:1.25;font-family:Futura;-inkscape-font-specification:'Futura, Normal';stroke-width:0.264583"
       aria-label="L OUT" /><path
       d="m 107.14359,90.197232 0.82337,1.133434 h -0.49092 l -0.75964,-1.088648 h -0.0724 v 1.088648 h -0.40135 v -2.659608 h 0.47025 q 0.5271,0 0.76137,0.198092 0.25838,0.220486 0.25838,0.58222 0,0.282497 -0.16192,0.485758 -0.16192,0.20326 -0.42719,0.260104 z m -0.49954,-0.304891 h 0.12747 q 0.57016,0 0.57016,-0.435803 0,-0.408243 -0.55466,-0.408243 h -0.14297 z m 2.67856,0.09646 q 0,-0.561549 0.41168,-0.964625 0.40997,-0.403075 0.9853,-0.403075 0.56844,0 0.97496,0.40652 0.40824,0.406521 0.40824,0.976683 0,0.573607 -0.40996,0.973237 -0.41169,0.401353 -0.99391,0.401353 -0.51504,0 -0.92501,-0.356567 -0.4513,-0.394462 -0.4513,-1.033526 z m 0.40479,0.0052 q 0,0.440972 0.29628,0.725191 0.29456,0.28422 0.68041,0.28422 0.41857,0 0.70624,-0.289387 0.28766,-0.292833 0.28766,-0.713133 0,-0.425469 -0.28422,-0.713134 -0.28249,-0.289387 -0.69935,-0.289387 -0.41513,0 -0.70107,0.289387 -0.28595,0.285943 -0.28595,0.706243 z m 3.28145,-1.322913 v 1.601966 q 0,0.342786 0.11197,0.50126 0.16708,0.229098 0.47025,0.229098 0.30489,0 0.47198,-0.229098 0.11196,-0.153307 0.11196,-0.50126 v -1.601966 h 0.40135 v 1.712208 q 0,0.420301 -0.26182,0.692463 -0.29456,0.303168 -0.72347,0.303168 -0.42891,0 -0.72175,-0.303168 -0.26182,-0.272162 -0.26182,-0.692463 v -1.712208 z m 2.93866,0.377237 v 2.282371 h -0.40135 v -2.282371 h -0.61151 v -0.377237 h 1.62264 v 0.377237 z"
       id="text16"
       style="font-size:3.52777px;line-height:1.25;font-family:Futura;-inkscape-font-specification:'Futura, Normal';stroke-width:0.264583"
       aria-label="R OUT" /><path
       d="m 55.411377,166.95435 h 1.098983 v 0.0879 q 0,0.29973 -0.07062,0.53055 -0.0689,0.21359 -0.232543,0.39963 -0.370347,0.41685 -0.942232,0.41685 -0.558104,0 -0.956011,-0.40307 -0.397908,-0.4048 -0.397908,-0.97152 0,-0.57877 0.404798,-0.98185 0.404798,-0.4048 0.985295,-0.4048 0.31178,0 0.58222,0.12747 0.258381,0.12747 0.50815,0.41341 l -0.285942,0.27389 q -0.327283,-0.43581 -0.797538,-0.43581 -0.422023,0 -0.707966,0.29111 -0.285942,0.28595 -0.285942,0.71658 0,0.44442 0.318671,0.73208 0.298,0.267 0.645954,0.267 0.296277,0 0.532266,-0.19982 0.235988,-0.20153 0.263549,-0.48231 h -0.663179 z m 3.045457,0.73898 h -1.138601 l -0.296278,0.64595 h -0.432358 l 1.316023,-2.8267 1.269515,2.8267 h -0.439248 z m -0.163641,-0.37724 -0.394463,-0.90434 -0.41341,0.90434 z m 1.615746,-1.63642 v 2.65961 h -0.401353 v -2.65961 z m 0.639064,2.65961 v -2.84048 l 1.939584,2.02916 v -1.84829 h 0.401353 v 2.82153 l -1.939585,-2.02399 v 1.86207 z"
       id="text17"
       style="font-size:3.52777px;line-height:1.25;font-family:Futura;-inkscape-font-specification:'Futura, Normal';stroke-width:0.264583"
       aria-label="GAIN" /><path
       d="m 72.411384,166.95435 h 1.098983 v 0.0879 q 0,0.29973 -0.07062,0.53055 -0.0689,0.21359 -0.232543,0.39963 -0.370347,0.41685 -0.942232,0.41685 -0.558104,0 -0.956012,-0.40307 -0.397908,-0.4048 -0.397908,-0.97152 0,-0.57877 0.404798,-0.98185 0.404798,-0.4048 0.985295,-0.4048 0.311781,0 0.58222,0.12747 0.258382,0.12747 0.508151,0.41341 l -0.285943,0.27389 q -0.327283,-0.43581 -0.797537,-0.43581 -0.422024,0 -0.707966,0.29111 -0.285942,0.28595 -0.285942,0.71658 0,0.44442 0.31867,0.73208 0.298001,0.267 0.645954,0.267 0.296278,0 0.532266,-0.19982 0.235989,-0.20153 0.26355,-0.48231 h -0.66318 z m 3.045458,0.73898 H 74.31824 l -0.296277,0.64595 h -0.432359 l 1.316024,-2.8267 1.269515,2.8267 h -0.439249 z m -0.163642,-0.37724 -0.394462,-0.90434 -0.413411,0.90434 z m 1.615746,-1.63642 v 2.65961 h -0.401352 v -2.65961 z m 0.639064,2.65961 v -2.84048 l 1.939585,2.02916 v -1.84829 h 0.401352 v 2.82153 l -1.939584,-2.02399 v 1.86207 z"
       id="text18"
       style="font-size:3.52777px;line-height:1.25;font-family:Futura;-inkscape-font-specification:'Futura, Normal';stroke-width:0.264583"
       aria-label="GAIN" /></g><g
     inkscape:groupmode="layer"
     id="layer2"
     inkscape:label="Edge Cuts"
     style="display:inline"><path
       d="M 267.59055,636.85039 V 1122.5197 H 0 V 636.85039 h 267.59055"
       style="fill:none;stroke:#000000"
       id="path5"
       transform="matrix(0.26458333,0,0,0.26458333,50.000001,-118.5)" /><path
       d="m 110.17323,757.79528 a 14.173229,14.173229 0 0 0 -28.346458,0 14.173229,14.173229 0 0 0 28.346458,0 z"
       style="fill:none;stroke:#000000"
       id="path6"
       transform="matrix(0.26458333,0,0,0.26458333,50.000001,-118.5)" /><path
       d="m 45.92126,757.79528 a 14.173229,14.173229 0 0 0 -28.346457,0 14.173229,14.173229 0 0 0 28.346457,0 z"
       style="fill:none;stroke:#000000"
       id="path7"
       transform="matrix(0.26458333,0,0,0.26458333,50.000001,-118.5)" /><path
       d="m 110.17323,704.88189 a 14.173229,14.173229 0 0 0 -28.346458,0 14.173229,14.173229 0 0 0 28.346458,0 z"
       style="fill:none;stroke:#000000"
       id="path8"
       transform="matrix(0.26458333,0,0,0.26458333,50.000001,-118.5)" /><path
       d="m 45.92126,704.88189 a 14.173229,14.173229 0 0 0 -28.346457,0 14.173229,14.173229 0 0 0 28.346457,0 z"
       style="fill:none;stroke:#000000"
       id="path9"
       transform="matrix(0.26458333,0,0,0.26458333,50.000001,-118.5)" /><path
       d="m 174.4252,765.35433 a 14.17323,14.17323 0 0 0 -28.34646,0 14.17323,14.17323 0 0 0 28.34646,0 z"
       style="fill:none;stroke:#000000"
       id="path10"
       transform="matrix(0.26458333,0,0,0.26458333,50.000001,-118.5)" /><path
       d="m 174.4252,704.88189 a 14.17323,14.17323 0 0 0 -28.34646,0 14.17323,14.17323 0 0 0 28.34646,0 z"
       style="fill:none;stroke:#000000"
       id="path11"
       transform="matrix(0.26458333,0,0,0.26458333,50.000001,-118.5)" /><path
       d="m 246.23622,704.88189 a 14.17323,14.17323 0 0 0 -28.34646,0 14.17323,14.17323 0 0 0 28.34646,0 z"
       style="fill:none;stroke:#000000"
       id="path12"
       transform="matrix(0.26458333,0,0,0.26458333,50.000001,-118.5)" /><path
       d="m 246.23622,765.35433 a 14.17323,14.17323 0 0 0 -28.34646,0 14.17323,14.17323 0 0 0 28.34646,0 z"
       style="fill:none;stroke:#000000"
       id="path13"
       transform="matrix(0.26458333,0,0,0.26458333,50.000001,-118.5)" /><path
       d="m 45.92126,1052.5984 a 14.173229,14.173229 0 0 0 -28.346457,0 14.173229,14.173229 0 0 0 28.346457,0 z"
       style="fill:none;stroke:#000000"
       id="path14"
       transform="matrix(0.26458333,0,0,0.26458333,50.000001,-118.5)" /><path
       d="m 110.17323,1052.5984 a 14.173229,14.173229 0 0 0 -28.346458,0 14.173229,14.173229 0 0 0 28.346458,0 z"
       style="fill:none;stroke:#000000"
       id="path15"
       transform="matrix(0.26458333,0,0,0.26458333,50.000001,-118.5)" /><path
       d="m 25.133858,1003.4646 a 3.779528,3.779528 0 0 0 3.779528,3.7795"
       style="fill:none;stroke:#000000"
       id="path16"
       transform="matrix(0.26458333,0,0,0.26458333,50.000001,-118.5)" /><path
       style="fill:none;stroke:#000000"
       d="M 34.5827,1007.24 H 28.9134"
       id="path17"
       transform="matrix(0.26458333,0,0,0.26458333,50.000001,-118.5)" /><path
       d="m 34.582677,1007.2441 a 3.779528,3.779528 0 0 0 3.779528,-3.7795"
       style="fill:none;stroke:#000000"
       id="path18"
       transform="matrix(0.26458333,0,0,0.26458333,50.000001,-118.5)" /><path
       style="fill:none;stroke:#000000"
       d="M 38.3622,822.047 V 1003.46"
       id="path19"
       transform="matrix(0.26458333,0,0,0.26458333,50.000001,-118.5)" /><path
       d="m 38.362205,822.04724 a 3.779528,3.779528 0 0 0 -3.779528,-3.77952"
       style="fill:none;stroke:#000000"
       id="path20"
       transform="matrix(0.26458333,0,0,0.26458333,50.000001,-118.5)" /><path
       style="fill:none;stroke:#000000"
       d="m 28.9134,818.268 h 5.6693"
       id="path21"
       transform="matrix(0.26458333,0,0,0.26458333,50.000001,-118.5)" /><path
       d="m 28.913386,818.26772 a 3.779528,3.779528 0 0 0 -3.779528,3.77952"
       style="fill:none;stroke:#000000"
       id="path22"
       transform="matrix(0.26458333,0,0,0.26458333,50.000001,-118.5)" /><path
       style="fill:none;stroke:#000000"
       d="M 25.1339,1003.46 V 822.047"
       id="path23"
       transform="matrix(0.26458333,0,0,0.26458333,50.000001,-118.5)" /><path
       d="m 89.385827,1003.4646 a 3.779528,3.779528 0 0 0 3.779527,3.7795"
       style="fill:none;stroke:#000000"
       id="path24"
       transform="matrix(0.26458333,0,0,0.26458333,50.000001,-118.5)" /><path
       style="fill:none;stroke:#000000"
       d="M 98.8346,1007.24 H 93.1654"
       id="path25"
       transform="matrix(0.26458333,0,0,0.26458333,50.000001,-118.5)" /><path
       d="m 98.834646,1007.2441 a 3.779528,3.779528 0 0 0 3.779524,-3.7795"
       style="fill:none;stroke:#000000"
       id="path26"
       transform="matrix(0.26458333,0,0,0.26458333,50.000001,-118.5)" /><path
       style="fill:none;stroke:#000000"
       d="M 102.614,822.047 V 1003.46"
       id="path27"
       transform="matrix(0.26458333,0,0,0.26458333,50.000001,-118.5)" /><path
       d="m 102.61417,822.04724 a 3.779528,3.779528 0 0 0 -3.779524,-3.77952"
       style="fill:none;stroke:#000000"
       id="path28"
       transform="matrix(0.26458333,0,0,0.26458333,50.000001,-118.5)" /><path
       style="fill:none;stroke:#000000"
       d="m 93.1654,818.268 h 5.6692"
       id="path29"
       transform="matrix(0.26458333,0,0,0.26458333,50.000001,-118.5)" /><path
       d="m 93.165354,818.26772 a 3.779528,3.779528 0 0 0 -3.779527,3.77952"
       style="fill:none;stroke:#000000"
       id="path30"
       transform="matrix(0.26458333,0,0,0.26458333,50.000001,-118.5)" /><path
       style="fill:none;stroke:#000000"
       d="M 89.3858,1003.46 V 822.047"
       id="path31"
       transform="matrix(0.26458333,0,0,0.26458333,50.000001,-118.5)" /><path
       d="m 153.63779,1003.4646 a 3.779528,3.779528 0 0 0 3.77953,3.7795"
       style="fill:none;stroke:#000000"
       id="path32"
       transform="matrix(0.26458333,0,0,0.26458333,50.000001,-118.5)" /><path
       style="fill:none;stroke:#000000"
       d="m 163.087,1007.24 h -5.67"
       id="path33"
       transform="matrix(0.26458333,0,0,0.26458333,50.000001,-118.5)" /><path
       d="m 163.08661,1007.2441 a 3.779528,3.779528 0 0 0 3.77953,-3.7795"
       style="fill:none;stroke:#000000"
       id="path34"
       transform="matrix(0.26458333,0,0,0.26458333,50.000001,-118.5)" /><path
       style="fill:none;stroke:#000000"
       d="M 166.866,822.047 V 1003.46"
       id="path35"
       transform="matrix(0.26458333,0,0,0.26458333,50.000001,-118.5)" /><path
       d="m 166.86614,822.04724 a 3.779528,3.779528 0 0 0 -3.77953,-3.77952"
       style="fill:none;stroke:#000000"
       id="path36"
       transform="matrix(0.26458333,0,0,0.26458333,50.000001,-118.5)" /><path
       style="fill:none;stroke:#000000"
       d="m 157.417,818.268 h 5.67"
       id="path37"
       transform="matrix(0.26458333,0,0,0.26458333,50.000001,-118.5)" /><path
       d="m 157.41732,818.26772 a 3.779528,3.779528 0 0 0 -3.77953,3.77952"
       style="fill:none;stroke:#000000"
       id="path38"
       transform="matrix(0.26458333,0,0,0.26458333,50.000001,-118.5)" /><path
       style="fill:none;stroke:#000000"
       d="M 153.638,1003.46 V 822.047"
       id="path39"
       transform="matrix(0.26458333,0,0,0.26458333,50.000001,-118.5)" /><path
       d="m 225.44882,1003.4646 a 3.779528,3.779528 0 0 0 3.77953,3.7795"
       style="fill:none;stroke:#000000"
       id="path40"
       transform="matrix(0.26458333,0,0,0.26458333,50.000001,-118.5)" /><path
       style="fill:none;stroke:#000000"
       d="m 234.898,1007.24 h -5.67"
       id="path41"
       transform="matrix(0.26458333,0,0,0.26458333,50.000001,-118.5)" /><path
       d="m 234.89764,1007.2441 a 3.779528,3.779528 0 0 0 3.77952,-3.7795"
       style="fill:none;stroke:#000000"
       id="path42"
       transform="matrix(0.26458333,0,0,0.26458333,50.000001,-118.5)" /><path
       style="fill:none;stroke:#000000"
       d="M 238.677,822.047 V 1003.46"
       id="path43"
       transform="matrix(0.26458333,0,0,0.26458333,50.000001,-118.5)" /><path
       d="m 238.67716,822.04724 a 3.779528,3.779528 0 0 0 -3.77952,-3.77952"
       style="fill:none;stroke:#000000"
       id="path44"
       transform="matrix(0.26458333,0,0,0.26458333,50.000001,-118.5)" /><path
       style="fill:none;stroke:#000000"
       d="m 229.228,818.268 h 5.67"
       id="path45"
       transform="matrix(0.26458333,0,0,0.26458333,50.000001,-118.5)" /><path
       d="m 229.22835,818.26772 a 3.779528,3.779528 0 0 0 -3.77953,3.77952"
       style="fill:none;stroke:#000000"
       id="path46"
       transform="matrix(0.26458333,0,0,0.26458333,50.000001,-118.5)" /><path
       style="fill:none;stroke:#000000"
       d="M 225.449,1003.46 V 822.047"
       id="path47"
       transform="matrix(0.26458333,0,0,0.26458333,50.000001,-118.5)" /><path
       d="m 36.472441,806.92913 a 4.7244095,4.7244095 0 0 0 -9.448819,0 4.7244095,4.7244095 0 0 0 9.448819,0 z"
       style="fill:none;stroke:#000000"
       id="path48"
       transform="matrix(0.26458333,0,0,0.26458333,50.000001,-118.5)" /><path
       d="m 36.472441,1018.5827 a 4.7244095,4.7244095 0 0 0 -9.448819,0 4.7244095,4.7244095 0 0 0 9.448819,0 z"
       style="fill:none;stroke:#000000"
       id="path49"
       transform="matrix(0.26458333,0,0,0.26458333,50.000001,-118.5)" /><path
       d="m 100.72441,1018.5827 a 4.7244095,4.7244095 0 0 0 -9.448819,0 4.7244095,4.7244095 0 0 0 9.448819,0 z"
       style="fill:none;stroke:#000000"
       id="path50"
       transform="matrix(0.26458333,0,0,0.26458333,50.000001,-118.5)" /><path
       d="m 164.97638,1018.5827 a 4.72441,4.72441 0 0 0 -9.44882,0 4.72441,4.72441 0 0 0 9.44882,0 z"
       style="fill:none;stroke:#000000"
       id="path51"
       transform="matrix(0.26458333,0,0,0.26458333,50.000001,-118.5)" /><path
       d="m 236.7874,1018.5827 a 4.72441,4.72441 0 0 0 -9.44882,0 4.72441,4.72441 0 0 0 9.44882,0 z"
       style="fill:none;stroke:#000000"
       id="path52"
       transform="matrix(0.26458333,0,0,0.26458333,50.000001,-118.5)" /><path
       d="m 100.72441,806.92913 a 4.7244095,4.7244095 0 0 0 -9.448819,0 4.7244095,4.7244095 0 0 0 9.448819,0 z"
       style="fill:none;stroke:#000000"
       id="path53"
       transform="matrix(0.26458333,0,0,0.26458333,50.000001,-118.5)" /><path
       d="m 164.97638,806.92913 a 4.72441,4.72441 0 0 0 -9.44882,0 4.72441,4.72441 0 0 0 9.44882,0 z"
       style="fill:none;stroke:#000000"
       id="path54"
       transform="matrix(0.26458333,0,0,0.26458333,50.000001,-118.5)" /><path
       d="m 236.7874,806.92913 a 4.72441,4.72441 0 0 0 -9.44882,0 4.72441,4.72441 0 0 0 9.44882,0 z"
       style="fill:none;stroke:#000000"
       id="path55"
       transform="matrix(0.26458333,0,0,0.26458333,50.000001,-118.5)" /><path
       d="m 34.96063,648.18898 a 6.6141735,6.6141735 0 0 0 -13.228347,0 6.6141735,6.6141735 0 0 0 13.228347,0 z"
       style="fill:none;stroke:#000000"
       id="path56"
       transform="matrix(0.26458333,0,0,0.26458333,50.000001,-118.5)" /><path
       d="m 245.85827,648.18898 a 6.614175,6.614175 0 0 0 -13.22835,0 6.614175,6.614175 0 0 0 13.22835,0 z"
       style="fill:none;stroke:#000000"
       id="path57"
       transform="matrix(0.26458333,0,0,0.26458333,50.000001,-118.5)" /><path
       d="m 245.85827,1111.1811 a 6.614175,6.614175 0 0 0 -13.22835,0 6.614175,6.614175 0 0 0 13.22835,0 z"
       style="fill:none;stroke:#000000"
       id="path58"
       transform="matrix(0.26458333,0,0,0.26458333,50.000001,-118.5)" /><path
       d="m 34.96063,1111.1811 a 6.6141735,6.6141735 0 0 0 -13.228347,0 6.6141735,6.6141735 0 0 0 13.228347,0 z"
       style="fill:none;stroke:#000000"
       id="path59"
       transform="matrix(0.26458333,0,0,0.26458333,50.000001,-118.5)" /><g
       inkscape:label="Reference Marks"
       id="g111"
       style="display:none"
       transform="matrix(0.26458333,0,0,0.26458333,50.000001,-118.5)"><path
         style="fill:none;stroke:#ff0000"
         d="M 98.8346,757.795 H 93.1654"
         id="path60" /><path
         style="fill:none;stroke:#ff0000"
         d="m 96,760.63 v -5.669"
         id="path61" /><path
         style="fill:none;stroke:#ff0000"
         d="M 34.5827,757.795 H 28.9134"
         id="path62" /><path
         style="fill:none;stroke:#ff0000"
         d="m 31.748,760.63 v -5.669"
         id="path63" /><path
         style="fill:none;stroke:#ff0000"
         d="M 98.8346,704.882 H 93.1654"
         id="path64" /><path
         style="fill:none;stroke:#ff0000"
         d="m 96,707.717 v -5.67"
         id="path65" /><path
         style="fill:none;stroke:#ff0000"
         d="M 34.5827,704.882 H 28.9134"
         id="path66" /><path
         style="fill:none;stroke:#ff0000"
         d="m 31.748,707.717 v -5.67"
         id="path67" /><path
         style="fill:none;stroke:#ff0000"
         d="m 163.087,765.354 h -5.67"
         id="path68" /><path
         style="fill:none;stroke:#ff0000"
         d="M 160.252,768.189 V 762.52"
         id="path69" /><path
         style="fill:none;stroke:#ff0000"
         d="m 163.087,704.882 h -5.67"
         id="path70" /><path
         style="fill:none;stroke:#ff0000"
         d="m 160.252,707.717 v -5.67"
         id="path71" /><path
         style="fill:none;stroke:#ff0000"
         d="m 234.898,704.882 h -5.67"
         id="path72" /><path
         style="fill:none;stroke:#ff0000"
         d="m 232.063,707.717 v -5.67"
         id="path73" /><path
         style="fill:none;stroke:#ff0000"
         d="m 234.898,765.354 h -5.67"
         id="path74" /><path
         style="fill:none;stroke:#ff0000"
         d="M 232.063,768.189 V 762.52"
         id="path75" /><path
         style="fill:none;stroke:#ff0000"
         d="M 34.5827,1052.6 H 28.9134"
         id="path76" /><path
         style="fill:none;stroke:#ff0000"
         d="m 31.748,1055.43 v -5.67"
         id="path77" /><path
         style="fill:none;stroke:#ff0000"
         d="M 98.8346,1052.6 H 93.1654"
         id="path78" /><path
         style="fill:none;stroke:#ff0000"
         d="m 96,1055.43 v -5.67"
         id="path79" /><path
         style="fill:none;stroke:#ff0000"
         d="M 34.5827,912.756 H 28.9134"
         id="path80" /><path
         style="fill:none;stroke:#ff0000"
         d="m 31.748,915.591 v -5.67"
         id="path81" /><path
         style="fill:none;stroke:#ff0000"
         d="M 98.8346,912.756 H 93.1654"
         id="path82" /><path
         style="fill:none;stroke:#ff0000"
         d="m 96,915.591 v -5.67"
         id="path83" /><path
         style="fill:none;stroke:#ff0000"
         d="m 163.087,912.756 h -5.67"
         id="path84" /><path
         style="fill:none;stroke:#ff0000"
         d="m 160.252,915.591 v -5.67"
         id="path85" /><path
         style="fill:none;stroke:#ff0000"
         d="m 234.898,912.756 h -5.67"
         id="path86" /><path
         style="fill:none;stroke:#ff0000"
         d="m 232.063,915.591 v -5.67"
         id="path87" /><path
         style="fill:none;stroke:#ff0000"
         d="M 34.5827,806.929 H 28.9134"
         id="path88" /><path
         style="fill:none;stroke:#ff0000"
         d="m 31.748,809.764 v -5.67"
         id="path89" /><path
         style="fill:none;stroke:#ff0000"
         d="M 34.5827,1018.58 H 28.9134"
         id="path90" /><path
         style="fill:none;stroke:#ff0000"
         d="m 31.748,1021.42 v -5.67"
         id="path91" /><path
         style="fill:none;stroke:#ff0000"
         d="M 98.8346,1018.58 H 93.1654"
         id="path92" /><path
         style="fill:none;stroke:#ff0000"
         d="m 96,1021.42 v -5.67"
         id="path93" /><path
         style="fill:none;stroke:#ff0000"
         d="m 163.087,1018.58 h -5.67"
         id="path94" /><path
         style="fill:none;stroke:#ff0000"
         d="m 160.252,1021.42 v -5.67"
         id="path95" /><path
         style="fill:none;stroke:#ff0000"
         d="m 234.898,1018.58 h -5.67"
         id="path96" /><path
         style="fill:none;stroke:#ff0000"
         d="m 232.063,1021.42 v -5.67"
         id="path97" /><path
         style="fill:none;stroke:#ff0000"
         d="M 98.8346,806.929 H 93.1654"
         id="path98" /><path
         style="fill:none;stroke:#ff0000"
         d="m 96,809.764 v -5.67"
         id="path99" /><path
         style="fill:none;stroke:#ff0000"
         d="m 163.087,806.929 h -5.67"
         id="path100" /><path
         style="fill:none;stroke:#ff0000"
         d="m 160.252,809.764 v -5.67"
         id="path101" /><path
         style="fill:none;stroke:#ff0000"
         d="m 234.898,806.929 h -5.67"
         id="path102" /><path
         style="fill:none;stroke:#ff0000"
         d="m 232.063,809.764 v -5.67"
         id="path103" /><path
         style="fill:none;stroke:#ff0000"
         d="M 31.1811,648.189 H 25.5118"
         id="path104" /><path
         style="fill:none;stroke:#ff0000"
         d="m 28.3465,651.024 v -5.67"
         id="path105" /><path
         style="fill:none;stroke:#ff0000"
         d="m 242.079,648.189 h -5.67"
         id="path106" /><path
         style="fill:none;stroke:#ff0000"
         d="m 239.244,651.024 v -5.67"
         id="path107" /><path
         style="fill:none;stroke:#ff0000"
         d="m 242.079,1111.18 h -5.67"
         id="path108" /><path
         style="fill:none;stroke:#ff0000"
         d="m 239.244,1114.02 v -5.67"
         id="path109" /><path
         style="fill:none;stroke:#ff0000"
         d="M 31.1811,1111.18 H 25.5118"
         id="path110" /><path
         style="fill:none;stroke:#ff0000"
         d="m 28.3465,1114.02 v -5.67"
         id="path111" /></g></g></svg>
